<svg version="1.2" baseProfile="tiny" xmlns="http://www.w3.org/2000/svg" viewBox="3.8 261.9 214.7 258.4"><g><path fill="#5D4D78" d="M63.1 494.5c4.6 6.7 11.2 10.6 16.4 10.2 2.8 2.5 6 4.7 9.3 6.6 2.9 5.4 15.4 9.3 30.2 9 14.7-.3 26.8-4.5 29.7-10 17.1-10.5 28.3-29.4 28-50.8 6-4.9 6-16.8-.3-27.6-4.8-8.2-11.9-13.5-18.2-14.4-10.8-10.2-25.4-16.3-41.4-16-6.2.1-12.1 1.2-17.7 3.1-4.4-.6-9.9.6-15.1 3.8-6.2 3.7-10.2 9.2-11 14-8.9 10.5-14.1 24.2-13.8 39 .1 4.2.6 8.3 1.5 12.2-3.7 4.5-2.9 13.2 2.4 20.9z"/><path fill="#9184AD" d="M95.3 473.6c13.9 23.8 43.3 33.1 68.8 23.1 8.1-10.2 12.9-23.2 12.7-37.3l-1.2.9c-7.2 4.2-18.5-1.7-25.2-13.2-6.7-11.5-6.3-24.2 1-28.4 2.1-1.2 4.5-1.6 7.1-1.2-10.8-10.2-25.4-16.3-41.4-16-2.6 0-5.2.3-7.7.7-21.7 17.3-28.1 47.6-14.1 71.4z"/><ellipse transform="matrix(.864 -.504 .504 .864 -199.304 142.244)" fill="#35267B" cx="163.3" cy="439.6" rx="11.8" ry="20.9"/><ellipse transform="matrix(.864 -.504 .504 .864 -199.304 142.244)" fill="#9184AD" cx="163.3" cy="439.6" rx="9.6" ry="19.3"/><ellipse transform="matrix(.864 -.504 .504 .864 -200.15 141.405)" fill="#5D4D78" cx="161.3" cy="440.7" rx="7.4" ry="17.8"/></g><ellipse fill="#5D4D78" cx="117.5" cy="306.8" rx="32" ry="14.4"/><path fill="#5D4D78" d="M128.3 334.3l2.5.7-.3 1.3-2.5-.7-.8-.2-2 2.2 5.2 1.4s1.8-.5 2.3-3c.5-2.6-.6-3.3-.6-3.3l-5.2-1.4.6 2.9.8.1z"/><path fill="#35267B" d="M127.1 333.9l-.4 1.3-.8-.2-1.9 2.2 1.3.3 1.9-2.2.8.3 2.5.7.4-1.3-2.6-.7-.7-.2-.6-2.9-1.3-.3.6 2.8z"/><path fill="#5D4D78" d="M129.3 334.6l2.6.6-.3 1.3-2.6-.6-.8-.2-1.9 2.3 5.3 1.2s1.7-.5 2.2-3.1c.4-2.6-.7-3.3-.7-3.3l-5.3-1.2.7 2.9.8.1z"/><path fill="#35267B" d="M128.1 334.3l-.3 1.3-.8-.2-1.9 2.2 1.3.3 1.9-2.2.7.2 2.6.6.3-1.3-2.6-.6-.7-.2-.7-2.8-1.3-.3.7 2.8z"/><path fill="#5D4D78" d="M132.2 335.2l2.6.5-.2 1.3-2.6-.5-.8-.1-1.8 2.3 5.3 1s1.7-.6 2-3.2l-.9-3.2-5.3-1 .8 2.8.9.1z"/><path fill="#35267B" d="M130.9 334.9l-.2 1.3-.8-.1-1.8 2.3 1.3.3 1.8-2.4.7.2 2.6.4.3-1.3-2.6-.4-.8-.2-.8-2.8-1.3-.2.8 2.8z"/><path fill="#5D4D78" d="M136.4 335.8l2.6.3-.1 1.3-2.6-.3-.8-.1-1.6 2.5 5.4.6s1.7-.7 1.8-3.3l-1.1-3.2-5.4-.6 1 2.8h.8z"/><path fill="#35267B" d="M135.1 335.7l-.2 1.3-.8-.1-1.6 2.5 1.3.1 1.7-2.4h.7l2.6.3.2-1.3-2.6-.3-.8-.1-1-2.7-1.3-.2 1 2.8z"/><path fill="#5D4D78" d="M141.5 336.3l2.6.1v1.3l-2.6-.1h-.8l-1.4 2.6 5.4.2s1.6-.9 1.5-3.5l-1.3-3.1-5.4-.2 1.2 2.7h.8z"/><path fill="#35267B" d="M140.2 336.2v1.4l-.8-.1-1.4 2.6 1.3.1 1.4-2.6h.8l2.6.1.1-1.3-2.7-.1h-.8l-1.2-2.7h-1.3l1.2 2.6z"/><path fill="#5D4D78" d="M147.2 336.3l2.6-.2.1 1.3-2.6.2-.8.1-1.1 2.7 5.4-.4s1.5-1 1.1-3.6l-1.7-2.9-5.4.4 1.5 2.5.9-.1z"/><path fill="#35267B" d="M145.9 336.4l.1 1.3-.8.1-1.1 2.7 1.3-.1 1.1-2.7.8-.1 2.6-.2-.1-1.3-2.6.2h-.8l-1.5-2.5-1.3.1 1.5 2.6z"/><path fill="#5D4D78" d="M152.9 335.5l2.5-.6.3 1.3-2.5.6-.8.2-.6 2.9 5.3-1.3s1.3-1.3.5-3.8l-2.1-2.6-5.3 1.3 1.9 2.2.8-.2z"/><path fill="#35267B" d="M151.7 335.9l.3 1.2-.8.2-.7 2.9 1.3-.3.7-2.9.7-.2 2.6-.6-.3-1.3-2.6.6-.7.2-1.9-2.2-1.3.3 1.9 2.3z"/><path fill="#5D4D78" d="M158.3 333.9l2.3-1.2.6 1.2-2.3 1.2-.7.4v2.9l4.8-2.4s1-1.5-.3-3.8-2.6-2.1-2.6-2.1l-4.8 2.4 2.4 1.7.6-.3z"/><path fill="#35267B" d="M157.1 334.5l.6 1.1-.7.4v2.9l1.2-.6v-2.9l.7-.4 2.3-1.2-.6-1.1-2.3 1.2-.7.3-2.4-1.7-1.1.6 2.3 1.7z"/><path fill="#5D4D78" d="M162.9 331l1.9-1.8.9.9-1.9 1.8-.6.6.9 2.8 3.8-3.8s.5-1.8-1.5-3.5-3.1-1.2-3.1-1.2l-3.8 3.8 2.8.9.6-.5z"/><path fill="#35267B" d="M162 331.9l.9.9-.5.6.9 2.8.9-1-.9-2.7.6-.6 1.8-1.8-.9-1-1.9 1.9-.5.5-2.8-.9-.9.9 2.7 1z"/><g><path fill="#5D4D78" d="M167.6 327l2.1-1.6.8 1-2.1 1.6-.6.5.6 2.9 4.3-3.3s.7-1.7-1-3.7l-3-1.5-4.3 3.3 2.6 1.3.6-.5z"/><path fill="#35267B" d="M166.5 327.8l.8 1-.6.5.6 2.9 1-.8-.6-2.9.7-.5 2-1.6-.8-1-2 1.6-.7.5-2.6-1.3-1 .8 2.6 1.3z"/></g><g><path fill="#5D4D78" d="M172.2 323.8l2.2-1.4.7 1.1-2.2 1.4-.7.4.3 2.9 4.6-2.9s.8-1.6-.7-3.7c-1.6-2.1-2.8-1.8-2.8-1.8l-4.6 2.9 2.5 1.5.7-.4z"/><path fill="#35267B" d="M171.1 324.5l.7 1.1-.7.4.3 2.9 1.1-.7-.3-2.9.7-.4 2.2-1.4-.7-1.1-2.2 1.4-.7.4-2.5-1.5-1.1.7 2.5 1.5z"/></g><g><path fill="#5D4D78" d="M176.7 321.1l2.3-1.3.7 1.1-2.3 1.3-.7.4.2 2.9 4.7-2.7s.9-1.6-.6-3.8l-2.7-1.9-4.7 2.7 2.5 1.6.6-.3z"/><path fill="#35267B" d="M175.5 321.8l.7 1.1-.7.4.2 2.9 1.1-.6-.1-3 .6-.4 2.3-1.3-.7-1.1-2.2 1.3-.7.4-2.5-1.6-1.1.7 2.5 1.6z"/></g><g><path fill="#5D4D78" d="M181 318.6l2.2-1.4.7 1.1-2.2 1.4-.7.4.2 2.9 4.6-2.8s.9-1.6-.6-3.7c-1.5-2.2-2.8-1.9-2.8-1.9l-4.6 2.8 2.5 1.6.7-.4z"/><path fill="#35267B" d="M179.9 319.3l.7 1.1-.7.4.2 2.9 1.2-.6-.3-3 .7-.4 2.2-1.3-.6-1.1-2.3 1.3-.7.4-2.4-1.5-1.2.6 2.5 1.6z"/></g><g><path fill="#5D4D78" d="M185.1 316l2.1-1.5.8 1.1-2.1 1.5-.6.5.5 2.9 4.4-3.2s.8-1.7-.9-3.7c-1.7-2-2.9-1.6-2.9-1.6l-4.4 3.2 2.6 1.4.5-.6z"/><path fill="#35267B" d="M184.1 316.8l.7 1-.6.5.5 2.9 1-.8-.5-2.9.7-.4 2.1-1.6-.7-1-2.2 1.5-.6.5-2.6-1.4-1.1.8 2.6 1.3z"/></g><g><path fill="#5D4D78" d="M189 313l1.9-1.8.9 1-1.9 1.8-.6.5.9 2.8 3.9-3.7s.5-1.7-1.4-3.5-3.1-1.2-3.1-1.2l-3.9 3.7 2.8 1 .5-.6z"/><path fill="#35267B" d="M188 313.9l.9.9-.6.6.9 2.8.9-.9-.8-2.8.6-.6 1.9-1.8-.9-.9-1.9 1.8-.6.5-2.8-1-.9.9 2.7 1z"/></g><g><path fill="#5D4D78" d="M192.5 309.1l1.6-2.1 1.1.8-1.6 2.1-.5.6 1.3 2.6 3.2-4.3s.2-1.8-2-3.2c-2.2-1.4-3.3-.7-3.3-.7l-3.2 4.3 2.9.5.5-.6z"/><path fill="#35267B" d="M191.7 310.2l1 .8-.4.6 1.3 2.6.8-1-1.4-2.6.5-.7 1.6-2.1-1.1-.8-1.5 2.1-.5.7-2.9-.5-.8 1 2.9.5z"/></g><g><path fill="#5D4D78" d="M195.6 304.2l1.2-2.3 1.2.6-1.2 2.3-.4.7 1.7 2.4 2.5-4.8s-.1-1.8-2.5-2.9l-3.3-.1-2.5 4.8h2.9l.4-.7z"/><path fill="#35267B" d="M195 305.4l1.2.6-.4.7 1.7 2.3.6-1.1-1.7-2.4.4-.7 1.2-2.4-1.2-.5-1.2 2.3-.4.7h-2.9l-.6 1.1 2.9.1z"/></g><path fill="#5D4D78" d="M197.5 298.4l.2-2.6 1.3.1-.2 2.6-.1.8 2.5 1.5.3-5.4s-.8-1.6-3.4-1.6l-3.1 1.2-.3 5.4 2.7-1.1.1-.9z"/><path fill="#35267B" d="M197.4 299.8h1.3l-.1.8 2.6 1.5.1-1.3-2.6-1.5.1-.8.1-2.6-1.3-.1-.1 2.6-.1.8-2.7 1.2-.1 1.3 2.7-1.1z"/><path fill="#5D4D78" d="M197.1 293l-.8-2.5 1.2-.4.8 2.5.2.8 2.9.4-1.7-5.1s-1.3-1.2-3.8-.3c-2.4 1-2.4 2.3-2.4 2.3l1.7 5.1 2.1-2.1-.2-.7z"/><path fill="#35267B" d="M197.5 294.3l1.2-.4.3.7 2.9.5-.4-1.3-2.9-.4-.3-.8-.8-2.5-1.2.4.8 2.5.2.8-2.1 2 .4 1.3 2.1-2.1z"/><path fill="#5D4D78" d="M194.9 288l-1.5-2.2 1.1-.7 1.5 2.2.4.7 2.9-.4-3-4.5s-1.6-.8-3.7.8l-1.7 2.9 3 4.5 1.4-2.6-.4-.7z"/><path fill="#35267B" d="M195.7 289.1l1-.7.5.6 2.9-.3-.7-1.1-3 .4-.4-.7-1.5-2.2-1.1.8 1.5 2.1.5.7-1.5 2.6.8 1 1.4-2.5z"/><path fill="#5D4D78" d="M191.7 283.6l-1.9-1.8.9-.9 1.9 1.8.6.6 2.8-.9-3.9-3.8s-1.8-.5-3.5 1.5l-1.1 3.2 3.9 3.8.9-2.8-.6-.7z"/><path fill="#35267B" d="M192.6 284.6l.9-1 .6.6 2.7-1-.9-.9-2.8 1-.5-.6-1.9-1.8-.9.9 1.9 1.8.5.6-.9 2.8.9.9 1-2.8z"/><path fill="#5D4D78" d="M187.9 280l-2.1-1.6.8-1.1 2.1 1.6.6.5 2.6-1.3-4.3-3.2s-1.8-.2-3.2 2l-.7 3.3 4.3 3.2.5-2.9-.6-.5z"/><path fill="#35267B" d="M189 280.8l.8-1.1.6.5 2.6-1.3-1-.8-2.6 1.3-.7-.4-2.1-1.6-.8 1 2.1 1.6.7.5-.5 2.9 1 .8.5-2.9z"/><path fill="#5D4D78" d="M184.5 277.3l-2.2-1.4.7-1.1 2.2 1.4.7.4 2.5-1.6-4.6-2.8s-1.8 0-3 2.3-.4 3.3-.4 3.3l4.6 2.8.2-2.9-.7-.4z"/><path fill="#35267B" d="M185.6 277.9l.7-1.1.7.4 2.4-1.6-1.1-.6-2.5 1.5-.6-.4-2.3-1.3-.7 1.1 2.3 1.4.7.4-.3 2.9 1.2.7.2-3z"/><path fill="#5D4D78" d="M181.9 275.5l-2.3-1.2.6-1.2 2.3 1.2.7.4 2.3-1.8-4.8-2.4s-1.8.1-2.8 2.5c-1 2.4-.1 3.3-.1 3.3l4.8 2.4v-2.9l-.7-.3z"/><path fill="#35267B" d="M183.1 276.1l.6-1.2.7.4 2.3-1.8-1.1-.6-2.4 1.8-.7-.4-2.3-1.1-.6 1.1 2.3 1.2.7.4v2.9l1.2.6v-2.9z"/><path fill="#5D4D78" d="M128.4 335.6l2.6.5-.2 1.3-2.6-.5-.8-.2-1.8 2.3 5.3 1s1.7-.6 2.1-3.2c.3-2.6-.8-3.2-.8-3.2l-5.3-1 .8 2.8.7.2z"/><path fill="#35267B" d="M127.1 335.4l-.2 1.3-.8-.2-1.8 2.3 1.3.3 1.8-2.4.8.2 2.5.5.3-1.3-2.6-.5-.8-.1-.8-2.9-1.2-.2.7 2.8z"/><path fill="#5D4D78" d="M129 335.7l2.6.5-.3 1.3-2.6-.5-.8-.2-1.8 2.3 5.3 1.1s1.7-.6 2.1-3.2l-.8-3.3-5.3-1.1.7 2.8.9.3z"/><path fill="#35267B" d="M127.7 335.5l-.3 1.3-.7-.2-1.9 2.3 1.3.3 1.8-2.3.8.1 2.6.6.3-1.3-2.6-.6-.8-.1-.7-2.9-1.3-.2.7 2.8z"/><path fill="#5D4D78" d="M130.6 336.1l2.6.6-.3 1.3-2.6-.6-.8-.2-1.9 2.3 5.3 1.2s1.7-.5 2.2-3.1c.4-2.6-.7-3.3-.7-3.3l-5.3-1.2.7 2.9.8.1z"/><path fill="#35267B" d="M129.3 335.8l-.3 1.3-.7-.2-1.9 2.2 1.3.3 1.8-2.2.8.2 2.6.6.3-1.3-2.6-.6-.8-.2-.6-2.9-1.3-.3.7 2.9z"/><path fill="#5D4D78" d="M133.2 336.7l2.5.7-.3 1.3-2.5-.7-.8-.2-1.9 2.2 5.2 1.4s1.8-.5 2.3-3.1c.5-2.6-.6-3.3-.6-3.3l-5.2-1.4.6 2.9.7.2z"/><path fill="#35267B" d="M131.9 336.4l-.3 1.2-.8-.2-1.9 2.2 1.2.4 2-2.2.7.2 2.6.6.3-1.2-2.5-.7-.8-.2-.6-2.9-1.3-.3.6 2.9z"/><path fill="#5D4D78" d="M136.5 337.6l2.5.7-.4 1.3-2.5-.7-.8-.2-2 2.2 5.2 1.5s1.8-.4 2.3-3c.6-2.6-.5-3.3-.5-3.3l-5.2-1.5.5 2.9.9.1z"/><path fill="#35267B" d="M135.2 337.2l-.4 1.3-.7-.2-2 2.1 1.2.4 2-2.2.8.3 2.5.7.4-1.3-2.5-.7-.8-.2-.5-2.9-1.3-.4.5 2.9z"/><path fill="#5D4D78" d="M140.4 338.8l2.5.8-.4 1.2-2.5-.8-.8-.2-2.1 2.1 5.1 1.7s1.8-.4 2.4-2.9l-.4-3.3-5.1-1.7.4 2.9.9.2z"/><path fill="#35267B" d="M139.2 338.4l-.4 1.3-.8-.3-2.1 2.1 1.3.4 2.1-2.1.7.3 2.5.8.4-1.3-2.5-.8-.7-.2-.5-2.9-1.2-.4.4 2.9z"/><path fill="#5D4D78" d="M144.9 340.4l2.5.9-.5 1.2-2.5-.9-.7-.3-2.1 2 5.1 1.9s1.8-.3 2.5-2.8c.8-2.5-.3-3.3-.3-3.3l-5.1-1.9.3 2.9.8.3z"/><path fill="#35267B" d="M143.6 340l-.4 1.2-.8-.3-2.1 2 1.2.5 2.2-2 .7.2 2.5 1 .4-1.3-2.4-.9-.8-.3-.3-2.9-1.2-.4.3 2.9z"/><path fill="#5D4D78" d="M149.7 342.4l2.4 1-.5 1.2-2.4-1-.7-.3-2.2 1.9 5 2.1s1.8-.2 2.7-2.7c.9-2.5-.1-3.3-.1-3.3l-5-2.1.2 2.9.6.3z"/><path fill="#35267B" d="M148.5 341.9l-.5 1.2-.8-.3-2.2 1.9 1.2.5 2.2-1.9.8.3 2.4 1 .5-1.2-2.4-1-.7-.3-.2-3-1.2-.5.1 3z"/><path fill="#5D4D78" d="M154.7 344.7l2.4 1.1-.6 1.2-2.4-1.1-.7-.3-2.3 1.8 4.9 2.4s1.8-.1 2.8-2.6c1-2.5 0-3.3 0-3.3l-4.9-2.4v2.9l.8.3z"/><path fill="#35267B" d="M153.6 344.2l-.6 1.2-.7-.4-2.4 1.8 1.2.6 2.3-1.8.8.3 2.3 1.2.6-1.2-2.4-1.2-.7-.3v-2.9l-1.2-.6v2.9z"/><path fill="#5D4D78" d="M160.3 348.4l2 1.7-.9 1-2-1.7-.6-.5-2.7 1.1 4.1 3.5s1.8.3 3.4-1.8l.9-3.2-4.1-3.5-.7 2.8.6.6z"/><path fill="#35267B" d="M159.3 347.5l-.8 1-.6-.5-2.7 1.1 1 .9 2.7-1.1.6.5 2 1.7.8-1-2-1.7-.6-.5.7-2.9-.9-.8-.8 2.8z"/><path fill="#5D4D78" d="M164.5 352.8l1.6 2.1-1 .8-1.6-2.1-.5-.6-2.9.5 3.3 4.3s1.7.7 3.7-1 1.6-3 1.6-3l-3.3-4.3-1.3 2.6.4.7z"/><path fill="#35267B" d="M163.7 351.8l-1 .8-.5-.7-2.9.6.8 1 2.9-.5.5.6 1.6 2.1 1-.8-1.6-2.1-.4-.6 1.3-2.6-.8-1.1-1.3 2.6z"/><path fill="#5D4D78" d="M167.7 357.7l1.3 2.3-1.1.6-1.3-2.3-.4-.7-2.9.1 2.7 4.7s1.6.9 3.8-.5c2.2-1.4 1.9-2.7 1.9-2.7l-2.7-4.7-1.6 2.4.3.8z"/><path fill="#35267B" d="M167.1 356.5l-1.2.7-.4-.7-2.9.1.6 1.2 3-.2.4.7 1.3 2.3 1.1-.6-1.3-2.3-.4-.7 1.7-2.4-.7-1.2-1.6 2.5z"/><path fill="#5D4D78" d="M170.3 362.6l1.2 2.3-1.2.6-1.2-2.3-.4-.7h-2.9l2.4 4.8s1.5 1 3.8-.3 2.1-2.6 2.1-2.6l-2.4-4.8-1.8 2.4.4.6z"/><path fill="#35267B" d="M169.7 361.4l-1.2.6-.4-.7h-2.9l.6 1.2h2.9l.4.7 1.2 2.3 1.1-.6-1.1-2.3-.4-.7 1.7-2.4-.5-1.2-1.8 2.4z"/><path fill="#5D4D78" d="M172.6 367.1l1.3 2.3-1.1.7-1.3-2.3-.4-.7-2.9.2 2.7 4.7s1.6.9 3.8-.5c2.2-1.5 1.9-2.7 1.9-2.7l-2.7-4.7-1.6 2.4.3.6z"/><path fill="#35267B" d="M171.9 366l-1.1.7-.4-.7-2.9.1.6 1.2 3-.2.4.7 1.3 2.3 1.1-.7-1.3-2.3-.4-.7 1.6-2.4-.6-1.1-1.7 2.4z"/><path fill="#5D4D78" d="M175.1 371l1.7 2-1 .9-1.7-2-.5-.6-2.8.7 3.5 4.1s1.7.6 3.6-1.2c1.9-1.8 1.4-3 1.4-3l-3.5-4.1-1.1 2.7.4.5z"/><path fill="#35267B" d="M174.3 370l-1 .9-.6-.6-2.8.7.9 1 2.8-.7.5.6 1.7 1.9 1-.8-1.7-2-.5-.6 1.1-2.7-.8-1-1.2 2.7z"/><path fill="#5D4D78" d="M178.2 373.9l2.3 1.3-.7 1.1-2.3-1.3-.7-.4-2.5 1.6 4.7 2.7s1.8 0 3-2.3.3-3.3.3-3.3l-4.7-2.7-.2 2.9.8.4z"/><path fill="#35267B" d="M177.1 373.2l-.7 1.2-.7-.4-2.4 1.6 1.1.6 2.5-1.6.6.4 2.3 1.4.7-1.2-2.3-1.3-.7-.4.2-2.9-1.1-.7-.2 2.9z"/><path fill="#5D4D78" d="M182.4 375.5l2.6.4-.2 1.3-2.6-.4-.8-.1-1.7 2.4 5.4.8s1.7-.7 1.9-3.3c.2-2.6-1-3.2-1-3.2l-5.4-.8.9 2.8.9.1z"/><path fill="#35267B" d="M181.1 375.4l-.2 1.3-.8-.2-1.6 2.5 1.3.1 1.6-2.4.8.1 2.6.4.2-1.3-2.6-.4-.8-.1-.9-2.7-1.3-.2.9 2.8z"/><path fill="#5D4D78" d="M187.6 375.4l2.5-.7.4 1.3-2.5.7-.8.2-.5 2.9 5.2-1.5s1.3-1.3.4-3.8l-2.2-2.5-5.2 1.5 2 2.2.7-.3z"/><path fill="#35267B" d="M186.3 375.8l.4 1.2-.8.3-.5 2.8 1.2-.3.6-2.9.7-.2 2.6-.7-.4-1.3-2.5.7-.8.2-2-2.1-1.2.3 2 2.2z"/><path fill="#5D4D78" d="M192.3 373.4l2.2-1.5.7 1.1-2.2 1.5-.7.5.4 2.9 4.4-3.1s.8-1.6-.8-3.7-2.9-1.7-2.9-1.7l-4.4 3.1 2.6 1.4.7-.5z"/><path fill="#35267B" d="M191.2 374.2l.8 1-.7.5.5 2.9 1-.7-.4-2.9.7-.5 2.1-1.5-.7-1.1-2.2 1.5-.6.5-2.6-1.4-1.1.7 2.6 1.4z"/><path fill="#5D4D78" d="M196.5 370l1.8-1.9 1 .9-1.8 1.9-.5.6 1.1 2.7 3.6-4s.4-1.8-1.7-3.4c-2.1-1.6-3.2-1-3.2-1l-3.6 4 2.8.8.5-.6z"/><path fill="#35267B" d="M195.6 371l1 .9-.5.6 1 2.7.9-.9-1-2.8.5-.6 1.8-1.9-1-.9-1.8 1.9-.5.6-2.8-.8-.9 1 2.8.8z"/><path fill="#5D4D78" d="M200.1 365.9l1.4-2.2 1.1.7-1.4 2.2-.4.7 1.5 2.5 3-4.5s.1-1.8-2.2-3.1c-2.3-1.3-3.3-.5-3.3-.5l-3 4.5 2.9.3.4-.6z"/><path fill="#35267B" d="M199.4 367l1.1.7-.5.7 1.5 2.5.7-1.1-1.5-2.5.5-.7 1.4-2.2-1.1-.7-1.4 2.2-.5.7-2.9-.4-.7 1.1 2.9.4z"/><path fill="#5D4D78" d="M202.9 361.7l1.2-2.3 1.2.6-1.2 2.3-.4.7 1.7 2.4 2.4-4.8s-.1-1.8-2.5-2.9c-2.4-1-3.3-.1-3.3-.1l-2.4 4.8h2.9l.4-.7z"/><path fill="#35267B" d="M202.3 362.8l1.2.6-.4.7 1.8 2.4.6-1.2-1.8-2.3.4-.8 1.2-2.3-1.2-.6-1.2 2.4-.3.7-3-.1-.6 1.2h3z"/><path fill="#5D4D78" d="M205 357.9l1-2.4 1.2.5-1 2.4-.3.7 1.9 2.2 2-5s-.2-1.8-2.7-2.6-3.3.2-3.3.2l-2 5 2.9-.2.3-.8z"/><path fill="#35267B" d="M204.5 359.1l1.3.5-.3.7 1.9 2.2.5-1.2-2-2.2.3-.7 1-2.5-1.2-.5-1 2.5-.3.7-2.9.2-.5 1.2 2.9-.2z"/><path fill="#5D4D78" d="M206.3 355.2l.8-2.5 1.2.4-.8 2.5-.3.8 2.1 2.1 1.7-5.1s-.4-1.8-2.9-2.5-3.3.4-3.3.4l-1.7 5.1 2.9-.4.3-.8z"/><path fill="#35267B" d="M205.8 356.4l1.3.4-.3.8 2.1 2 .4-1.2-2.1-2.1.3-.7.8-2.5-1.2-.4-.9 2.5-.2.7-2.9.4-.4 1.3 2.9-.4z"/><path fill="#5D4D78" d="M105.8 333.2l-1.4 2.2 1.1.7 1.4-2.2.4-.7 2.9.3-2.9 4.6s-1.6.8-3.7-.7c-2.1-1.6-1.8-2.8-1.8-2.8l2.9-4.6 1.5 2.5-.4.7z"/><path fill="#35267B" d="M106.5 332.1l1.1.7.4-.7 3 .4-.8 1.1-2.9-.4-.4.7-1.4 2.2-1.1-.7 1.4-2.2.4-.7-1.5-2.5.7-1.1 1.5 2.5z"/><path fill="#5D4D78" d="M105.3 333.9l-1.5 2.1 1.1.8 1.5-2.1.5-.6 2.9.5-3.2 4.4s-1.7.8-3.7-.9c-2-1.7-1.6-2.9-1.6-2.9l3.2-4.4 1.4 2.6-.6.5z"/><path fill="#35267B" d="M106.1 332.9l1.1.8.4-.7 2.9.5-.7 1-2.9-.4-.5.6-1.5 2.1-1.1-.7 1.5-2.2.5-.6-1.4-2.6.8-1.1 1.4 2.6z"/><path fill="#5D4D78" d="M103.9 335.8l-1.7 2 1 .8 1.7-2 .5-.6 2.9.7-3.4 4.2s-1.7.6-3.6-1.2c-1.9-1.8-1.4-3-1.4-3l3.4-4.2 1.2 2.7-.6.6z"/><path fill="#35267B" d="M104.7 334.8l1.1.9.5-.6 2.8.6-.8 1-2.9-.6-.5.6-1.6 2-1.1-.8 1.7-2.1.5-.6-1.2-2.7.9-1 1.2 2.7z"/><path fill="#5D4D78" d="M101.6 338.5l-1.8 1.9.9.9 1.8-1.9.6-.6 2.8.9-3.8 3.9s-1.7.5-3.5-1.5l-1.2-3.1 3.8-3.9 1 2.8-.6.6z"/><path fill="#35267B" d="M102.5 337.5l1 1 .5-.6 2.8.9-.9.9-2.8-.9-.5.6-1.9 1.9-.9-1 1.8-1.8.6-.6-1-2.8.9-.9 1 2.8z"/><path fill="#5D4D78" d="M98.6 341.4l-2 1.7.8 1 2-1.7.6-.5 2.7 1.2-4.2 3.4s-1.8.3-3.3-1.8l-.8-3.2 4.2-3.4.6 2.9-.6.4z"/><path fill="#35267B" d="M99.6 340.5l.8 1.1.6-.5 2.7 1.2-1 .8-2.7-1.2-.6.5-2 1.6-.9-1 2.1-1.6.6-.5-.7-2.9 1.1-.8.6 2.8z"/><path fill="#5D4D78" d="M94.9 344.1l-2.3 1.3.7 1.1 2.3-1.3.7-.4 2.5 1.6-4.7 2.7s-1.8 0-3-2.3-.3-3.3-.3-3.3l4.7-2.7.2 2.9-.8.4z"/><path fill="#35267B" d="M96 343.5l.6 1.1.7-.4 2.5 1.6-1.1.7-2.5-1.6-.7.4-2.2 1.3-.7-1.1 2.3-1.4.6-.4-.2-2.9 1.2-.7.2 3z"/><path fill="#5D4D78" d="M90.6 346.3l-2.5.8.4 1.2 2.5-.8.8-.3 2.1 2.1-5.1 1.7s-1.8-.4-2.5-2.9.4-3.3.4-3.3l5.1-1.7-.4 2.9-.8.3z"/><path fill="#35267B" d="M91.8 345.9l.4 1.2.8-.2 2.1 2.1-1.3.4-2-2.1-.8.3-2.5.8-.4-1.3 2.5-.8.7-.2.5-2.9 1.2-.5-.4 2.9z"/><path fill="#5D4D78" d="M85.8 347.5l-2.6.1.1 1.3 2.6-.1h.8l1.4 2.6-5.4.3s-1.6-.8-1.6-3.4c0-2.6 1.3-3.1 1.3-3.1l5.4-.3-1.2 2.7-.8-.1z"/><path fill="#35267B" d="M87.2 347.4v1.3h.8l1.5 2.5-1.4.1-1.4-2.5h-.8l-2.6.1-.1-1.3 2.6-.1.8-.1 1.2-2.6 1.3-.1-1.1 2.7z"/><path fill="#5D4D78" d="M80.7 347.2l-2.5-.7-.3 1.3 2.5.7.8.2.6 2.9-5.2-1.4s-1.3-1.3-.4-3.8l2.2-2.5 5.2 1.4-2 2.2-.9-.3z"/><path fill="#35267B" d="M81.9 347.6l-.3 1.3.8.2.5 2.8-1.2-.3-.6-2.9-.8-.2-2.5-.7.3-1.3 2.6.7.7.3 2-2.2 1.3.3-2 2.2z"/><path fill="#5D4D78" d="M75.1 345.1l-2.1-1.5-.8 1.1 2.1 1.5.6.5-.5 2.9-4.4-3.2s-.7-1.7.9-3.7l2.9-1.6 4.4 3.2-2.6 1.4-.5-.6z"/><path fill="#35267B" d="M76.2 345.8l-.8 1.1.7.5-.5 2.8-1.1-.7.5-2.9-.6-.5-2.2-1.5.8-1.1 2.1 1.6.7.4 2.6-1.3 1.1.7-2.7 1.4z"/><path fill="#5D4D78" d="M71.3 341.6l-1.5-2.1-1.1.8 1.5 2.1.5.6-1.4 2.6-3.2-4.4s-.2-1.8 2-3.2l3.3-.6 3.2 4.4-2.9.5-.4-.7z"/><path fill="#35267B" d="M72.1 342.7l-1.1.7.5.7-1.4 2.6-.7-1.1 1.3-2.6-.4-.6-1.6-2.2 1.1-.7 1.5 2.1.5.6 2.9-.4.8 1-2.9.5z"/><path fill="#5D4D78" d="M68.7 337.3l-1.1-2.4-1.2.6 1.1 2.4.3.7-1.8 2.3-2.3-4.9s.2-1.8 2.6-2.8h3.3l2.3 4.9-2.9-.1-.3-.7z"/><path fill="#35267B" d="M69.2 338.5l-1.1.6.3.7-1.8 2.3-.6-1.2 1.8-2.3-.3-.7-1.1-2.4 1.2-.6 1.1 2.4.3.7 3 .1.5 1.2-2.9-.1z"/><path fill="#5D4D78" d="M66.7 332.8l-1-2.4-1.2.5 1 2.4.3.7-1.9 2.2-2.1-5s.2-1.8 2.7-2.7c2.5-.9 3.3.1 3.3.1l2.1 5-2.9-.2-.3-.6z"/><path fill="#35267B" d="M67.2 334l-1.2.5.3.8-1.9 2.2-.5-1.2 1.9-2.2-.3-.8-1-2.4 1.2-.5 1 2.4.3.8 2.9.1.5 1.3-2.9-.2z"/><path fill="#5D4D78" d="M64.8 328.6l-1.4-2.2-1.1.7 1.4 2.2.4.7-1.6 2.5-2.8-4.6s0-1.8 2.3-3 3.3-.3 3.3-.3l2.8 4.6-2.9.2-.4-.8z"/><path fill="#35267B" d="M65.4 329.8l-1.1.6.4.7-1.6 2.5-.6-1.1 1.5-2.5-.4-.7-1.3-2.2 1.1-.7 1.4 2.2.4.7 2.9-.2.7 1.1-3 .3z"/><path fill="#5D4D78" d="M62.2 325.3l-2.1-1.5-.8 1.1 2.1 1.5.6.5-.5 2.9-4.4-3.2s-.7-1.7.9-3.7c1.7-2 2.9-1.6 2.9-1.6l4.4 3.2-2.6 1.3-.5-.5z"/><path fill="#35267B" d="M63.2 326.1l-.7 1 .6.5-.5 2.9-1-.8.5-2.9-.7-.5-2.1-1.5.8-1.1 2.1 1.6.6.5 2.6-1.4 1.1.8-2.6 1.3z"/><path fill="#5D4D78" d="M58.2 323.5l-2.6-.2-.1 1.3 2.6.2.8.1 1.1 2.7-5.4-.4s-1.5-1-1.2-3.6c.3-2.6 1.6-2.9 1.6-2.9l5.4.4-1.5 2.5-.7-.1z"/><path fill="#35267B" d="M59.5 323.5l-.1 1.4h.8l1.1 2.7-1.3-.1-1.1-2.7h-.8l-2.6-.2v-1.3l2.7.2h.8l1.4-2.5 1.4.1-1.5 2.5z"/><path fill="#5D4D78" d="M52.3 324.1l-2.5.8.4 1.2 2.5-.8.8-.3 2.1 2.1-5.1 1.7s-1.8-.4-2.5-2.9l.4-3.3 5.1-1.7-.4 2.9-.8.3z"/><path fill="#35267B" d="M53.5 323.7l.4 1.2.8-.2 2 2.1-1.2.4-2.1-2.1-.7.2-2.5.9-.4-1.3 2.5-.8.7-.3.4-2.9 1.3-.4-.4 2.9z"/><path fill="#5D4D78" d="M47.8 326.7l-1.5 2.1 1.1.8 1.5-2.1.5-.7 2.9.4-3.1 4.4s-1.6.8-3.7-.9c-2.1-1.6-1.7-2.9-1.7-2.9l3.1-4.4 1.4 2.6-.5.7z"/><path fill="#35267B" d="M48.6 325.6l1 .8.5-.7 2.9.5-.8 1-2.9-.4-.4.7-1.5 2.1-1.1-.7 1.5-2.2.5-.6-1.4-2.6.7-1.1 1.4 2.6z"/><path fill="#5D4D78" d="M45.8 331.3l-.3 2.6 1.3.2.3-2.6.1-.8 2.8-1-.6 5.4s-1.1 1.5-3.7 1l-2.9-1.8.6-5.4 2.5 1.6-.1.8z"/><path fill="#35267B" d="M45.9 330l1.3.1.1-.8 2.8-1-.2 1.3-2.7 1.1-.1.7-.3 2.6-1.3-.1.3-2.6.1-.8-2.5-1.6.2-1.3 2.4 1.6z"/><path fill="#5D4D78" d="M45.7 336.9l.4 2.6 1.3-.2-.4-2.6-.1-.8 2.4-1.7.8 5.3s-.6 1.7-3.3 1.9l-3.2-.9-.8-5.3 2.8.9.1.8z"/><path fill="#35267B" d="M45.4 335.6l1.3-.2-.1-.8 2.4-1.7.2 1.3-2.4 1.7.1.8.5 2.6-1.3.2-.4-2.6-.2-.8-2.8-.8-.2-1.3 2.8.8z"/><path fill="#5D4D78" d="M46.8 342.9l.8 2.5 1.3-.4-.8-2.5-.2-.8 2.1-2 1.6 5.2s-.4 1.8-2.9 2.4c-2.6.6-3.3-.4-3.3-.4l-1.6-5.2 2.9.5.1.7z"/><path fill="#35267B" d="M46.4 341.7l1.3-.4-.3-.8 2.1-2 .4 1.2-2.1 2.1.3.7.8 2.5-1.3.4-.8-2.5-.2-.7-2.9-.5-.4-1.2 2.9.4z"/><path fill="#5D4D78" d="M48.6 348.7l1 2.4 1.2-.5-1-2.4-.3-.7 1.9-2.2 2.1 5s-.2 1.8-2.7 2.7l-3.3-.1-2.1-5 2.9.2.3.6z"/><path fill="#35267B" d="M48.1 347.5l1.2-.5-.3-.8 1.9-2.2.5 1.2-1.9 2.2.4.8 1 2.4-1.2.5-1.1-2.4-.3-.7-2.9-.2-.5-1.2 2.9.1z"/><path fill="#5D4D78" d="M50.6 353.6l1.2 2.3 1.2-.6-1.2-2.3-.4-.7 1.8-2.4 2.4 4.8s-.1 1.8-2.5 2.8l-3.3.1-2.4-4.8h2.9l.3.8z"/><path fill="#35267B" d="M50 352.4l1.2-.6-.4-.7 1.8-2.3.6 1.1-1.8 2.4.4.7 1.2 2.3-1.2.6-1.2-2.3-.3-.7h-3l-.6-1.2h3z"/><path fill="#5D4D78" d="M52.2 357l1.3 2.3 1.1-.6-1.3-2.3-.4-.7 1.6-2.4 2.7 4.7s0 1.8-2.4 3c-2.4 1.1-3.3.3-3.3.3l-2.7-4.7 2.9-.1.5.5z"/><path fill="#35267B" d="M51.5 355.9l1.2-.7-.4-.7 1.6-2.4.7 1.1-1.7 2.5.4.7 1.3 2.2-1.1.7-1.3-2.3-.4-.7-2.9.1-.7-1.1 2.9-.1z"/><path fill="#5D4D78" d="M105.7 332.5l-2.6.1.1 1.3 2.6-.1h.8l1.4 2.6-5.4.3s-1.6-.8-1.6-3.5c0-2.6 1.3-3.1 1.3-3.1l5.4-.3-1.2 2.7h-.8z"/><path fill="#35267B" d="M107 332.4l.1 1.3h.8l1.4 2.6h-1.3l-1.4-2.5h-.8l-2.6.1-.1-1.3 2.6-.1.8-.1 1.2-2.6 1.3-.1-1.2 2.7z"/><path fill="#5D4D78" d="M104.7 332.6h-2.6v1.3h3.4000000000000004l1.3 2.6h-5.4s-1.6-.9-1.4-3.5c.1-2.6 1.4-3 1.4-3h5.4l-1.3 2.6h-.8z"/><path fill="#35267B" d="M106 332.5v1.4h.8l1.3 2.6h-1.3l-1.3-2.6h-3.4000000000000004l-.1-1.3h2.7l.8-.1 1.3-2.6h1.3l-1.3 2.6z"/><path fill="#5D4D78" d="M101.8 332.5l-2.6-.1-.1 1.3 2.6.1h.8l1.2 2.7-5.4-.2s-1.5-1-1.3-3.6c.3-2.6 1.5-3 1.5-3l5.4.2-1.4 2.6h-.7z"/><path fill="#35267B" d="M103.1 332.6l-.1 1.3h.8l1.2 2.7-1.3-.1-1.2-2.6-.8-.1-2.6-.1v-1.3l2.7.1h.8l1.4-2.5h1.3l-1.4 2.6z"/><path fill="#5D4D78" d="M97.5 332.2l-2.6-.3-.1 1.3 2.6.3.8.1 1 2.8-5.4-.6s-1.5-1.1-1-3.7c.4-2.6 1.7-2.9 1.7-2.9l5.4.6-1.6 2.5-.8-.1z"/><path fill="#35267B" d="M98.8 332.4l-.1 1.3h.8l1 2.8-1.3-.1-1-2.8-.8-.1-2.6-.3.1-1.3 2.6.3.8.1 1.6-2.5 1.3.2-1.6 2.4z"/><path fill="#5D4D78" d="M92.4 331.5l-2.6-.5-.3 1.3 2.6.5.8.2.8 2.8-5.3-1s-1.4-1.2-.7-3.7 2-2.7 2-2.7l5.3 1-1.8 2.3-.8-.2z"/><path fill="#35267B" d="M93.7 331.8l-.3 1.3.8.1.8 2.8-1.3-.2-.8-2.8-.8-.2-2.5-.5.2-1.3 2.6.5.8.2 1.8-2.4 1.2.3-1.7 2.3z"/><path fill="#5D4D78" d="M86.9 330.3l-2.5-.8-.4 1.3 2.5.8.8.2.5 2.9-5.2-1.6s-1.2-1.3-.3-3.8c.9-2.5 2.3-2.5 2.3-2.5l5.2 1.6-2 2.1-.9-.2z"/><path fill="#35267B" d="M88.1 330.6l-.4 1.3.8.2.4 2.9-1.2-.4-.5-2.9-.7-.2-2.5-.8.4-1.2 2.5.8.7.2 2.1-2.1 1.2.4-2 2.1z"/><path fill="#5D4D78" d="M81.4 328.3l-2.3-1.2-.6 1.2 2.3 1.2.7.4v2.9l-4.8-2.4s-1-1.5.3-3.8 2.6-2.1 2.6-2.1l4.8 2.4-2.3 1.8-.7-.4z"/><path fill="#35267B" d="M82.6 328.9l-.6 1.1.7.4v2.9l-1.1-.6v-2.9l-.7-.4-2.4-1.1.6-1.2 2.3 1.2.8.3 2.3-1.7 1.2.6-2.4 1.7z"/><path fill="#5D4D78" d="M76.6 325.4l-2-1.7-.8 1 2 1.7.6.5-.7 2.9-4.2-3.5s-.6-1.7 1.2-3.6c1.8-1.9 3-1.4 3-1.4l4.2 3.5-2.7 1.2-.6-.6z"/><path fill="#35267B" d="M77.6 326.3l-.8 1 .6.5-.7 2.8-1-.8.7-2.8-.7-.6-2-1.6.9-1 2 1.6.6.5 2.7-1.1 1 .8-2.7 1.2z"/><path fill="#5D4D78" d="M72.7 321.6l-1.4-2.2-1.1.7 1.4 2.2.4.7-1.5 2.5-2.9-4.6s-.1-1.8 2.2-3.1l3.3-.4 2.9 4.6-2.9.3-.4-.7z"/><path fill="#35267B" d="M73.4 322.7l-1.1.7.4.7-1.5 2.5-.7-1.1 1.5-2.5-.4-.7-1.4-2.2 1.1-.7 1.4 2.2.4.7 3-.3.7 1.1-3 .3z"/><path fill="#5D4D78" d="M68.8 316.2l-1.6-2.1-1 .8 1.6 2.1.5.6-1.3 2.7-3.3-4.3s-.3-1.8 1.9-3.3c2.2-1.5 3.3-.7 3.3-.7l3.3 4.3-2.9.6-.5-.7z"/><path fill="#35267B" d="M69.6 317.2l-1 .8.5.6-1.3 2.7-.8-1 1.3-2.7-.5-.6-1.6-2.1 1-.8 1.6 2.1.5.6 2.9-.6.8 1.1-2.9.5z"/><path fill="#5D4D78" d="M64.9 311.6l-1.8-1.9-1 .9 1.8 1.9.5.6-1.1 2.7-3.6-4s-.4-1.8 1.7-3.4l3.2-1 3.6 4-2.8.8-.5-.6z"/><path fill="#35267B" d="M65.8 312.6l-1 .8.5.6-1 2.8-.9-1 1.1-2.7-.6-.6-1.7-2 .9-.8 1.8 1.9.5.6 2.9-.8.8 1-2.8.8z"/><path fill="#5D4D78" d="M61 307.6l-1.8-1.9-.9.9 1.8 1.9.6.6-.9 2.8-3.8-3.8s-.5-1.8 1.5-3.5 3.2-1.1 3.2-1.1l3.8 3.8-2.8.9-.7-.6z"/><path fill="#35267B" d="M62 308.5l-1 1 .6.5-1 2.8-.9-.9 1-2.8-.6-.6-1.8-1.8.9-1 1.8 1.9.6.6 2.8-.9.9.9-2.8.9z"/><path fill="#5D4D78" d="M57.4 304l-1.8-1.9-.9.9 1.8 1.9.6.6-1 2.8-3.8-3.9s-.5-1.8 1.5-3.5 3.2-1.1 3.2-1.1l3.8 3.9-2.8.9-.6-.6z"/><path fill="#35267B" d="M58.3 304.9l-1 .9.6.6-.9 2.8-1-.9 1-2.8-.6-.6-1.8-1.9.9-.9 1.9 1.9.5.6 2.8-.9.9.9-2.8.9z"/><path fill="#5D4D78" d="M54 300.5l-1.7-2-1 .9 1.7 2 .5.6-1.1 2.7-3.6-4.1s-.4-1.8 1.7-3.4l3.2-.9 3.6 4.1-2.8.7-.5-.6z"/><path fill="#35267B" d="M54.9 301.5l-1 .8.5.6-1.1 2.8-.9-1 1.1-2.7-.5-.6-1.7-2 1-.9 1.7 2 .5.6 2.9-.8.8 1-2.8.8z"/><path fill="#5D4D78" d="M51.1 296.9l-1.5-2.2-1.1.7 1.5 2.2.5.7-1.4 2.6-3.1-4.4s-.2-1.8 2.1-3.2l3.3-.6 3.1 4.4-2.9.4-.5-.6z"/><path fill="#35267B" d="M51.8 297.9l-1.1.8.5.6-1.4 2.6-.8-1.1 1.4-2.5-.4-.7-1.5-2.1 1.1-.8 1.5 2.2.4.6 2.9-.4.8 1.1-2.9.4z"/><path fill="#5D4D78" d="M48.6 292.9l-1.1-2.4-1.2.6 1.1 2.4.3.7-1.8 2.3-2.3-4.9s.1-1.8 2.6-2.8c2.4-1 3.3 0 3.3 0l2.3 4.9-2.9-.1-.3-.7z"/><path fill="#35267B" d="M49.2 294.1l-1.2.5.3.7-1.8 2.3-.5-1.1 1.8-2.4-.4-.7-1.1-2.3 1.2-.6 1.1 2.4.4.7h2.9l.6 1.2h-3z"/><path fill="#5D4D78" d="M46.8 288.2l-.7-2.5-1.3.3.7 2.5.2.8-2.2 2-1.4-5.2s.5-1.8 3-2.3c2.6-.5 3.3.6 3.3.6l1.4 5.2-2.9-.6-.1-.8z"/><path fill="#35267B" d="M47.2 289.5l-1.3.3.2.8-2.2 1.9-.3-1.2 2.2-2-.2-.7-.7-2.6 1.2-.3.7 2.5.2.8 2.9.5.4 1.3-2.9-.6z"/><path fill="#5D4D78" d="M44.8 283.6l-1.6-2.1-1 .8 1.6 2.1.5.6-1.2 2.7-3.3-4.2s-.3-1.8 1.9-3.3c2.2-1.5 3.3-.8 3.3-.8l3.3 4.2-2.9.6-.6-.6z"/><path fill="#35267B" d="M45.6 284.6l-1 .8.5.6-1.3 2.7-.8-1 1.2-2.7-.5-.6-1.6-2.1 1.1-.8 1.6 2.1.5.6 2.8-.6.9 1-2.9.6z"/><path fill="#5D4D78" d="M41.2 280.2l-2.2-1.4-.7 1.1 2.2 1.4.7.4-.3 2.9-4.5-3s-.8-1.6.8-3.7 2.9-1.8 2.9-1.8l4.5 3-2.5 1.5-.9-.4z"/><path fill="#35267B" d="M42.3 281l-.7 1.1.7.4-.4 2.9-1.1-.7.4-2.9-.7-.5-2.2-1.4.8-1.1 2.1 1.4.7.5 2.5-1.5 1.1.7-2.5 1.5z"/><path fill="#5D4D78" d="M36.8 278.1l-2.4-1-.5 1.2 2.4 1 .7.3.3 2.9-5-2s-1.1-1.4 0-3.8l2.4-2.3 5 2-2.2 2-.7-.3z"/><path fill="#35267B" d="M38 278.6l-.5 1.2.8.3.2 2.9-1.2-.5-.2-2.9-.8-.3-2.4-1 .5-1.2 2.4 1 .7.3 2.2-2 1.2.5-2.1 1.9z"/><path fill="#5D4D78" d="M32 276.8l-2.5-.6-.3 1.3 2.5.6.8.2.6 2.9-5.2-1.3s-1.3-1.3-.5-3.8l2.1-2.6 5.2 1.3-1.9 2.2-.8-.2z"/><path fill="#35267B" d="M33.3 277.2l-.3 1.2.7.2.7 2.9-1.3-.3-.6-2.9-.8-.2-2.5-.6.3-1.3 2.5.6.8.2 1.9-2.2 1.3.3-1.9 2.2z"/><path fill="#5D4D78" d="M27.4 276.3l-2.6-.4-.2 1.3 2.6.4.8.1.9 2.8-5.3-.9s-1.4-1.2-.8-3.7l1.9-2.8 5.3.9-1.7 2.4-.9-.1z"/><path fill="#35267B" d="M28.7 276.5l-.2 1.3.8.1.8 2.8-1.3-.2-.8-2.8-.8-.1-2.6-.5.2-1.3 2.6.5.8.1 1.7-2.4 1.3.2-1.7 2.4z"/><path fill="#5D4D78" d="M23.5 276.1l-2.6-.3-.2 1.3 2.6.3.8.1 1 2.8-5.4-.6s-1.5-1.1-1-3.7 1.8-2.8 1.8-2.8l5.4.6-1.6 2.5-.8-.2z"/><path fill="#35267B" d="M24.8 276.3l-.2 1.3.8.1 1 2.7-1.3-.1-1-2.8-.8-.1-2.6-.3.2-1.3 2.6.3.8.1 1.6-2.4 1.3.1-1.6 2.5z"/><path fill="#5D4D78" d="M20.8 276.2l-2.6-.2-.2 1.3 2.6.2.8.1 1.1 2.7-5.4-.5s-1.5-1-1.1-3.6c.4-2.6 1.7-2.9 1.7-2.9l5.4.5-1.5 2.5-.8-.1z"/><path fill="#35267B" d="M22.1 276.3l-.1 1.3.8.1 1 2.7-1.3-.1-1-2.7-.8-.1-2.7-.2.2-1.3 2.6.2.8.1 1.5-2.5 1.3.1-1.5 2.5z"/><path fill="#5D4D78" d="M130.4 332.4s-.5-7.5-13.7-7.5c-13.1 0-13.6 7.5-13.6 7.5-1.2 39.7-43.9 61.4-43.9 61.4l1.6.7c5.6-5.6 15.6 0 15.6 0 12.5-3.8 22.7 0 22.7 0 11-2.4 17.5 5.2 17.5 5.2s6.6-7.7 17.6-5.2c0 0 10.3-3.8 22.8 0 0 0 10.1-5.6 15.7 0l1.6-.7c.1 0-42.7-21.7-43.9-61.4z"/><path fill="#9184AD" d="M117.5 293.9c-16.4 0-29.7 4.7-29.7 10.4 0 3.6 5.2 6.7 13 8.6.3-.5.9-.8 1.5-.8.9 0 1.6.6 1.8 1.5 2 .4 4.2.6 6.5.8v-.2c0-.8.7-1.5 1.5-1.5s1.5.7 1.5 1.5c0 .1 0 .3-.1.4h1.2c-.7-2.1-1.2-4.8-1.2-7.7 0-6.6 2.2-12 5-12s5 5.4 5 12c0 2.9-.4 5.6-1.1 7.6.8 0 1.6-.1 2.4-.2v-.2c0-1.2 1-2.2 2.2-2.2 1.1 0 2 .8 2.2 1.9 1.6-.2 3.2-.5 4.6-.9 0-.8.7-1.5 1.6-1.5.6 0 1.1.3 1.3.7 6.5-1.9 10.6-4.8 10.6-7.9-.1-5.7-13.4-10.3-29.8-10.3zm-16.6 12.5c-.3 0-.5-.2-.5-.5s.2-.5.5-.5.5.2.5.5-.2.5-.5.5zm6.5 7.5c-.6 0-1.1-.5-1.1-1.1 0-.6.5-1.1 1.1-1.1.6 0 1.1.5 1.1 1.1 0 .6-.5 1.1-1.1 1.1zm1.9-3.8c-.7 0-1.2-.5-1.2-1.2s.5-1.2 1.2-1.2 1.2.5 1.2 1.2c0 .6-.5 1.2-1.2 1.2zm19.6-.4c-.6 0-1-.4-1-1s.4-1 1-1 1 .4 1 1-.4 1-1 1zm2.9 2.1c-.2 0-.4-.2-.4-.4s.2-.4.4-.4.4.2.4.4-.2.4-.4.4z"/><ellipse fill="#DBD3EB" cx="118.5" cy="306.2" rx="3.6" ry="11.4"/><circle fill="#35267B" cx="118.5" cy="306.2" r="2"/><ellipse fill="#5D4D78" cx="116.8" cy="408.1" rx="26" ry="6.5"/><path fill="#9184AD" d="M129 372.7c-7.8-4.2-12.1-16.6-12.1-16.6-.2 5.8-9.3 14.5-9.3 14.5s-2.3 18.1 10 18.1l11.4-16zm-5.5 12.4c-3.9 1.2-7.9.7-10.2.2l.2 1.2s-6.2-1.8-5.1-15.3c.1 0 5.1-4.5 8-10 0 0-.5 1.1-1.2 3.1.7-.1 3-.5 4.2 0l.4.8s-3-.3-5 .3c-.2.5-.3 1-.5 1.6 1 .4 4.5-.5 5.6.1l.3.8c-.8.2-4.3-.2-6.2.2-.1.5-.3 1.1-.4 1.7 1.6.8 5.9-.2 6.8.3l.2.8c-1.5.4-5.5-.3-7.2.1l-.3 1.6c2.3 1.1 7.2 0 7.9.3l.1.8c-2.3.7-6.5-.1-8.1 0l-.2 1.8c3 1.3 8.3 0 8.8.2l-.1.8c-2.8.8-7 0-8.8-.1l-.1 1.9c3.6 1.4 9.2.1 9.6.3l-.2.8c-3.3.9-7.5.1-9.4-.2 0 .7 0 1.4.1 2.1 4.2 1.4 10.1 0 10.3.1l-.3.8c-3.7 1.2-7.8.4-9.9 0l.2 2.1c4.7 1.4 10.8-.1 10.8-.1l-.3.9zM129.2 335l-.2-2.6s-1.8-.6-2.4 1c0 0-2.5-.7-3.3.7 0 0-3-1.1-4.1.3.1.3.2.6.2 1 0 1.4-1.2 2.6-2.6 2.6-1.4 0-2.6-1.2-2.6-2.6 0-.3.1-.6.2-.9-1-1.4-4.1-.4-4.1-.4-.7-1.4-3.3-.7-3.3-.7-.6-1.6-2.4-1-2.4-1l-.2 2.6c-2.4 32.8-29.3 49.7-29.3 49.7 31.3-7.3 39.1-25.1 41-32.7-1.6-.3-2.9-1.8-2.9-3.5 0-2 1.6-3.6 3.6-3.6s3.6 1.6 3.6 3.6c0 1.8-1.3 3.3-3.1 3.5 2 7.6 9.8 25.3 41.1 32.7 0 0-26.8-16.9-29.2-49.7zm-22.3-.8h.7c-.6 26.2-16.3 39.2-16.3 39.2 15.7-16.6 15.6-39.2 15.6-39.2zm-21.4 46.2c20.2-11.2 24.8-45.1 24.8-45.1 1.2-.5 1.7 0 1.7 0-7.5 39.4-26.5 45.1-26.5 45.1zm41.4-46.2s-.1 22.6 15.6 39.2c0 0-15.7-13-16.3-39.2h.7zm-5.1 1.1c-.1 0 .4-.5 1.7 0 0 0 4.6 33.9 24.8 45.1 0 0-19-5.7-26.5-45.1z"/><circle fill="#DBD3EB" cx="116.8" cy="348.5" r="3"/><circle fill="#DBD3EB" cx="116.8" cy="335.4" r="1.8"/><path stroke="#5D4D78" stroke-width="2" stroke-linecap="round" stroke-miterlimit="10" fill="none" d="M4.8 276.2l1.8-3.7 9.5 4.4-3.9 7.8-4.7-1.6M175.1 263.3l4.1-.3.8 10.5-8.8.4-.9-4.8M215 343.5l2.1 3.5-9.1 5.5-4.2-7.7 3.9-3M56.4 370.5l-4.1-.8 1.9-10.4 8.6 1.9-.4 4.9"/><path fill="#9184AD" d="M123 317.8l-.7 1.1c-.2.2-.4.3-.6.3-.1 0-.2 0-.3-.1-.3-.2-.4-.6-.2-.9l.6-1c-.2-.1-.4-.2-.6-.2-.8 1.2-1.7 1.8-2.7 1.8-1 0-1.9-.7-2.7-1.9-.3.1-.6.2-.8.3l.6 1c.1.2.1.4 0 .6l-.2.3c-.3.2-.7.1-.9-.2l-.7-1c-1.4 1-1.8 2.1-1.8 2.1 6.9 1.1 12.8-.1 13 0 0 .1-.5-1.2-2-2.2z"/><g><g><ellipse transform="matrix(.019 1 -1 .019 624.757 379.92)" fill="#35267B" cx="118.8" cy="508.4" rx="9.3" ry="26.7"/><ellipse transform="matrix(.019 1 -1 .019 624.757 379.92)" fill="#9184AD" cx="118.8" cy="508.4" rx="7.6" ry="24.5"/><ellipse transform="matrix(.019 1 -1 .019 622.931 378.206)" fill="#5D4D78" cx="118.7" cy="506.6" rx="5.8" ry="22.6"/><ellipse transform="matrix(.019 1 -1 .019 622.931 378.206)" fill="#5D4D78" cx="118.7" cy="506.6" rx="5.8" ry="22.6"/></g><g><ellipse transform="matrix(-.826 .564 -.564 -.826 408.125 849.657)" fill="#35267B" cx="72.9" cy="487.9" rx="9.2" ry="16.4"/><ellipse transform="matrix(-.826 .564 -.564 -.826 408.125 849.657)" fill="#9184AD" cx="72.9" cy="487.9" rx="7.6" ry="15.1"/><ellipse transform="matrix(-.826 .564 -.564 -.826 410.228 846.963)" fill="#5D4D78" cx="74.3" cy="486.8" rx="5.8" ry="13.9"/></g><g><ellipse transform="matrix(-.518 -.856 .856 -.518 -221.253 712.367)" fill="#35267B" cx="90.1" cy="418.5" rx="9.2" ry="16.4"/><ellipse transform="matrix(-.518 -.856 .856 -.518 -221.253 712.367)" fill="#9184AD" cx="90.1" cy="418.5" rx="7.6" ry="15.1"/><ellipse transform="matrix(-.518 -.856 .856 -.518 -221.123 715.521)" fill="#5D4D78" cx="91.1" cy="420.1" rx="5.8" ry="13.9"/></g><g><ellipse transform="matrix(.919 .394 -.394 .919 203.345 -26.162)" fill="#5D4D78" cx="165.4" cy="482.3" rx="8.4" ry="13.4"/><ellipse transform="matrix(.919 .394 -.394 .919 203.345 -26.162)" fill="#35267B" cx="165.4" cy="482.3" rx="6.6" ry="11.7"/><ellipse transform="matrix(.919 .394 -.394 .919 203.345 -26.162)" fill="#9184AD" cx="165.4" cy="482.3" rx="5.4" ry="10.7"/><ellipse transform="matrix(.919 .394 -.394 .919 203.051 -25.747)" fill="#5D4D78" cx="164.2" cy="481.8" rx="4.1" ry="9.9"/></g><g><ellipse transform="matrix(.439 -.898 .898 .439 -319.657 357.942)" fill="#5D4D78" cx="126.9" cy="435" rx="13" ry="13.4"/><ellipse transform="matrix(.439 -.898 .898 .439 -319.657 357.942)" fill="#35267B" cx="126.9" cy="435" rx="10.1" ry="11.7"/><ellipse transform="matrix(.439 -.898 .898 .439 -319.657 357.942)" fill="#9184AD" cx="126.9" cy="435" rx="8.3" ry="10.7"/><ellipse transform="matrix(.439 -.898 .898 .439 -321.722 358.135)" fill="#5D4D78" cx="126" cy="436.8" rx="6.3" ry="9.9"/></g><g><circle fill="#35267B" cx="132.5" cy="474.7" r="13.2"/><circle fill="#9184AD" cx="132.5" cy="474.7" r="12.1"/><circle fill="#5D4D78" cx="133.3" cy="473.8" r="11.2"/></g><g><ellipse transform="matrix(-.259 .966 -.966 -.259 538.989 493.857)" fill="#35267B" cx="80" cy="453.7" rx="13.2" ry="11.5"/><ellipse transform="matrix(-.259 .966 -.966 -.259 538.991 493.858)" fill="#9184AD" cx="80" cy="453.7" rx="12.1" ry="10.6"/><ellipse transform="matrix(-.259 .966 -.966 -.259 539.601 492.156)" fill="#5D4D78" cx="81" cy="453.1" rx="11.2" ry="9.8"/></g></g></svg>