<svg version="1.2" baseProfile="tiny" xmlns="http://www.w3.org/2000/svg" viewBox="0 0 121.2 89.1"><path fill="#FC008B" d="M56.9 35.3s15.6 69.6 64.3 31.5c0 0-40.5 44.3-73.2-26.4l8.9-5.1z"/><ellipse transform="matrix(.899 -.439 .439 .899 -5.136 18.446)" fill="#9184AD" cx="37.4" cy="20.3" rx="8.4" ry="21.2"/><path fill="#5D4D78" d="M50.2 20.8c5.1 10.5 5.9 20.7 1.7 22.8s-11.8-4.8-16.9-15.4c.7-7.2 1-13.7-3.5-21 .4-.8 1-1.4 1.7-1.8 4.2-2 11.8 4.9 17 15.4z"/><ellipse transform="matrix(.948 -.319 .319 .948 -4.038 15.956)" fill="#9184AD" cx="46.7" cy="20.3" rx="8.4" ry="21.2"/><path fill="#DBD3EB" d="M56.5 24.1s-.5 2.7-4.1 2.5l.6 2.2s2.9.1 4.3-2.1l-.3-2.2-.5-.4zM57.1 27.3s-.5 2.7-4.1 2.5l.6 2.2s2.9.1 4.3-2.1l-.3-2.2-.5-.4z"/><circle fill="#5D4D78" cx="32.3" cy="37.8" r="23.3"/><path fill="#9184AD" d="M12.2 35.8c0-10.4 8.7-19.4 19.4-19.4 5.9 0 11.2 2.7 14.8 7-23 3.6-34.2 23.9-34.2 12.4z"/><ellipse transform="matrix(.993 -.121 .121 .993 -5.934 6.671)" fill="#5D4D78" cx="52.1" cy="52.3" rx="2.1" ry="4.6"/><path fill="#5D4D78" d="M52.4 54.9s-6.7 5.1-1.7 18.7c0 0 1.4 4.1 5.4 4.5 0 0 1.1-.9.5-4.3 0 0 7.1 1.5 5.9-11.2 0 0-1-7-9.2-8.1l-.9.4z"/><path fill="#9184AD" d="M52.5 64.9s-.2 6.8 3.7 9.1c0 0 .5 2.3-.3 3.8 0 0-5.3-.8-3.4-12.9zM61.9 66.8s-.1 6.8-5.4 6.6c0 0-.7-.2-1.3-1.4 0 0 5.1 1.6 6.7-5.2zM53.6 52c.1.1.4 1.6.3 2.6-.1 1 0 .1 0 .1s-.7 0-1.1 1.2c0 0-1.3-2.9-.8-4-.1 0 1-.5 1.6.1z"/><ellipse transform="matrix(.529 .848 -.848 .529 78.602 -20.642)" fill="#FC008B" cx="57.9" cy="60.5" rx="1.3" ry=".9"/><ellipse transform="matrix(.308 .951 -.951 .308 99.666 -13.767)" fill="#FC008B" cx="59.3" cy="61.6" rx="1.3" ry=".9"/><ellipse transform="matrix(.308 .951 -.951 .308 100.692 -11.416)" fill="#9184AD" cx="58.2" cy="63.5" rx=".7" ry=".5"/><path fill="#35267B" d="M46.1 59.2s-7.2 8.4 2.8 24.5c0 0 2.9 4.9 8.1 4.3 0 0 1.1-1.4-.5-5.7 0 0 9.5 0 4.5-16 0 0-3.2-8.8-13.9-7.9l-1 .8z"/><ellipse transform="matrix(.946 -.323 .323 .946 -16.057 17.269)" fill="#5D4D78" cx="44" cy="57" rx="2.7" ry="6"/><path fill="#5D4D78" d="M45.1 60.2s-7.2 8.4 2.8 24.5c0 0 2.9 4.9 8.1 4.3 0 0 1.1-1.4-.5-5.7 0 0 9.5 0 4.5-16 0 0-3.2-8.8-13.9-7.9l-1 .8z"/><path fill="#9184AD" d="M48 73s1.6 8.7 7.2 10.7c0 0 1.2 2.9.6 5 0-.1-7.1.4-7.8-15.7zM60.5 73s1.6 8.7-5.1 10c0 0-1 0-2.1-1.5 0-.1 7 .5 7.2-8.5zM45.8 56.1c.1.1 1 1.9 1 3.2.1 1.4 0 .2 0 .2s-.9.2-1 1.8c0 0-2.5-3.3-2.1-4.9 0 .1 1.2-.8 2.1-.3z"/><ellipse transform="matrix(.693 .721 -.721 .693 63.999 -18.437)" fill="#FC008B" cx="53.7" cy="66" rx="1.7" ry="1.2"/><ellipse transform="matrix(.498 .867 -.867 .498 86.086 -14.7)" fill="#FC008B" cx="55.7" cy="67" rx="1.7" ry="1.2"/><ellipse transform="matrix(.498 .867 -.867 .498 87.982 -12.554)" fill="#FC008B" cx="54.8" cy="69.7" rx=".9" ry=".6"/><path fill="#5D4D78" d="M10.4 53.8s-14.7 4.3-9.1 20.4l3.9-3.7s7.6 5.4 9.7-13.1c0 0 .2-5.3-4.5-3.6z"/><ellipse transform="matrix(.882 .472 -.472 .882 27.392 -.614)" fill="#5D4D78" cx="14.9" cy="54.3" rx="2" ry="2.9"/><path fill="#5D4D78" d="M20.8 56.3s-4 5 .5 11.8l1-3.2s5.7.2 4.6-8l-6.1-.6z"/><path fill="#35267B" d="M15.9 44s4.3-4.6 11.1 0c0 0-2.5 6.8 1.9 10.5 0 0-7.2 2.1-10.9-3.9 0 0-2.9-3.3-2.1-6.6z"/><path fill="#9184AD" d="M20.1 42.6s-.6 2.4.6 4.9c0 0 .6.9-1.9 1l-2.6-4.4s2.2-1.9 3.9-1.5zM21.1 42.6s-1.1 2.7.6 5.2c0 0 .8 1 2.6.6s1.7-2.4 1.7-2.4.2-1.4.4-1.9c0 .1-3.2-2.2-5.3-1.5z"/><path fill="#5D4D78" d="M25.9 50.1c.1 0 0 2.6 2 4.3 0 0-6.2.5-8.3-2.6 0-.1 2.9-2.9 6.3-1.7z"/><path stroke="#DBD3EB" stroke-width="2" stroke-linecap="round" stroke-miterlimit="10" d="M20.8 23.3s-3.8-4.6-2.6-10.3" fill="none"/><path fill="#DBD3EB" d="M18.4 15.6h-1c-1.2 0-2.2-1-2.2-2.2l.1-5.4c0-1.2 1-2.2 2.2-2.2h1c1.2 0 2.2 1 2.2 2.2l-.1 5.4c0 1.2-1 2.2-2.2 2.2z"/><circle fill="#35267B" cx="17.5" cy="11.1" r="1.3"/><path stroke="#DBD3EB" stroke-width="2" stroke-linecap="round" stroke-miterlimit="10" d="M24.7 23.5s-3.1-5.1-1.1-10.6" fill="none"/><path fill="#DBD3EB" d="M23.8 15.6l-1-.2c-1.2-.2-2-1.3-1.8-2.5l.9-5.3c.2-1.2 1.3-2 2.5-1.8l1 .2c1.2.2 2 1.3 1.8 2.5l-.9 5.3c-.2 1.2-1.3 2-2.5 1.8z"/><circle fill="#35267B" cx="23" cy="12" r="1.3"/><path fill="#DBD3EB" d="M49.1 29.3s2.8-1.7 1.2-6.4c0 0 .7-.2 1 .2.6.7 1.6 1.8 2 3 0 0 .1 3.4-2.9 5.5h-.3l-1-1.9v-.4zM53.5 28.3s-.3 2.9-2.4 4v.4l.9 2.1h1.1s1.6-1.1 1.6-2.8l.3-1.1-.9-3.1-1.1-.4.5.9z"/><path fill="#FC008B" d="M53.9 36.1s3 7.3-6.7 18.8c0 0-2.3-2.6-5.4 0 0 0 .3-3.8 5.1-1.9 0-.1 7.1-5.9 7-16.9z"/></svg>