<svg version="1.2" baseProfile="tiny" xmlns="http://www.w3.org/2000/svg" viewBox="-224.6 121.5 325.5 345.1"><path stroke="#9184AD" stroke-linecap="round" stroke-miterlimit="10" d="M57.8 169.6s4.9 3.7 12-3l14.2-1.4M57.3 171.9s9.3 3.8 14.2-2.4c4.9-6.2 8.4-1 8.4-1M55.9 172.2s1.6 3.2 6 4c4.4.9 8.8-2.8 12 .4" fill="none"/><path fill="#5D4D78" d="M-9.7 189.8s1.2-5.4 6.5-6.7 16.5 8.5 27.2 4.2l17.2-15.6s6.1-10.9 17.6-3.1c0 0 1.9 5-1.7 6.1 0 0-9.5-9.1-14.9.7-3.8 7-8.2 11.7-19.6 16.7-8.5 3.8-37.4 7.7-32.3-2.3z"/><path stroke="#9184AD" stroke-linecap="round" stroke-miterlimit="10" d="M-44.5 172.1s4.1 1.3 7.3-4.8c3.2-6.2 9.2-4.3 9.2-4.3M-44.3 173.8s7.1.4 9-4.9c1.8-5.3 5.4-2.6 5.4-2.6M-45.2 174.3s1.8 1.7 5 1.3 5.2-4 8.2-2.6" fill="none"/><path fill="#5D4D78" d="M-85 201.7s-.5-3.9 2.8-6.1c3.3-2.2 13.1 1.8 19.3-3.6l7.9-14.5s1.5-8.8 11.1-6.3c0 0 2.4 2.9.3 4.5 0 0-8.5-3.9-9.8 4-.9 5.6-2.8 9.8-9.2 15.9-5 4.6-23.5 14-22.4 6.1z"/><path stroke="#9184AD" stroke-linecap="round" stroke-miterlimit="10" d="M-27 187.1s3.9 1.9 7.9-3.8l9.7-3M-27 188.7s7 1.3 9.5-3.7l5.7-1.9M-27.9 189.2s1.6 2 4.8 1.9c3.2 0 5.7-3.2 8.5-1.5M74 197.6s4.3 4.3 12.3-1.4c7.9-5.6 14.2.5 14.2.5M73.3 199.8s8.7 5 14.4-.5l8.4.1M71.8 199.9s1.2 3.4 5.4 4.8 9.1-1.6 11.9 2" fill="none"/><path fill="#9184AD" d="M19.2 190.3s11.2 6.4 6.7 18c-4.4 11.6 3.7 34.9 16.4 34.7 0 0-31.8 11.1-47-23l23.9-29.7z"/><path fill="#DBD3EB" d="M20.8 193.5s5.1 8.9.8 18c0 0-2.8 26.1 11 29.8 0 0-13.1-6.5-9.2-29.5 2.5-15-2.6-18.3-2.6-18.3z"/><path fill="#5D4D78" d="M75.3 196.7c-10.4-9.2-17.9.8-17.9.8s-7.9 10.3-19.1 13.1c-7.3 1.8-14-2.3-19.3-5.2 2-7.9-.8-11.7-.8-11.7s-25.2-40-40.1-3.4c-14.9 36.6-32.1 39.8-32.1 39.8s-20.6.2-.3 28.9 57.3 18.9 57.3 18.9 1.9-46.2 11.1-61.6c7.7.9 17.5.3 22.1-1.1 12-3.5 17-7.6 21.7-14 6.6-9 14.8 1.3 14.8 1.3 3.8-.6 2.6-5.8 2.6-5.8z"/><path fill="#9184AD" d="M-65.4 197.7s5.2 3.5 2.6 16c-.8 3.8-.4 9.5.4 15.4 13.6 5 24.9-4 24.9-4-8.4 3.2-19.4-10.5-19.2-19.4.2-8.9-8.8-10.5-8.8-10.5l-.7 1.9c.5.4.8.6.8.6z"/><path fill="#DBD3EB" d="M-63.7 196.9s5.6 4.7 4.8 11.9c0 0 4.3 18.2 14.5 17.4 0 0-10.3-1.2-13.2-17.7-1.9-10.5-6.1-11.6-6.1-11.6z"/><path fill="#5D4D78" d="M.4 314.8c-3.3-10-8-19.3-13.8-27.8-.9-5.3-3.8-11.1-8.5-16.2-5.3-5.8-11.7-9.5-17.4-10.5-5.9-4.3-12.2-8-18.9-11.1-2.7-10.2-6.4-26.9-4.7-35.3 5.4-1.2 11.8-3.9 14.5-5.9 7.2-5.1 9.6-9.1 11.3-14.5 2.4-7.6 10.3-2.6 10.3-2.6 2.3-1.3.3-4.5.3-4.5-9.1-3.8-11.8 4.7-11.8 4.7s-2.9 8.9-9.7 13.4c-4.5 3-10 1.7-14.3 1-.5-5.8-3.2-7.7-3.2-7.7s-26.4-20.9-27.8 7.1c-.8 17.8-5.4 26.8-8.7 31.1-10.6-.1-23.7 2-37.3 6.4-26.4 8.6-46.1 23-48.1 34.3-4.7 5.4-8.9 11.2-12.5 17.4-9.5 2.6-18.8 13.5-22.8 28.2-4.6 16.8-.8 32.9 8.6 38.5 3.6 35.5 24.1 66 53.3 83.4 4.3 8.1 14.8 15.3 28.1 18.1 11.2 2.4 21.8 1.2 29.3-2.6 42.1-.3 78.6-24.2 96.9-59.2 10.5-5.5 19.7-19.3 23.2-36.6 4.5-23-2.7-44-16.3-49.1z"/><path fill="#9184AD" d="M-9.8 292.6c.3 2.5 0 4.9-1.1 6.9-5.4 9.5-26.4 7.7-47-4-16.8-9.5-28-22.7-28.7-32.4-32.9 12.2-58.8 40.1-66 76.4-5.6 28 1 55.7 16.1 77.9 4.2-.1 8.6.2 13.2 1.2 19.1 4.1 32.5 17.2 29.9 29.2-.4 1.8-1.1 3.6-2.2 5.1 3.6 1.8 7.4 3.4 11.3 4.8 4.7-.9 9.4-2 14-3.6 7.3-2.3 14.1-5.4 20.5-9 1.8 2 1.4 3.9.9 5.1-4.7 2.1-3.7 3.8-3.7 3.8s2.8 5.3 8.5 4.1c5.8-1.1 3.9-9.2 3.9-9.2s-.4-1.1-4.2-.2c-1.9-1.5-2.5-3.6-2.6-5.2l3.3-2.1c8.4 2.4 8.9 7.7 8.5 10.8-8.1 6.7-5 9.3-5 9.3s9.1 8.6 20.1 2.9c7.8-4.1 5.5-12.6 3.5-17.1 4.2-8.7-2.6-15.6-2.6-15.6s-2.1-2.4-7.5 4.1c-1.7.3-4.4.2-6.6-2.1 11.1-9.3 20.2-20.7 26.8-33.4-4.3 2.2-8.9 3.1-13.3 2.2-15.4-3.1-23.9-25.4-19.1-49.9s21.3-41.9 36.7-38.8c.9.2 1.8.4 2.7.8-2.8-7.7-6.2-15.1-10.3-22zm-26.9 143.9c2 1.2 4.1 3 5.3 6.1-.3.5-.5.9-.7 1.4-2.7-2.5-4-5.5-4.6-7.5z"/><g fill="#9184AD"><path d="M-72.2 201.5l-1.1.3s1.4 2.7.2 9.8c0 .1 2.1-5.1.9-10.1zM-89.9 194.4l.6.8s-2.7 2.8-2.6 7.8c0 0-.6-5.4 2-8.6zM-88.7 196.3l.5 1.2s-2.7 3.2-2 6c0-.1-.7-5 1.5-7.2zM-87.4 198.4l.8.9s-2 3.1-1.6 6.9c0 0-.7-6.1.8-7.8zM-74.5 202.5h-1.1v-.3s.2 8.2-.7 9.5c-.1 0 1.9-5.3 1.8-9.2zM-77.2 202.7c0-.3-1.5-.1-1.5-.1s.2 7.2-1.3 8.8c.1.1 3-5.5 2.8-8.7zM-80.4 202.8l-1.4-.5s-1.6 2.3-1.3 7.9c0 0 1.3-6.4 2.7-7.4zM-83.3 202.1l-1.1-.5s-1.8 5.1-.9 8c-.1-.1.5-7 2-7.5zM-86.1 200.3l.6.5s-1.8 3.6-1.6 6.2c-.1 0-.4-4.7 1-6.7z"/></g><path fill="#DBD3EB" d="M-65.4 197.7c2.3-13.9 10.6-28.7 10.6-28.7s10.1-18.7-3.1-25l-21.6 14s-10.5 20.8-10 35.2c0 0 2.3 9.1 12.4 8.1 10.2-.9 11.7-3.6 11.7-3.6z"/><path fill="#FC008B" d="M-53.3 149s3.5 7.3-1.5 17.8c0 0-11.5 23.9-11.6 30.7 0 0-5.6 3-12.6 2.9 0 0 10.6-31.5 14.9-37.9 0 0 14.8.1 10.8-13.5z"/><path fill="#9184AD" d="M-65.6 162s-5.8-1.4-5-7.1l-3 4.2s4.9 4.7 1 19.5c-.1-.1 3.9-13 7-16.6zM-54.9 146.9s-3-3.8-8.7-3.5l-9.8 5.9 2.6 1.4c1.5-4.1 9-8.5 15.9-3.8zM-85.1 177.3s1.4.6.8 6.3l-.8-6.3zM-82.2 186.7s2.4-3.7 7-1.7c0 0-4.3.1-7 1.7zM-82.2 187.3s4.1 2 7-.1c0 0-2.9 3.8-7 .1zM-84.9 183.9s-1.4-1.2-1.7-4.2c0 0-.5 4.3 1.7 4.2z"/><path fill="#DBD3EB" d="M-64 184.7s-3.6 8.4-3.3 12.1c0 0-5.6 2.7-9.7 2.5 0 0 10.8-2.7 11.9-14.6h1.1z"/><path fill="#5D4D78" d="M-60 162.7s2.9 1.2 2.5 6.9l-2.6 5.9s.2-5.4-6.6-6.3l3.1-5.9c0 .1 2.2 0 3.6-.6zM-77.9 199.1l2.5-7s4.7 1.9 7.8-1.4c0 0-3 6.4-10.3 8.4z"/><path fill="#9184AD" d="M-79.5 198.9s-6.7-.1-9.3-5.4c0 0 5.1 5 10.6 2.1l-1.3 3.3zM-83.3 188.4l-1.4 6.7s1.8.6 2.7.3c0 0-1.6-1.5-1.3-7zM-85.1 187.8l-3.1 5.1s-.4-.7-.3-1.8l3.4-3.3zM-87.7 193.4c.1-.2 2.1 1.3 2.1 1.3l.9-5.7-3 4.4z"/><g stroke="#5D4D78" stroke-linecap="round" stroke-miterlimit="10" fill="none"><path d="M-66.8 175.3c.6.3 1.2.7 1.9 1 .4.2.9.6.8 1-.1.5-.9.8-.9 1.3 0 .3.2.5.5.6.2.1.5.2.7.4.3.3.3.8.2 1.2 0 .3 0 .5-.1.8M-67.9 181.8l.6-1.9c.1-.2.1-.5 0-.7s-.5-.3-.6-.5.1-.4.3-.5c.2-.1.4-.1.6-.1M-67.7 176.7h-1.1c-.2 0-.3 0-.5.1l-.1.1-.4.6v-.2M-66.2 173.9c.3-.2.7-.2 1.1-.1.3.1.6.4.7.7.6-.2 1.2 0 1.7.4-.1 0-.2.1-.2.1M-65.2 172c-.6-.2-1-.8-.9-1.4l-.7.3s.1 0 .1-.1M-67.5 172.7c.2.1.2.3.1.5-.1.1-.3.2-.5.3-.2.1-.3.2-.3.4 0 0 0-.1.1-.1M-62.8 172.2c.3-.1.6.1.6.4s-.2.6-.5.5c.1.1.2.2.2.3M-61.2 176.1c.2.4 0 1-.3 1.2h.1M-65.5 181.4c.2 0 .2.3.1.4-.1.1-.3.2-.5.2s-.4 0-.5.2c-.1.1-.2.3-.1.5 0 .2.1.3.2.5l-.2-.2"/></g><g stroke="#9184AD" stroke-linecap="round" stroke-miterlimit="10" fill="none"><path d="M-59.3 167.9c.2.1.4.4.4.6 0 .3-.1.5-.3.7-.1.1-.3.2-.3.4l.2.3c.1.2.1.4 0 .6-.1.2-.3.3-.4.4h.1M-61.4 167.6c.1.2 0 .5-.2.7l-.4.2s-.3.1-.4.3c-.1.1-.1.4.1.4M-59.6 165.8c-.3-.2-.5-.3-.8-.4-.3-.1-.6-.1-.9.1-.2.1-.3.3-.4.4-.3.2-.6.3-.9.4l-.5.1s-.3-.1-.3-.3l-.3.5M-64.7 167.8c.2-.1.4 0 .4.2s0 .4-.1.5c-.1.2-.1.3-.1.5s.2.3.3.5.1.4-.1.5"/></g><path fill="#9184AD" d="M-88.6 202.2s2.1 2.8 9.8 4.2c1.4.5 1 1.9 1 1.9s-2.1 12.7-1.3 15.3l-2.4 1.9s-1.9 1.1-3.2.1c-1.3-1-6.8-3.8-7.9-4 0 0-1.5-.2-1.4-1.5 0 0 3.1-10.8 2.8-15.1 0 0-.5-3.3 2.6-2.8z"/><path fill="#DBD3EB" d="M-79 206.8s.9.5.6 1.5c0 0-2 13.1-1.1 14.9l-1.9 1.9s-1.2 1-2.7.1c0 0 1.3-13.1 3.4-16.3 0 0 .5-1-.4-1.6l2.1-.5zM-89.9 203s3.6 2.8 8 3.9l1.6-.3s-5.9-1.3-8.5-3.9c-.8-.1-1.1.3-1.1.3z"/><ellipse transform="matrix(.02 1 -1 .02 128.584 291.414)" fill="#DBD3EB" cx="-84.3" cy="211.3" rx="1.2" ry="1.1"/><ellipse transform="matrix(-.234 .972 -.972 -.234 100.089 357.406)" fill="#DBD3EB" cx="-90.7" cy="218.1" rx="2.4" ry="1.8"/><ellipse transform="matrix(-.234 .972 -.972 -.234 100.089 357.406)" fill="#9184AD" cx="-90.7" cy="218.1" rx="1.6" ry="1.2"/><path stroke="#9184AD" stroke-width="3" stroke-linecap="round" stroke-miterlimit="10" d="M-78 208c.2 0 3.6.5 2.5 2.4-1.2 1.9-7.3 9.2-5.6 12.2" fill="none"/><circle fill="#9184AD" cx="-81.1" cy="222.7" r=".8"/><g fill="#DBD3EB"><path d="M-82.2 208.1c.2.1.3.3.3.5l-.1.6-.4-.2c-.2-.1-.3-.3-.3-.5l.1-.5.4.1zM-84 207.7l.4.1c.2.1.3.3.3.5l-.1.6-.4-.2c-.2-.1-.3-.3-.3-.5l.1-.5zM-85.5 207.2l.4.2c.2.1.3.3.3.5l-.1.6-.4-.2c-.2-.1-.3-.3-.3-.5l.1-.6zM-87 206.6l.4.2c.2.1.3.3.3.5l-.1.5-.4-.2c-.2-.1-.3-.3-.3-.5l.1-.5zM-88.4 205.9l.4.2c.2.1.3.3.3.5l-.1.5-.4-.2c-.2-.1-.3-.3-.3-.5l.1-.5zM-89.5 205.2l.3.2c.2.1.3.3.3.5l-.1.5-.4-.2c-.2-.1-.3-.3-.3-.5l.2-.5zM-90.3 204.6l-.1.5c0 .2.1.4.3.5l.3.2.1-.5c0-.2-.1-.4-.3-.5l-.3-.2z"/></g><path fill="#9184AD" d="M-65.5 206s-4.2.9-3.2 5.3c0 0-.2 3.4 5 1.7 0 0 6.2-1 11-3.6 0 0-13.1 5-14.2 1.5-1.1-3.5 1.4-4.9 1.4-4.9z"/><ellipse transform="matrix(-1 .013 -.013 -1 -49.559 897.408)" fill="#5D4D78" cx="-27.7" cy="448.5" rx="4.1" ry="2.4"/><path fill="#5D4D78" d="M-16.7 439.3c.3 1.4.1 2.6-.6 2.8-.7.2-1.4-.8-1.8-2.2s-.1-2.6.6-2.8c.7-.2 1.4.8 1.8 2.2zM-19.5 443.1c.7.6.9 1.5.4 1.9-.4.5-1.3.4-2-.2-.7-.6-.9-1.5-.4-1.9s1.3-.4 2 .2zM-18.8 448.7c.3.3.2.9-.2 1.4s-1 .7-1.4.4c-.3-.3-.2-.9.2-1.4s1.1-.7 1.4-.4zM-28.7 436.8s-3.5.8-8-5.5c-.1 0 2.8 6.2 8 5.5zM-38.6 434.3s3.5 1 7.3 5.7c0 .1-3.1-5.2-7.3-5.7z"/><g fill="#5D4D78"><ellipse transform="matrix(.976 .217 -.217 .976 100.034 17.788)" cx="-30.8" cy="463.5" rx="3.3" ry="1.5"/><ellipse transform="matrix(.669 .744 -.744 .669 333.993 171.29)" cx="-25.2" cy="460.5" rx="2" ry="1.5"/><ellipse transform="matrix(.669 .744 -.744 .669 336.912 166.226)" cx="-18.1" cy="461.2" rx=".9" ry="1.5"/><path d="M-34.4 450.1s1-4.3-7.1-9.8c.1 0 8 3.5 7.1 9.8z"/></g><g fill="#5D4D78"><ellipse transform="matrix(-.297 .955 -.955 -.297 377.382 626.382)" cx="-41.9" cy="452.1" rx="2.5" ry="1.4"/><path d="M-49 456.9c.7.4 1.5.5 1.7.1s-.2-1-.9-1.4-1.5-.5-1.7-.1.2 1 .9 1.4zM-46.3 455.9c.2.5.7.8 1 .6.4-.2.5-.7.3-1.2s-.7-.8-1-.6c-.4.2-.5.7-.3 1.2zM-43.3 457.3c.1.2.5.3.8.1.3-.2.6-.5.5-.7-.1-.2-.5-.3-.8-.1-.4.1-.6.5-.5.7zM-48.2 449.4s1.1-1.9-1.7-5.7c0 .1 3 2.8 1.7 5.7zM-47.9 443.2s-.1 2.2 1.9 5.3c0 0-2.4-2.7-1.9-5.3z"/></g><ellipse transform="matrix(.308 .951 -.951 .308 159.246 308.246)" fill="#35267B" cx="-132.3" cy="263.6" rx="17.5" ry="50"/><ellipse transform="matrix(.308 .951 -.951 .308 159.246 308.246)" fill="#9184AD" cx="-132.3" cy="263.6" rx="14.3" ry="46"/><ellipse transform="matrix(.308 .951 -.951 .308 163.004 309.549)" fill="#5D4D78" cx="-131.3" cy="266.8" rx="10.9" ry="42.5"/><ellipse transform="matrix(.965 .264 -.264 .965 79.409 64.646)" fill="#35267B" cx="-201.1" cy="328.1" rx="17.3" ry="30.8"/><ellipse transform="matrix(.965 .264 -.264 .965 79.409 64.646)" fill="#9184AD" cx="-201.1" cy="328.1" rx="14.2" ry="28.3"/><ellipse transform="matrix(.965 .264 -.264 .965 79.748 63.829)" fill="#5D4D78" cx="-197.9" cy="329" rx="10.8" ry="26.1"/><ellipse transform="matrix(.21 -.978 .978 .21 -531.675 222.6)" fill="#35267B" cx="-128" cy="440.4" rx="17.3" ry="30.8"/><ellipse transform="matrix(.21 -.978 .978 .21 -531.675 222.6)" fill="#9184AD" cx="-128" cy="440.4" rx="14.2" ry="28.3"/><ellipse transform="matrix(.21 -.978 .978 .21 -527.891 220.685)" fill="#5D4D78" cx="-127.3" cy="437.1" rx="10.8" ry="26.1"/><ellipse transform="matrix(-.981 -.195 .195 -.981 -91.924 707.637)" fill="#35267B" cx="-11.2" cy="358.3" rx="22.1" ry="39.3"/><ellipse transform="matrix(-.981 -.195 .195 -.981 -91.924 707.637)" fill="#9184AD" cx="-11.2" cy="358.3" rx="18.1" ry="36.2"/><ellipse transform="matrix(-.981 -.195 .195 -.981 -100.004 705.216)" fill="#5D4D78" cx="-15.3" cy="357.5" rx="13.8" ry="33.4"/><ellipse transform="matrix(-.708 -.706 .706 -.708 -399.139 612.541)" fill="#5D4D78" cx="-73" cy="388.7" rx="24.4" ry="25.1"/><ellipse transform="matrix(-.708 -.706 .706 -.708 -399.139 612.541)" fill="#35267B" cx="-73" cy="388.7" rx="19" ry="21.9"/><ellipse transform="matrix(-.708 -.706 .706 -.708 -399.139 612.541)" fill="#9184AD" cx="-73" cy="388.7" rx="15.5" ry="20.1"/><ellipse transform="matrix(-.708 -.706 .706 -.708 -401.762 606.269)" fill="#5D4D78" cx="-75.6" cy="386.1" rx="11.9" ry="18.6"/><circle fill="#35267B" cx="-87.3" cy="314.9" r="24.7"/><circle fill="#9184AD" cx="-87.3" cy="314.9" r="22.7"/><circle fill="#5D4D78" cx="-85.3" cy="315.9" r="21.1"/><g><ellipse transform="matrix(.56 .829 -.829 .56 244.648 307.93)" fill="#35267B" cx="-167.5" cy="384.3" rx="24.7" ry="21.6"/><ellipse transform="matrix(.56 .829 -.829 .56 244.734 307.937)" fill="#9184AD" cx="-167.5" cy="384.3" rx="22.7" ry="19.9"/><ellipse transform="matrix(.56 .829 -.829 .56 246.015 306.454)" fill="#5D4D78" cx="-165.5" cy="384.8" rx="21.1" ry="18.5"/></g><path fill="#5D4D78" d="M-22.5 452.1c.2 2.4 1.5 4.3 3 4.3 1.7 0 3-2.3 3-5.1 0-1.2-.2-2.2-.6-3.1-1.4 2.4-3.3 3.5-5.4 3.9zM-32.6 445c-4.1-3.8-5.1-7-5.1-7 .4 3.2 3 5.7 5 7.3 0-.1 0-.2.1-.3z"/><g fill="#9184AD"><path d="M7.4 195.6h-1.6s.6 4.2-4.3 13.1c0-.1 5.2-6 5.9-13.1zM-12.6 177.9l.4 1.4s-4.8 2.4-7.1 9.1c0 0 1.8-7.5 6.7-10.5zM-12 180.9l.2 1.8s-5 3-5.5 7c-.1 0 1.3-6.9 5.3-8.8zM-11.2 184.4l.6 1.5s-4.1 3.2-5.3 8.3c-.1 0 1.9-8.3 4.7-9.8zM3.9 195.7l-1.5-.5.1-.4s-3.6 11-5.4 12.3c0 0 5.1-6 6.8-11.4zM.3 194.9c.1-.4-1.9-.8-1.9-.8s-3 9.6-5.8 11.1c0-.1 6.4-6.1 7.7-10.3zM-4 193.5l-1.6-1.3s-3.2 2.3-5.4 9.8c0 0 4.6-7.9 7-8.5zM-7.6 191.1l-1.2-1.2s-4.7 5.9-4.9 10.1c0 0 4-8.9 6.1-8.9zM-10.4 187.4l.5.9s-4 3.9-5 7.5c0 0 1.7-6.4 4.5-8.4z"/></g><path fill="#DBD3EB" d="M18.2 193.7c9.6-17.3 27.4-33 27.4-33s22.1-20.1 7.6-34.5l-35.1 8.4s-23.7 22.7-29.7 41.9c0 0-1.2 13.1 12.7 16.5l17.1.7z"/><path fill="#FC008B" d="M57 134.9s1.3 11.3-10.2 22.9c0 0-26.4 26.3-29.7 35.2 0 0-8.8 1.3-18-2 0 0 28.7-36.8 37.3-43.2 0 0 19.5 6.9 20.6-12.9z"/><path fill="#9184AD" d="M34.6 146.3s-7-4.6-3.4-11.7l-5.9 4.2s4.3 8.6-7.8 26.2c0-.1 11.3-15.3 17.1-18.7zM55.9 131.4s-2.3-6.4-9.9-8.7c-7.6-2.3-15.7 3.2-15.7 3.2l2.8 3.1c3.8-4.8 15.8-7.1 22.8 2.4zM1.7 157.5s1.5 1.4-1.9 8.8l1.9-8.8zM1.1 171.3s4.9-3.7 10 1c0 0-5.7-1.9-10-1zM.8 172.1s4.4 4.6 9.3 3.1c.1 0-5.6 3.7-9.3-3.1zM-1.2 166.3s-1.3-2.3-.3-6.4c0 0-2.6 5.5.3 6.4z"/><path fill="#DBD3EB" d="M26.2 177.2s-8.7 9.5-10.1 14.4c0 0-8.7 1-14-1.2 0 0 15.6 1.5 22.6-13.7l1.5.5z"/><path fill="#5D4D78" d="M41.7 149.9s3.3 3 0 10.4l-6.3 6.6s2.8-7.1-5.7-11.4l6.8-6.4c.1 0 3.1 1 5.2.8zM.9 189.7l6.6-8.1s5.3 4.6 11 1.7c0 .1-6.9 7.1-17.6 6.4z"/><path fill="#9184AD" d="M-1 188.7s-8.8-3.3-9.8-11.5c0 0 4.4 8.9 13 7.7l-3.2 3.8zM-1.2 173.1l-4.9 8.2s2.2 1.7 3.4 1.7c0-.1-1.4-2.9 1.5-9.9zM-3.2 171.4l-6.6 5.2s-.2-1 .5-2.5l6.1-2.7zM-9.3 177.7c.3-.2 2.2 2.7 2.2 2.7l3.8-7.1-6 4.4z"/><g stroke="#5D4D78" stroke-linecap="round" stroke-miterlimit="10" fill="none"><path d="M26.9 163.4l2 2.2c.5.5.9 1.2.6 1.8-.4.6-1.5.6-1.7 1.3-.1.4.1.8.4 1 .3.3.6.5.7.9.2.6 0 1.2-.2 1.7l-.4 1M22.3 171.5l1.7-2.2c.2-.3.4-.6.3-.9-.1-.3-.5-.6-.5-.9 0-.3.3-.5.6-.5s.6.1.8.2M24.9 164.8l-1.5-.5c-.2-.1-.5-.1-.7-.1l-.2.1-.8.6v-.2M28.3 161.8c.5-.1 1 .1 1.4.4.4.3.6.8.6 1.3.8 0 1.7.5 2.1 1.3h-.4M30.5 159.7c-.7-.5-.9-1.6-.5-2.3-.4 0-.7 0-1.1.1h.2M27.2 159.6c.2.2.1.5-.1.6s-.5.1-.7.2c-.3 0-.5.2-.6.4l.1-.1M33.5 161.1c.4 0 .7.4.6.8s-.5.6-.9.5l.2.5M33.9 167c0 .6-.4 1.3-1 1.5h.1M25.6 172.1c.2.1.1.5-.1.6-.2.1-.5.1-.7 0s-.5-.1-.7 0-.3.3-.4.6c0 .2 0 .5.1.7l-.2-.3"/></g><g stroke="#9184AD" stroke-linecap="round" stroke-miterlimit="10" fill="none"><path d="M40.3 157c.2.3.3.7.2 1s-.4.6-.7.8c-.2.1-.5.1-.6.4 0 .2.1.3.2.5.1.3 0 .6-.2.7-.2.2-.5.3-.8.3h.1M37.6 155.8c0 .4-.3.7-.6.8-.2.1-.5.1-.7.1s-.5 0-.7.2c-.2.1-.3.4-.1.6M40.8 154.1c-.3-.3-.6-.7-.9-.9s-.8-.4-1.3-.3l-.8.3c-.4.2-.9.1-1.4.1-.2 0-.5 0-.7-.1s-.4-.3-.3-.6l-.6.5M33 154.5c.2-.1.5.2.4.5 0 .3-.2.5-.4.6s-.3.4-.4.6l.1.8s-.1.6-.4.6"/></g><circle fill="#9184AD" cx="-14.2" cy="219.4" r="1.1"/><path fill="#9184AD" d="M-14.7 188.9s1.5 4.7 11.1 10.1c1.6 1.4.5 3 .5 3s-8.6 15.7-8.8 19.6l-4.1 1.4s-3 .6-4.3-1.4c-1.3-2-7.2-8.2-8.6-9 0 0-1.9-.9-1.2-2.6 0 0 9.1-12.9 10.8-18.7 0 0 .8-4.6 4.6-2.4z"/><path fill="#DBD3EB" d="M-4.1 199.4s1 1.1.2 2.3c0 0-8.7 16.4-8.4 19.2l-3.5 1.6s-2 .7-3.6-1.2c0 0 7.9-16.7 12.1-20 0 0 1.1-1.2.3-2.3l2.9.4zM-16.7 189.3s3.4 5.4 8.8 8.9l2.2.4s-7.2-4.4-9.5-9.2c-.8-.5-1.5-.1-1.5-.1z"/><ellipse transform="matrix(-.314 .95 -.95 -.314 175.44 278.902)" fill="#DBD3EB" cx="-13.1" cy="202.8" rx="1.7" ry="1.5"/><ellipse transform="matrix(-.544 .839 -.839 -.544 136.981 343.45)" fill="#DBD3EB" cx="-24.8" cy="208.9" rx="3.4" ry="2.5"/><ellipse transform="matrix(-.544 .839 -.839 -.544 136.981 343.45)" fill="#9184AD" cx="-24.8" cy="208.9" rx="2.2" ry="1.7"/><path stroke="#9184AD" stroke-width="3" stroke-linecap="round" stroke-miterlimit="10" d="M-3.2 201.5c.3.1 4.6 2.4 2.1 4.4s-13.9 8.8-13.1 13.5" fill="none"/><g fill="#DBD3EB"><path d="M-8.8 199.6c.2.2.3.5.2.8l-.4.8-.5-.4c-.2-.2-.3-.5-.1-.8l.4-.7.4.3zM-11 198.2l.4.4c.2.2.3.5.2.8l-.4.7-.5-.4c-.2-.2-.3-.5-.1-.8l.4-.7zM-12.8 196.9l.4.4c.2.2.3.5.2.8l-.3.7-.5-.4c-.2-.2-.3-.5-.1-.8l.3-.7zM-14.5 195.4l.4.4c.2.2.3.5.1.8l-.3.7-.4-.4c-.2-.2-.3-.5-.1-.8l.3-.7zM-16 193.8l.4.4c.2.2.3.5.1.8l-.3.7-.4-.4c-.2-.2-.3-.5-.1-.8l.3-.7zM-17.2 192.4l.4.4c.2.2.2.5.1.8l-.3.6-.4-.4c-.2-.2-.3-.5-.1-.8l.3-.6zM-18 191.2l-.3.6c-.1.3-.1.6.1.8l.4.4.3-.6c.1-.3.1-.6-.1-.8l-.4-.4z"/></g><path fill="#9184AD" d="M-54.3 231.5s-10 .4-5.7 14c4.3 13.5 19.8 27.4 32 29.5 0 0-22.2-8-30.5-29.7-.1 0-4.2-10 4.2-13.8zM-53.7 251.1l1.3 1.7s8.9-4.7 15.8-18.3c0-.1-8.6 13.7-17.1 16.6zM-34.8 221.7c.2-.3-10.8 15-21.6 14.8l-.3 1s12.2.6 21.9-15.8zM4.4 237.7s-6.5 18.8-3.5 36.2l-1.9.4c-.1 0-1-23.1 5.4-36.6zM14.2 204.6s-6-.7-6.7 5.5c0 0-1.9 4.5 5.8 4.7 0 0 8.6 1.6 16.3.4 0 0-19.7.5-19.5-4.6.3-5.3 4.1-6 4.1-6zM-96.7 236.1c.9-1.9 1.7-4.2 2.3-7 0-.1-1 3.3-3 6.9.2.1.5.1.7.1zM-61.5 247.7c-2.8-8.9-2.8-17.2-2.8-17.2-.5 5.3.7 11.7 2.1 16.8.2.2.4.3.7.4zM8.7 203.8l1-.5c.8-2.1 1.4-4.6 1.6-7.4l-1.5-.2c.1 0 .1 3.6-1.1 8.1zM13.4 203c.2.1.5.1.8.2.4-2.1.6-4.6.4-7.4l-1.5-.1c0-.1.6 3 .3 7.3zM17.1 204.5l.8.4c1.4-6.3-.8-9.5-.8-9.5l-1.1.1c1.3 2.9 1.4 6.1 1.1 9z"/><path fill="#35267B" d="M-54.3 259c-1.1-1.5-2-3-2.9-4.4-7.8-1.2-13.9.1-16.3 4.3-4.2 7.3 5.2 20.5 21 29.4 15.7 9 31.9 10.3 36 3 1.8-3.2 1-7.5-1.8-12.2-11.7-1-25.9-5.8-36-20.1z"/><path fill="#9184AD" d="M-68.9 206.3c0-1.6-.1-3.5-.7-5.4l-1.1.3s.9 2.4 1.1 5.8l.7-.7zM-63 205.3c-.5-4.6-2.7-6.2-2.7-6.2l-.7.4c1.5 1.6 2.4 3.7 2.8 5.7.2.1.4.1.6.1zM-65.9 205.1c-.2-1.5-.7-3.3-1.4-5.2l-1 .3s1.2 2 2 4.9h.4z"/></svg>