<svg version="1.2" baseProfile="tiny" xmlns="http://www.w3.org/2000/svg" viewBox="0 0 340.2 325.7"><g><path fill="#5D4D78" d="M328.9 77.3c-11.8-19-29.4-30.4-43.8-29.9-7.5-7.1-15.8-13.5-24.6-19.1-7.4-15.2-41-27.3-81.7-28.2-40.2-.9-74 9.3-82.6 23.9-48 26.7-80.9 77.3-82.6 136-17 12.7-18.4 45.3-2.4 75.5 12.1 22.9 30.9 38.4 48.1 41.5 28.4 29.1 67.8 47.6 111.6 48.6 17 .4 33.4-1.9 48.8-6.4 12 2.2 27.3-.6 41.8-8.6 17.3-9.5 29-23.9 31.7-37.1 25.5-27.8 41.5-64.6 42.4-105.3.3-11.5-.7-22.8-2.7-33.7 10.8-11.5 9.5-35.6-4-57.2z"/><path fill="#9184AD" d="M238.3 130.7c-35.3-66.8-114.7-95.7-185.7-71.2-23.4 27.1-37.9 62.1-39 100.6 1.1-.8 2.3-1.6 3.5-2.2 20.3-10.7 50.5 6.7 67.6 39 17 32.2 14.4 67.1-5.9 77.8-5.9 3.1-12.5 3.8-19.5 2.5 28.4 29.1 67.8 47.6 111.6 48.6 7.2.2 14.2-.1 21.1-.9 60.7-44.9 81.8-127.2 46.3-194.2z"/><ellipse transform="matrix(-.467 -.884 .884 -.467 -120.783 359.541)" fill="#35267B" cx="48" cy="216.2" rx="57.4" ry="32.3"/><ellipse transform="matrix(-.467 -.884 .884 -.467 -120.783 359.541)" fill="#9184AD" cx="48" cy="216.2" rx="52.9" ry="26.4"/><ellipse transform="matrix(-.467 -.884 .884 -.467 -110.111 360.143)" fill="#5D4D78" cx="53.5" cy="213.3" rx="48.8" ry="20.2"/></g><g><g><ellipse transform="matrix(1 .023 -.023 1 .809 -4.114)" fill="#35267B" cx="178" cy="32.9" rx="73.1" ry="25.5"/><ellipse transform="matrix(1 .023 -.023 1 .809 -4.114)" fill="#9184AD" cx="178" cy="32.9" rx="67.3" ry="20.9"/><ellipse transform="matrix(1 .023 -.023 1 .923 -4.111)" fill="#5D4D78" cx="177.9" cy="37.8" rx="62" ry="15.9"/><ellipse transform="matrix(1 .023 -.023 1 .923 -4.111)" fill="#5D4D78" cx="177.9" cy="37.8" rx="62" ry="15.9"/></g><g><ellipse transform="matrix(.528 .849 -.849 .528 222.247 -211.28)" fill="#35267B" cx="301.3" cy="94.4" rx="44.9" ry="25.3"/><ellipse transform="matrix(.528 .849 -.849 .528 222.247 -211.28)" fill="#9184AD" cx="301.3" cy="94.4" rx="41.4" ry="20.7"/><ellipse transform="matrix(.528 .849 -.849 .528 222.483 -206.542)" fill="#5D4D78" cx="297.2" cy="97" rx="38.2" ry="15.8"/></g><g><ellipse transform="matrix(-.877 .481 -.481 -.877 597.346 411.295)" fill="#35267B" cx="245.9" cy="282.2" rx="44.9" ry="25.3"/><ellipse transform="matrix(-.877 .481 -.481 -.877 597.346 411.295)" fill="#9184AD" cx="245.9" cy="282.2" rx="41.4" ry="20.7"/><ellipse transform="matrix(-.877 .481 -.481 -.877 590.874 404.39)" fill="#5D4D78" cx="243.6" cy="278" rx="38.2" ry="15.8"/></g><g><ellipse transform="matrix(.432 -.902 .902 .432 -62.474 98.731)" fill="#5D4D78" cx="47.2" cy="99" rx="36.7" ry="23.1"/><ellipse transform="matrix(.432 -.902 .902 .432 -62.474 98.731)" fill="#35267B" cx="47.2" cy="99" rx="32" ry="18"/><ellipse transform="matrix(.432 -.902 .902 .432 -62.474 98.731)" fill="#9184AD" cx="47.2" cy="99" rx="29.4" ry="14.7"/><ellipse transform="matrix(.432 -.902 .902 .432 -62.051 102.407)" fill="#5D4D78" cx="50.3" cy="100.5" rx="27.1" ry="11.2"/></g><g><ellipse transform="matrix(-.879 -.477 .477 -.879 165.685 507.681)" fill="#5D4D78" cx="147.3" cy="232.8" rx="36.7" ry="35.7"/><ellipse transform="matrix(-.879 -.477 .477 -.879 165.685 507.681)" fill="#35267B" cx="147.3" cy="232.8" rx="32" ry="27.7"/><ellipse transform="matrix(-.879 -.477 .477 -.879 165.685 507.681)" fill="#9184AD" cx="147.3" cy="232.8" rx="29.4" ry="22.7"/><ellipse transform="matrix(-.879 -.477 .477 -.879 172.731 500.05)" fill="#5D4D78" cx="149.8" cy="228.1" rx="27.1" ry="17.3"/></g><g><circle fill="#35267B" cx="136.5" cy="123.5" r="36.2"/><circle fill="#9184AD" cx="136.5" cy="123.5" r="33.2"/><circle fill="#5D4D78" cx="134.1" cy="125.8" r="30.8"/></g><g><ellipse transform="matrix(.954 .299 -.299 .954 68.792 -74.569)" fill="#35267B" cx="277.7" cy="187.1" rx="31.6" ry="36.2"/><ellipse transform="matrix(.954 .299 -.299 .954 68.79 -74.573)" fill="#9184AD" cx="277.7" cy="187.1" rx="29" ry="33.2"/><ellipse transform="matrix(.954 .299 -.299 .954 69.15 -73.712)" fill="#5D4D78" cx="275" cy="188.7" rx="27" ry="30.8"/></g></g></svg>