<svg version="1.2" baseProfile="tiny" xmlns="http://www.w3.org/2000/svg" viewBox="0 0 197.4 224.7"><path fill="#FC008B" d="M170.3 126.7h-13.6c-2.3-1-5-1.6-8.2-1.6l-1.2-2 2.8-.4v-3.7l-10.3-1-3.8-23.2 2-1.3v-1l-2.5-.7-1.2-7.8 3.7-2.2v-2.1h-4.4l-.3-2.1c0-6.4-5.2-11.6-11.6-11.6-4.9 0-9 3-10.7 7.3v-27.1c1.3-.4 2.3-1.2 2.3-2.1 0-.6-.4-1.1-1-1.5 1.3-.5 2.1-1.4 2.1-2.3 0-1.3-1.6-2.4-3.8-2.8l-1.5-8.7-1.3 8.7c-2.3.3-4 1.5-4 2.8 0 .9.8 1.8 2.1 2.3-.6.4-1 .9-1 1.5 0 .9.9 1.7 2.2 2.1v15.2l-.2.1-2.8 3.9v10.6l3 1.8v3c-1.3-.3-2.6-.4-4-.4-1.2 0-2.4.1-3.5.3l-1.9-24.1 2.4-.5v-2.8l-2.6-.6c-.7-8.9-6.8-15.9-14.4-15.9v.1c-.3 0-.7 0-1 .1v-21.9c.5-.4.8-.8.8-1.3 0-.6-.4-1.1-1.1-1.5 1.4-.5 2.3-1.4 2.3-2.3 0-.7-.5-1.4-1.4-1.9.8-.5 1.3-1.2 1.3-1.9 0-.9-.9-1.8-2.3-2.3.7-.4 1.1-.9 1.1-1.5 0-1.3-2.1-2.4-4.8-2.4-2.6 0-4.8 1.1-4.8 2.4 0 .6.4 1.1 1.1 1.5-1.4.5-2.3 1.4-2.3 2.3 0 .7.5 1.4 1.4 1.9-.9.5-1.4 1.2-1.4 1.9 0 .9.9 1.8 2.3 2.3-.7.4-1.1.9-1.1 1.5 0 .7.7 1.3 1.7 1.8v24.2c-3.8 3.1-6.4 8.4-6.4 14.5l-.1 1.6c-2-1-4.2-1.5-6.6-1.5v-.1c-7 0-12.7 4.8-14 11.3v-1l-2 .8v2.3l1 1.5v4.4h-3.5l1 1.4 2.6.6-1.8 19-.6-13.7c0-5.3-3.9-9.6-8.6-10.9v-17.8c4.4-.5 7.6-2.7 7.6-5.2 0-1.7-1.5-3.3-3.7-4.2 1.2-.8 1.9-1.8 1.9-2.8 0-2.4-3.5-4.3-7.8-4.3s-7.8 1.9-7.8 4.3c0 1.1.7 2 1.8 2.8-2 .8-3.3 2.1-3.7 3.5l-3.6.2.8 2.2h3.2c1 1.6 3.3 2.9 6.2 3.4v17.8c-5.2 1-9.5 5.6-9.5 11.2l.1.9-8.5 1.9-.8 2 9-.5-4.4 46.1h-4.9c-6.4 0-11.8 5.3-11.8 11.7v1.4c0 5.6 3.9 8.9 9.3 10.9l12 16.5 12.2 2.1 1.9 4.6h2.2l-.4-3.9 3.5.6 7 20.5 3.1 1 3.1 10.8h2v-9.2l1.6.5 1 15.3s1 .7 1.9 1.1l.4 7.6 3.5 1.6.9-16.3c.9-.3 1.8-.6 2.4-.7l-.3 7.4s2.2.5 2.3 0c.1-.5 2.1-11 2.7-14.4h25.7l.7 2.2 2.5.9.6 5.9h2.2l.4-4.7 2 .7 1.1 10.2s3.2-.1 3.2-.7c0-.3.5-5 .9-9.2l2.9-.7.4 7.1 1.8-1.1.5-4.1 2.6-3.2s.7-5 1.3-7.5l7.4-3.8 4.5-19.9 15.7-6 5.8-11.2c5.5-1.1 11.2-4.2 11.2-11.2v-1.4l-.1-2.7 3.1-1.6-2.9-8.8-4.2.4c-.6-.7-1.2-1.3-1.9-1.8h10.9l5.8-6.1-1.6-.9-4.5 5.3zm-26.4-3.1l-.1 1.8c-.9.2-1.9.3-3 .4l-.3-1.8 3.4-.4zM181.7 87.7c.1-.3.2-.6.2-.9 0-1.8-2.3-3.2-5.2-3.2-2.9 0-5.2 1.5-5.2 3.2 0 .3.1.6.2.9-2.1.5-3.5 1.4-3.5 2.4 0 1.2 1.9 2.2 4.7 2.7v.5l2 2.4-1-2.3v-.4c.9.1 1.8.2 2.7.2.7 0 1.3 0 1.9-.1l.1.6-2.1 2.9 2.8-2.3s0-.6-.1-1.2c3.3-.4 5.7-1.5 5.7-2.8.3-1.2-1.1-2.1-3.2-2.6zM195.7 72c.1-.1.2-.3.3-.5.4-1.1-.8-2.5-2.5-3.1-1.8-.6-3.5-.2-3.9.9-.1.2-.1.4-.1.6-1.4-.1-2.5.1-2.7.7-.2.7.8 1.8 2.5 2.7l-.1.3.8 1.9v-1.5l.1-.3c.4.2.9.4 1.4.6.4.1.8.3 1.2.3v.4l-1.9 1.3 2.2-.9.2-.8c2.1.4 3.8.3 4.1-.5.3-.5-.4-1.3-1.6-2.1zM156.6 75v.2l1.3 1-.7-1v-.2c.4 0 .8-.1 1.2-.2.3-.1.6-.2 1-.2l.1.3-.7 1.6 1.1-1.4-.2-.6c1.6-.5 2.7-1.3 2.5-2-.1-.5-.9-.8-2-.8v-.4c-.2-.9-1.5-1.4-2.9-1.1-1.4.3-2.4 1.2-2.2 2.1 0 .1.1.3.2.4-1 .5-1.6 1.1-1.5 1.5.2.6 1.3.9 2.8.8z"/><g fill="#DAD3EB"><path d="M62.4 121.1v-19.4h5.1c.7 0 1.4 0 1.9.1s1.1.2 1.7.4 1 .5 1.4.9.7.9.9 1.5c.2.6.3 1.2.3 2v.2c0 2.3-1 3.6-2.8 3.9 1.1.1 2 .6 2.6 1.4s.9 1.9.9 3.3v.1c0 1.9-.5 3.3-1.5 4.2-1 .9-2.5 1.4-4.4 1.4h-6.1zm4.3-11.6h.8c.9 0 1.5-.2 1.9-.6s.5-1.1.5-2c0-1.5-.8-2.3-2.5-2.3h-.7v4.9zm0 8.6h.9c.9 0 1.6-.2 2-.7s.6-1.2.6-2.1c0-1.1-.2-1.9-.6-2.3s-1.1-.7-2-.7h-.8v5.8zM82.1 121.4c-.9 0-1.7-.1-2.3-.3s-1.2-.4-1.6-.8-.8-.8-1.1-1.3-.5-1.1-.6-1.8-.2-1.4-.2-2.3v-13.3h4.2v14.700000000000001s.1.4.1.7.1.5.2.6.2.3.4.4.4.2.7.2.5-.1.7-.2.3-.2.4-.4.2-.4.2-.6.1-.5.1-.7v-14.700000000000001h4.3v13.4c0 1.1-.1 2-.3 2.8s-.5 1.4-.9 2-1 1-1.8 1.2-1.4.4-2.5.4zM93.1 121.1v-7.9l-3.7-11.5h4l1.9 6.2 1.7-6.2h3.9l-3.7 11.5v7.9h-4.1zM44.8 149.9v-16.3h-3v-3.2h10.2v3.2h-3v16.3h-4.2zM53.8 149.9v-19.4h4.3v19.4h-4.3zM66.5 150.2c-1.1 0-2-.2-2.8-.5s-1.4-.7-1.8-1.3-.8-1.3-1-2-.3-1.7-.3-2.7v-6.9c0-1.1.1-2 .3-2.7s.5-1.5 1-2 1-1 1.8-1.3 1.7-.4 2.8-.4c1 0 1.9.1 2.7.4s1.3.7 1.7 1.2.7 1.1.9 1.8.3 1.4.3 2.3v1.7h-4.2v-2.7s0-.4-.1-.6-.1-.4-.2-.6-.2-.2-.4-.3-.4-.1-.7-.1-.5 0-.7.1-.3.2-.4.4-.2.3-.2.6-.1.5-.1.7v9.799999999999999c0 .8.1 1.4.3 1.8s.6.6 1.2.6c.3 0 .5 0 .7-.1s.3-.2.4-.3.2-.3.2-.6.1-.5.1-.6v-2.7h4.2v1.7c0 .7-.1 1.3-.2 1.9s-.3 1.1-.6 1.6-.6.9-1 1.2-1 .6-1.6.8-1.4-.2-2.3-.2zM74.5 149.9v-19.4h4.3v7.9l3.3-7.9h4.2l-3.6 8.8 3.8 10.7h-4.5l-2.8-8.7-.4.7v8h-4.3zM88 149.9v-19.4h8.7v2.9h-4.4v4.8h3.4v3h-3.4v5.8h4.5v2.9h-8.8zM100.6 149.9v-16.3h-3v-3.2h10.2v3.2h-3v16.3h-4.2zM114.6 150.2c-1.8 0-3.2-.5-4.1-1.5s-1.4-2.5-1.5-4.7l3.7-.6c0 1.2.2 2.1.4 2.7s.7.8 1.2.8c.7 0 1.1-.5 1.1-1.4 0-.5-.1-1-.3-1.4s-.4-.8-.7-1.1l-1.1-1.1-1.7-1.5c-.4-.4-.8-.7-1-1s-.5-.7-.8-1.1-.5-.9-.6-1.4-.2-1.1-.2-1.7c0-1.6.5-2.9 1.5-3.8s2.3-1.3 4-1.3c.6 0 1.1.1 1.6.2s.9.3 1.2.5.6.5.9.8l.6.9s.3.7.4 1 .2.7.2 1.1.1.7.1 1l-3.7.5v-.8s0-.4-.1-.7-.1-.4-.1-.6-.1-.3-.2-.4l-.3-.3s-.3-.1-.5-.1c-.4 0-.7.2-.9.5s-.3.7-.3 1c0 .4 0 .7.1 1s.2.6.5.9.4.5.5.6l.7.7 1.7 1.5c.5.4.8.8 1.2 1.2s.6.8.9 1.3.5 1 .7 1.6.2 1.2.2 1.8c0 1.4-.5 2.6-1.4 3.5s-2.3 1.4-3.9 1.4z"/></g></svg>