<svg version="1.2" baseProfile="tiny" xmlns="http://www.w3.org/2000/svg" viewBox="0 0 365.9 387.2"><ellipse transform="matrix(.905 .425 -.425 .905 131.047 -121.438)" fill="#9184AD" cx="338" cy="233.3" rx="27.8" ry="28.2"/><path fill-rule="evenodd" fill="#DAD3EB" d="M346.6 266.1l-39.8-18.7c-1-.5-2.2.2-2.6 1.2l-14.9 38s9.8 6.3 20.1 11.2c9.3 4.3 18.8 7.1 18.8 7.1l-1.3 2.5 20.5-38.5c.4-1 .1-2.3-.8-2.8z"/><path stroke="#DBD3EB" stroke-width="6" stroke-miterlimit="10" d="M307.2 272.5c-29.7 3.4-62.1-.2-90.3-10.2-14.4-5.1-28.1-13.2-37.4-25.3-22.3-28.8-17.1-68.7-13.8-102.4 1.3-12.9 1-26.6-5.3-38-5.7-10.4-16.2-17.8-27.6-21.1-25.1-7.3-65.7 3.4-62.1 36.5 1.4 12.6 12.4 24.1 25.2 24.1 14.9.1 25.4-13 32.6-24.4 24.1-38.1 20.4-89.4-28.2-105-11.7-3.8-24.2-4.2-36.5-3.3-22.8 1.7-45.3 8.2-65.6 18.8" fill="none"/><path fill="#35267B" d="M354.2 239.4c-9.1 15.3-15.5 20-26.4 14.8-10.8-5-11.3-14.6-5.2-30.1 4-10.2 12.6-15.7 24.1-10.3 10.4 4.9 14 14.6 7.5 25.6z"/><path fill="#FC008B" d="M330.1 249.5s1.1.2 2.2 1l-1.1 4s4.3-.4 7.5-1.7l7.4-6.1s-4.6 2.1-7.4-.7c-.9-.9-1.8-2.3-.9-4.4.5-1.2 1.2.8 1.5 1.2.9 1.1.7 1.3 3.8 1.8 3.4.6 7.3-4.1 8.5-5.8s2.2-5.7 2.5-6.5c.4-.8 1-1.2 1-1.2s-1.4 0-3 .2-2.4 1-2.4 1 .5-1.3 1.5-2.2c1-1 2.8-.9 2.8-.9s-1-.5-2.8-.8c-1.9-.3-3.6.5-3.6.5s.6-.9.1-2.7c-.4-1.8-2.1-3.8-2.1-3.8s.4 4.1-.9 5.9c-.7.9-2.5 1.5-3.7 2-1.6.6-2.6 1.2-2.6 1.2s-.2-1.2-.8-2.7c-.4-1.2-1.2-3-.8-4.1.6-2.2 4-4.4 4-4.4s-2.6 0-4.3.8c-1.7.8-2 1.9-2 1.9s-.5-1.8-1.9-3.1c-1.4-1.2-2.4-1.6-2.4-1.6s1.2 1.3 1.1 2.7c-.1 1.4-.8 2.6-.8 2.6s.1-1.2-.7-2.5c-.9-1.3-1.7-2.5-1.7-2.5s.1.8-.2 1.5c-.4.8-2.8 4.1-3.4 6.1s-1.7 8 1 10.3c2.4 2.1 2.4 1.7 3.9 1.8.5 0 2.5-.8 1.9.4-1 2-2.7 2.3-3.9 2.1-3.9-.4-5.2-5.3-5.2-5.3s-1 6.3 0 9.6 3.4 6.9 3.4 6.9 1-3.7 2.4-3.4c1.2.1 2.1.9 2.1.9z"/><path fill="#DAD3EB" d="M333.9 233.7s1.5-1.7-.7-4.3c-2.1-2.5-7.1-3.9-7.1-3.9s.4 3.4 2.3 5.6c2.5 2.9 5.5 2.6 5.5 2.6zM339.8 236.5s.4-2.2 3.7-2.2c3.3 0 7.5 3 7.5 3s-2.9 1.9-5.8 1.8c-3.6-.1-5.4-2.6-5.4-2.6z"/><ellipse transform="matrix(.905 .425 -.425 .905 135.717 -117.677)" fill="#DAD3EB" cx="331.9" cy="245.7" rx="5" ry="1.8"/><path fill="#FC008B" d="M345.7 216.2l.1 1.4 1.2.8-1.4.4-.3 1.4-.9-1.2-1.5.1.8-1.2-.5-1.3 1.4.4z"/><g fill="#FC008B"><path d="M339.3 215.8l.6.9 1.1.1-.7.8.2 1-.9-.4-.9.5v-1l-.8-.7 1-.2zM350 220.8l-1 .2-.8-.8-.1 1-1 .5 1 .5.1 1 .8-.7 1.1.2-.6-1z"/></g><path fill-rule="evenodd" fill="#DAD3EB" d="M279.7 371.9l12.3 5.8 14.6-29-14-6.6z"/><path fill="#FC008B" d="M301.3 359.3c-4.7-2.2-4.8-6.5-8.5-8.2-2.4-1.1-2.9 2.9-4.9 1.9-.6-.3-.8.3-.6 1.4l-9.2 20.9 12.4 5.8.4-.8 7.3 3.4c1.2-2.5 1.1-6.7-4.4-9.2l6.9-13.8c.9-.6 1.2-1.2.6-1.4z"/><path fill-rule="evenodd" fill="#DBD3EB" d="M283.7 362.5c-.2 1 .6 3.1.6 3.1.1 0 .3-.7.3-.7.2 1.1 1.7 3.7 1.7 3.7s-1.1-.8-1.6-1.9c0 0-.3.5-.3.8 0 .2-1.4-1.7-1.4-3.2l.7-1.8zM287.5 359.8c-.4 1.6.9 5.4.9 5.4.1 0 .5-1.3.5-1.3.3 1.9 2.9 6.2 2.9 6.2s-1.9-1.4-2.7-3.2c0 0-.6.9-.6 1.3s-2.7-3.3-2.3-5.8c0 0-.7.7-.8 1-.1.2-.7-2.6.3-5.7l1.1-2.5s-.5 3.6 0 5.1c.1.2.7-.5.7-.5z"/><path fill="#5D4D78" d="M277 377.8l19.8 9.3c.2.1.5 0 .7-.2l1.1-2.5c.1-.2 0-.5-.2-.7l-19.8-9.3c-.2-.1-.5 0-.7.2l-1.1 2.5c-.1.3 0 .6.2.7z"/><path fill="#35267B" d="M323.401 265.484l14.305 6.709-6.709 14.305-14.305-6.709z"/><circle fill-rule="evenodd" fill="#5D4D78" cx="310.2" cy="263.1" r="3.3"/><circle fill-rule="evenodd" fill="#5D4D78" cx="305.9" cy="272.2" r="3.3"/><path fill-rule="evenodd" fill="#DAD3EB" d="M269 366.9l-12.3-5.8 12.9-29.8 14 6.6zM283.4 337.8l-13.8-6.5 13.4-31.6 14.2 8.5zM292.6 342.1l14 6.6 15.6-30.6-15.7-5.6z"/><path fill="#DAD3EB" d="M259.7 304.1c-.3.7-1.2 1-1.8.7-.7-.3-1-1.2-.7-1.8l2.5-5.3c.3-.7 1.2-1 1.8-.7.7.3 1 1.2.7 1.8l-2.5 5.3zM271 296.2c.9-2.3 2.1-5.3 3.4-8 2.9-6.1 6.2-12 10.2-17.5 4.9-6.8 10.1-12 18-16.1 1.5-.8 8.4-3.7 6.5-6.3-1.2-1.7-5.8-1.9-7.6-1.6-7.4 1.1-13.5 6.6-18.2 11.5-7.3 7.6-12.8 16.6-17.2 26-1.3 2.7-2.5 5.7-3.4 8.1l8.3 3.9zM273.4 302.9l-1.1.4c-.4.2-.9-.1-1.1-.5l-2.5-7 2.7-.9 2.5 7c.1.4-.1.9-.5 1zM261.9 308.9c-.3.7-1.2 1-1.8.7-.7-.3-1-1.2-.7-1.8l3.9-8.4c.3-.7 1.2-1 1.8-.7.7.3 1 1.2.7 1.8l-3.9 8.4zM266.3 308.9c-.3.7-1.2 1-1.8.7-.7-.3-1-1.2-.7-1.8l3.1-6.7c.3-.7 1.2-1 1.8-.7.7.3 1 1.2.7 1.8l-3.1 6.7z"/><g fill="#9184AD"><path d="M277.068 265.216l7.679 6.089-.373.47-7.679-6.089zM275.84 266.838l7.679 6.089-.373.47-7.679-6.089zM274.534 268.399l7.758 6.151-.373.47-7.758-6.151z"/></g><path fill="#FC008B" d="M270.3 300.3l2.7-.9-1.5-4.3v-.1s-1-1.6-4.2-2.8c-2.7-1-4.4-.5-4.4-.5l-3.3 6.3-.8 1.8 2.5 1.2.8-1.7 1.1.5-.8 1.7 2.5 1.2.8-1.7 1.1.5-.8 1.7 2.5 1.2.8-1.8c.2-.4.6-1.4.9-2.5l.1.2z"/><path fill="#DAD3EB" d="M332.4 338.2c-.3.7 0 1.5.7 1.8.7.3 1.5 0 1.8-.7l2.5-5.3c.3-.7 0-1.5-.7-1.8-.7-.3-1.5 0-1.8.7l-2.5 5.3zM331.3 324.5c1.3-2.2 2.7-5 4-7.7 2.9-6.1 5.2-12.4 6.9-19 2.1-8.2 2.8-15.5.9-24.1-.4-1.7-2.5-8.8.7-9.1 2.1-.1 5.1 3.3 6.1 4.8 3.9 6.4 3.6 14.7 2.8 21.4-1.2 10.4-4.5 20.5-9 29.9-1.3 2.7-2.8 5.6-4 7.8l-8.4-4zM324.6 327l.4 1.1c.2.4.6.6 1.1.5l6.9-2.5-1-2.7-6.9 2.5c-.4.1-.7.6-.5 1.1zM327.4 339.6c-.3.7 0 1.5.7 1.8.7.3 1.5 0 1.8-.7l3.9-8.4c.3-.7 0-1.5-.7-1.8-.7-.3-1.5 0-1.8.7l-3.9 8.4zM324.5 336.2c-.3.7 0 1.5.7 1.8.7.3 1.5 0 1.8-.7l3.1-6.7c.3-.7 0-1.5-.7-1.8-.7-.3-1.5 0-1.8.7l-3.1 6.7z"/><g fill="#9184AD"><path d="M351.041 300.588l-9.591-2.011.123-.587 9.591 2.011zM350.625 302.512l-9.591-2.011.123-.587 9.591 2.011zM350.287 304.555l-9.689-2.031.123-.587 9.689 2.031z"/></g><path fill="#FC008B" d="M337.3 334.4l2.8-6.5s-.7-1.4-3.6-2.9c-2.4-1.3-4.5-1.6-4.5-1.6l-.1.1-4.3 1.6 1 2.7.4-.1c-.7 1-1.2 1.9-1.4 2.3l-.8 1.8 2.5 1.2.8-1.7 1.1.5-.8 1.7 2.5 1.2.8-1.7 1.1.5-.8 1.7 2.5 1.2.8-1.7v-.3z"/><g fill="#9184AD"><path d="M270.967 327.547l14.411 6.952-.261.54-14.411-6.952zM270.163 329.379l14.411 6.952-.261.54-14.411-6.952zM269.135 331.214l14.591 7.039-.261.54-14.591-7.039z"/></g><g fill="#9184AD"><path d="M308.155 345.696l-14.56-6.635.249-.546 14.56 6.635zM307.416 347.48l-14.56-6.635.249-.546 14.56 6.635zM306.637 349.356l-14.742-6.718.249-.546 14.742 6.718z"/></g><path fill="#9184AD" d="M312.2 242.8l35.1 16.5c.4.2.7.3.7.7l-.4 6.4c0 .5-.7.9-1.3.6l-39.4-18.5c-.6-.3-.7-1.1-.3-1.5l4.6-4.2c.2-.2.6-.2 1 0z"/><path fill="#DAD3EB" d="M308.6 245.2l39.1 18.4.2-1-38.7-18.1zM307 246.5l40.7 19.1.1-1-40.2-18.8zM310.1 243.9l37.7 17.6.1-.9-37.2-17.5zM350.2 210c-5.6-2.6-11.8-2.9-17.3-1.2 4.3-.5 8.7.2 12.8 2.2 12.2 5.7 17.4 20.4 11.6 32.8-3.1 6.7-8.8 11.3-15.3 13.3 8.3-.9 16-6 19.9-14.2 5.7-12.5.5-27.2-11.7-32.9z"/><path fill="#FC008B" d="M278.3 348.5c-2-.9.7-3.9-1.7-5-3.7-1.7-7.1.9-11.8-1.3-.6-.3-.8.3-.6 1.4l-6.2 14.1c-5.4-2.5-8.7 0-9.9 2.6l7.3 3.4-.4.8 12.4 5.8 10.2-20.5c1-.5 1.3-1 .7-1.3z"/><path fill-rule="evenodd" fill="#DBD3EB" d="M273.6 357.8c-.6.8-2.7 1.6-2.7 1.6 0-.1.4-.7.4-.7-1 .6-3.9 1-3.9 1s1.4.3 2.5 0c0 0-.2.6-.4.7-.2.1 2.3 0 3.4-1l.7-1.6zM273.3 353.2c-1 1.3-4.7 2.8-4.7 2.8-.1-.1.7-1.2.7-1.2-1.7 1-6.6 1.8-6.6 1.8s2.3.6 4.2 0c0 0-.3 1-.6 1.3-.3.3 4.3 0 6-1.9 0 0-.1 1-.3 1.2-.1.2 2.4-1.1 4.2-3.9l1.2-2.4s-2.5 2.7-4 3.3c-.3-.1-.1-1-.1-1z"/><path fill="#9184AD" d="M320.004 275.175l3.441 1.613-1.613 3.441-3.441-1.613zM324.51 277.274l3.441 1.613-1.613 3.441-3.441-1.613zM329.016 279.373l3.441 1.613-1.613 3.441-3.441-1.613z"/><path fill="#DAD3EB" d="M329.7 270.6c-3.4-1.6-7.5-.1-9.2 3.3l12.5 5.9c1.6-3.5.2-7.6-3.3-9.2z"/><path fill-rule="evenodd" fill="#FC008B" d="M289.2 286.6l-1.1 2.6-2.7 8.1c-1.1 2.3 9.4 10 11.7 11.1l9.6 4.5c2.4 1.1 14.7 2.8 15.7.4l4.4-6 1.3-2.5s-9.6-2.7-18.8-7.1c-10.3-4.8-20.1-11.1-20.1-11.1z"/><path fill-rule="evenodd" fill="#9184AD" d="M288.1 289.2l-5 10.4c-1.1 2.3 10.5 10.3 12.8 11.4l9.6 4.5c2.4 1.1 15.9 4.4 16.9 2l4.4-10.1s-9.4-2.7-18.7-7c-10.3-5-20-11.2-20-11.2z"/><path fill="#5D4D78" d="M266.1 372.7l-19.8-9.3c-.2-.1-.4-.4-.2-.7l1.1-2.5c.1-.2.4-.4.7-.2l19.8 9.3c.2.1.4.4.2.7l-1.1 2.5c-.1.2-.4.3-.7.2z"/></svg>