<svg version="1.2" baseProfile="tiny" xmlns="http://www.w3.org/2000/svg" viewBox="0 0 409.7 175.3"><path stroke="#DBD3E9" stroke-width="6" stroke-miterlimit="10" d="M88.7 71.3c9.8 8.4 17.9 18.8 23.6 30.4 6.3 12.6 8.8 37 5.1 50.4-3 11.1-13.2 21.2-24.6 20.1-4.6-.5-9.3-3-11.1-7.3-1.2-3-.9-6.4-.1-9.5 4.6-17.1 24-26.7 41.7-25.9 17.7.8 33.9 9.6 49.2 18.4 15.3 8.8 31 18.2 48.6 20.3 23.1 2.8 46.5-7.7 62.9-24.2s26.3-38.5 32.2-61c5.7-21.7 7.1-47-7.1-64.3-3.9-4.7-9.2-8.8-15.3-9.3-6.1-.5-12.8 3.6-13.4 9.7-.7 6.3 5.2 11.8 11.4 13 6.2 1.2 12.6-.6 18.7-2.3 17.1-4.8 34.7-8.8 52.5-8.1s35.9 6.4 48.7 18.8" fill="none"/><ellipse transform="matrix(-.514 -.858 .858 -.514 -10.533 179.821)" fill="#9184AD" cx="45.7" cy="92.9" rx="23.1" ry="23.4"/><path fill-rule="evenodd" fill="#D9D2E8" d="M80.2 51.1l-24.4 13c-.8.4-1.2 1.5-.7 2.2l18.7 31.3c.5.8 1.6.9 2.3.4l22.8-15.7-18.7-31.2z"/><path fill="#D9D2E8" d="M11.4 76c1.8-1 4.1-2.2 6.4-3.3 5.1-2.4 10.3-4.3 15.7-5.7 6.8-1.7 12.8-2.3 20-.7 1.4.3 7.3 2.1 7.5-.6.1-1.8-2.7-4.3-4-5-5.3-3.2-12.1-3-17.7-2.3-8.6 1-17 3.7-24.8 7.4-2.2 1-4.6 2.2-6.3 3.2l3.2 7z"/><g fill="#ED1D89"><path d="M31.704 59.516l1.653 7.93-.489.102-1.653-7.93zM30.122 59.873l1.653 7.93-.489.102-1.653-7.93zM28.518 60.131l1.674 8.028-.49.102-1.674-8.028z"/></g><path fill="#ED1D89" d="M4.9 80.4c.8-.2 7.5-5 7.5-5s-1-2.1-1.7-3.4c-.6-1.2-2.1-3.3-2.1-3.3l-7.7 3 4 8.7z"/><path fill="#D9D2E8" d="M6.9 76.1l-.3.7c-.2.4.1.9.5 1.1l2.6 1 .8-2.2-2.6-1c-.3-.2-.8 0-1 .4z"/><path fill="#ED1D89" d="M9.5 76.4l-.8 2.2.7.3c.8.3 1.8-.1 2.1-.9l.3-.7-2.3-.9zM8.7 78.6l.7.3c.8.3 1.8-.1 2.1-1l.9-2.5-2.2-.8-1.5 4z"/><path fill="#D9D2E8" d="M.1 73.4l-.1-.7c-.1-.4.2-.9.7-.9l2.4-.4c.5-.1.9.2 1 .6l.1.7c.1.4-.2.9-.7.9l-2.4.4c-.5.1-.9-.2-1-.6zM1.8 77.1l-.3-.6c-.2-.4 0-.9.4-1.1l2.2-1c.4-.2.9 0 1.1.4l.3.6c.2.4 0 .9-.4 1.1l-2.2 1c-.4.2-.9 0-1.1-.4zM3.4 80.4l-.4-.6c-.2-.4-.1-.9.3-1.1l2.2-1.2c.4-.2.9-.1 1.1.3l.4.6c.2.4.1.9-.3 1.1l-2.2 1.2c-.4.2-.9.1-1.1-.3zM42.5 130c1.8-1 4.1-2.3 6.2-3.7 4.7-3 9.1-6.5 13.2-10.3 5.1-4.8 8.7-9.7 11.2-16.6.5-1.4 2.1-7.3 4.5-6.1 1.6.8 2.2 4.6 2.1 6.1-.1 6.2-3.9 11.9-7.4 16.3-5.4 6.8-12.2 12.4-19.4 17.1-2.1 1.4-4.4 2.7-6.2 3.7l-4.2-6.5z"/><g fill="#ED1D89"><path d="M66.949 121.796l-5.844-5.608.346-.361 5.844 5.608zM65.836 123.029l-5.844-5.608.346-.361 5.844 5.608zM64.722 124.261l-5.916-5.678.346-.361 5.916 5.678z"/></g><path fill="#ED1D89" d="M35.3 133.1c.6-.6 8.3-3.7 8.3-3.7s1.3 1.9 2 3.2c.7 1.2 1.7 3.5 1.7 3.5l-6.7 4.9-5.3-7.9z"/><path fill="#D9D2E8" d="M40 133.7l-.7-.1c-.4-.1-.7-.5-.6-1l.5-2.7 2.3.5-.5 2.6c-.1.5-.5.8-1 .7z"/><path fill="#ED1D89" d="M41.2 131.3l-2.3-.5.1-.7c.2-.9 1-1.5 1.9-1.3l.7.1-.4 2.4zM38.9 130.9l.1-.7c.2-.9 1-1.5 1.9-1.3l2.6.5-.5 2.3-4.1-.8z"/><path fill="#D9D2E8" d="M38.8 140.9l.5.5c.3.3.9.3 1.2-.1l1.6-1.9c.3-.3.3-.9-.1-1.2l-.5-.5c-.3-.3-.9-.3-1.2.1l-1.6 1.9c-.3.4-.3.9.1 1.2zM36.5 137.5l.4.6c.2.4.8.5 1.1.2l2.1-1.4c.4-.2.5-.8.2-1.1l-.4-.6c-.2-.4-.8-.5-1.1-.2l-2.1 1.4c-.3.2-.4.7-.2 1.1zM34.5 134.4l.3.6c.2.4.7.5 1.1.3l2.2-1.2c.4-.2.5-.7.3-1.1l-.3-.6c-.2-.4-.7-.5-1.1-.3l-2.2 1.2c-.3.2-.5.7-.3 1.1z"/><path fill-rule="evenodd" fill="#D9D2E8" d="M157.6 37.8l4.8 10.2-23.9 12.2-5.5-11.6z"/><path fill="#5D4D78" d="M160.9 37.6l-.6-1.2-18.2 8.1c-.1 0-.1 0-.2.1-2.5 1.2-1.5 8.7-.6 5.6 1.1-3.7 5.2 1.4 5 6 0 .6.6.3 1.3-.6l17.5-8.8 1.2.9c4.1 2.8 7.1 1.1 8.4-.8l-13.8-9.3z"/><path fill="#D9D2E8" d="M161.5 34.3l14.9 10c.2.2.3.5.1.7l-1.2 1.7c-.2.2-.5.3-.7.1l-14.9-10c-.2-.2-.3-.5-.1-.7l1.2-1.7c.2-.2.5-.2.7-.1z"/><path fill="#9184AD" d="M156.4 45.3l-1.2.4-.5 1.2-.6-1.1-1.2-.1.8-1-.3-1.2 1.1.5 1-.7-.1 1.2zM148.5 48l-.4-1.7-1.6-.6 1.5-.9v-1.7l1.4 1.1 1.7-.4-.7 1.6 1 1.4-1.8-.1zM149 52.2l-.9-.5-1 .4.2-1-.7-.8 1.1-.1.6-.9.4 1 1 .2-.8.7z"/><path fill-rule="evenodd" fill="#D9D2E8" d="M133 48.6l5.5 11.6-25.3 13-4.7-13z"/><g fill="#ED1D89"><path d="M135.346 62.017l-5.574-12.075.454-.21 5.574 12.075zM136.812 61.239l-5.574-12.075.454-.21 5.574 12.075zM138.363 60.643l-5.616-12.166.454-.21 5.616 12.166z"/></g><path fill-rule="evenodd" fill="#D9D2E8" d="M147.1 20.2l-6.7-9.1-22.1 15.3 7.6 10.4z"/><path fill="#5D4D78" d="M149.5 18.4l-.8-1-1.6-16.4c-2.3.2-5.2 2.1-4.7 7 0 .5.1 1 .2 1.4l-16 11.2c-1.1.2-1.7.6-1.1.8 4.1 1.9 6.7 8 2.9 7.2-3.1-.7 3 3.7 5.2 2.1.1 0 .1-.1.1-.1l15.8-12.2z"/><path fill="#D9D2E8" d="M152 18.3l-1.8-17.9c0-.3-.3-.5-.5-.4l-2.1.2c-.3 0-.5.3-.4.5l1.8 17.9c0 .3.3.5.5.4l2.1-.2c.2 0 .4-.2.4-.5z"/><path fill="#9184AD" d="M139.8 17.7l-.8.9-1.3-.2.7 1.1-.6 1.1 1.3-.2.9.8.1-1.2 1.2-.6-1.2-.5zM133.8 23.3l1.3 1.2-.3 1.8 1.5-1 1.5.8-.3-1.7 1.2-1.3-1.7-.2-.8-1.5-.7 1.6zM130.3 21v1l-.9.7 1.1.2.3 1 .6-.9 1.1-.1-.7-.8.4-1-1.1.4z"/><path fill-rule="evenodd" fill="#D9D2E8" d="M125.9 36.8l-7.6-10.3-23.5 16.1 9.3 10.2z"/><g fill="#ED1D89"><path d="M115.606 28.116l8.011 10.617-.399.301-8.011-10.617zM116.916 27.095l8.011 10.617-.399.301-8.011-10.617zM118.226 26.073l8.071 10.697-.399.301-8.071-10.697z"/></g><path fill="#D9D2E8" d="M37.7 81.7c13.3-6.3 19.9-6.5 25 2 5.1 8.4 1 15.2-10.4 23.1-7.5 5.2-15.9 5-21.4-4.1-4.8-8.1-2.8-16.5 6.8-21z"/><path fill="#ED1D89" d="M48.1 88.6s-.6-2.3-2.5-4.1c-2.1-2-4.8-1.8-6.4-1.2-1.6.6-4.1 2.9-4.8 3.3l-1.3.3s1 .6 2.2 1.2c1.2.6 2.1.4 2.1.4s-.9.7-2 .8l-2.3-.7s.4.8 1.5 1.9c1.2 1.1 2.7 1.3 2.7 1.3s-.8.4-1.4 1.8l-.3 3.6s1.6-3 3.3-3.7c.9-.3 2.4.1 3.4.4 1.3.3 2.3.4 2.3.4s-.4.9-.7 2.2c-.3 1-.6 2.6-1.3 3.2-1.2 1.3-4.6 1.3-4.6 1.3s1.8 1.2 3.3 1.4l2.2-.3s-.5 1.5-.1 3 .9 2.2.9 2.2-.2-1.4.5-2.4c.7-.9 1.7-1.4 1.7-1.4s-.6.7-.6 2.1c0 1.3.1 2.5.1 2.5s.3-.6.9-1c.6-.4 3.8-1.5 5.1-2.6 1.3-1.1 2.7-3.5 2-6.2-.7-2.5-2.5-4.1-2.5-4.1-.5-.5-1.3-1.7-1.9-2.7-.6-1-1.3-2.3-1.5-2.9zM44.8 80.3c1 .6 1.9 1.5 1.9 1.5-.2-.5-.1-1.7-.1-1.7s.8.6 2.4 1.4c1.5.7 3.5 1.4 3.5 1.4s-.7.1-2.2 0c-1.5 0-2.7-.6-2.6-.4l.6 1.5s-.8-.4-1.6-.6l-.4-.1.1.4c.3 1.6.6 4 .6 4 .1.7.6 2.3 1.8 4.3 1.2 2 1.6 2.3 2.9 3.6.7.7 2 1.4 3.3 2.4.1.1.2.1.2.2 0-.2.1-.3.1-.4.2-.7.2-1.7.2-1.7s.7.8 1 1.2c.1.1.2-1.3.9-2.5.7-1.3 1-1.9 1-1.9s-.3 2.1-.4 3.8c0 1.7.1 2.8.1 2.8s-1.1-.4-1.4-.8c0 0 .4 1.5.3 2.3-.3 2-1.6 4.5-1.6 4.5s7.1-3.9 8.4-8.2c1.3-4.3 1.3-10.1 1.3-10.1s-3.9 3.3-5.2 2c-1.3-1.3-.6-3.4-.6-3.4s-2.2-.4-2.7-2.1c-.5-1.8 4.2-3.6 4.2-3.6s-4.5-3-9.5-3.6c-4.3-.7-11 3.5-11 3.5s2.9-.7 4.5.3z"/><path fill="#D9D2E8" d="M49 95s-1.8.5-1.5 3.2c.3 2.7 3.1 6 3.1 6s1.3-2.6 1-4.9c-.4-3-2.6-4.3-2.6-4.3zM46.3 90.4s-1.3 1.3-3.6-.2-3.8-5.5-3.8-5.5 2.9.1 4.8 1.4c2.5 1.7 2.6 4.3 2.6 4.3zM53 84.6c.7-.4 3 .4 4.2 2.3s.8 4.4.1 4.8c0 0-.5-1.5-1.8-3.7-1.4-2.2-2.5-3.4-2.5-3.4z"/><path fill="#ED1D89" d="M34.7 99.2c1.1-.7 2.3-.8 2.6-.3.3.5-.4 1.5-1.5 2.1-1.1.7-1.8.5-2.1 0-.3-.5-.1-1.2 1-1.8zM31.5 103.5l.3-.1c.6-.4 1-1.2.7-1.7-.3-.5-1.2-.5-1.8-.2-.1.1-.2.2-.3.2l.5 1c.3.3.5.6.6.8z"/><circle fill-rule="evenodd" fill="#352D7A" cx="78.6" cy="85.3" r="2.8"/><circle fill-rule="evenodd" fill="#352D7A" cx="85.7" cy="81" r="2.8"/><path fill-rule="evenodd" fill="#9184AD" d="M103.8 78.8l2-1.3 5.6-4.3c1.9-1.1-1.8-11.2-2.9-13l-4.5-7.5c-1.1-1.9-8.8-8.7-10.6-7.6l-5.9 2-2 1.2s5.3 6.3 9.7 13.6c4.8 8.1 8.6 16.9 8.6 16.9z"/><path fill-rule="evenodd" fill="#5D4D78" d="M105.8 77.6l8.2-4.8c1.9-1.1-2.4-11.9-3.5-13.8l-4.5-7.5c-1.1-1.9-8.9-10.4-10.7-9.2l-7.7 4.9s5.3 6.3 9.6 13.5c4.8 8.1 8.6 16.9 8.6 16.9z"/><path fill="#9084AC" d="M67.8 98.3l-16.5-27.5c-.2-.3-.3-.5-.1-.8l3.2-4.2c.3-.4.9-.3 1.2.2l18.5 31c.3.4 0 1.1-.5 1.1l-5.1.8c-.3-.1-.5-.3-.7-.6z"/><path fill="#D9D2E8" d="M71.4 98.3l-18.4-30.7-.5.6 18.2 30.4zM73.1 98.1l-19.1-31.9-.6.6 18.9 31.6zM69.8 98.5l-17.8-29.5-.5.5 17.5 29.3zM26.5 103.2c2.6 4.4 6.7 7.5 11.3 8.9-3.1-1.7-5.9-4.2-7.8-7.4-5.7-9.6-2.5-22.1 7.2-27.9 5.2-3.1 11.3-3.7 16.7-2-6.1-3.2-13.8-3.3-20.2.6-9.7 5.7-12.9 18.2-7.2 27.8z"/><path fill="#352D7A" d="M70.566 77.561l-6.728-11.24 11.24-6.728 6.728 11.24z"/><path fill="#9184AD" d="M77.44 72.476l-1.644-2.746 2.746-1.644 1.644 2.746zM75.345 68.908l-1.644-2.746 2.746-1.644 1.644 2.746zM73.165 65.39l-1.644-2.746 2.746-1.644 1.644 2.746z"/><path fill="#ED1D89" d="M68.7 71.1c1.6 2.7 5.1 3.6 7.8 2l-5.9-9.8c-2.7 1.6-3.6 5.1-1.9 7.8z"/><path fill-rule="evenodd" fill="#9184AD" d="M106.6 77.3l1.3-.7-18.4-30.9-2.2 1.4-7.2 3.8 18.9 31.7z"/><ellipse transform="matrix(-.514 -.858 .858 -.514 87.758 177.068)" fill="#ED1D89" cx="94.1" cy="63.7" rx="8.9" ry="6.9"/><ellipse transform="matrix(-.514 -.858 .858 -.514 87.758 177.068)" fill="#D9D2E8" cx="94.1" cy="63.7" rx="7.3" ry="5.4"/><path fill-rule="evenodd" fill="#ED1D89" d="M101.5 64.1l-8.2-3 .9 1.5-4.3-.6.9 1.5-4.4-.2 8 3-.8-1.4 4.4.8-.9-1.6z"/><path fill="#DBD3E9" d="M93.2 64.9l-6.7-1.3c-.1 0-.2-.2-.2-.3 0-.1.2-.2.3-.2l5.6 1.1-.7-1.2 4 .9-.8-1.3 6.8 1.3c.1 0 .2.2.2.3 0 .1-.2.2-.3.2l-5.7-1.1.8 1.3-4-.9.7 1.2z"/></svg>