<?xml version="1.0" encoding="utf-8"?>
<!-- Generator: Adobe Illustrator 19.1.0, SVG Export Plug-In . SVG Version: 6.00 Build 0)  -->
<svg version="1.2" baseProfile="tiny" xmlns="http://www.w3.org/2000/svg" xmlns:xlink="http://www.w3.org/1999/xlink" x="0px"
	 y="0px" viewBox="0 0 256.2 264" xml:space="preserve">
<g id="bg">
	<g id="face_1_">
	</g>
	<g id="face">
	</g>
</g>
<g id="other">
	<g id="asteroid_2_">
		<g id="crater_17_">
		</g>
		<g id="crater_16_">
		</g>
		<g id="crater_15_">
		</g>
		<g id="crater_14_">
		</g>
		<g id="crater_13_">
		</g>
		<g id="crater_12_">
		</g>
		<g id="_carter_2_5_">
		</g>
		<g id="_carter_2_4_">
		</g>
	</g>
	<g id="g1_2_">
	</g>
	<g id="asteroid_1_">
		<g id="crater_11_">
		</g>
		<g id="crater_10_">
		</g>
		<g id="crater_9_">
		</g>
		<g id="crater_8_">
		</g>
		<g id="crater_7_">
		</g>
		<g id="crater_6_">
		</g>
		<g id="_carter_2_3_">
		</g>
		<g id="_carter_2_2_">
		</g>
	</g>
	<g id="sity_1_">
		<g id="ufo1_2_">
		</g>
		<g id="ufo1_1_">
		</g>
		<g id="ufo1">
		</g>
	</g>
	<g id="sity">
	</g>
	<g id="ship_1_1_">
	</g>
	<g id="spaceman_2_1_">
	</g>
	<g id="ufo2_1_">
	</g>
	<g id="ufo2">
	</g>
	<g id="alien2">
	</g>
	<g id="asteroid">
		<g id="crater_5_">
		</g>
		<g id="crater_4_">
		</g>
		<g id="crater_3_">
		</g>
		<g id="crater_2_">
		</g>
		<g id="crater_1_">
		</g>
		<g id="crater">
		</g>
		<g id="_carter_2_1_">
		</g>
		<g id="_carter_2">
		</g>
	</g>
	<g id="alien3_1_">
	</g>
	<g id="alien3">
	</g>
	<g id="g2_2_">
	</g>
	<g id="g2_1_">
	</g>
	<g id="g2">
	</g>
	<g id="surfer_2_">
	</g>
	<g id="surfer_1_">
	</g>
	<g id="surfer">
	</g>
	<g id="g1_1_">
	</g>
	<g id="g1">
	</g>
	<g id="ship_1">
	</g>
	<g id="spaceman_1">
	</g>
	<g id="spaceman_2">
	</g>
	<g>
		<g>
			<path fill-rule="evenodd" fill="#DAD3EB" d="M215.4,226.5l-6.3,21l-59.6-16.6c-5-1.4-7.9-6.6-6.4-11.6l4.4-14.8L215.4,226.5z"/>
			<polygon fill-rule="evenodd" fill="#DAD3EB" points="166.5,217.4 143.6,226 119.6,167.8 145.4,161.4 			"/>
			
				<rect x="140" y="216.7" transform="matrix(0.7452 -0.6669 0.6669 0.7452 -105.797 157.5088)" fill="#9184AD" width="26.5" height="0.9"/>
			
				<rect x="141.9" y="219.2" transform="matrix(0.6292 -0.7773 0.7773 0.6292 -113.1939 202.1425)" fill="#9184AD" width="26.7" height="0.9"/>
			
				<rect x="145.5" y="220.4" transform="matrix(0.4903 -0.8715 0.8715 0.4903 -111.7731 250.5235)" fill="#9184AD" width="25.5" height="0.9"/>
			<polygon fill-rule="evenodd" fill="#FC008B" points="177.5,238.9 214.8,249.2 221.1,228.2 184.3,216.1 			"/>
			<path fill-rule="evenodd" fill="#FC008B" d="M184,216c1-3.3,7.6,7.8,5.7,14.1s-13.5,11.9-12.5,8.7c2.4-8-2.7-12.7-0.8-19
				C177.6,215.8,182.9,219.4,184,216z"/>
			<path fill="#5D4D78" d="M225.4,229.4l-10.3,34.2c-0.1,0.3-0.4,0.4-0.6,0.3l-4.7-1.4c-0.3-0.1-0.4-0.4-0.3-0.6l10.3-34.2
				c0.1-0.3,0.4-0.4,0.6-0.3l4.7,1.4C225.3,228.9,225.5,229.1,225.4,229.4z"/>
			<path fill="#FC008B" d="M209.7,261.1c-4.3-1.3-9.2-5.9-6.4-15.1c2.8-9.2,12.2-19.6,16.4-18.3L209.7,261.1z"/>
			<path fill-rule="evenodd" fill="#DBD3EB" d="M200,221.2c1.4,0.8,3.1,4,3.1,4c-0.1,0.1-1.2-0.5-1.2-0.5c1.1,1.4,2.6,6,2.6,6
				s0.2-2.3-0.6-3.9c0,0,1,0.1,1.3,0.4c0.3,0.3-0.5-3.6-2.3-5.1L200,221.2z"/>
			<path fill-rule="evenodd" fill="#DBD3EB" d="M192.6,222.9c2.4,1.2,5.5,6.9,5.5,6.9c-0.2,0.1-2-0.8-2-0.8
				c1.9,2.4,4.3,10.1,4.3,10.1s0.4-3.8-0.9-6.6c0,0,1.7,0.2,2.2,0.7c0.5,0.5-1-6.8-4.5-9c0,0,1.6-0.1,2.1,0.2
				c0.4,0.2-2.3-3.5-7.2-5.8l-4.1-1.3c0,0.1,4.8,3.3,6.1,5.5C194.1,222.9,192.6,222.9,192.6,222.9z"/>
		</g>
		<g>
			<path fill="#DAD3EB" d="M225.9,104.5c1,0.7,2.4,0.4,3.1-0.7l0,0c0.7-1,0.4-2.4-0.7-3.1l-8-5.1c-1-0.7-2.4-0.4-3.1,0.7l0,0
				c-0.7,1-0.4,2.4,0.7,3.1L225.9,104.5z"/>
			
				<rect x="218.7" y="97" transform="matrix(-0.5406 0.8413 -0.8413 -0.5406 423.2847 -33.9036)" fill="#FC008B" width="4.5" height="3.2"/>
			<path fill="#DAD3EB" d="M203.8,103.4c-3.2-2.5-7.4-5.4-11.5-8c-9.1-5.8-18.7-11-28.8-15c-12.5-5.1-24.1-7.7-38.2-6.6
				c-2.8,0.2-14.6,2.1-14.3-3c0.2-3.4,6.3-7.5,9-8.6c11.1-4.8,24.1-2.6,34.6,0.1c16.4,4.1,31.7,11.6,45.7,20.6
				c4.1,2.6,8.3,5.6,11.5,8L203.8,103.4z"/>
			<path fill="#DAD3EB" d="M206.1,114.5l2.3-0.5c0.6-0.1,1-0.7,0.8-1.3l-2.6-11.8l-4.4,1l2.6,11.8
				C204.9,114.3,205.5,114.7,206.1,114.5z"/>
			<path fill="#DAD3EB" d="M227,112.8c1,0.7,2.4,0.4,3.1-0.7l0,0c0.7-1,0.4-2.4-0.7-3.1l-12.5-8c-1-0.7-2.4-0.4-3.1,0.7l0,0
				c-0.7,1-0.4,2.4,0.7,3.1L227,112.8z"/>
			<path fill="#DAD3EB" d="M221,116.5c1,0.7,2.4,0.4,3.1-0.7l0,0c0.7-1,0.4-2.4-0.7-3.1l-10-6.4c-1-0.7-2.4-0.4-3.1,0.7l0,0
				c-0.7,1-0.4,2.4,0.7,3.1L221,116.5z"/>
			<path fill="#FC008B" d="M211.6,110.5c-1.5-0.5-9.6-8.5-9.6-8.5s0.8-3.3,3.4-6.9c3.1-4.2,5.4-5.1,5.4-5.1l10,5.9L211.6,110.5z"/>
			<g>
				
					<rect x="159" y="73.5" transform="matrix(-0.3328 0.943 -0.943 -0.3328 292.1536 -58.7308)" fill="#9184AD" width="15.7" height="0.9"/>
				
					<rect x="162" y="74.6" transform="matrix(-0.3328 0.943 -0.943 -0.3328 297.2125 -60.1665)" fill="#9184AD" width="15.7" height="0.9"/>
				
					<rect x="165" y="75.7" transform="matrix(-0.3328 0.943 -0.943 -0.3328 302.2715 -61.6022)" fill="#9184AD" width="15.9" height="0.9"/>
			</g>
			
				<rect x="215.2" y="102.4" transform="matrix(-0.5406 0.8413 -0.8413 -0.5406 422.4862 -22.7148)" fill="#FC008B" width="4.5" height="3.2"/>
			
				<rect x="211.8" y="107.8" transform="matrix(-0.5406 0.8413 -0.8413 -0.5406 421.6877 -11.526)" fill="#FC008B" width="4.5" height="3.2"/>
			
				<rect x="202.9" y="101.3" transform="matrix(-0.9759 0.2184 -0.2184 -0.9759 428.3029 162.8815)" fill="#FC008B" width="4.6" height="7.5"/>
		</g>
		<g>
			<path fill-rule="evenodd" fill="#DAD3EB" d="M246.2,191.7l-6.3,21l-59.6-16.6c-5-1.4-7.9-6.6-6.4-11.6l4.4-14.8L246.2,191.7z"/>
			<path fill-rule="evenodd" fill="#DAD3EB" d="M197.3,182.7l-22.9,8.6l-24.1-58.2l14.2-3.5c6.6-1.6,13.4,1.9,15.9,8.3L197.3,182.7z
				"/>
			
				<rect x="170.8" y="182" transform="matrix(0.7452 -0.6669 0.6669 0.7452 -74.8023 169.1922)" fill="#9184AD" width="26.5" height="0.9"/>
			
				<rect x="172.7" y="184.5" transform="matrix(0.6292 -0.7773 0.7773 0.6292 -74.7941 213.1974)" fill="#9184AD" width="26.7" height="0.9"/>
			
				<rect x="176.3" y="185.6" transform="matrix(0.4903 -0.8715 0.8715 0.4903 -65.826 259.6603)" fill="#9184AD" width="25.5" height="0.9"/>
			<polygon fill-rule="evenodd" fill="#FC008B" points="208.3,204.2 245.6,214.4 251.9,193.5 215.1,181.4 			"/>
			<path fill-rule="evenodd" fill="#FC008B" d="M214.7,181.3c1-3.3,7.6,7.8,5.7,14.1s-13.5,11.9-12.5,8.7c2.4-8-2.7-12.7-0.8-19
				C208.3,181.1,213.7,184.7,214.7,181.3z"/>
			<path fill="#5D4D78" d="M256.2,194.7l-10.3,34.2c-0.1,0.3-0.4,0.4-0.6,0.3l-4.7-1.4c-0.3-0.1-0.4-0.4-0.3-0.6l10.3-34.2
				c0.1-0.3,0.4-0.4,0.6-0.3l4.7,1.4C256.1,194.2,256.3,194.4,256.2,194.7z"/>
			<path fill="#FC008B" d="M240.4,226.4c-4.3-1.3-9.2-5.9-6.4-15.1c2.8-9.2,12.2-19.6,16.4-18.3L240.4,226.4z"/>
			<path fill-rule="evenodd" fill="#DBD3EB" d="M230.7,186.5c1.4,0.8,3.1,4,3.1,4c-0.1,0.1-1.2-0.5-1.2-0.5c1.1,1.4,2.6,6,2.6,6
				s0.2-2.3-0.6-3.9c0,0,1,0.1,1.3,0.4c0.3,0.3-0.5-3.6-2.3-5.1L230.7,186.5z"/>
			<path fill-rule="evenodd" fill="#DBD3EB" d="M223.4,188.2c2.4,1.2,5.5,6.9,5.5,6.9c-0.2,0.1-2-0.8-2-0.8
				c1.9,2.4,4.3,10.1,4.3,10.1s0.4-3.8-0.9-6.6c0,0,1.7,0.2,2.2,0.7c0.5,0.5-1-6.8-4.5-9c0,0,1.6-0.1,2.1,0.2
				c0.4,0.2-2.3-3.5-7.2-5.8l-4.1-1.3c0,0.1,4.8,3.3,6.1,5.5C224.9,188.2,223.4,188.2,223.4,188.2z"/>
		</g>
		<path fill="#DAD3EB" d="M80.6,105.4l-32.5,45.8c-2.3,3.3-6.9,4-10.2,1.7h0c-3.1-2.2-3.8-6.4-1.6-9.5l32.8-46.1L80.6,105.4z"/>
		<path fill="#DAD3EB" d="M11.5,109.5l24.2,41.1c2,3.5,6.5,4.6,10,2.6l0,0c3.2-1.9,4.3-6.1,2.4-9.3l-24.4-41.5L11.5,109.5z"/>
		
			<rect x="29.3" y="142.5" transform="matrix(0.3573 -0.934 0.934 0.3573 -108.6265 127.9976)" fill="#9184AD" width="18.9" height="0.9"/>
		
			<rect x="31.3" y="143.7" transform="matrix(4.759714e-02 -0.9989 0.9989 4.759714e-02 -104.3148 178.8888)" fill="#9184AD" width="20.8" height="0.9"/>
		
			<rect x="34.7" y="142.7" transform="matrix(-0.2448 -0.9696 0.9696 -0.2448 -83.3317 221.4171)" fill="#9184AD" width="19.8" height="0.9"/>
		<path fill="#FC008B" d="M16.4,86.4c1.2,1.1,7.4,15.9,7.4,15.9L11,109.8L1.2,97.1L16.4,86.4z"/>
		<path fill="#DAD3EB" d="M15.3,96.1l0.4-2.3c0.1-0.6,0.7-1,1.3-0.9l5.7,1l-0.8,4.5l-5.7-1C15.6,97.3,15.2,96.7,15.3,96.1z"/>
		<path fill="#FC008B" d="M19.9,97.8l0.8-4.5l2.3,0.4c1.2,0.2,2,1.3,1.8,2.5l-0.4,2.3L19.9,97.8z"/>
		<path fill="#FC008B" d="M20.7,93.3l2.7,0.5c1,0.2,1.7,1.1,1.5,2.1l-1.1,6.4l-4.5-0.8L20.7,93.3z"/>
		
			<ellipse transform="matrix(0.8191 -0.5736 0.5736 0.8191 -12.5859 50.3575)" fill="#9184AD" cx="73.6" cy="45.1" rx="44.7" ry="45.3"/>
		<g>
			<path fill="#5D4D78" d="M95,27.5c14,24.9,15.4,37.6-0.5,48.7c-15.6,11-29.3,4-46.1-16.8c-11-13.7-11.8-30.1,4.9-41.9
				C68.5,6.9,85,9.6,95,27.5z"/>
			<path fill="#FC008B" d="M85.1,49.4c2.6-0.8,5-0.2,9.3-6.1c3.3-4.5,3.1-11.2,0.5-17.9c-2.6-6.7-9.2-11.8-9.2-11.8s0.5,2.8,0.6,4.5
				c0.2,1.8-0.4,5.1-0.4,5.1s-0.8-2.7-2.2-4.5c-1.1-1.4-2.7-1.6-2.7-1.6s0.4,1.7,0.6,4.1c0.2,2.9-2.1,6.7-4.9,9.8
				c-2.9,3-5,12.1-5,12.1s-9.2-1-13.1,0.6c-3.8,1.6-8.2,2.5-10.9,1.3C45.5,43.9,44,43,44,43s-0.3,1.6,0.6,3.1
				c1.2,1.9,3.5,3.6,3.5,3.6s-3.3-0.5-4.9-1.3c-1.5-0.7-4-2.1-4-2.1s2.4,8,7.9,12.7s11.7,7.2,17,5.6c7-2,7.1-4.5,8.9-6.6
				c1.2-1.4,4.6-1.4,6.9-3C82.2,53.3,83.3,50,85.1,49.4z"/>
			<path fill="#FC008B" d="M77.7,62.2c-1.5,1.1-4.2,3.4-4.5,6.1c-0.4,2.7,1.2,5.3,3.4,7.3s3.8,3.1,3.8,3.1s-0.3-1.5,0.1-2.4
				s1-1.3,1-1.3s0.8,1,1.7,1.4c1.7,0.7,3.5,0.5,3.5,0.5s-1.5-2.6-0.5-4.7c0.6-1.4,6.3-5.4,7.9-5.5c2.3-0.1,4.2,2.1,4.2,2.1
				s0.8-1.7,0.7-3.5c0-1-0.7-2.1-0.7-2.1s0.6-0.5,1.6-0.5c1-0.1,2.3,0.7,2.3,0.7s-0.5-2-1.6-4.6c-1.1-2.7-3.1-5.1-5.7-5.6
				s-5.7,1.2-7.3,2.2c-1.3,0.8-4,0.9-5.8,2.1C79.9,58.8,78.9,61.3,77.7,62.2z"/>
			<path fill="#DAD3EB" d="M71,51.1c0,0-1.3-3.4-6.5-2.5c-5.2,0.9-11.1,6.8-11.1,6.8s5.2,2.1,9.7,1.3C68.8,55.6,71,51.1,71,51.1z"/>
			<path fill="#DAD3EB" d="M79.5,45.2c0,0-2.8-2.4-0.1-6.9c2.6-4.6,10.1-8.1,10.1-8.1s0.2,5.6-2.1,9.5
				C84.4,44.7,79.5,45.2,79.5,45.2z"/>
			<ellipse transform="matrix(0.8191 -0.5736 0.5736 0.8191 -20.9019 60.757)" fill="#DAD3EB" cx="85.9" cy="63.5" rx="8" ry="3"/>
			<path fill="#FC008B" d="M67.9,11.4c-0.8,1-2.3,2.9-3.4,5c-1.4,2.6-2.6,8-2.6,8s-0.8-3.8-0.7-6.7c0.1-0.9,0.4-2.9,0.6-4.7
				c-2.3,0.8-4.6,2-6.9,3.5c0,1.4,0.2,3.1,0.6,3.7c-0.4-0.6-2-1.3-3.3-1.9c-2.2,1.7-4.1,3.5-5.7,5.3c1.8,0.3,3.8,0.8,4.7,1
				c2.8,0.8,6.1,2.9,6.1,2.9s-5.5-0.7-8.4-0.2c-2.4,0.4-4.8,1.2-6,1.6c-1,2-1.7,4-2.1,6c0.6-0.3,2.7-1.1,6.4-2.2
				c1.4-0.4,5-1.5,6.6-1.8c8.1-1.4,12.3,4.5,12.3,4.5s-4.1-6,0-13.1c0.8-1.5,3.1-4.4,4-5.6c2.2-2.9,3.7-4.6,4.2-5.1
				C72.2,11.1,70.1,11.1,67.9,11.4z"/>
		</g>
		<path fill-rule="evenodd" fill="#DAD3EB" d="M177.2,145.4l-44.5,31.2c-3.4,2.4-8,1.6-10.4-1.8l-9.4-13.9l-45.1-56.3
			c-1.1-1.3-1-3.6,0.4-4.6l57.9-40.5c1.4-1,3.5-0.3,4.4,1.1l37.2,59.3l11.2,15.1C181.4,138.2,180.6,143,177.2,145.4z"/>
		
			<rect x="111.7" y="81.6" transform="matrix(0.8191 -0.5736 0.5736 0.8191 -31.5727 88.3838)" fill="#9184AD" width="25.3" height="25.3"/>
		<g>
			<polygon fill-rule="evenodd" fill="#FC008B" points="124.4,68.1 115.6,97.7 120.9,94 119.9,109.2 124.7,105.9 125.4,121.4 
				133.6,92.4 128.9,95.6 130.6,79.9 125.2,83.7 			"/>
			<polyline fill-rule="evenodd" fill="none" stroke="#DBD3EB" stroke-linecap="round" stroke-miterlimit="10" points="125.1,121.1 
				127.9,99.1 124.1,101.7 126.3,87.4 121.9,90.5 124.4,68.2 			"/>
		</g>
		<circle fill-rule="evenodd" fill="#9184AD" cx="92.8" cy="107.6" r="5.3"/>
		<circle fill-rule="evenodd" fill="#9184AD" cx="102.1" cy="120.9" r="5.3"/>
		<path fill-rule="evenodd" fill="#9184AD" d="M113.2,161.1l9.1,13.9c2.3,3.4,22.4-6.8,25.8-9.2l13.2-9.3
			c3.4-2.4,20.4-17.9,17.9-21.3l-9.9-13.4L113.2,161.1L113.2,161.1z"/>
		<polygon fill-rule="evenodd" fill="#5D4D78" points="112.8,161.5 114.4,163.9 171.5,123.9 168.5,119.9 160.1,106.5 101.5,147.5 		
			"/>
		
			<ellipse transform="matrix(0.8191 -0.5736 0.5736 0.8191 -52.3299 103.665)" fill="#FC008B" cx="138.2" cy="134.8" rx="17.3" ry="13.3"/>
		<path fill="#9184AD" d="M66.1,88.7l51-35.7c0.5-0.4,1-0.7,1.4-0.4l8.7,5.7c0.7,0.5,0.7,1.7-0.1,2.3l-57.3,40.1
			c-0.8,0.6-2.1,0.1-2.3-0.8l-2.2-9.8C65.2,89.5,65.6,89.1,66.1,88.7z"/>
		<polygon fill="#DAD3EB" points="66.6,95.6 123.5,55.8 122.3,54.8 66.1,94.2 		"/>
		<polygon fill="#DAD3EB" points="67.2,98.8 126.3,57.5 125.1,56.5 66.7,97.4 		"/>
		<polygon fill="#DAD3EB" points="66,92.4 120.7,54.1 119.6,53.1 65.4,91 		"/>
		
			<ellipse transform="matrix(0.8191 -0.5736 0.5736 0.8191 -52.3299 103.665)" fill="#DAD3EB" cx="138.2" cy="134.8" rx="14.1" ry="10.4"/>
		<path fill="#DAD3EB" d="M50.9,9.5c-8.2,5.7-13.5,14.1-15.6,23.2c2.8-6.3,7.2-11.9,13.2-16.1c17.8-12.4,42.4-7.9,55,10.1
			c6.8,9.7,8.7,21.4,6.3,32c5.4-12.3,4.4-27.1-3.9-39C93.3,1.5,68.6-3,50.9,9.5z"/>
		<path fill="#DAD3EB" d="M1.8,93.1l-1.5,1.8c-0.4,0.5-0.3,1.2,0.1,1.6l4.4,3.7c0.5,0.4,1.2,0.3,1.6-0.1l1.5-1.8
			c0.4-0.5,0.3-1.2-0.1-1.6l-4.4-3.7C2.9,92.5,2.2,92.6,1.8,93.1z"/>
		<path fill="#DAD3EB" d="M8.3,88.7l-1.9,1.3c-0.5,0.3-0.6,1-0.3,1.5l3.3,4.8c0.3,0.5,1,0.6,1.5,0.3l1.9-1.3c0.5-0.3,0.6-1,0.3-1.5
			L9.9,89C9.5,88.5,8.8,88.4,8.3,88.7z"/>
		<path fill="#DAD3EB" d="M14.2,84.7l-2,1.2c-0.5,0.3-0.7,1-0.4,1.5l2.9,5c0.3,0.5,1,0.7,1.5,0.4l2-1.2c0.5-0.3,0.7-1,0.4-1.5
			l-2.9-5C15.4,84.6,14.8,84.4,14.2,84.7z"/>
	</g>
	<g id="alien2_2">
	</g>
</g>
<g id="speakers">
</g>
<g id="text">
	<g id="text_1_">
	</g>
	<g id="date">
	</g>
</g>
</svg>
