<?xml version="1.0" encoding="utf-8"?>
<!-- Generator: Adobe Illustrator 19.1.0, SVG Export Plug-In . SVG Version: 6.00 Build 0)  -->
<svg version="1.2" baseProfile="tiny" xmlns="http://www.w3.org/2000/svg" xmlns:xlink="http://www.w3.org/1999/xlink" x="0px"
	 y="0px" viewBox="0 0 176.7 141.6" xml:space="preserve">
<g id="bg">
	<g id="face_1_">
	</g>
	<g id="face">
	</g>
</g>
<g id="other">
	<g id="asteroid_2_">
		<g id="crater_17_">
		</g>
		<g id="crater_16_">
		</g>
		<g id="crater_15_">
		</g>
		<g id="crater_14_">
		</g>
		<g id="crater_13_">
		</g>
		<g id="crater_12_">
		</g>
		<g id="_carter_2_5_">
		</g>
		<g id="_carter_2_4_">
		</g>
	</g>
	<g id="g1_2_">
	</g>
	<g id="asteroid_1_">
		<g id="crater_11_">
		</g>
		<g id="crater_10_">
		</g>
		<g id="crater_9_">
		</g>
		<g id="crater_8_">
		</g>
		<g id="crater_7_">
		</g>
		<g id="crater_6_">
		</g>
		<g id="_carter_2_3_">
		</g>
		<g id="_carter_2_2_">
		</g>
	</g>
	<g id="sity_1_">
		<g id="ufo1_2_">
		</g>
		<g id="ufo1_1_">
		</g>
		<g id="ufo1">
		</g>
	</g>
	<g id="sity">
	</g>
	<g id="ship_1_1_">
	</g>
	<g id="spaceman_2_1_">
	</g>
	<g id="ufo2_1_">
	</g>
	<g id="ufo2">
	</g>
	<g id="alien2">
	</g>
	<g id="asteroid">
		<g id="crater_5_">
		</g>
		<g id="crater_4_">
		</g>
		<g id="crater_3_">
		</g>
		<g id="crater_2_">
		</g>
		<g id="crater_1_">
		</g>
		<g id="crater">
		</g>
		<g id="_carter_2_1_">
		</g>
		<g id="_carter_2">
		</g>
	</g>
	<g id="alien3_1_">
	</g>
	<g id="alien3">
	</g>
	<g id="g2_2_">
	</g>
	<g id="g2_1_">
	</g>
	<g id="g2">
	</g>
	<g id="surfer_2_">
	</g>
	<g id="surfer_1_">
	</g>
	<g id="surfer">
	</g>
	<g id="g1_1_">
	</g>
	<g id="g1">
	</g>
	<g id="ship_1">
	</g>
	<g id="spaceman_1">
	</g>
	<g id="spaceman_2">
	</g>
	<g>
		<g>
			<g>
				<path fill="#DAD3EB" d="M11.4,76c1.8-1,4.1-2.2,6.4-3.3c5.1-2.4,10.3-4.3,15.7-5.7c6.8-1.7,12.8-2.3,20-0.7
					c1.4,0.3,7.3,2.1,7.5-0.6c0.1-1.8-2.7-4.3-4-5c-5.3-3.2-12.1-3-17.7-2.3c-8.6,1-17,3.7-24.8,7.4C12.3,66.8,9.9,68,8.2,69
					L11.4,76z"/>
				<g>
					
						<rect x="28.3" y="63.3" transform="matrix(0.2041 0.979 -0.979 0.2041 87.899 18.8906)" fill="#FC008B" width="8.1" height="0.5"/>
					
						<rect x="26.7" y="63.6" transform="matrix(0.2041 0.979 -0.979 0.2041 86.9365 20.7526)" fill="#FC008B" width="8.1" height="0.5"/>
					
						<rect x="25" y="63.9" transform="matrix(0.2041 0.979 -0.979 0.2041 85.9739 22.6145)" fill="#FC008B" width="8.2" height="0.5"/>
				</g>
				<path fill="#FC008B" d="M4.9,80.4c0.8-0.2,7.5-5,7.5-5s-1-2.1-1.7-3.4c-0.6-1.2-2.1-3.3-2.1-3.3l-7.7,3L4.9,80.4z"/>
				<path fill="#DAD3EB" d="M6.9,76.1l-0.3,0.7c-0.2,0.4,0.1,0.9,0.5,1.1l2.6,1l0.8-2.2l-2.6-1C7.6,75.5,7.1,75.7,6.9,76.1z"/>
				<path fill="#FC008B" d="M9.5,76.4l-0.8,2.2l0.7,0.3c0.8,0.3,1.8-0.1,2.1-0.9l0.3-0.7L9.5,76.4z"/>
				<path fill="#FC008B" d="M8.7,78.6l0.7,0.3c0.8,0.3,1.8-0.1,2.1-1l0.9-2.5l-2.2-0.8L8.7,78.6z"/>
				<path fill="#DAD3EB" d="M0.1,73.4L0,72.7c-0.1-0.4,0.2-0.9,0.7-0.9l2.4-0.4C3.6,71.3,4,71.6,4.1,72l0.1,0.7
					c0.1,0.4-0.2,0.9-0.7,0.9l-2.4,0.4C0.6,74.1,0.2,73.8,0.1,73.4z"/>
				<path fill="#DAD3EB" d="M1.8,77.1l-0.3-0.6c-0.2-0.4,0-0.9,0.4-1.1l2.2-1c0.4-0.2,0.9,0,1.1,0.4l0.3,0.6c0.2,0.4,0,0.9-0.4,1.1
					l-2.2,1C2.5,77.7,2,77.5,1.8,77.1z"/>
				<path fill="#DAD3EB" d="M3.4,80.4L3,79.8c-0.2-0.4-0.1-0.9,0.3-1.1l2.2-1.2c0.4-0.2,0.9-0.1,1.1,0.3L7,78.4
					c0.2,0.4,0.1,0.9-0.3,1.1l-2.2,1.2C4.1,80.9,3.6,80.8,3.4,80.4z"/>
			</g>
			<g>
				<path fill="#DAD3EB" d="M42.5,130c1.8-1,4.1-2.3,6.2-3.7c4.7-3,9.1-6.5,13.2-10.3c5.1-4.8,8.7-9.7,11.2-16.6
					c0.5-1.4,2.1-7.3,4.5-6.1c1.6,0.8,2.2,4.6,2.1,6.1c-0.1,6.2-3.9,11.9-7.4,16.3c-5.4,6.8-12.2,12.4-19.4,17.1
					c-2.1,1.4-4.4,2.7-6.2,3.7L42.5,130z"/>
				<g>
					
						<rect x="60.2" y="118.6" transform="matrix(-0.7215 -0.6924 0.6924 -0.7215 28.265 249.0488)" fill="#FC008B" width="8.1" height="0.5"/>
					
						<rect x="59" y="119.8" transform="matrix(-0.7215 -0.6924 0.6924 -0.7215 25.4547 250.3158)" fill="#FC008B" width="8.1" height="0.5"/>
					
						<rect x="57.8" y="121" transform="matrix(-0.7215 -0.6924 0.6924 -0.7215 22.6445 251.5827)" fill="#FC008B" width="8.2" height="0.5"/>
				</g>
				<path fill="#FC008B" d="M35.3,133.1c0.6-0.6,8.3-3.7,8.3-3.7s1.3,1.9,2,3.2c0.7,1.2,1.7,3.5,1.7,3.5l-6.7,4.9L35.3,133.1z"/>
				<path fill="#DAD3EB" d="M40,133.7l-0.7-0.1c-0.4-0.1-0.7-0.5-0.6-1l0.5-2.7l2.3,0.5L41,133C40.9,133.5,40.5,133.8,40,133.7z"/>
				<path fill="#FC008B" d="M41.2,131.3l-2.3-0.5l0.1-0.7c0.2-0.9,1-1.5,1.9-1.3l0.7,0.1L41.2,131.3z"/>
				<path fill="#FC008B" d="M38.9,130.9l0.1-0.7c0.2-0.9,1-1.5,1.9-1.3l2.6,0.5l-0.5,2.3L38.9,130.9z"/>
				<path fill="#DAD3EB" d="M38.8,140.9l0.5,0.5c0.3,0.3,0.9,0.3,1.2-0.1l1.6-1.9c0.3-0.3,0.3-0.9-0.1-1.2l-0.5-0.5
					c-0.3-0.3-0.9-0.3-1.2,0.1l-1.6,1.9C38.4,140.1,38.4,140.6,38.8,140.9z"/>
				<path fill="#DAD3EB" d="M36.5,137.5l0.4,0.6c0.2,0.4,0.8,0.5,1.1,0.2l2.1-1.4c0.4-0.2,0.5-0.8,0.2-1.1l-0.4-0.6
					c-0.2-0.4-0.8-0.5-1.1-0.2l-2.1,1.4C36.4,136.6,36.3,137.1,36.5,137.5z"/>
				<path fill="#DAD3EB" d="M34.5,134.4l0.3,0.6c0.2,0.4,0.7,0.5,1.1,0.3l2.2-1.2c0.4-0.2,0.5-0.7,0.3-1.1l-0.3-0.6
					c-0.2-0.4-0.7-0.5-1.1-0.3l-2.2,1.2C34.5,133.5,34.3,134,34.5,134.4z"/>
			</g>
			<g>
				<polygon fill-rule="evenodd" fill="#DAD3EB" points="157.6,37.8 162.4,48 138.5,60.2 133,48.6 				"/>
				<polygon fill-rule="evenodd" fill="#5D4C78" points="147.4,55.7 165.2,46.6 160.3,36.4 142.1,44.6 				"/>
				<path fill-rule="evenodd" fill="#5D4D78" d="M141.9,44.6c1.6-0.8,6.1,1.3,7.5,4.4s-3.3,8.9-3.2,7.2c0.3-4.5-3.9-9.7-5-6
					C140.4,53.3,139.4,45.8,141.9,44.6z"/>
				<g>
					<path fill="#DAD3EB" d="M161.5,34.3l14.9,10c0.2,0.2,0.3,0.5,0.1,0.7l-1.2,1.7c-0.2,0.2-0.5,0.3-0.7,0.1l-14.9-10
						c-0.2-0.2-0.3-0.5-0.1-0.7l1.2-1.7C161,34.2,161.3,34.2,161.5,34.3z"/>
					<path fill="#5D4D78" d="M174.6,46.8c-1.3,1.9-4.3,3.6-8.4,0.8c-4.1-2.8-7.8-9-6.5-10.9L174.6,46.8z"/>
				</g>
				<polygon fill="#35267B" points="156.4,45.3 155.2,45.7 154.7,46.9 154.1,45.8 152.9,45.7 153.7,44.7 153.4,43.5 154.5,44 
					155.5,43.3 155.4,44.5 				"/>
				<polygon fill="#35267B" points="148.5,48 148.1,46.3 146.5,45.7 148,44.8 148,43.1 149.4,44.2 151.1,43.8 150.4,45.4 
					151.4,46.8 149.6,46.7 				"/>
				<polygon fill="#35267B" points="149,52.2 148.1,51.7 147.1,52.1 147.3,51.1 146.6,50.3 147.7,50.2 148.3,49.3 148.7,50.3 
					149.7,50.5 148.9,51.2 				"/>
				<polygon fill-rule="evenodd" fill="#DAD3EB" points="133,48.6 138.5,60.2 113.2,73.2 108.5,60.2 				"/>
				<g>
					
						<rect x="126.1" y="55.6" transform="matrix(-0.4191 -0.9079 0.9079 -0.4191 137.715 199.8052)" fill="#FC008B" width="13.3" height="0.5"/>
					
						<rect x="127.7" y="54.9" transform="matrix(-0.4191 -0.9079 0.9079 -0.4191 140.4877 200.1865)" fill="#FC008B" width="13.3" height="0.5"/>
					
						<rect x="129.1" y="54.2" transform="matrix(-0.4191 -0.9079 0.9079 -0.4191 143.2605 200.5678)" fill="#FC008B" width="13.4" height="0.5"/>
				</g>
			</g>
			<g>
				<polygon fill-rule="evenodd" fill="#DAD3EB" points="147.1,20.2 140.4,11.1 118.3,26.4 125.9,36.8 				"/>
				<polygon fill-rule="evenodd" fill="#5D4C78" points="126.5,20.7 142.8,9.3 149.5,18.4 133.8,30.6 				"/>
				<path fill-rule="evenodd" fill="#5D4D78" d="M133.6,30.8c1.4-1,1.7-6-0.3-8.7c-2-2.7-9.4-1.3-7.8-0.6c4.1,1.9,6.7,8,2.9,7.2
					C125.2,28,131.4,32.4,133.6,30.8z"/>
				<g>
					<path fill="#DAD3EB" d="M152,18.3l-1.8-17.9c0-0.3-0.3-0.5-0.5-0.4l-2.1,0.2c-0.3,0-0.5,0.3-0.4,0.5l1.8,17.9
						c0,0.3,0.3,0.5,0.5,0.4l2.1-0.2C151.8,18.8,152,18.6,152,18.3z"/>
					<path fill="#5D4D78" d="M147.1,0.9c-2.3,0.2-5.2,2.1-4.7,7c0.5,4.9,4.2,11.1,6.5,10.9L147.1,0.9z"/>
				</g>
				<polygon fill="#35267B" points="139.8,17.7 139,18.6 137.7,18.4 138.4,19.5 137.8,20.6 139.1,20.4 140,21.2 140.1,20 
					141.3,19.4 140.1,18.9 				"/>
				<polygon fill="#35267B" points="133.8,23.3 135.1,24.5 134.8,26.3 136.3,25.3 137.8,26.1 137.5,24.4 138.7,23.1 137,22.9 
					136.2,21.4 135.5,23 				"/>
				<polygon fill="#35267B" points="130.3,21 130.3,22 129.4,22.7 130.5,22.9 130.8,23.9 131.4,23 132.5,22.9 131.8,22.1 
					132.2,21.1 131.1,21.5 				"/>
				<polygon fill-rule="evenodd" fill="#DAD3EB" points="125.9,36.8 118.3,26.5 94.8,42.6 104.1,52.8 				"/>
				<g>
					
						<rect x="112.8" y="33.3" transform="matrix(0.6023 0.7983 -0.7983 0.6023 74.2503 -81.989)" fill="#FC008B" width="13.3" height="0.5"/>
					
						<rect x="114.1" y="32.3" transform="matrix(0.6023 0.7983 -0.7983 0.6023 73.979 -83.4457)" fill="#FC008B" width="13.3" height="0.5"/>
					
						<rect x="115.4" y="31.3" transform="matrix(0.6023 0.7983 -0.7983 0.6023 73.7078 -84.9024)" fill="#FC008B" width="13.4" height="0.5"/>
				</g>
			</g>
			
				<ellipse transform="matrix(-0.5136 -0.858 0.858 -0.5136 -10.5335 179.8206)" fill="#9184AD" cx="45.7" cy="92.9" rx="23.1" ry="23.4"/>
			<path fill-rule="evenodd" fill="#DAD3EB" d="M101.1,43.3l14.4,24c1.1,1.8,0.5,4.2-1.3,5.3l-7.5,4.3L76,98
				c-0.7,0.5-1.9,0.4-2.3-0.4L55,66.4c-0.5-0.8,0-1.8,0.7-2.2l31.9-17l8.2-5.2C97.6,40.8,100,41.4,101.1,43.3z"/>
			<g>
				<path fill="#DAD3EB" d="M37.7,81.7c13.3-6.3,19.9-6.5,25,2c5.1,8.4,1,15.2-10.4,23.1c-7.5,5.2-15.9,5-21.4-4.1
					C26.1,94.6,28.1,86.2,37.7,81.7z"/>
				<path fill="#FC008B" d="M48.1,88.6c0,0-0.6-2.3-2.5-4.1c-2.1-2-4.8-1.8-6.4-1.2c-1.6,0.6-4.1,2.9-4.8,3.3
					c-0.6,0.4-1.3,0.3-1.3,0.3s1,0.6,2.2,1.2c1.2,0.6,2.1,0.4,2.1,0.4s-0.9,0.7-2,0.8s-2.3-0.7-2.3-0.7s0.4,0.8,1.5,1.9
					c1.2,1.1,2.7,1.3,2.7,1.3s-0.8,0.4-1.4,1.8s-0.3,3.6-0.3,3.6s1.6-3,3.3-3.7c0.9-0.3,2.4,0.1,3.4,0.4c1.3,0.3,2.3,0.4,2.3,0.4
					s-0.4,0.9-0.7,2.2c-0.3,1-0.6,2.6-1.3,3.2C41.4,101,38,101,38,101s1.8,1.2,3.3,1.4c1.5,0.2,2.2-0.3,2.2-0.3s-0.5,1.5-0.1,3
					c0.4,1.5,0.9,2.2,0.9,2.2s-0.2-1.4,0.5-2.4c0.7-0.9,1.7-1.4,1.7-1.4s-0.6,0.7-0.6,2.1c0,1.3,0.1,2.5,0.1,2.5s0.3-0.6,0.9-1
					s3.8-1.5,5.1-2.6c1.3-1.1,2.7-3.5,2-6.2c-0.7-2.5-2.5-4.1-2.5-4.1c-0.5-0.5-1.3-1.7-1.9-2.7C49,90.5,48.3,89.2,48.1,88.6z"/>
				<path fill="#FC008B" d="M44.8,80.3c1,0.6,1.9,1.5,1.9,1.5c-0.2-0.5-0.1-1.7-0.1-1.7s0.8,0.6,2.4,1.4c1.5,0.7,3.5,1.4,3.5,1.4
					s-0.7,0.1-2.2,0c-1.5,0-2.7-0.6-2.6-0.4c0.2,0.5,0.6,1.5,0.6,1.5s-0.8-0.4-1.6-0.6c-0.1,0-0.3-0.1-0.4-0.1
					c0,0.1,0.1,0.3,0.1,0.4c0.3,1.6,0.6,4,0.6,4c0.1,0.7,0.6,2.3,1.8,4.3c1.2,2,1.6,2.3,2.9,3.6c0.7,0.7,2,1.4,3.3,2.4
					c0.1,0.1,0.2,0.1,0.2,0.2c0-0.2,0.1-0.3,0.1-0.4c0.2-0.7,0.2-1.7,0.2-1.7s0.7,0.8,1,1.2c0.1,0.1,0.2-1.3,0.9-2.5
					c0.7-1.3,1-1.9,1-1.9S58.1,95,58,96.7c0,1.7,0.1,2.8,0.1,2.8s-1.1-0.4-1.4-0.8c0,0,0.4,1.5,0.3,2.3c-0.3,2-1.6,4.5-1.6,4.5
					s7.1-3.9,8.4-8.2c1.3-4.3,1.3-10.1,1.3-10.1s-3.9,3.3-5.2,2c-1.3-1.3-0.6-3.4-0.6-3.4s-2.2-0.4-2.7-2.1
					c-0.5-1.8,4.2-3.6,4.2-3.6s-4.5-3-9.5-3.6C47,75.8,40.3,80,40.3,80S43.2,79.3,44.8,80.3z"/>
				<path fill="#DAD3EB" d="M49,95c0,0-1.8,0.5-1.5,3.2s3.1,6,3.1,6s1.3-2.6,1-4.9C51.2,96.3,49,95,49,95z"/>
				<path fill="#DAD3EB" d="M46.3,90.4c0,0-1.3,1.3-3.6-0.2s-3.8-5.5-3.8-5.5s2.9,0.1,4.8,1.4C46.2,87.8,46.3,90.4,46.3,90.4z"/>
				<path fill="#DAD3EB" d="M53,84.6c0.7-0.4,3,0.4,4.2,2.3c1.2,2,0.8,4.4,0.1,4.8c0,0-0.5-1.5-1.8-3.7C54.1,85.8,53,84.6,53,84.6z"
					/>
				<path fill="#FC008B" d="M34.7,99.2c1.1-0.7,2.3-0.8,2.6-0.3c0.3,0.5-0.4,1.5-1.5,2.1c-1.1,0.7-1.8,0.5-2.1,0
					C33.4,100.5,33.6,99.8,34.7,99.2z"/>
				<path fill="#FC008B" d="M31.5,103.5c0.1,0,0.2-0.1,0.3-0.1c0.6-0.4,1-1.2,0.7-1.7c-0.3-0.5-1.2-0.5-1.8-0.2
					c-0.1,0.1-0.2,0.2-0.3,0.2c0.2,0.3,0.3,0.7,0.5,1C31.2,103,31.4,103.3,31.5,103.5z"/>
			</g>
			<circle fill-rule="evenodd" fill="#5D4D78" cx="78.6" cy="85.3" r="2.8"/>
			<circle fill-rule="evenodd" fill="#5D4D78" cx="85.7" cy="81" r="2.8"/>
			<path fill-rule="evenodd" fill="#9184AD" d="M103.8,78.8l2-1.3l5.6-4.3c1.9-1.1-1.8-11.2-2.9-13l-4.5-7.5
				c-1.1-1.9-8.8-8.7-10.6-7.6l-5.9,2l-2,1.2c0,0,5.3,6.3,9.7,13.6C100,70,103.8,78.8,103.8,78.8z"/>
			<path fill-rule="evenodd" fill="#5D4D78" d="M105.8,77.6l8.2-4.8c1.9-1.1-2.4-11.9-3.5-13.8l-4.5-7.5c-1.1-1.9-8.9-10.4-10.7-9.2
				l-7.7,4.9c0,0,5.3,6.3,9.6,13.5C102,68.8,105.8,77.6,105.8,77.6z"/>
			<path fill="#9184AD" d="M67.8,98.3L51.3,70.8c-0.2-0.3-0.3-0.5-0.1-0.8l3.2-4.2c0.3-0.4,0.9-0.3,1.2,0.2l18.5,31
				c0.3,0.4,0,1.1-0.5,1.1l-5.1,0.8C68.2,98.8,68,98.6,67.8,98.3z"/>
			<polygon fill="#DAD3EB" points="71.4,98.3 53,67.6 52.5,68.2 70.7,98.6 			"/>
			<polygon fill="#DAD3EB" points="73.1,98.1 54,66.2 53.4,66.8 72.3,98.4 			"/>
			<polygon fill="#DAD3EB" points="69.8,98.5 52,69 51.5,69.5 69,98.8 			"/>
			<path fill="#DAD3EB" d="M26.5,103.2c2.6,4.4,6.7,7.5,11.3,8.9c-3.1-1.7-5.9-4.2-7.8-7.4c-5.7-9.6-2.5-22.1,7.2-27.9
				c5.2-3.1,11.3-3.7,16.7-2c-6.1-3.2-13.8-3.3-20.2,0.6C24,81.1,20.8,93.6,26.5,103.2z"/>
			
				<rect x="66.3" y="62" transform="matrix(-0.5136 -0.858 0.858 -0.5136 51.4216 166.2894)" fill="#5D4D78" width="13.1" height="13.1"/>
			
				<rect x="76.4" y="68.7" transform="matrix(-0.5136 -0.858 0.858 -0.5136 57.7341 173.3116)" fill="#9184AD" width="3.2" height="3.2"/>
			
				<rect x="74.3" y="65.2" transform="matrix(-0.5136 -0.858 0.858 -0.5136 57.5641 166.1436)" fill="#9184AD" width="3.2" height="3.2"/>
			
				<rect x="72.2" y="61.6" transform="matrix(-0.5136 -0.858 0.858 -0.5136 57.394 158.9757)" fill="#9184AD" width="3.2" height="3.2"/>
			<path fill="#FC008B" d="M68.7,71.1c1.6,2.7,5.1,3.6,7.8,2l-5.9-9.8C67.9,64.9,67,68.4,68.7,71.1z"/>
		</g>
		<polygon fill-rule="evenodd" fill="#9184AD" points="106.6,77.3 107.9,76.6 89.5,45.7 87.3,47.1 80.1,50.9 99,82.6 		"/>
		
			<ellipse transform="matrix(-0.5136 -0.858 0.858 -0.5136 87.7577 177.0676)" fill="#FC008B" cx="94.1" cy="63.7" rx="8.9" ry="6.9"/>
		
			<ellipse transform="matrix(-0.5136 -0.858 0.858 -0.5136 87.7577 177.0676)" fill="#DAD3EB" cx="94.1" cy="63.7" rx="7.3" ry="5.4"/>
		<g>
			<polygon fill-rule="evenodd" fill="#FC008B" points="101.5,64.1 93.3,61.1 94.2,62.6 89.9,62 90.8,63.5 86.4,63.3 94.4,66.3 
				93.6,64.9 98,65.7 97.1,64.1 			"/>
			
				<polyline fill-rule="evenodd" fill="none" stroke="#DBD3EB" stroke-width="0.5" stroke-linecap="round" stroke-miterlimit="10" points="
				86.5,63.3 92.6,64.5 92,63.4 96,64.3 95.2,63 101.5,64.2 			"/>
		</g>
	</g>
	<g id="alien2_2">
	</g>
</g>
<g id="speakers">
</g>
<g id="text">
	<g id="text_1_">
	</g>
	<g id="date">
	</g>
</g>
</svg>
