<?xml version="1.0" encoding="utf-8"?>
<!-- Generator: Adobe Illustrator 19.1.0, SVG Export Plug-In . SVG Version: 6.00 Build 0)  -->
<svg version="1.2" baseProfile="tiny" xmlns="http://www.w3.org/2000/svg" xmlns:xlink="http://www.w3.org/1999/xlink" x="0px"
	 y="0px" viewBox="0 0 650.5 207.1" xml:space="preserve">
<g id="bg">
	<g id="face_1_">
	</g>
	<g id="face">
	</g>
</g>
<g id="other">
	<g id="asteroid_2_">
		<g id="crater_17_">
		</g>
		<g id="crater_16_">
		</g>
		<g id="crater_15_">
		</g>
		<g id="crater_14_">
		</g>
		<g id="crater_13_">
		</g>
		<g id="crater_12_">
		</g>
		<g id="_carter_2_5_">
		</g>
		<g id="_carter_2_4_">
		</g>
	</g>
	<g id="g1_2_">
	</g>
	<g id="asteroid_1_">
		<g id="crater_11_">
		</g>
		<g id="crater_10_">
		</g>
		<g id="crater_9_">
		</g>
		<g id="crater_8_">
		</g>
		<g id="crater_7_">
		</g>
		<g id="crater_6_">
		</g>
		<g id="_carter_2_3_">
		</g>
		<g id="_carter_2_2_">
		</g>
	</g>
	<g id="sity_1_">
		<g id="ufo1_2_">
		</g>
		<g id="ufo1_1_">
		</g>
		<g id="ufo1">
		</g>
	</g>
	<g id="sity">
	</g>
	<g id="ship_1_1_">
	</g>
	<g id="spaceman_2_1_">
	</g>
	<g id="ufo2_1_">
	</g>
	<g id="ufo2">
	</g>
	<g id="alien2">
	</g>
	<g id="asteroid">
		<g id="crater_5_">
		</g>
		<g id="crater_4_">
		</g>
		<g id="crater_3_">
		</g>
		<g id="crater_2_">
		</g>
		<g id="crater_1_">
		</g>
		<g id="crater">
		</g>
		<g id="_carter_2_1_">
		</g>
		<g id="_carter_2">
		</g>
	</g>
	<g id="alien3_1_">
	</g>
	<g id="alien3">
	</g>
	<g id="g2_2_">
	</g>
	<g id="g2_1_">
	</g>
	<g id="g2">
	</g>
	<g id="surfer_2_">
	</g>
	<g id="surfer_1_">
	</g>
	<g id="surfer">
	</g>
	<g id="g1_1_">
	</g>
	<g id="g1">
	</g>
	<g id="ship_1">
	</g>
	<g id="spaceman_1">
	</g>
	<g id="spaceman_2">
	</g>
	<path fill-rule="evenodd" fill="none" stroke="#DBD3EB" stroke-width="6" stroke-miterlimit="10" d="M61.8,83.8
		C89.6,57.3,125.4,36,162.1,24.3c18.7-5.9,39-8.2,57.9-3.1c45.1,12.2,70.7,57,93.3,93.9c8.7,14.2,19.5,28,34.7,34.7
		c13.9,6.2,30.3,5.6,44.5,0.2c31.3-11.9,64.6-54.3,35.3-85.4c-11.2-11.9-31.3-15-44.4-5.2c-15.3,11.5-15.9,32.9-14.5,50.3
		c4.8,57.6,48.3,107.2,110.1,85.5c14.9-5.2,28.1-14.5,39.9-24.9c22-19.5,40-43.4,52.6-70"/>
	<g>
		
			<ellipse transform="matrix(0.9054 0.4246 -0.4246 0.9054 20.6623 -36.3848)" fill="#9184AD" cx="92" cy="28.2" rx="27.8" ry="28.2"/>
		<g>
			<path fill="#35267B" d="M108.2,34.3c-9.1,15.3-15.5,20-26.4,14.8C70.9,44,70.4,34.5,76.5,19c4-10.2,12.6-15.7,24.1-10.3
				C111.1,13.6,114.7,23.3,108.2,34.3z"/>
			<path fill="#FC008B" d="M84,44.4c0,0,1.1,0.2,2.2,1c1.1,0.9-1.1,4-1.1,4s4.3-0.4,7.5-1.7s7.4-6.1,7.4-6.1s-4.6,2.1-7.4-0.7
				c-0.9-0.9-1.8-2.3-0.9-4.4c0.5-1.2,1.2,0.8,1.5,1.2c0.9,1.1,0.7,1.3,3.8,1.8c3.4,0.6,7.3-4.1,8.5-5.8s2.2-5.7,2.5-6.5
				c0.4-0.8,1-1.2,1-1.2s-1.4,0-3,0.2s-2.4,1-2.4,1s0.5-1.3,1.5-2.2s2.8-0.9,2.8-0.9s-1-0.5-2.8-0.8c-1.9-0.3-3.6,0.5-3.6,0.5
				s0.6-0.9,0.1-2.7c-0.4-1.8-2.1-3.8-2.1-3.8s0.4,4.1-0.9,5.9c-0.7,0.9-2.5,1.5-3.7,2c-1.6,0.6-2.6,1.2-2.6,1.2s-0.2-1.2-0.8-2.7
				c-0.4-1.2-1.2-3-0.8-4.1c0.6-2.2,4-4.4,4-4.4s-2.6,0-4.3,0.8s-2,1.9-2,1.9s-0.5-1.8-1.9-3.1c-1.4-1.2-2.4-1.6-2.4-1.6
				s1.2,1.3,1.1,2.7s-0.8,2.6-0.8,2.6s0.1-1.2-0.7-2.5S82,13.4,82,13.4s0.1,0.8-0.2,1.5C81.4,15.7,79,19,78.4,21
				c-0.5,2-1.7,8,1,10.3c2.4,2.1,2.4,1.7,3.9,1.8c0.5,0,2.5-0.8,1.9,0.4c-1,2-2.7,2.3-3.9,2.1c-3.9-0.4-5.2-5.3-5.2-5.3
				s-1,6.3,0,9.6s3.4,6.9,3.4,6.9s1-3.7,2.4-3.4C83.2,43.6,84,44.4,84,44.4z"/>
			<path fill="#DAD3EB" d="M87.9,28.6c0,0,1.5-1.7-0.7-4.3s-7.1-3.9-7.1-3.9s0.4,3.4,2.3,5.6C84.9,28.8,87.9,28.6,87.9,28.6z"/>
			<path fill="#DAD3EB" d="M93.8,31.4c0,0,0.4-2.2,3.7-2.2c3.3,0,7.5,3,7.5,3s-2.9,1.9-5.8,1.8C95.6,33.9,93.8,31.4,93.8,31.4z"/>
			
				<ellipse transform="matrix(0.9054 0.4246 -0.4246 0.9054 25.3327 -32.6237)" fill="#DAD3EB" cx="85.9" cy="40.5" rx="5" ry="1.8"/>
			<polygon fill="#FC008B" points="99.7,11 99.7,12.5 101,13.3 99.6,13.7 99.2,15.1 98.3,13.9 96.9,14 97.7,12.8 97.2,11.5 
				98.6,11.9 			"/>
			<g>
				<polygon fill="#FC008B" points="93.3,10.7 93.9,11.6 94.9,11.7 94.3,12.4 94.5,13.5 93.5,13 92.6,13.6 92.7,12.5 91.9,11.9 
					92.9,11.6 				"/>
				<polygon fill="#FC008B" points="104,15.7 103,15.8 102.2,15.1 102.1,16.1 101.1,16.5 102.1,17 102.2,18.1 103,17.3 104,17.6 
					103.5,16.6 				"/>
			</g>
		</g>
		<g>
			<polygon fill-rule="evenodd" fill="#DAD3EB" points="33.6,166.8 46,172.6 60.6,143.6 46.6,137 			"/>
			<polygon fill-rule="evenodd" fill="#FC008B" points="55.2,154.3 44.4,175.9 32.1,170.1 41.8,148 			"/>
			<path fill-rule="evenodd" fill="#FC008B" d="M41.9,147.8c-1.9-0.9,0.5,6.8,4.2,8.5s11.2-1.3,9.2-2.2c-4.7-2.2-4.8-6.5-8.5-8.2
				C44.4,144.8,43.9,148.8,41.9,147.8z"/>
			<path fill="#5D4D78" d="M31,172.7l19.8,9.3c0.3,0.1,0.5,0,0.7-0.2l1.1-2.5c0.1-0.2,0-0.5-0.2-0.7l-19.8-9.3
				c-0.3-0.1-0.5,0-0.7,0.2l-1.1,2.5C30.7,172.3,30.8,172.6,31,172.7z"/>
			<path fill="#FC008B" d="M52.1,178.5c1.2-2.5,1.1-6.7-4.4-9.2c-5.4-2.5-14.1-2.5-15.3,0L52.1,178.5z"/>
			<path fill-rule="evenodd" fill="#DBD3EB" d="M37.6,157.4c-0.2,1,0.6,3.1,0.6,3.1c0.1,0,0.3-0.7,0.3-0.7c0.2,1.1,1.7,3.7,1.7,3.7
				s-1.1-0.8-1.6-1.9c0,0-0.3,0.5-0.3,0.8c0,0.2-1.4-1.7-1.4-3.2L37.6,157.4z"/>
			<path fill-rule="evenodd" fill="#DBD3EB" d="M41.5,154.7c-0.4,1.6,0.9,5.4,0.9,5.4c0.1,0,0.5-1.3,0.5-1.3
				c0.3,1.9,2.9,6.2,2.9,6.2s-1.9-1.4-2.7-3.2c0,0-0.6,0.9-0.6,1.3c0,0.4-2.7-3.3-2.3-5.8c0,0-0.7,0.7-0.8,1
				c-0.1,0.2-0.7-2.6,0.3-5.7l1.1-2.5c0,0-0.5,3.6,0,5.1C40.9,155.4,41.5,154.7,41.5,154.7z"/>
		</g>
		<path fill-rule="evenodd" fill="#DAD3EB" d="M70,115.2l-30.6-14.4C37,99.8,36,97,37.1,94.7l4.6-9.4l16.4-41.8
			c0.4-1,1.6-1.6,2.6-1.2L100.6,61c1,0.5,1.3,1.8,0.8,2.7l-20.5,38.5l-4.7,10.7C75.1,115.3,72.3,116.3,70,115.2z"/>
		
			<rect x="73.3" y="62.9" transform="matrix(0.9054 0.4246 -0.4246 0.9054 37.7577 -27.7756)" fill="#35267B" width="15.8" height="15.8"/>
		<circle fill-rule="evenodd" fill="#5D4D78" cx="64.2" cy="57.9" r="3.3"/>
		<circle fill-rule="evenodd" fill="#5D4D78" cx="59.9" cy="67.1" r="3.3"/>
		<polygon fill-rule="evenodd" fill="#DAD3EB" points="23,161.8 10.6,156 23.6,126.2 37.6,132.8 		"/>
		<polygon fill-rule="evenodd" fill="#DAD3EB" points="37.3,132.7 23.6,126.2 37,94.6 51.2,103.1 		"/>
		<polygon fill-rule="evenodd" fill="#DAD3EB" points="46.6,137 60.6,143.6 76.2,112.9 60.4,107.4 		"/>
		<g>
			<path fill="#DAD3EB" d="M13.7,99c-0.3,0.7-1.2,1-1.8,0.7l0,0c-0.7-0.3-1-1.2-0.7-1.8l2.5-5.3c0.3-0.7,1.2-1,1.8-0.7l0,0
				c0.7,0.3,1,1.2,0.7,1.8L13.7,99z"/>
			<rect x="13" y="93.3" transform="matrix(0.9054 0.4246 -0.4246 0.9054 41.3933 2.8148)" fill="#FC008B" width="2.8" height="2"/>
			<path fill="#DAD3EB" d="M24.9,91.1c0.9-2.3,2.1-5.3,3.4-8c2.9-6.1,6.2-12,10.2-17.5c4.9-6.8,10.1-12,18-16.1
				c1.5-0.8,8.4-3.7,6.5-6.3c-1.2-1.7-5.8-1.9-7.6-1.6c-7.4,1.1-13.5,6.6-18.2,11.5c-7.3,7.6-12.8,16.6-17.2,26
				c-1.3,2.7-2.5,5.7-3.4,8.1L24.9,91.1z"/>
			<path fill="#DAD3EB" d="M27.3,97.8l-1.1,0.4c-0.4,0.2-0.9-0.1-1.1-0.5l-2.5-7l2.7-0.9l2.5,7C28,97.2,27.8,97.6,27.3,97.8z"/>
			<path fill="#DAD3EB" d="M15.9,103.8c-0.3,0.7-1.2,1-1.8,0.7l0,0c-0.7-0.3-1-1.2-0.7-1.8l3.9-8.4c0.3-0.7,1.2-1,1.8-0.7l0,0
				c0.7,0.3,1,1.2,0.7,1.8L15.9,103.8z"/>
			<path fill="#DAD3EB" d="M20.3,103.8c-0.3,0.7-1.2,1-1.8,0.7l0,0c-0.7-0.3-1-1.2-0.7-1.8l3.1-6.7c0.3-0.7,1.2-1,1.8-0.7l0,0
				c0.7,0.3,1,1.2,0.7,1.8L20.3,103.8z"/>
			<path fill="#FC008B" d="M23.2,97.5c0.6-0.7,2.3-7.6,2.3-7.6s-1-1.6-4.2-2.8c-2.7-1-4.4-0.5-4.4-0.5l-3.3,6.4L23.2,97.5z"/>
			<g>
				
					<rect x="29.8" y="63.1" transform="matrix(0.7836 0.6213 -0.6213 0.7836 46.8916 -7.8465)" fill="#9184AD" width="9.8" height="0.6"/>
				
					<rect x="28.6" y="64.7" transform="matrix(0.7836 0.6213 -0.6213 0.7836 47.5983 -6.7323)" fill="#9184AD" width="9.8" height="0.6"/>
				
					<rect x="27.3" y="66.2" transform="matrix(0.7836 0.6213 -0.6213 0.7836 48.3049 -5.618)" fill="#9184AD" width="9.9" height="0.6"/>
			</g>
			<rect x="16.6" y="95" transform="matrix(0.9054 0.4246 -0.4246 0.9054 42.4516 1.445)" fill="#FC008B" width="2.8" height="2"/>
			
				<rect x="20.2" y="96.7" transform="matrix(0.9054 0.4246 -0.4246 0.9054 43.5099 7.527025e-02)" fill="#FC008B" width="2.8" height="2"/>
			
				<rect x="23.4" y="90.1" transform="matrix(0.9424 -0.3344 0.3344 0.9424 -29.4946 13.6279)" fill="#FC008B" width="2.8" height="4.7"/>
		</g>
		<g>
			<path fill="#DAD3EB" d="M86.4,133.1c-0.3,0.7,0,1.5,0.7,1.8l0,0c0.7,0.3,1.5,0,1.8-0.7l2.5-5.3c0.3-0.7,0-1.5-0.7-1.8l0,0
				c-0.7-0.3-1.5,0-1.8,0.7L86.4,133.1z"/>
			
				<rect x="88.2" y="128.6" transform="matrix(-0.9054 -0.4246 0.4246 -0.9054 115.6795 284.8731)" fill="#FC008B" width="2.8" height="2"/>
			<path fill="#DAD3EB" d="M85.3,119.4c1.3-2.2,2.7-5,4-7.7c2.9-6.1,5.2-12.4,6.9-19c2.1-8.2,2.8-15.5,0.9-24.1
				c-0.4-1.7-2.5-8.8,0.7-9.1c2.1-0.1,5.1,3.3,6.1,4.8c3.9,6.4,3.6,14.7,2.8,21.4c-1.2,10.4-4.5,20.5-9,29.9c-1.3,2.7-2.8,5.6-4,7.8
				L85.3,119.4z"/>
			<path fill="#DAD3EB" d="M78.6,121.8l0.4,1.1c0.2,0.4,0.6,0.6,1.1,0.5l6.9-2.5l-1-2.7l-6.9,2.5C78.6,120.9,78.4,121.4,78.6,121.8z
				"/>
			<path fill="#DAD3EB" d="M81.3,134.5c-0.3,0.7,0,1.5,0.7,1.8l0,0c0.7,0.3,1.5,0,1.8-0.7l3.9-8.4c0.3-0.7,0-1.5-0.7-1.8l0,0
				c-0.7-0.3-1.5,0-1.8,0.7L81.3,134.5z"/>
			<path fill="#DAD3EB" d="M78.5,131.1c-0.3,0.7,0,1.5,0.7,1.8l0,0c0.7,0.3,1.5,0,1.8-0.7l3.1-6.7c0.3-0.7,0-1.5-0.7-1.8l0,0
				c-0.7-0.3-1.5,0-1.8,0.7L78.5,131.1z"/>
			<path fill="#FC008B" d="M81.5,124.8c0.2-0.9,4.4-6.6,4.4-6.6s2.1,0.2,4.5,1.6c2.9,1.6,3.6,2.9,3.6,2.9l-2.8,6.7L81.5,124.8z"/>
			<g>
				
					<rect x="95.5" y="93.9" transform="matrix(-0.9787 -0.2052 0.2052 -0.9787 179.2195 206.9179)" fill="#9184AD" width="9.8" height="0.6"/>
				
					<rect x="95" y="95.8" transform="matrix(-0.9787 -0.2052 0.2052 -0.9787 178.0023 210.7172)" fill="#9184AD" width="9.8" height="0.6"/>
				
					<rect x="94.6" y="97.8" transform="matrix(-0.9787 -0.2052 0.2052 -0.9787 176.7851 214.5164)" fill="#9184AD" width="9.9" height="0.6"/>
			</g>
			
				<rect x="84.6" y="126.9" transform="matrix(-0.9054 -0.4246 0.4246 -0.9054 109.5332 280.1243)" fill="#FC008B" width="2.8" height="2"/>
			
				<rect x="81" y="125.2" transform="matrix(-0.9054 -0.4246 0.4246 -0.9054 103.387 275.3755)" fill="#FC008B" width="2.8" height="2"/>
			
				<rect x="82.9" y="118" transform="matrix(-0.3454 -0.9384 0.9384 -0.3454 0.4519 241.0342)" fill="#FC008B" width="2.8" height="4.7"/>
		</g>
		<g>
			
				<rect x="24" y="125.9" transform="matrix(0.9007 0.4345 -0.4345 0.9007 58.0202 -1.3752)" fill="#9184AD" width="16" height="0.6"/>
			
				<rect x="23.1" y="127.7" transform="matrix(0.9007 0.4345 -0.4345 0.9007 58.7185 -0.8171)" fill="#9184AD" width="16" height="0.6"/>
			
				<rect x="22.2" y="129.5" transform="matrix(0.9007 0.4345 -0.4345 0.9007 59.4168 -0.259)" fill="#9184AD" width="16.2" height="0.6"/>
		</g>
		<g>
			
				<rect x="47" y="136.7" transform="matrix(-0.91 -0.4147 0.4147 -0.91 48.3107 284.481)" fill="#9184AD" width="16" height="0.6"/>
			
				<rect x="46.2" y="138.5" transform="matrix(-0.91 -0.4147 0.4147 -0.91 45.9657 287.6216)" fill="#9184AD" width="16" height="0.6"/>
			
				<rect x="45.3" y="140.4" transform="matrix(-0.91 -0.4147 0.4147 -0.91 43.6207 290.7623)" fill="#9184AD" width="16.2" height="0.6"/>
		</g>
		<path fill="#9184AD" d="M66.1,37.7l35.1,16.5c0.4,0.2,0.7,0.3,0.7,0.7l-0.4,6.4c0,0.5-0.7,0.9-1.3,0.6L60.8,43.4
			c-0.6-0.3-0.7-1.1-0.3-1.5l4.6-4.2C65.4,37.4,65.8,37.5,66.1,37.7z"/>
		<polygon fill="#DAD3EB" points="62.5,40.1 101.7,58.4 101.9,57.5 63.1,39.3 		"/>
		<polygon fill="#DAD3EB" points="61,41.4 101.7,60.5 101.8,59.5 61.6,40.7 		"/>
		<polygon fill="#DAD3EB" points="64.1,38.7 101.8,56.4 101.9,55.5 64.7,38 		"/>
		<polygon fill-rule="evenodd" fill="#FC008B" points="18.8,137.3 9.1,159.3 21.4,165.1 32.2,143.6 		"/>
		<path fill-rule="evenodd" fill="#FC008B" d="M32.3,143.3c1.9,0.9-5.5,4-9.2,2.2c-3.7-1.7-6.1-9.4-4.2-8.5
			c4.7,2.2,8.1-0.5,11.8,1.3C33,139.4,30.3,142.4,32.3,143.3z"/>
		<path fill="#DAD3EB" d="M104.2,4.9c-5.6-2.6-11.8-2.9-17.3-1.2c4.3-0.5,8.7,0.2,12.8,2.2c12.2,5.7,17.4,20.4,11.6,32.8
			c-3.1,6.7-8.8,11.3-15.3,13.3c8.3-0.9,16-6,19.9-14.2C121.6,25.3,116.4,10.6,104.2,4.9z"/>
		<path fill="#5D4D78" d="M20.1,167.6l-19.8-9.3c-0.3-0.1-0.4-0.4-0.2-0.7l1.1-2.5c0.1-0.3,0.4-0.4,0.7-0.2l19.8,9.3
			c0.3,0.1,0.4,0.4,0.2,0.7l-1.1,2.5C20.7,167.6,20.4,167.7,20.1,167.6z"/>
		<path fill="#FC008B" d="M2.2,155.1c1.2-2.5,4.5-5.1,9.9-2.6c5.4,2.5,10.9,9.3,9.8,11.8L2.2,155.1z"/>
		<path fill-rule="evenodd" fill="#DBD3EB" d="M27.6,152.7c-0.6,0.8-2.7,1.6-2.7,1.6c0-0.1,0.4-0.7,0.4-0.7c-1,0.6-3.9,1-3.9,1
			s1.4,0.3,2.5,0c0,0-0.2,0.6-0.4,0.7c-0.2,0.1,2.3,0,3.4-1L27.6,152.7z"/>
		<path fill-rule="evenodd" fill="#DBD3EB" d="M27.3,148c-1,1.3-4.7,2.8-4.7,2.8c-0.1-0.1,0.7-1.2,0.7-1.2c-1.7,1-6.6,1.8-6.6,1.8
			s2.3,0.6,4.2,0c0,0-0.3,1-0.6,1.3c-0.3,0.3,4.3,0,6-1.9c0,0-0.1,1-0.3,1.2c-0.1,0.2,2.4-1.1,4.2-3.9l1.2-2.4c0,0-2.5,2.7-4,3.3
			C27.1,149,27.3,148,27.3,148z"/>
		
			<rect x="73" y="70.7" transform="matrix(0.9054 0.4246 -0.4246 0.9054 37.902 -24.9292)" fill="#9184AD" width="3.8" height="3.8"/>
		
			<rect x="77.5" y="72.8" transform="matrix(0.9054 0.4246 -0.4246 0.9054 39.2252 -26.6417)" fill="#9184AD" width="3.8" height="3.8"/>
		
			<rect x="82" y="74.9" transform="matrix(0.9054 0.4246 -0.4246 0.9054 40.5483 -28.3542)" fill="#9184AD" width="3.8" height="3.8"/>
		<path fill="#DAD3EB" d="M83.7,65.5c-3.4-1.6-7.5-0.1-9.2,3.3L87,74.7C88.6,71.2,87.1,67.1,83.7,65.5z"/>
		<path fill-rule="evenodd" fill="#FC008B" d="M43.2,81.4L42.1,84l-2.7,8.1c-1.1,2.3,9.4,10,11.7,11.1l9.6,4.5
			c2.4,1.1,14.7,2.8,15.7,0.4l4.4-6l1.3-2.5c0,0-9.6-2.7-18.8-7.1C53,87.8,43.2,81.4,43.2,81.4z"/>
		<path fill-rule="evenodd" fill="#9184AD" d="M42.1,84l-5,10.4c-1.1,2.3,10.5,10.3,12.8,11.4l9.6,4.5c2.4,1.1,15.9,4.4,16.9,2
			l4.4-10.1c0,0-9.4-2.7-18.7-7C51.8,90.3,42.1,84,42.1,84z"/>
	</g>
	<g id="alien2_2">
	</g>
</g>
<g id="speakers">
</g>
<g id="text">
	<g id="text_1_">
	</g>
	<g id="date">
	</g>
	<g>
		<path fill-rule="evenodd" fill="#FC008B" d="M602.7,148c0-0.5,0-1.1,0-1.6l-3,1.7c1,0.1,2,0,2.9-0.1L602.7,148L602.7,148z"/>
		<path fill-rule="evenodd" fill="#FC008B" d="M622.4,135.2l-3.5,2c0.4,0.8,0.7,1.5,1.2,2.1C620.9,138.2,622.1,136.7,622.4,135.2
			L622.4,135.2z"/>
		<path fill-rule="evenodd" fill="#FC008B" d="M624.4,133.1c0.9,3.1-1.1,5.5-2.9,7.9c5.1,6.5,12.4,7.4,18.3,12.6
			c1.6,1.4,3.1,3.1,4.3,4.8c0.6-1.3,1-2.8,1.1-4.3c0.4-8.6-7.4-19.9-14-24.8L624.4,133.1L624.4,133.1z"/>
		<path fill-rule="evenodd" fill="#FC008B" d="M596.3,149l-7.5,4.2c1,8.2,6.2,19.9,13.4,23.9c5.1,2.9,11,0.6,16.7,1.7
			c-0.7-1.5-1.2-3-1.6-4.7c-8.2-1.8-14-5.8-14.6-24C600.4,150.4,598.1,150.5,596.3,149L596.3,149z"/>
		<path fill-rule="evenodd" fill="#FC008B" d="M620,175.9c1.3,6.7,4.8,12.6,10.9,16.9c8.5,5.9,13.9,3.7,19.6,14.3
			c1.1-10.7-10.8-13.4-11.2-22.5c0-0.6-0.1-1.3-0.2-2c-2.1-2.1-4.7-3.9-7.1-4.5C627.5,177.1,623.4,176.9,620,175.9L620,175.9z"/>
		<g>
			<path fill-rule="evenodd" fill="#FC008B" d="M616.6,137.5c4.9,11.1,14,11.1,21.2,17.4c9.7,8.6,12.3,23.5,10.5,35.7
				c0.2-4.9-7.9-14.2-15-16c-15.8-3.8-28.6,1.3-28.4-30.4L616.6,137.5z"/>
			<path fill-rule="evenodd" fill="#DBD3EB" d="M614.6,140c4.3,10.6,14,9.5,20.5,15.3c5.1,4.5,8.1,11.1,9.3,17.9
				c-11.2-21.6-33.6-4.9-36.2-30.5C610.8,141.8,611.9,142.1,614.6,140z"/>
			<path fill-rule="evenodd" fill="#FC008B" d="M619.9,175.9c1.3,6.7,4.8,12.6,10.9,16.9c8.5,5.9,13.9,3.7,19.6,14.3
				c1.1-10.7-10.8-13.4-11.2-22.5c0-0.7-0.1-1.3-0.2-2c-2.1-2.1-4.7-3.9-7.1-4.5C627.4,177.1,623.3,176.9,619.9,175.9z"/>
			<path fill-rule="evenodd" fill="#DBD3EB" d="M623.2,178.2c1,4.8,3.5,9.1,7.8,12.1c4,2.8,7,3.1,9.8,5.1c-0.3-0.6-0.7-1.1-1-1.5
				c-3.9-5.5-11.2-7.1-12.5-14.9C625.8,178.8,624.4,178.6,623.2,178.2z"/>
			<path fill-rule="evenodd" fill="#FC008B" d="M596.3,149c1.8,1.5,4.1,1.3,6.5,1.2c0.6,18.2,6.4,22.2,14.6,24
				c0.4,1.6,0.9,3.2,1.6,4.7c-5.7-1.1-11.6,1.3-16.7-1.7c-7.2-4.1-12.4-15.7-13.4-23.9L596.3,149z"/>
			<path fill-rule="evenodd" fill="#DBD3EB" d="M593.9,150.4c1.7,2.4,4.2,2.3,6.7,2.1c0.6,16.1,7.1,21.8,15.9,22.7
				c0.1,0.3,0.4,1,0.5,1.3c-16.8,0-23.5-15.6-25-25.1L593.9,150.4z"/>
			<path fill-rule="evenodd" fill="#FC008B" d="M624.4,133.1c0.9,3.1-1.1,5.5-2.9,7.9c5.1,6.5,12.4,7.4,18.3,12.6
				c1.6,1.4,3.1,3.1,4.3,4.8c0.6-1.3,1-2.8,1.1-4.3c0.4-8.6-7.4-19.9-14-24.8L624.4,133.1z"/>
			<path fill-rule="evenodd" fill="#DBD3EB" d="M635.2,148.9c2.5,1.6,6.3,3.2,8,5.6c1.6-8.2-6.2-19.2-12.4-23.8
				c0.2-0.2-1.1-0.4-3.1,0.5l-1.4,0.8C631.9,136.4,634.2,141.9,635.2,148.9z"/>
		</g>
		<path fill-rule="evenodd" fill="#5D4C78" d="M636.6,116.1c-13.8-33.3-28.1-59.2-42.2-75.7c-8.5-10-16.1-15.7-20-13.3
			c-3.4,1.7-3.5,8.5-1.2,17.9c-5-7.8-7.5-14.2-12-19.6C550.1,11.6,538.1,8.1,533,5.9c-0.7,5.5-3.9,17.5,2.2,34.3
			c2.4,6.6,6.6,12,10.7,20.3c-6.9-6.8-12.8-10.2-16-8.2c-4,2.1-3,11.5,1.2,24c7,20.6,21.9,46.1,43.4,75c9.6-5.5,20.1-12,30.7-18.3
			C616,127.2,627,121.6,636.6,116.1z"/>
		<path fill-rule="evenodd" fill="#35267B" d="M529.1,53c-3,2.9-1.9,11.9,2,23.4c7,20.6,21.9,46.1,43.4,75c8.8-5,18.4-11,28-16.7
			c-0.6-1.7-1.3-3.3-1.9-4.8c-8.1-18.6-25-75.8-30.2-56.1C566.1,90.9,529.8,83.5,529.1,53z"/>
		<path fill-rule="evenodd" fill="#9184AD" d="M606.8,57.1c-1.7,7.6-14.6,13.9-21.9,11.7c-2.6,10.9-14.9,15.1-24.5,13.7
			c-5.5,9.2-15.7,15.2-21.2,12.9c-2.5-5.1-4.6-9.9-6.4-14.5c2.7,7.1,6.3,14.7,10.7,22.8c6.8,1.9,17.1-3.9,22.3-11.7
			c2.8-4.2,18.7-15.5,23.7-15.2c10,0.7,18.1-5,22.2-11.9l0,0 M532.5,80.1c0.1,0.3,0.2,0.5,0.3,0.8C532.7,80.6,532.6,80.4,532.5,80.1
			z"/>
		<path fill-rule="evenodd" fill="#9184AD" d="M566.8,33.7c-1.7-3-3.3-5.7-5.4-8.3C550.1,11.6,538.1,8.1,533,5.9
			c-0.7,5.5-3.9,17.5,2.2,34.3c1.1,3.1,2.6,5.9,4.3,8.9c5.1-0.3,10.4-1.9,15.3-4.7C559.8,41.6,563.9,37.9,566.8,33.7z"/>
		<path fill-rule="evenodd" fill="#5D4C78" d="M555.7,45.8c6.7-3.8,20.5,7.7,24.3,14.3l14.8,26.1l49.8,26.9l3,5.3l-76.4,43.4l-3-5.3
			l2.2-56.3L555.5,74C551.6,67.1,548.9,49.6,555.7,45.8z"/>
		<polygon fill-rule="evenodd" fill="#DAD3EB" points="572.4,160.2 572,160.3 569.2,155.4 571.3,103.2 		"/>
		<path fill-rule="evenodd" fill="#DAD3EB" d="M534.2,7.9c-0.2,1.3-1.7,6.5-0.9,17C549.4,12,569.1,41.8,571,46.6
			C563.1,27.3,550.6,14.5,534.2,7.9z"/>
		<path fill-rule="evenodd" fill="#DAD3EB" d="M631.6,110c-12.4-30-25.3-53.2-37.9-68.1c-7.7-9-14.5-14.1-18-12
			c-2.4,1.2-3,5.3-2,11.2c0.3-2.2,1.1-3.7,2.5-4.4c3.8-2.3,11.2,3.2,19.5,13c11.8,13.9,23.8,34.4,35.4,60.6L631.6,110z"/>
		<path fill-rule="evenodd" fill="#35267B" d="M555.8,45.7c6.3-3.6,19.5,7.3,23.1,13.6l2.2,3.9c-6.7,6.7-14.3,11.4-23.3,13.2
			l-2.2-3.9C551.9,66.1,549.4,49.4,555.8,45.7z"/>
		<path fill-rule="evenodd" fill="#DAD3EB" d="M580,63.9l13.1,23.2l50.3,27.1l0.8,4.8l-1.6,0.9l-52.2-31.5l-8.4-15
			c-1.2-2.1-2.4-3.8-5.1-6.2L580,63.9z"/>
		<path fill-rule="evenodd" fill="#DAD3EB" d="M556.7,47.7c5.8-3.3,17.8,6.6,21.1,12.4l2.2,3.8l-3.1,3.2c-5.4-4.8-13.7-9.7-17.9-7.4
			c-2.6,1.5-3.7,5-3.9,9.2C552.7,62,551.7,50.5,556.7,47.7z"/>
		<polygon fill-rule="evenodd" fill="#35267B" points="572.3,155.8 639.2,117.8 642.6,119.9 572.4,160.2 		"/>
		<polygon fill-rule="evenodd" fill="#5D4C78" points="615.3,146.4 611.8,148.4 592.6,114.7 596.1,112.7 615.3,136.7 		"/>
		<polygon fill-rule="evenodd" fill="#35267B" points="615.3,146.4 611.8,148.4 603.3,143.6 592.6,114.7 592.7,114.7 596.9,118 
			611.3,143.4 		"/>
		<path fill-rule="evenodd" fill="#DAD3EB" d="M568.8,140.1c-3.7-4.9-41.7-54.6-39.1-83.4C533.1,92.6,564,128.5,568.8,140.1z"/>
		<g>
			<circle fill-rule="evenodd" fill="#35267B" cx="593.3" cy="111.8" r="1.5"/>
			
				<ellipse transform="matrix(-0.4942 -0.8694 0.8694 -0.4942 789.7708 681.9709)" fill-rule="evenodd" fill="#5D4C78" cx="593.3" cy="111.2" rx="0.8" ry="0.8"/>
		</g>
		<g>
			<path fill-rule="evenodd" fill="#35267B" d="M589.5,105.1c0.7-0.4,1.7-0.2,2.1,0.6c0.4,0.7,0.2,1.7-0.6,2.1
				c-0.7,0.4-1.7,0.2-2.1-0.6C588.5,106.5,588.8,105.5,589.5,105.1z"/>
			
				<ellipse transform="matrix(-0.4936 -0.8697 0.8697 -0.4936 789.4957 671.4996)" fill-rule="evenodd" fill="#5D4C78" cx="590.3" cy="105.9" rx="0.8" ry="0.8"/>
		</g>
		<g>
			<circle fill-rule="evenodd" fill="#35267B" cx="587.2" cy="101.1" r="1.5"/>
			
				<ellipse transform="matrix(-0.4942 -0.8694 0.8694 -0.4942 789.9919 660.7547)" fill-rule="evenodd" fill="#5D4C78" cx="587.2" cy="100.5" rx="0.8" ry="0.8"/>
		</g>
		<g>
			<circle fill-rule="evenodd" fill="#35267B" cx="584.2" cy="95.8" r="1.5"/>
			
				<ellipse transform="matrix(-0.4942 -0.8694 0.8694 -0.4942 790.1033 650.1468)" fill-rule="evenodd" fill="#5D4C78" cx="584.2" cy="95.2" rx="0.8" ry="0.8"/>
		</g>
		<g>
			<circle fill-rule="evenodd" fill="#35267B" cx="581.2" cy="90.4" r="1.5"/>
			
				<ellipse transform="matrix(-0.4941 -0.8694 0.8694 -0.4941 790.1662 639.5568)" fill-rule="evenodd" fill="#5D4C78" cx="581.2" cy="89.9" rx="0.8" ry="0.8"/>
		</g>
		<g>
			<circle fill-rule="evenodd" fill="#35267B" cx="578.1" cy="85.1" r="1.5"/>
			
				<ellipse transform="matrix(-0.4943 -0.8693 0.8693 -0.4943 790.3873 628.9058)" fill-rule="evenodd" fill="#5D4C78" cx="578.1" cy="84.5" rx="0.8" ry="0.8"/>
		</g>
		<g>
			<circle fill-rule="evenodd" fill="#35267B" cx="575.1" cy="79.8" r="1.5"/>
			
				<ellipse transform="matrix(-0.4948 -0.869 0.869 -0.4948 790.8206 618.1693)" fill-rule="evenodd" fill="#5D4C78" cx="575.1" cy="79.2" rx="0.8" ry="0.8"/>
		</g>
		<g>
			<circle fill-rule="evenodd" fill="#35267B" cx="572.1" cy="74.4" r="1.5"/>
			
				<ellipse transform="matrix(-0.4936 -0.8697 0.8697 -0.4936 790.177 607.8657)" fill-rule="evenodd" fill="#5D4C78" cx="572.1" cy="73.9" rx="0.8" ry="0.8"/>
		</g>
		<g>
			<circle fill-rule="evenodd" fill="#35267B" cx="547.2" cy="106.7" r="1.5"/>
			
				<ellipse transform="matrix(-0.4931 -0.8699 0.8699 -0.4931 724.6934 634.5592)" fill-rule="evenodd" fill="#9184AD" cx="547.2" cy="106.2" rx="0.8" ry="0.8"/>
		</g>
		<g>
			<circle fill-rule="evenodd" fill="#5D4C78" cx="551.4" cy="106" r="1.5"/>
			
				<ellipse transform="matrix(-0.4936 -0.8697 0.8697 -0.4936 731.7712 637.0283)" fill-rule="evenodd" fill="#35267B" cx="551.4" cy="105.5" rx="0.8" ry="0.8"/>
		</g>
		<g>
			<circle fill-rule="evenodd" fill="#5D4C78" cx="555.7" cy="104.2" r="1.5"/>
			
				<ellipse transform="matrix(-0.4931 -0.87 0.87 -0.4931 739.5038 638.2037)" fill-rule="evenodd" fill="#35267B" cx="555.7" cy="103.7" rx="0.8" ry="0.8"/>
		</g>
		<g>
			<circle fill-rule="evenodd" fill="#5D4C78" cx="559.6" cy="102.3" r="1.5"/>
			
				<ellipse transform="matrix(-0.4936 -0.8697 0.8697 -0.4936 747.2487 638.6315)" fill-rule="evenodd" fill="#35267B" cx="559.6" cy="101.8" rx="0.8" ry="0.8"/>
		</g>
		<g>
			<circle fill-rule="evenodd" fill="#5D4C78" cx="563" cy="99.3" r="1.5"/>
			
				<ellipse transform="matrix(-0.4941 -0.8694 0.8694 -0.4941 755.3109 636.9565)" fill-rule="evenodd" fill="#35267B" cx="563" cy="98.7" rx="0.8" ry="0.8"/>
		</g>
		<g>
			<circle fill-rule="evenodd" fill="#5D4C78" cx="565.7" cy="96" r="1.5"/>
			
				<ellipse transform="matrix(-0.4931 -0.8699 0.8699 -0.4931 761.6057 634.652)" fill-rule="evenodd" fill="#35267B" cx="565.7" cy="95.5" rx="0.8" ry="0.8"/>
		</g>
		<g>
			<circle fill-rule="evenodd" fill="#35267B" cx="592.9" cy="79.3" r="1.5"/>
			
				<ellipse transform="matrix(-0.4724 -0.8814 0.8814 -0.4724 803.6155 638.5743)" fill-rule="evenodd" fill="#5D4C78" cx="592.9" cy="78.8" rx="0.8" ry="0.8"/>
		</g>
		<g>
			<circle fill-rule="evenodd" fill="#35267B" cx="597.1" cy="78.7" r="1.5"/>
			
				<ellipse transform="matrix(-0.4719 -0.8817 0.8817 -0.4719 809.9523 641.4864)" fill-rule="evenodd" fill="#5D4C78" cx="597.1" cy="78.2" rx="0.8" ry="0.8"/>
		</g>
		<g>
			<circle fill-rule="evenodd" fill="#35267B" cx="601.4" cy="77" r="1.5"/>
			
				<ellipse transform="matrix(-0.4719 -0.8817 0.8817 -0.4719 817.8406 642.8568)" fill-rule="evenodd" fill="#5D4C78" cx="601.5" cy="76.5" rx="0.8" ry="0.8"/>
		</g>
		<g>
			<circle fill-rule="evenodd" fill="#35267B" cx="605.4" cy="75.2" r="1.5"/>
			
				<ellipse transform="matrix(-0.4724 -0.8814 0.8814 -0.4724 825.5811 643.5167)" fill-rule="evenodd" fill="#5D4C78" cx="605.4" cy="74.7" rx="0.8" ry="0.8"/>
		</g>
		<g>
			<circle fill-rule="evenodd" fill="#35267B" cx="608.9" cy="72.3" r="1.5"/>
			
				<ellipse transform="matrix(-0.4725 -0.8814 0.8814 -0.4725 833.3494 642.2373)" fill-rule="evenodd" fill="#5D4C78" cx="608.9" cy="71.7" rx="0.8" ry="0.8"/>
		</g>
		<g>
			<circle fill-rule="evenodd" fill="#35267B" cx="611.7" cy="69.1" r="1.5"/>
			
				<ellipse transform="matrix(-0.4724 -0.8814 0.8814 -0.4724 840.2679 639.9918)" fill-rule="evenodd" fill="#5D4C78" cx="611.7" cy="68.5" rx="0.8" ry="0.8"/>
		</g>
	</g>
</g>
</svg>
