<?xml version="1.0" encoding="utf-8"?>
<!-- Generator: Adobe Illustrator 19.1.0, SVG Export Plug-In . SVG Version: 6.00 Build 0)  -->
<svg version="1.2" baseProfile="tiny" xmlns="http://www.w3.org/2000/svg" xmlns:xlink="http://www.w3.org/1999/xlink" x="0px"
	 y="0px" viewBox="0 0 119.9 182" xml:space="preserve">
<g id="bg">
	<g id="face_1_">
	</g>
	<g id="face">
	</g>
</g>
<g id="other">
	<g id="asteroid_2_">
		<g id="crater_17_">
		</g>
		<g id="crater_16_">
		</g>
		<g id="crater_15_">
		</g>
		<g id="crater_14_">
		</g>
		<g id="crater_13_">
		</g>
		<g id="crater_12_">
		</g>
		<g id="_carter_2_5_">
		</g>
		<g id="_carter_2_4_">
		</g>
	</g>
	<g id="g1_2_">
	</g>
	<g id="asteroid_1_">
		<g id="crater_11_">
		</g>
		<g id="crater_10_">
		</g>
		<g id="crater_9_">
		</g>
		<g id="crater_8_">
		</g>
		<g id="crater_7_">
		</g>
		<g id="crater_6_">
		</g>
		<g id="_carter_2_3_">
		</g>
		<g id="_carter_2_2_">
		</g>
	</g>
	<g id="sity_1_">
		<g id="ufo1_2_">
		</g>
		<g id="ufo1_1_">
		</g>
		<g id="ufo1">
		</g>
	</g>
	<g id="sity">
	</g>
	<g id="ship_1_1_">
	</g>
	<g id="spaceman_2_1_">
	</g>
	<g id="ufo2_1_">
	</g>
	<g id="ufo2">
	</g>
	<g id="alien2">
	</g>
	<g id="asteroid">
		<g id="crater_5_">
		</g>
		<g id="crater_4_">
		</g>
		<g id="crater_3_">
		</g>
		<g id="crater_2_">
		</g>
		<g id="crater_1_">
		</g>
		<g id="crater">
		</g>
		<g id="_carter_2_1_">
		</g>
		<g id="_carter_2">
		</g>
	</g>
	<g id="alien3_1_">
	</g>
	<g id="alien3">
	</g>
	<g id="g2_2_">
	</g>
	<g id="g2_1_">
	</g>
	<g id="g2">
	</g>
	<g id="surfer_2_">
	</g>
	<g id="surfer_1_">
	</g>
	<g id="surfer">
	</g>
	<g id="g1_1_">
	</g>
	<g id="g1">
	</g>
	<g id="ship_1">
	</g>
	<g id="spaceman_1">
	</g>
	<g id="spaceman_2">
	</g>
	<g>
		
			<ellipse transform="matrix(0.9054 0.4246 -0.4246 0.9054 20.6623 -36.3848)" fill="#9184AD" cx="92" cy="28.2" rx="27.8" ry="28.2"/>
		<g>
			<path fill="#35267B" d="M108.2,34.3c-9.1,15.3-15.5,20-26.4,14.8C70.9,44,70.4,34.5,76.5,19c4-10.2,12.6-15.7,24.1-10.3
				C111.1,13.6,114.7,23.3,108.2,34.3z"/>
			<path fill="#FC008B" d="M84,44.4c0,0,1.1,0.2,2.2,1c1.1,0.9-1.1,4-1.1,4s4.3-0.4,7.5-1.7c3.2-1.3,7.4-6.1,7.4-6.1
				s-4.6,2.1-7.4-0.7c-0.9-0.9-1.8-2.3-0.9-4.4c0.5-1.2,1.2,0.8,1.5,1.2c0.9,1.1,0.7,1.3,3.8,1.8c3.4,0.6,7.3-4.1,8.5-5.8
				s2.2-5.7,2.5-6.5c0.4-0.8,1-1.2,1-1.2s-1.4,0-3,0.2c-1.6,0.2-2.4,1-2.4,1s0.5-1.3,1.5-2.2s2.8-0.9,2.8-0.9s-1-0.5-2.8-0.8
				c-1.9-0.3-3.6,0.5-3.6,0.5s0.6-0.9,0.1-2.7c-0.4-1.8-2.1-3.8-2.1-3.8s0.4,4.1-0.9,5.9c-0.7,0.9-2.5,1.5-3.7,2
				c-1.6,0.6-2.6,1.2-2.6,1.2s-0.2-1.2-0.8-2.7c-0.4-1.2-1.2-3-0.8-4.1c0.6-2.2,4-4.4,4-4.4s-2.6,0-4.3,0.8s-2,1.9-2,1.9
				s-0.5-1.8-1.9-3.1c-1.4-1.2-2.4-1.6-2.4-1.6s1.2,1.3,1.1,2.7c-0.1,1.4-0.8,2.6-0.8,2.6s0.1-1.2-0.7-2.5c-0.9-1.3-1.7-2.5-1.7-2.5
				s0.1,0.8-0.2,1.5C81.4,15.7,79,19,78.4,21s-1.7,8,1,10.3c2.4,2.1,2.4,1.7,3.9,1.8c0.5,0,2.5-0.8,1.9,0.4c-1,2-2.7,2.3-3.9,2.1
				c-3.9-0.4-5.2-5.3-5.2-5.3s-1,6.3,0,9.6c1,3.3,3.4,6.9,3.4,6.9s1-3.7,2.4-3.4C83.2,43.6,84,44.4,84,44.4z"/>
			<path fill="#DAD3EB" d="M87.9,28.6c0,0,1.5-1.7-0.7-4.3s-7.1-3.9-7.1-3.9s0.4,3.4,2.3,5.6C84.9,28.8,87.9,28.6,87.9,28.6z"/>
			<path fill="#DAD3EB" d="M93.8,31.4c0,0,0.4-2.2,3.7-2.2c3.3,0,7.5,3,7.5,3s-2.9,1.9-5.8,1.8C95.6,33.9,93.8,31.4,93.8,31.4z"/>
			
				<ellipse transform="matrix(0.9054 0.4246 -0.4246 0.9054 25.3327 -32.6237)" fill="#DAD3EB" cx="85.9" cy="40.5" rx="5" ry="1.8"/>
			<polygon fill="#FC008B" points="99.7,11 99.7,12.5 101,13.3 99.6,13.7 99.2,15.1 98.3,13.9 96.9,14 97.7,12.8 97.2,11.5 
				98.6,11.9 			"/>
			<g>
				<polygon fill="#FC008B" points="93.3,10.7 93.9,11.6 94.9,11.7 94.3,12.4 94.5,13.5 93.5,13 92.6,13.6 92.7,12.5 91.9,11.9 
					92.9,11.6 				"/>
				<polygon fill="#FC008B" points="104,15.7 103,15.8 102.2,15.1 102.1,16.1 101.1,16.5 102.1,17 102.2,18.1 103,17.3 104,17.6 
					103.5,16.6 				"/>
			</g>
		</g>
		<g>
			<polygon fill-rule="evenodd" fill="#DAD3EB" points="33.6,166.8 46,172.6 60.6,143.6 46.6,137 			"/>
			<polygon fill-rule="evenodd" fill="#FC008B" points="55.2,154.3 44.4,175.9 32.1,170.1 41.8,148 			"/>
			<path fill-rule="evenodd" fill="#FC008B" d="M41.9,147.8c-1.9-0.9,0.5,6.8,4.2,8.5s11.2-1.3,9.2-2.2c-4.7-2.2-4.8-6.5-8.5-8.2
				C44.4,144.8,43.9,148.8,41.9,147.8z"/>
			<path fill="#5D4D78" d="M31,172.7l19.8,9.3c0.3,0.1,0.5,0,0.7-0.2l1.1-2.5c0.1-0.3,0-0.5-0.2-0.7l-19.8-9.3
				c-0.3-0.1-0.5,0-0.7,0.2l-1.1,2.5C30.7,172.3,30.8,172.6,31,172.7z"/>
			<path fill="#FC008B" d="M52.1,178.5c1.2-2.5,1.1-6.7-4.4-9.2s-14.1-2.5-15.3,0L52.1,178.5z"/>
			<path fill-rule="evenodd" fill="#DBD3EB" d="M37.6,157.4c-0.2,1,0.6,3.1,0.6,3.1c0.1,0,0.3-0.7,0.3-0.7c0.2,1.1,1.7,3.7,1.7,3.7
				s-1.1-0.8-1.6-1.9c0,0-0.3,0.5-0.3,0.8c0,0.2-1.4-1.7-1.4-3.2L37.6,157.4z"/>
			<path fill-rule="evenodd" fill="#DBD3EB" d="M41.5,154.7c-0.4,1.6,0.9,5.4,0.9,5.4c0.1,0,0.5-1.3,0.5-1.3
				c0.3,1.9,2.9,6.2,2.9,6.2s-1.9-1.4-2.7-3.2c0,0-0.6,0.9-0.6,1.3c0,0.4-2.7-3.3-2.3-5.8c0,0-0.7,0.7-0.8,1
				c-0.1,0.2-0.7-2.6,0.3-5.7l1.1-2.5c0,0-0.5,3.6,0,5.1C40.9,155.4,41.5,154.7,41.5,154.7z"/>
		</g>
		<path fill-rule="evenodd" fill="#DAD3EB" d="M70,115.2l-30.6-14.4C37,99.8,36,97,37.1,94.7l4.6-9.4l16.4-41.8
			c0.4-1,1.6-1.6,2.6-1.2L100.6,61c1,0.5,1.3,1.8,0.8,2.7l-20.5,38.5l-4.7,10.7C75.1,115.3,72.3,116.3,70,115.2z"/>
		
			<rect x="73.3" y="62.9" transform="matrix(0.9054 0.4246 -0.4246 0.9054 37.7577 -27.7756)" fill="#35267B" width="15.8" height="15.8"/>
		<circle fill-rule="evenodd" fill="#5D4D78" cx="64.2" cy="57.9" r="3.3"/>
		<circle fill-rule="evenodd" fill="#5D4D78" cx="59.9" cy="67.1" r="3.3"/>
		<polygon fill-rule="evenodd" fill="#DAD3EB" points="23,161.8 10.6,156 23.6,126.2 37.6,132.8 		"/>
		<polygon fill-rule="evenodd" fill="#DAD3EB" points="37.3,132.7 23.6,126.2 37,94.6 51.2,103.1 		"/>
		<polygon fill-rule="evenodd" fill="#DAD3EB" points="46.6,137 60.6,143.6 76.2,112.9 60.4,107.4 		"/>
		<g>
			<path fill="#DAD3EB" d="M13.7,99c-0.3,0.7-1.2,1-1.8,0.7l0,0c-0.7-0.3-1-1.2-0.7-1.8l2.5-5.3c0.3-0.7,1.2-1,1.8-0.7l0,0
				c0.7,0.3,1,1.2,0.7,1.8L13.7,99z"/>
			<rect x="13" y="93.3" transform="matrix(0.9054 0.4246 -0.4246 0.9054 41.3933 2.8148)" fill="#FC008B" width="2.8" height="2"/>
			<path fill="#DAD3EB" d="M24.9,91.1c0.9-2.3,2.1-5.3,3.4-8c2.9-6.1,6.2-12,10.2-17.5c4.9-6.8,10.1-12,18-16.1
				c1.5-0.8,8.4-3.7,6.5-6.3c-1.2-1.7-5.8-1.9-7.6-1.6c-7.4,1.1-13.5,6.6-18.2,11.5c-7.3,7.6-12.8,16.6-17.2,26
				c-1.3,2.7-2.5,5.7-3.4,8.1L24.9,91.1z"/>
			<path fill="#DAD3EB" d="M27.3,97.8l-1.1,0.4c-0.4,0.2-0.9-0.1-1.1-0.5l-2.5-7l2.7-0.9l2.5,7C28,97.2,27.8,97.6,27.3,97.8z"/>
			<path fill="#DAD3EB" d="M15.9,103.8c-0.3,0.7-1.2,1-1.8,0.7l0,0c-0.7-0.3-1-1.2-0.7-1.8l3.9-8.4c0.3-0.7,1.2-1,1.8-0.7l0,0
				c0.7,0.3,1,1.2,0.7,1.8L15.9,103.8z"/>
			<path fill="#DAD3EB" d="M20.3,103.8c-0.3,0.7-1.2,1-1.8,0.7l0,0c-0.7-0.3-1-1.2-0.7-1.8l3.1-6.7c0.3-0.7,1.2-1,1.8-0.7l0,0
				c0.7,0.3,1,1.2,0.7,1.8L20.3,103.8z"/>
			<path fill="#FC008B" d="M23.2,97.5c0.6-0.7,2.3-7.6,2.3-7.6s-1-1.6-4.2-2.8c-2.7-1-4.4-0.5-4.4-0.5l-3.3,6.4L23.2,97.5z"/>
			<g>
				
					<rect x="29.8" y="63.1" transform="matrix(0.7836 0.6213 -0.6213 0.7836 46.8916 -7.8465)" fill="#9184AD" width="9.8" height="0.6"/>
				
					<rect x="28.6" y="64.7" transform="matrix(0.7836 0.6213 -0.6213 0.7836 47.5983 -6.7323)" fill="#9184AD" width="9.8" height="0.6"/>
				
					<rect x="27.3" y="66.2" transform="matrix(0.7836 0.6213 -0.6213 0.7836 48.3049 -5.618)" fill="#9184AD" width="9.9" height="0.6"/>
			</g>
			<rect x="16.6" y="95" transform="matrix(0.9054 0.4246 -0.4246 0.9054 42.4516 1.445)" fill="#FC008B" width="2.8" height="2"/>
			
				<rect x="20.2" y="96.7" transform="matrix(0.9054 0.4246 -0.4246 0.9054 43.5099 7.526512e-02)" fill="#FC008B" width="2.8" height="2"/>
			
				<rect x="23.4" y="90.1" transform="matrix(0.9424 -0.3344 0.3344 0.9424 -29.4946 13.6279)" fill="#FC008B" width="2.8" height="4.7"/>
		</g>
		<g>
			<path fill="#DAD3EB" d="M86.4,133.1c-0.3,0.7,0,1.5,0.7,1.8l0,0c0.7,0.3,1.5,0,1.8-0.7l2.5-5.3c0.3-0.7,0-1.5-0.7-1.8l0,0
				c-0.7-0.3-1.5,0-1.8,0.7L86.4,133.1z"/>
			
				<rect x="88.2" y="128.6" transform="matrix(-0.9054 -0.4246 0.4246 -0.9054 115.6795 284.873)" fill="#FC008B" width="2.8" height="2"/>
			<path fill="#DAD3EB" d="M85.3,119.4c1.3-2.2,2.7-5,4-7.7c2.9-6.1,5.2-12.4,6.9-19c2.1-8.2,2.8-15.5,0.9-24.1
				c-0.4-1.7-2.5-8.8,0.7-9.1c2.1-0.1,5.1,3.3,6.1,4.8c3.9,6.4,3.6,14.7,2.8,21.4c-1.2,10.4-4.5,20.5-9,29.9c-1.3,2.7-2.8,5.6-4,7.8
				L85.3,119.4z"/>
			<path fill="#DAD3EB" d="M78.6,121.8l0.4,1.1c0.2,0.4,0.6,0.6,1.1,0.5l6.9-2.5l-1-2.7l-6.9,2.5C78.6,120.9,78.4,121.4,78.6,121.8z
				"/>
			<path fill="#DAD3EB" d="M81.3,134.5c-0.3,0.7,0,1.5,0.7,1.8l0,0c0.7,0.3,1.5,0,1.8-0.7l3.9-8.4c0.3-0.7,0-1.5-0.7-1.8l0,0
				c-0.7-0.3-1.5,0-1.8,0.7L81.3,134.5z"/>
			<path fill="#DAD3EB" d="M78.5,131.1c-0.3,0.7,0,1.5,0.7,1.8l0,0c0.7,0.3,1.5,0,1.8-0.7l3.1-6.7c0.3-0.7,0-1.5-0.7-1.8l0,0
				c-0.7-0.3-1.5,0-1.8,0.7L78.5,131.1z"/>
			<path fill="#FC008B" d="M81.5,124.8c0.2-0.9,4.4-6.6,4.4-6.6s2.1,0.2,4.5,1.6c2.9,1.6,3.6,2.9,3.6,2.9l-2.8,6.7L81.5,124.8z"/>
			<g>
				
					<rect x="95.5" y="93.9" transform="matrix(-0.9787 -0.2052 0.2052 -0.9787 179.2195 206.9179)" fill="#9184AD" width="9.8" height="0.6"/>
				
					<rect x="95" y="95.8" transform="matrix(-0.9787 -0.2052 0.2052 -0.9787 178.0023 210.7171)" fill="#9184AD" width="9.8" height="0.6"/>
				
					<rect x="94.6" y="97.8" transform="matrix(-0.9787 -0.2052 0.2052 -0.9787 176.7851 214.5164)" fill="#9184AD" width="9.9" height="0.6"/>
			</g>
			
				<rect x="84.6" y="126.9" transform="matrix(-0.9054 -0.4246 0.4246 -0.9054 109.5332 280.1242)" fill="#FC008B" width="2.8" height="2"/>
			
				<rect x="81" y="125.2" transform="matrix(-0.9054 -0.4246 0.4246 -0.9054 103.387 275.3755)" fill="#FC008B" width="2.8" height="2"/>
			
				<rect x="82.9" y="118" transform="matrix(-0.3454 -0.9384 0.9384 -0.3454 0.4519 241.0342)" fill="#FC008B" width="2.8" height="4.7"/>
		</g>
		<g>
			
				<rect x="24" y="125.9" transform="matrix(0.9007 0.4345 -0.4345 0.9007 58.0202 -1.3752)" fill="#9184AD" width="16" height="0.6"/>
			
				<rect x="23.1" y="127.7" transform="matrix(0.9007 0.4345 -0.4345 0.9007 58.7185 -0.8171)" fill="#9184AD" width="16" height="0.6"/>
			
				<rect x="22.2" y="129.5" transform="matrix(0.9007 0.4345 -0.4345 0.9007 59.4168 -0.259)" fill="#9184AD" width="16.2" height="0.6"/>
		</g>
		<g>
			
				<rect x="47" y="136.7" transform="matrix(-0.91 -0.4147 0.4147 -0.91 48.3107 284.481)" fill="#9184AD" width="16" height="0.6"/>
			
				<rect x="46.2" y="138.5" transform="matrix(-0.91 -0.4147 0.4147 -0.91 45.9657 287.6216)" fill="#9184AD" width="16" height="0.6"/>
			
				<rect x="45.3" y="140.4" transform="matrix(-0.91 -0.4147 0.4147 -0.91 43.6207 290.7623)" fill="#9184AD" width="16.2" height="0.6"/>
		</g>
		<path fill="#9184AD" d="M66.1,37.7l35.1,16.5c0.4,0.2,0.7,0.3,0.7,0.7l-0.4,6.4c0,0.5-0.7,0.9-1.3,0.6L60.8,43.4
			c-0.6-0.3-0.7-1.1-0.3-1.5l4.6-4.2C65.4,37.4,65.8,37.5,66.1,37.7z"/>
		<polygon fill="#DAD3EB" points="62.5,40.1 101.7,58.4 101.9,57.5 63.1,39.3 		"/>
		<polygon fill="#DAD3EB" points="61,41.4 101.7,60.5 101.8,59.5 61.6,40.7 		"/>
		<polygon fill="#DAD3EB" points="64.1,38.7 101.8,56.4 101.9,55.5 64.7,38 		"/>
		<polygon fill-rule="evenodd" fill="#FC008B" points="18.8,137.3 9.1,159.3 21.4,165.1 32.2,143.6 		"/>
		<path fill-rule="evenodd" fill="#FC008B" d="M32.3,143.3c1.9,0.9-5.5,4-9.2,2.2s-6.1-9.4-4.2-8.5c4.7,2.2,8.1-0.5,11.8,1.3
			C33,139.4,30.3,142.4,32.3,143.3z"/>
		<path fill="#DAD3EB" d="M104.2,4.9c-5.6-2.6-11.8-2.9-17.3-1.2c4.3-0.5,8.7,0.2,12.8,2.2c12.2,5.7,17.4,20.4,11.6,32.8
			c-3.1,6.7-8.8,11.3-15.3,13.3c8.3-0.9,16-6,19.9-14.2C121.6,25.3,116.4,10.6,104.2,4.9z"/>
		<path fill="#5D4D78" d="M20.1,167.6l-19.8-9.3c-0.3-0.1-0.4-0.4-0.2-0.7l1.1-2.5c0.1-0.3,0.4-0.4,0.7-0.2l19.8,9.3
			c0.3,0.1,0.4,0.4,0.2,0.7l-1.1,2.5C20.7,167.6,20.4,167.7,20.1,167.6z"/>
		<path fill="#FC008B" d="M2.2,155.1c1.2-2.5,4.5-5.1,9.9-2.6c5.4,2.5,10.9,9.3,9.8,11.8L2.2,155.1z"/>
		<path fill-rule="evenodd" fill="#DBD3EB" d="M27.6,152.7c-0.6,0.8-2.7,1.6-2.7,1.6c0-0.1,0.4-0.7,0.4-0.7c-1,0.6-3.9,1-3.9,1
			s1.4,0.3,2.5,0c0,0-0.2,0.6-0.4,0.7c-0.2,0.1,2.3,0,3.4-1L27.6,152.7z"/>
		<path fill-rule="evenodd" fill="#DBD3EB" d="M27.3,148c-1,1.3-4.7,2.8-4.7,2.8c-0.1-0.1,0.7-1.2,0.7-1.2c-1.7,1-6.6,1.8-6.6,1.8
			s2.3,0.6,4.2,0c0,0-0.3,1-0.6,1.3c-0.3,0.3,4.3,0,6-1.9c0,0-0.1,1-0.3,1.2c-0.1,0.2,2.4-1.1,4.2-3.9l1.2-2.4c0,0-2.5,2.7-4,3.3
			C27.1,149,27.3,148,27.3,148z"/>
		
			<rect x="73" y="70.7" transform="matrix(0.9054 0.4246 -0.4246 0.9054 37.902 -24.9292)" fill="#9184AD" width="3.8" height="3.8"/>
		
			<rect x="77.5" y="72.8" transform="matrix(0.9054 0.4246 -0.4246 0.9054 39.2252 -26.6417)" fill="#9184AD" width="3.8" height="3.8"/>
		
			<rect x="82" y="74.9" transform="matrix(0.9054 0.4246 -0.4246 0.9054 40.5483 -28.3542)" fill="#9184AD" width="3.8" height="3.8"/>
		<path fill="#DAD3EB" d="M83.7,65.5c-3.4-1.6-7.5-0.1-9.2,3.3L87,74.7C88.6,71.2,87.1,67.1,83.7,65.5z"/>
		<path fill-rule="evenodd" fill="#FC008B" d="M43.2,81.4L42.1,84l-2.7,8.1c-1.1,2.3,9.4,10,11.7,11.1l9.6,4.5
			c2.4,1.1,14.7,2.8,15.7,0.4l4.4-6l1.3-2.5c0,0-9.6-2.7-18.8-7.1C53,87.8,43.2,81.4,43.2,81.4z"/>
		<path fill-rule="evenodd" fill="#9184AD" d="M42.1,84l-5,10.4c-1.1,2.3,10.5,10.3,12.8,11.4l9.6,4.5c2.4,1.1,15.9,4.4,16.9,2
			l4.4-10.1c0,0-9.4-2.7-18.7-7C51.8,90.3,42.1,84,42.1,84z"/>
	</g>
	<g id="alien2_2">
	</g>
</g>
<g id="speakers">
</g>
<g id="text">
	<g id="text_1_">
	</g>
	<g id="date">
	</g>
</g>
</svg>
