<?xml version="1.0" encoding="utf-8"?>
<!-- Generator: Adobe Illustrator 19.1.0, SVG Export Plug-In . SVG Version: 6.00 Build 0)  -->
<svg version="1.2" baseProfile="tiny" xmlns="http://www.w3.org/2000/svg" xmlns:xlink="http://www.w3.org/1999/xlink" x="0px"
	 y="0px" viewBox="0 0 267.6 295.1" xml:space="preserve">
<g id="bg">
	<g id="face_1_">
	</g>
	<g id="face">
	</g>
</g>
<g id="other">
	<g id="asteroid_2_">
		<g id="crater_17_">
		</g>
		<g id="crater_16_">
		</g>
		<g id="crater_15_">
		</g>
		<g id="crater_14_">
		</g>
		<g id="crater_13_">
		</g>
		<g id="crater_12_">
		</g>
		<g id="_carter_2_5_">
		</g>
		<g id="_carter_2_4_">
		</g>
	</g>
	<g id="g1_2_">
	</g>
	<g id="asteroid_1_">
		<g id="crater_11_">
		</g>
		<g id="crater_10_">
		</g>
		<g id="crater_9_">
		</g>
		<g id="crater_8_">
		</g>
		<g id="crater_7_">
		</g>
		<g id="crater_6_">
		</g>
		<g id="_carter_2_3_">
		</g>
		<g id="_carter_2_2_">
		</g>
	</g>
	<g id="sity_1_">
		<g id="ufo1_2_">
		</g>
		<g id="ufo1_1_">
		</g>
		<g id="ufo1">
		</g>
	</g>
	<g id="sity">
	</g>
	<g id="ship_1_1_">
	</g>
	<g id="spaceman_2_1_">
	</g>
	<g id="ufo2_1_">
	</g>
	<g id="ufo2">
	</g>
	<g id="alien2">
	</g>
	<g id="asteroid">
		<g id="crater_5_">
		</g>
		<g id="crater_4_">
		</g>
		<g id="crater_3_">
		</g>
		<g id="crater_2_">
		</g>
		<g id="crater_1_">
		</g>
		<g id="crater">
		</g>
		<g id="_carter_2_1_">
		</g>
		<g id="_carter_2">
		</g>
	</g>
	<g id="alien3_1_">
	</g>
	<g id="alien3">
	</g>
	<g id="g2_2_">
	</g>
	<g id="g2_1_">
	</g>
	<g id="g2">
	</g>
	<g id="surfer_2_">
	</g>
	<g id="surfer_1_">
	</g>
	<g id="surfer">
	</g>
	<g id="g1_1_">
	</g>
	<g id="g1">
	</g>
	<g id="ship_1">
	</g>
	<g id="spaceman_1">
	</g>
	<g id="spaceman_2">
	</g>
	<g id="alien2_2">
	</g>
</g>
<g id="speakers">
</g>
<g id="text">
	<g id="text_1_">
	</g>
	<g id="date">
	</g>
	<g>
		<g>
			<path fill="#DAD3EB" d="M113.6,87l-57.7-7.7c-2.8-0.4-4.7-2.9-4.3-5.7l1.2-8.9l62.7,8.4L113.6,87z"/>
			<path fill="#DAD3EB" d="M58.9,24.3l-7.4,49.1c-0.4,2.8,1.5,5.3,4.2,5.8l8.9,1.3l8.2-54.1L58.9,24.3z"/>
			
				<rect x="51.5" y="67.3" transform="matrix(0.9623 -0.272 0.272 0.9623 -16.1963 18.6794)" fill="#9184AD" width="15.6" height="0.9"/>
			
				<rect x="51.4" y="71.1" transform="matrix(0.8074 -0.59 0.59 0.8074 -30.6819 49.1104)" fill="#9184AD" width="17" height="0.9"/>
			
				<rect x="55.3" y="73.1" transform="matrix(0.5722 -0.8201 0.8201 0.5722 -33.3294 83.1391)" fill="#9184AD" width="15.5" height="0.9"/>
			<g>
				<path fill="#DAD3EB" d="M53.5,6.3l-1.4,0.5c-0.8,0.3-1.2,1.1-1,1.9l3.6,11.1c0.3,0.8,1.1,1.2,1.9,1l1.4-0.5
					c0.8-0.3,1.2-1.1,1-1.9L55.4,7.3C55.1,6.5,54.3,6,53.5,6.3z"/>
				<path fill="#DAD3EB" d="M77.3,14L76,13.3c-0.8-0.4-1.7-0.1-2.1,0.7l-5.2,10.4l4.1,2.1L78,16C78.4,15.3,78.1,14.3,77.3,14z"/>
				<path fill="#DAD3EB" d="M58.1,0.1l-1.4,0.5c-0.8,0.3-1.2,1.1-1,1.9l4.9,15.4c0.3,0.8,1.1,1.2,1.9,1l1.4-0.5
					c0.8-0.3,1.2-1.1,1-1.9L60,1.1C59.8,0.3,58.9-0.2,58.1,0.1z"/>
				<path fill="#DAD3EB" d="M65,0.8l-1.4,0.5c-0.8,0.3-1.2,1.1-1,1.9l4.1,12.7c0.3,0.8,1.1,1.2,1.9,1l1.4-0.5c0.8-0.3,1.2-1.1,1-1.9
					L66.9,1.8C66.7,1,65.8,0.5,65,0.8z"/>
				<path fill="#FC008B" d="M70.7,13.8c0.8,1.3,2,12.6,2,12.6l-14.4,3.5l-4-10.9L70.7,13.8z"/>
				
					<rect x="53.9" y="15.6" transform="matrix(0.9521 -0.3058 0.3058 0.9521 -2.5256 17.9892)" fill="#FC008B" width="4.5" height="2.8"/>
				
					<rect x="59.9" y="13.7" transform="matrix(0.9521 -0.3058 0.3058 0.9521 -1.6459 19.7373)" fill="#FC008B" width="4.5" height="2.8"/>
				
					<rect x="66" y="11.8" transform="matrix(0.9521 -0.3058 0.3058 0.9521 -0.8463 21.5257)" fill="#FC008B" width="4.5" height="3.4"/>
				
					<rect x="70.1" y="18.2" transform="matrix(0.8921 0.4517 -0.4517 0.8921 17.7397 -30.3414)" fill="#FC008B" width="4.5" height="7.5"/>
			</g>
		</g>
		<g>
			<path fill="#DAD3EB" d="M164.1,113.7l39.8,42.4c1.9,2,5.1,2.1,7.1,0.2l6.6-6.2l-43.3-46.1L164.1,113.7z"/>
			<path fill="#DAD3EB" d="M247,121.6l-35.6,34.6c-2,1.9-5.2,1.9-7.1-0.1l-6.3-6.4l39.3-38.2L247,121.6z"/>
			
				<rect x="203.6" y="146.1" transform="matrix(-0.3393 -0.9407 0.9407 -0.3393 145.2102 395.1968)" fill="#9184AD" width="15.6" height="0.9"/>
			
				<rect x="199.4" y="147.9" transform="matrix(9.449638e-03 -1 1 9.449638e-03 57.6873 354.8726)" fill="#9184AD" width="17" height="0.9"/>
			
				<rect x="196.8" y="146.4" transform="matrix(0.3334 -0.9428 0.9428 0.3334 -2.1635 290.7468)" fill="#9184AD" width="15.5" height="0.9"/>
			<g>
				<path fill="#DAD3EB" d="M264.8,115.5l0.5,1.4c0.3,0.8-0.2,1.7-1,1.9l-11.1,3.6c-0.8,0.3-1.7-0.2-1.9-1l-0.5-1.4
					c-0.3-0.8,0.2-1.7,1-1.9l11.1-3.6C263.6,114.3,264.5,114.7,264.8,115.5z"/>
				<path fill="#DAD3EB" d="M267.1,108.1l0.5,1.4c0.3,0.8-0.2,1.7-1,1.9l-15.4,4.9c-0.8,0.3-1.7-0.2-1.9-1l-0.5-1.4
					c-0.3-0.8,0.2-1.7,1-1.9l15.4-4.9C266,106.9,266.8,107.3,267.1,108.1z"/>
				<path fill="#DAD3EB" d="M262.5,103l0.5,1.4c0.3,0.8-0.2,1.7-1,1.9l-12.7,4.1c-0.8,0.3-1.7-0.2-1.9-1l-0.5-1.4
					c-0.3-0.8,0.2-1.7,1-1.9l12.7-4.1C261.4,101.7,262.2,102.2,262.5,103z"/>
				<path fill="#FC008B" d="M248.6,105.9c-1.5,0.1-11.4,5.7-11.4,5.7l5.5,13.8l11.2-3.1L248.6,105.9z"/>
				
					<rect x="252.2" y="118.2" transform="matrix(-0.3058 -0.9521 0.9521 -0.3058 218.3678 398.4463)" fill="#FC008B" width="4.5" height="2.8"/>
				
					<rect x="250.2" y="112.2" transform="matrix(-0.3058 -0.9521 0.9521 -0.3058 221.5736 388.746)" fill="#FC008B" width="4.5" height="2.8"/>
				
					<rect x="248" y="106" transform="matrix(-0.3058 -0.9521 0.9521 -0.3058 224.3352 378.8988)" fill="#FC008B" width="4.5" height="3.4"/>
				<g>
					<path fill="#9184AD" d="M259.8,126.6l-13.1,0.7c-0.6,0-1.1-0.4-1.1-1l-1.8-31.6c0-0.6,0.4-1.1,1-1.1l13.1-0.7
						c0.6,0,1.1,0.4,1.1,1l1.8,31.6C260.8,126,260.4,126.5,259.8,126.6z"/>
					
						<rect x="246.4" y="95.2" transform="matrix(0.9985 -5.561230e-02 5.561230e-02 0.9985 -5.6401 14.1968)" fill="#35267B" width="11.7" height="26.5"/>
					<circle fill="#35267B" cx="253.1" cy="124.2" r="1.3"/>
				</g>
				<path fill="#DAD3EB" d="M244.6,100.6l1.3,0.7c0.7,0.4,1,1.3,0.7,2.1l-5.4,10.3l-4-2.1l5.4-10.3
					C243,100.5,243.9,100.2,244.6,100.6z"/>
				
					<rect x="238.7" y="105.5" transform="matrix(-0.8868 -0.4622 0.4622 -0.8868 404.1439 317.5267)" fill="#FC008B" width="4.5" height="7.5"/>
			</g>
		</g>
		
			<ellipse transform="matrix(0.8895 0.457 -0.457 0.8895 42.4326 -69.3964)" fill="#9184AD" cx="164.7" cy="53" rx="44.5" ry="45.2"/>
		<path fill-rule="evenodd" fill="#DAD3EB" d="M124.5,191l-48.2-24.7c-3.7-1.9-5.2-6.3-3.2-10l7.9-14.8l28.6-65.9
			c0.7-1.6,2.7-2.5,4.2-1.7l62.6,32.2c1.5,0.8,1.9,3,1.1,4.4l-35,60.3l-8.1,16.9C132.8,191.4,128.2,192.9,124.5,191z"/>
		<g>
			<polygon fill-rule="evenodd" fill="#DAD3EB" points="85.6,265.5 103.2,278.5 138.7,232.8 118.7,218.1 			"/>
			<polygon fill-rule="evenodd" fill="#5D4D78" points="123.3,252.7 99.7,283.2 82.1,270.3 104.2,238.7 			"/>
			<path fill-rule="evenodd" fill="#5D4D78" d="M104.4,238.4c-2,2.7,0.3,12,5.5,15.9s18.2-3,14.8-3.4c-8.7-1.1-16.9-10.9-9.5-11.6
				C121.5,238.6,107.6,234.1,104.4,238.4z"/>
			<path fill="#FC008B" d="M79.4,273.9l28.7,21.1c0.2,0.2,0.5,0.1,0.7-0.1l2.9-4c0.2-0.2,0.1-0.5-0.1-0.7L83,269.1
				c-0.2-0.2-0.5-0.1-0.7,0.1l-2.9,4C79.2,273.4,79.2,273.7,79.4,273.9z"/>
			<path fill="#5D4D78" d="M111,289.7c2.6-3.6,3.8-10.2-4-15.9s-21.4-8.3-24-4.7L111,289.7z"/>
			<polygon fill-rule="evenodd" fill="#DAD3EB" points="114.5,223.7 139.5,227.8 132.3,165.4 106.6,172.1 			"/>
			<polygon fill="#5D4D78" points="111.8,227.9 138,233.4 139.5,226.1 113.9,220.7 114.5,223.7 			"/>
			<path fill="#9184AD" d="M137.4,228.9c-1.6,3.6-4.2,6-1.8,7c2.3,1,5.5-1.2,7.1-4.8c1.6-3.6,1.1-7.3-1.3-8.3
				C139.2,221.9,139.1,225.3,137.4,228.9z"/>
			<polygon fill="#DAD3EB" points="100.5,266 101.5,263.9 103.9,263.4 102.1,261.9 102.4,259.5 100.3,260.7 98.1,259.6 98.6,262 
				96.8,263.7 99.3,263.9 			"/>
			<polygon fill="#DAD3EB" points="108.3,252.1 105.3,250.7 104.7,247.3 102.5,249.9 99.3,249.4 100.9,252.4 99.5,255.5 
				102.7,254.8 105.1,257.1 105.4,253.7 			"/>
			<polygon fill="#DAD3EB" points="116.3,254.6 115.6,252.6 116.9,250.8 114.7,251 113.5,249.3 112.8,251.4 110.8,252.1 
				112.6,253.3 112.6,255.4 114.3,254 			"/>
		</g>
		<g>
			<polygon fill-rule="evenodd" fill="#DAD3EB" points="9.8,211.5 17.4,232 72,213.4 63.4,190.1 			"/>
			<polygon fill-rule="evenodd" fill="#5D4D78" points="48.3,221.6 11.8,234.1 4.2,213.6 40.1,199.3 			"/>
			<path fill-rule="evenodd" fill="#5D4D78" d="M40.4,199.2c-3.2,1.2-6.4,10.1-4.1,16.3c2.3,6.1,16.8,7.5,14.2,5.3
				c-6.6-5.7-8.1-18.4-1.5-14.9C54.5,208.8,45.4,197.4,40.4,199.2z"/>
			<path fill="#FC008B" d="M0,215.1l12.4,33.4c0.1,0.3,0.4,0.4,0.6,0.3l4.6-1.7c0.3-0.1,0.4-0.4,0.3-0.6L5.6,213
				c-0.1-0.3-0.4-0.4-0.6-0.3l-4.6,1.7C0.1,214.5-0.1,214.8,0,215.1z"/>
			<path fill="#5D4D78" d="M17.7,245.7c4.2-1.5,8.7-6.4,5.4-15.4c-3.3-9-13.3-18.7-17.5-17.2L17.7,245.7z"/>
			<polygon fill-rule="evenodd" fill="#DAD3EB" points="56.9,192.5 75.6,209.6 103.8,153.6 78.7,145 			"/>
			<polygon fill="#5D4D78" points="52.3,194.4 71.2,213.5 76.5,208.3 58,189.6 56.9,192.5 			"/>
			<path fill="#9184AD" d="M73.2,209.4c-3.3,2.1-6.8,2.7-5.4,4.8c1.4,2.1,5.2,2.1,8.6-0.1c3.3-2.1,4.9-5.5,3.5-7.6
				S76.6,207.3,73.2,209.4z"/>
			<polygon fill="#DAD3EB" points="21.9,220.1 23.9,218.9 26.2,219.9 25.6,217.5 27.1,215.8 24.7,215.5 23.4,213.5 22.5,215.7 
				20.1,216.2 22.1,217.7 			"/>
			<polygon fill="#DAD3EB" points="36.1,212.8 34.4,210 35.7,206.9 32.5,207.8 30.1,205.6 29.8,209 26.9,210.8 30,211.9 30.6,215.2 
				32.8,212.6 			"/>
			<polygon fill="#DAD3EB" points="41.4,219.3 41.9,217.2 44,216.4 42.1,215.4 42,213.3 40.3,214.7 38.2,214.2 39,216.1 37.8,217.9 
				40,217.7 			"/>
		</g>
		<g>
			<path fill="#FC008B" d="M189.2,63.2c-15.5,23.9-25.9,31-43.1,22.2c-16.9-8.7-17.2-24-6.6-48.4c7-16.1,21.1-24.4,39.2-15.1
				C195.1,30.3,200.3,46,189.2,63.2z"/>
			<path fill="#DAD3EB" d="M165.4,63.9c0,0,2.5,2,4.6,3.1c2.1,1.1,4.5,1.4,4.5,1.4s-1.6,1.3-2.5,2.7s-1,3.5-1,3.5s9.4-4.3,13.4-7.1
				s9.8-11.2,9.8-11.2s-1.7-0.6-3.5-0.7c-1.8-0.2-5.1-1.4-5.1-1.4s1.3-1.5,2.7-3s2.5-4.9,2.5-4.9s-10.1,2.2-13.6,0.8
				s-12.4,2.3-12.4,2.3s-2.2-9.3-5.4-11.4c-3.2-2.1-7.2-11.5-7.2-11.5s-2.1,2.9-2.5,4.9s-0.9,3.9-0.9,3.9s-2.9-2-4.1-3.3
				c-1.2-1.3-2.6-2.4-2.6-2.4s-3.5,9.6-3.4,14.5s2,15.1,2,15.1s1.5-1.3,2.2-2.9c0.7-1.6,0.7-3.6,0.7-3.6s1.7,1.8,3.8,2.9
				s5.2,1.9,5.2,1.9c2.2,0.7,1.8,7,4.2,8.2C159.1,66.7,164.3,63.2,165.4,63.9z"/>
			<path fill="#DAD3EB" d="M149.5,63.5c-1.9-1-5.4-2.8-8.3-1.5c-3,1.3-6.2,7.3-7.4,9.2s-3.3,4.5-3.3,4.5s2,1.4,5.4,0.7
				c1.7-0.3,8.5-0.6,13.9,2.2c5.3,2.7,9.1,8.4,9.8,10c1.4,3.2,3.7,4,3.7,4s0.9-3.2,1.8-5.3c0.9-2.1,3.9-8.2,3.2-11.4
				c-0.7-3.2-4.2-4.9-6.1-5.9c-1.6-0.8-3.3-3.3-5.7-4.6C154.1,64.3,151.1,64.4,149.5,63.5z"/>
			<path fill="#5D4D78" d="M160.4,76c-1.9,1.7-5.3,2.5-9.3,0.5c-3.9-2-5.1-5.3-5-7.8c0.2-3.6,2.5,1.7,7.1,4.1
				C157.8,75.2,162.7,73.9,160.4,76z"/>
			<path fill="#DAD3EB" d="M162.7,21.3c-1-0.3-3.2,0.1-3.2,0.1s1.2,1.6,2.9,4.5c1.6,2.7,3.2,6.6,3.2,6.6s0-1.4-0.2-4.2
				c-0.2-2.8-1.4-5.1-1.2-5c0.9,0.3,2.9,0.9,2.9,0.9s-0.9-1.5-1.3-3c-0.4-1.3-1-2.9-1-3.1c-1.4,0-2.7,0-4,0.2
				C161.4,19.6,162.7,21.3,162.7,21.3z"/>
			<path fill="#DAD3EB" d="M189,34.8c0,0,2,0.1,3.4-0.1c-0.6-1.2-1.3-2.3-2.2-3.4c-0.5,0.1-1.9,0.6-3,0.9c-1.4,0.5-3.2,0.6-3.2,0.6
				s1.6,1.3,2.4,1.9c0.2,0.1-2.4,0.5-4.8,2c-2.4,1.5-3.5,2.3-3.5,2.3s4.1-1,7.2-1.2c3.4-0.3,5.3-0.2,5.3-0.2S189.8,35.4,189,34.8z"
				/>
			<path fill="#5D4D78" d="M157.3,53.1c0,0,2.4-2.7-0.8-6.9s-11.1-6.6-11.1-6.6s0.5,5.5,3.4,9.1C152.4,53.2,157.3,53.1,157.3,53.1z"
				/>
			<path fill="#5D4D78" d="M166.5,57.8c0,0,0.8-3.5,6-3.3c5.3,0.2,11.9,5.2,11.9,5.2s-4.8,2.8-9.4,2.6
				C169.3,61.9,166.5,57.8,166.5,57.8z"/>
		</g>
		
			<rect x="132.4" y="108" transform="matrix(0.8895 0.457 -0.457 0.8895 71.1529 -52.9303)" fill="#35267B" width="25.2" height="25.2"/>
		<circle fill-rule="evenodd" fill="#9184AD" cx="118.6" cy="99.1" r="5.3"/>
		<circle fill-rule="evenodd" fill="#9184AD" cx="111.2" cy="113.5" r="5.3"/>
		<path fill-rule="evenodd" fill="#FC008B" d="M83.7,135.4l-1.9,4.1L77,152.4c-2,3.7,14.4,16.5,18.1,18.4l15.1,7.7
			c3.7,1.9,23.3,5.4,25.1,1.6l7.5-9.3l2.1-4c0,0-15.1-4.9-29.7-12.4C99,146.1,83.7,135.4,83.7,135.4z"/>
		<path fill-rule="evenodd" fill="#9184AD" d="M81.7,139.5l-8.6,16.3c-2,3.7,16.2,17.1,19.9,19l15.1,7.7c3.7,1.9,25.2,7.9,27,4.2
			l7.7-15.9c0,0-15-4.9-29.6-12.4C96.9,150.1,81.7,139.5,81.7,139.5z"/>
		<path fill="#9184AD" d="M122.8,66.7L178,95.1c0.6,0.3,1.1,0.6,1,1.1l-1,10.3c-0.1,0.9-1.2,1.4-2.1,0.9l-62-31.9
			c-0.9-0.5-1-1.8-0.4-2.4l7.6-6.5C121.7,66.3,122.3,66.4,122.8,66.7z"/>
		<polygon fill="#DAD3EB" points="116.9,70.4 178.5,102 178.9,100.5 118,69.2 		"/>
		<polygon fill="#DAD3EB" points="114.4,72.4 178.3,105.2 178.7,103.7 115.4,71.3 		"/>
		<polygon fill="#DAD3EB" points="119.5,68.3 178.7,98.8 179.1,97.3 120.5,67.2 		"/>
		<path fill="#DAD3EB" d="M185.6,16.5c-8.9-4.6-18.7-5.3-27.7-3c6.8-0.5,13.9,0.8,20.4,4.2c19.2,9.9,26.7,33.7,16.7,53.2
			c-5.4,10.5-14.8,17.6-25.3,20.4c13.3-0.9,26-8.7,32.6-21.6C212.3,50.1,204.8,26.3,185.6,16.5z"/>
		<g>
			<polygon fill-rule="evenodd" fill="#FC008B" points="167.6,108.3 137.5,114.3 143.2,117.2 129.3,123.4 134.5,126.1 121.1,133.9 
				150.5,127.6 145.5,125 160.2,119.3 154.3,116.2 			"/>
			<polyline fill-rule="evenodd" fill="none" stroke="#DBD3EB" stroke-linecap="round" stroke-miterlimit="10" points="121.3,133.6 
				142,125.8 137.9,123.7 151.5,119 146.7,116.5 167.6,108.4 			"/>
		</g>
	</g>
</g>
</svg>
