<svg version="1.2" baseProfile="tiny" xmlns="http://www.w3.org/2000/svg" viewBox="0 0 434.5 264"><path fill-rule="evenodd" fill="#D9D2E8" d="M163.6 209.7l-16.3-43.4c-4.8 2.9-21.1 11-24.6 9.1l20.6 49.9.2.4.1.3c1.1 2.3 3.2 4.1 5.8 4.8l59.6 16.6 6.3-21-51.7-16.7zM194.4 175l-13.9-37c-.3-.8-.6-1.5-1-2.1.8 4.2-14.8 18.4-18.1 20.7l-1 .7 13.8 33.4.2.4.1.3c1.1 2.3 3.2 4.1 5.8 4.8l59.6 16.6 6.3-21-51.8-16.8z"/><ellipse transform="matrix(.819 -.574 .574 .819 -12.586 50.358)" fill="#9184AD" cx="73.6" cy="45.1" rx="44.7" ry="45.3"/><path stroke="#DBD3E9" stroke-width="9" stroke-miterlimit="10" d="M142.3 102.4c11.2-10 23.7-18.8 37.9-23.6 14.2-4.8 30.3-5.1 43.8 1.6 20.6 10.2 30.7 33.7 36.1 56.1 8.9 36.4 15.8 73.5 49.9 95 30.7 19.3 68.7-5.2 89.8-28.4 22.4-24.8 38.2-58.7 38.8-92.5" fill="none"/><g fill-rule="evenodd" fill="#D9D2E8"><path d="M159.6 106.8l-29.1-46.3c-.9-1.4-3-2.1-4.4-1.1l-57.9 40.5c-1.4 1-1.5 3.2-.4 4.6l34.2 42.7 57.6-40.4zM171.1 124.2l8 10.8-.1-.2-7.9-10.6z"/></g><path fill="#9184AD" d="M143.048 225.628l19.748-17.673.6.671-19.748 17.673zM146.474 229.764l16.8-20.754.7.566-16.8 20.754zM151.644 231.782l12.503-22.223.784.441-12.503 22.223z"/><path fill="#ED1D89" d="M221.1 228.2l-34.9-11.4c-1-1.3-1.9-1.8-2.3-.7-1 3.4-6.4-.2-7.6 3.8-1.9 6.3 3.2 11 .8 19-.3 1.1.7 1.2 2.3.6l23.9 6.5c-2.8 9.2 2.1 13.8 6.4 15.1l3.7-12.4 1.4.4 6.3-20.9z"/><path fill-rule="evenodd" fill="#DBD3E9" d="M200 221.2c1.4.8 3.1 4 3.1 4-.1.1-1.2-.5-1.2-.5 1.1 1.4 2.6 6 2.6 6s.2-2.3-.6-3.9c0 0 1 .1 1.3.4.3.3-.5-3.6-2.3-5.1l-2.9-.9zM192.6 222.9c2.4 1.2 5.5 6.9 5.5 6.9-.2.1-2-.8-2-.8 1.9 2.4 4.3 10.1 4.3 10.1s.4-3.8-.9-6.6c0 0 1.7.2 2.2.7.5.5-1-6.8-4.5-9 0 0 1.6-.1 2.1.2.4.2-2.3-3.5-7.2-5.8l-4.1-1.3c0 .1 4.8 3.3 6.1 5.5 0 .1-1.5.1-1.5.1z"/><path fill="#5D4D78" d="M225.4 229.4l-10.3 34.2c-.1.3-.4.4-.6.3l-4.7-1.4c-.3-.1-.4-.4-.3-.6l10.3-34.2c.1-.3.4-.4.6-.3l4.7 1.4c.2.1.4.3.3.6z"/><path fill="#D9D2E8" d="M225.9 104.5c1 .7 2.4.4 3.1-.7.7-1 .4-2.4-.7-3.1l-8-5.1c-1-.7-2.4-.4-3.1.7-.7 1-.4 2.4.7 3.1l8 5.1zM203.8 103.4c-3.2-2.5-7.4-5.4-11.5-8-9.1-5.8-18.7-11-28.8-15-12.5-5.1-24.1-7.7-38.2-6.6-2.8.2-14.6 2.1-14.3-3 .2-3.4 6.3-7.5 9-8.6 11.1-4.8 24.1-2.6 34.6.1 16.4 4.1 31.7 11.6 45.7 20.6 4.1 2.6 8.3 5.6 11.5 8l-8 12.5zM206.1 114.5l2.3-.5c.6-.1 1-.7.8-1.3l-2.6-11.8-4.4 1 2.6 11.8c.1.6.7 1 1.3.8zM227 112.8c1 .7 2.4.4 3.1-.7.7-1 .4-2.4-.7-3.1l-12.5-8c-1-.7-2.4-.4-3.1.7-.7 1-.4 2.4.7 3.1l12.5 8zM221 116.5c1 .7 2.4.4 3.1-.7.7-1 .4-2.4-.7-3.1l-10-6.4c-1-.7-2.4-.4-3.1.7-.7 1-.4 2.4.7 3.1l10 6.4z"/><g fill="#9184AD"><path d="M169.928 66.745l-5.225 14.805-.849-.3 5.225-14.805zM172.951 67.773l-5.225 14.805-.849-.3 5.225-14.805zM175.974 68.8l-5.292 14.994-.849-.3 5.292-14.994z"/></g><path fill="#ED1D89" d="M221 101.4l2.4-3.8-2.7-1.7-9.8-5.8s-2.3.8-5.4 5.1c-2.6 3.6-3.4 6.9-3.4 6.9l.1.1 1.6 7.2 4.4-1-.1-.6c1.4 1.3 2.8 2.4 3.4 2.7l2.7 1.7 2.4-3.8-2.5-1.6 1-1.6 2.5 1.6 2.4-3.8-2.5-1.6 1-1.6 2.5 1.6z"/><path fill="#9184AD" d="M173.854 190.912l19.748-17.673.6.671-19.748 17.673zM177.281 195.045l16.8-20.754.7.566-16.8 20.754zM182.364 197.015l12.503-22.223.784.441-12.503 22.223z"/><path fill="#ED1D89" d="M251.9 193.5l-34.9-11.5c-1-1.3-1.9-1.8-2.3-.7-1 3.4-6.4-.2-7.6 3.8-1.9 6.3 3.2 11 .8 19-.3 1.1.7 1.2 2.3.6l23.9 6.5c-2.8 9.2 2.1 13.8 6.4 15.1l3.7-12.4 1.4.4 6.3-20.8z"/><path fill-rule="evenodd" fill="#DBD3E9" d="M230.7 186.5c1.4.8 3.1 4 3.1 4-.1.1-1.2-.5-1.2-.5 1.1 1.4 2.6 6 2.6 6s.2-2.3-.6-3.9c0 0 1 .1 1.3.4.3.3-.5-3.6-2.3-5.1l-2.9-.9zM223.4 188.2c2.4 1.2 5.5 6.9 5.5 6.9-.2.1-2-.8-2-.8 1.9 2.4 4.3 10.1 4.3 10.1s.4-3.8-.9-6.6c0 0 1.7.2 2.2.7.5.5-1-6.8-4.5-9 0 0 1.6-.1 2.1.2.4.2-2.3-3.5-7.2-5.8l-4.1-1.3c0 .1 4.8 3.3 6.1 5.5 0 .1-1.5.1-1.5.1z"/><path fill="#5D4D78" d="M256.2 194.7l-10.3 34.2c-.1.3-.4.4-.6.3l-4.7-1.4c-.3-.1-.4-.4-.3-.6l10.3-34.2c.1-.3.4-.4.6-.3l4.7 1.4c.2.1.4.3.3.6z"/><path fill="#D9D2E8" d="M69.1 97.3l-26.5 37.3-19-32.2-12.1 7.2 24.2 41.1c.5.9 1.3 1.7 2.1 2.3l.1.1c3.3 2.3 7.8 1.6 10.2-1.7l32.5-45.8-11.5-8.3z"/><path fill="#9184AD" d="M34.937 151.547l6.753-17.653.841.322-6.753 17.653zM40.717 154.463l.99-20.777.899.043-.99 20.777zM46.536 152.839l-4.847-19.198.873-.22 4.847 19.198z"/><path fill="#ED1D89" d="M16.4 86.4c1.2 1.1 7.4 15.9 7.4 15.9l-12.8 7.5-9.8-12.7 15.2-10.7z"/><path fill="#D9D2E8" d="M15.3 96.1l.4-2.3c.1-.6.7-1 1.3-.9l5.7 1-.8 4.5-5.7-1c-.6-.1-1-.7-.9-1.3z"/><path fill="#ED1D89" d="M20.7 93.3l2.7.5c1 .2 1.7 1.1 1.5 2.1l-1.1 6.4-4.5-.8 1.4-8.2z"/><path fill="#5D4D78" d="M95 27.5c14 24.9 15.4 37.6-.5 48.7-15.6 11-29.3 4-46.1-16.8-11-13.7-11.8-30.1 4.9-41.9 15.2-10.6 31.7-7.9 41.7 10z"/><path fill="#ED1D89" d="M85.1 49.4c2.6-.8 5-.2 9.3-6.1 3.3-4.5 3.1-11.2.5-17.9-2.6-6.7-9.2-11.8-9.2-11.8s.5 2.8.6 4.5c.2 1.8-.4 5.1-.4 5.1s-.8-2.7-2.2-4.5c-1.1-1.4-2.7-1.6-2.7-1.6s.4 1.7.6 4.1c.2 2.9-2.1 6.7-4.9 9.8-2.9 3-5 12.1-5 12.1s-9.2-1-13.1.6c-3.8 1.6-8.2 2.5-10.9 1.3-2.2-1.1-3.7-2-3.7-2s-.3 1.6.6 3.1c1.2 1.9 3.5 3.6 3.5 3.6s-3.3-.5-4.9-1.3c-1.5-.7-4-2.1-4-2.1s2.4 8 7.9 12.7 11.7 7.2 17 5.6c7-2 7.1-4.5 8.9-6.6 1.2-1.4 4.6-1.4 6.9-3 2.3-1.7 3.4-5 5.2-5.6zM77.7 62.2c-1.5 1.1-4.2 3.4-4.5 6.1-.4 2.7 1.2 5.3 3.4 7.3l3.8 3.1s-.3-1.5.1-2.4c.4-.9 1-1.3 1-1.3s.8 1 1.7 1.4c1.7.7 3.5.5 3.5.5s-1.5-2.6-.5-4.7c.6-1.4 6.3-5.4 7.9-5.5 2.3-.1 4.2 2.1 4.2 2.1s.8-1.7.7-3.5c0-1-.7-2.1-.7-2.1s.6-.5 1.6-.5l2.3.7s-.5-2-1.6-4.6c-1.1-2.7-3.1-5.1-5.7-5.6-2.6-.6-5.7 1.2-7.3 2.2-1.3.8-4 .9-5.8 2.1s-2.9 3.8-4.1 4.7z"/><path fill="#D9D2E8" d="M71 51.1s-1.3-3.4-6.5-2.5c-5.2.9-11.1 6.8-11.1 6.8s5.2 2.1 9.7 1.3c5.7-1.1 7.9-5.6 7.9-5.6zM79.5 45.2s-2.8-2.4-.1-6.9c2.6-4.6 10.1-8.1 10.1-8.1s.2 5.6-2.1 9.5c-3 5-7.9 5.5-7.9 5.5z"/><ellipse transform="matrix(.819 -.574 .574 .819 -20.902 60.757)" fill="#D9D2E8" cx="85.9" cy="63.5" rx="8" ry="3"/><path fill="#ED1D89" d="M67.9 11.4c-.8 1-2.3 2.9-3.4 5-1.4 2.6-2.6 8-2.6 8s-.8-3.8-.7-6.7c.1-.9.4-2.9.6-4.7-2.3.8-4.6 2-6.9 3.5 0 1.4.2 3.1.6 3.7-.4-.6-2-1.3-3.3-1.9-2.2 1.7-4.1 3.5-5.7 5.3 1.8.3 3.8.8 4.7 1 2.8.8 6.1 2.9 6.1 2.9s-5.5-.7-8.4-.2c-2.4.4-4.8 1.2-6 1.6-1 2-1.7 4-2.1 6 .6-.3 2.7-1.1 6.4-2.2 1.4-.4 5-1.5 6.6-1.8 8.1-1.4 12.3 4.5 12.3 4.5s-4.1-6 0-13.1c.8-1.5 3.1-4.4 4-5.6 2.2-2.9 3.7-4.6 4.2-5.1-2.1-.5-4.2-.5-6.4-.2z"/><path fill="#9184AD" d="M106.727 91.151l20.723-14.512 14.512 20.723-20.723 14.512z"/><path fill-rule="evenodd" fill="#ED1D89" d="M124.4 68.1l-8.8 29.6 5.3-3.7-1 15.2 4.8-3.3.7 15.5 8.2-29-4.7 3.2 1.7-15.7-5.4 3.8z"/><path fill="#DBD3E9" d="M125.1 121.6c-.3 0-.5-.3-.5-.6l2.6-20.9-3.8 2.7 2.2-14.3-4.4 3.1 2.7-23.4c0-.3.3-.5.6-.4.3 0 .5.3.4.6l-2.4 21.2 4.5-3.1-2.2 14.3 3.7-2.6-2.9 23.1c0 .1-.2.3-.5.3z"/><circle fill-rule="evenodd" fill="#9184AD" cx="92.8" cy="107.6" r="5.3"/><circle fill-rule="evenodd" fill="#9184AD" cx="102.1" cy="120.9" r="5.3"/><path fill-rule="evenodd" fill="#9184AD" d="M113.2 161.1l9.1 13.9c2.3 3.4 22.4-6.8 25.8-9.2l13.2-9.3c3.4-2.4 20.4-17.9 17.9-21.3l-9.9-13.4-56.1 39.3z"/><path fill-rule="evenodd" fill="#5D4D78" d="M112.8 161.5l1.6 2.4 57.1-40-3-4-8.4-13.4-58.6 41z"/><ellipse transform="matrix(.819 -.574 .574 .819 -52.33 103.665)" fill="#ED1D89" cx="138.2" cy="134.8" rx="17.3" ry="13.3"/><path fill="#9084AC" d="M66.1 88.7l51-35.7c.5-.4 1-.7 1.4-.4l8.7 5.7c.7.5.7 1.7-.1 2.3l-57.3 40.1c-.8.6-2.1.1-2.3-.8l-2.2-9.8c-.1-.6.3-1 .8-1.4z"/><path fill="#D9D2E8" d="M66.6 95.6l56.9-39.8-1.2-1-56.2 39.4zM67.2 98.8l59.1-41.3-1.2-1-58.4 40.9zM66 92.4l54.7-38.3-1.1-1-54.2 37.9z"/><ellipse transform="matrix(.819 -.574 .574 .819 -52.33 103.665)" fill="#D9D2E8" cx="138.2" cy="134.8" rx="14.1" ry="10.4"/><path fill="#D9D2E8" d="M50.9 9.5c-8.2 5.7-13.5 14.1-15.6 23.2 2.8-6.3 7.2-11.9 13.2-16.1 17.8-12.4 42.4-7.9 55 10.1 6.8 9.7 8.7 21.4 6.3 32 5.4-12.3 4.4-27.1-3.9-39-12.6-18.2-37.3-22.7-55-10.2zM1.8 93.1l-1.5 1.8c-.4.5-.3 1.2.1 1.6l4.4 3.7c.5.4 1.2.3 1.6-.1l1.5-1.8c.4-.5.3-1.2-.1-1.6l-4.4-3.7c-.5-.5-1.2-.4-1.6.1zM8.3 88.7l-1.9 1.3c-.5.3-.6 1-.3 1.5l3.3 4.8c.3.5 1 .6 1.5.3l1.9-1.3c.5-.3.6-1 .3-1.5l-3.2-4.8c-.4-.5-1.1-.6-1.6-.3zM14.2 84.7l-2 1.2c-.5.3-.7 1-.4 1.5l2.9 5c.3.5 1 .7 1.5.4l2-1.2c.5-.3.7-1 .4-1.5l-2.9-5c-.3-.5-.9-.7-1.5-.4z"/></svg>