<svg version="1.2" baseProfile="tiny" xmlns="http://www.w3.org/2000/svg" viewBox="0 0 162.1 79.6"><g fill-rule="evenodd"><path fill="#5D4C78" d="M95.6 7.9c17.7 8 25.4 28.9 17.4 46.5s-28.9 25.4-46.5 17.4-25.4-28.9-17.4-46.5c8-17.7 28.9-25.5 46.5-17.4z"/><path fill="#9184AD" d="M93.1 10c16.7 7.6 24 27.3 16.4 44-2.7 5.9-6.9 10.6-11.9 13.9-27-5.7-34.5-40.4-22.3-60.7 5.9-.7 12.1.1 17.8 2.8z"/><path fill="#5D4C78" d="M116.2 38.8c29.5 16.1 48.6 31.4 45.7 37.9-3.8 8.4-43.1-1.4-87.7-21.7-44.6-20.4-77.7-43.7-73.9-52 2.9-6.5 27.1-2.1 58.5 9.6-.8.7-1.6 1.4-2.3 2.1-23.5-8.8-40.8-12.5-42.6-8.6-2.5 5.5 26.1 23.9 63.8 41.1 37.7 17.2 70.4 26.7 72.9 21.2 1.8-3.9-12.4-14.5-34.4-26.5v-3.1z"/><path fill="#FC008B" d="M115.9 44c13.7 7.9 22 14.4 20.8 17-1.9 4.2-27.7-3.5-57.6-17.1-29.9-13.6-52.6-28-50.7-32.2 1.3-2.7 11.8-.7 26.7 4.5l-1 1.1c-9.6-3.3-16-4.6-16.6-3.1-1.3 2.7 18.2 14.3 43.5 25.8s46.8 18.7 48 15.9c.7-1.5-4.5-5.4-13.3-10.5.1-.5.2-1 .2-1.4z"/><path fill="#9184AD" d="M154.8 76.2c-6.5 4.5-41.1-5.5-80.6-23.5-41.9-19.2-73.5-40.1-70.4-46.8 7.8 9.9 36.7 27.7 73 44.2 33.4 15.3 63.6 25.1 78 26.1zM133.5 60c-4.1 2.4-27.3-4.9-54-17.1-28.3-12.9-49.9-26.5-48.2-30.3 5.5 6.1 25.3 17.8 49.8 29 22.7 10.3 42.9 17.3 52.4 18.4z"/></g></svg>