<svg version="1.2" baseProfile="tiny" xmlns="http://www.w3.org/2000/svg" viewBox="0 0 56.7 41.9"><g fill-rule="evenodd"><circle fill="#F8E09B" cx="39.4" cy="21.1" r="1.1"/><circle fill="#F8E09B" cx="26.1" cy="6" r="1.3"/><path fill="#56746D" d="M23 27.8v.5c-.1-.2-.1-.3 0-.5z"/><path fill="#9184AD" d="M36.5 40.1c7.4-3 10.9-9.1 11.2-15.6 6.8-5.4 10.3-11.5 8.5-16-1.9-4.9-9.5-6.8-18.9-5.6-4.4-2.9-10-3.9-16.2-1.5-6.2 2.5-9.8 7.1-10.9 12.3-7.6 5.6-11.7 12.1-9.7 17 1.8 4.6 8.5 6.5 17 5.8 4.7 4.6 11.5 6.6 19 3.6z"/><path fill="#5D4C78" d="M36.5 40.5c10.8-4.3 13.2-15.1 9.7-24.2-1.2-1.3-9.7-.4-17.8 2.6-8.1 3-15.7 8.1-15.6 10.7 3.7 9.3 13 15.2 23.7 10.9z"/><path fill="#35267B" d="M36 39.2c9.5-3.8 11.6-13.4 8.6-21.4-10.9-.6-22.1 3.7-29.5 11.8 3.2 8.3 11.4 13.4 20.9 9.6zM44.2 28.1c.6-3.9 0-6.2-.8-9-9.8-.2-19.5 4.2-26.6 10.7 5.1 13.3 24.4 12.4 27.4-1.7z"/><path fill="#5D4C78" d="M23.2 7c15.4-6.1 30.2-5.3 33 1.8 2.9 7.1-7.3 17.9-22.7 24.1-15.4 6.1-30.2 5.3-33-1.8-2.9-7.1 7.3-17.9 22.7-24.1z"/><path fill="#9184AD" d="M41.6 3.9c5.9-.6 12.3 1.3 13.5 5.7 1.2 4.4-4.3 12.1-14.6 17.8 3.1-4.5-2.6-8.7-5.7-6.7 1.1-1.6 2.4-2.4 2.8-4.1 1.3 2.9 9.1-3.7 7.6-6.3-.7-1.2-1.5-2-6.1-2.8.6-1.4 1-2.3 2.5-3.6z"/><path fill="#35267B" d="M21.1 1.8c10.8-4.3 20 1.9 23.7 10.9 0 1.8-6.8 7-14.7 10.4-7.9 3.4-17 5-18.7 3-3.8-9.4-1-20 9.7-24.3z"/><path fill="#9184AD" d="M21.6 3.1c9.5-3.8 17.7 1.7 20.9 9.6-7.5 7.9-18.5 12.5-29.5 11.7-3.3-8.2-.9-17.5 8.6-21.3z"/><path fill="#35267B" d="M22.2 3.9c4-1.6 7.8-1.3 11 .2-3.9-.3-8 .8-9.9 1.6-3.2 1.3-6.8 3.5-9.3 6.9 1-3.7 3.7-6.9 8.2-8.7zM34.7 6c3.2 1.7 4.7 3.1 6.1 6.6-7 6.9-17 10.4-26.6 10.6-1.4-3.6-1.2-5.6-.1-9 6.9-7 12.9-8.6 20.6-8.2z"/><path fill="#9184AD" d="M22.4 4.6c1.6-.6 3.2-.9 4.7-1l.5 4c-1.6-1.3-3.5-2.3-5.3-2.9 0 0 .1 0 .1-.1zm5.7-.9c.5 0 1 .1 1.5.2l.8 6.3c-.5-.6-1.1-1.1-1.7-1.6l-.6-4.9zm2.6.5c3.7 1.2 6.6 4.2 8.1 7.9-1.4 1.5-3.1 2.9-4.8 4.1-.4-1.5-1.3-3.1-2.4-4.6l-.9-7.4zM35.4 29.9c-.9.4-1.7.8-2.6 1.1-14.6 5.8-28.4 5.5-30.8-.6-.6-1.6-.4-3.4.4-5.3-.1 1.1 0 2.1.4 3 2.7 6.7 16.9 7.3 32.6 1.8zM42.6 29.3c-1.5.9-2.6 1.4-4.3 2.2-.8 3.9-3.9 5.5-8.2 6.9 5 .1 11.1-2.9 12.5-9.1z"/></g></svg>