<svg version="1.2" baseProfile="tiny" xmlns="http://www.w3.org/2000/svg" viewBox="0 0 123.1 201.2"><g fill-rule="evenodd"><path fill="#FC008B" d="M75.3 142.1v-1.6l-3 1.7c1 .1 2 0 2.9-.1h.1zM95 129.3l-3.5 2c.4.8.7 1.5 1.2 2.1.8-1.2 2-2.6 2.3-4.1zM97 127.1c.9 3.1-1.1 5.5-2.9 7.9 5.1 6.5 12.4 7.4 18.3 12.6 1.6 1.4 3.1 3.1 4.3 4.8.6-1.3 1-2.8 1.1-4.3.4-8.6-7.4-19.9-14-24.8l-6.8 3.8zM68.9 143.1l-7.5 4.2c1 8.2 6.2 19.9 13.4 23.9 5.1 2.9 11 .6 16.7 1.7-.7-1.5-1.2-3-1.6-4.7-8.2-1.8-14-5.8-14.6-24-2.2.3-4.6.4-6.4-1.1zM92.6 170c1.3 6.7 4.8 12.6 10.9 16.9 8.5 5.9 13.9 3.7 19.6 14.3 1.1-10.7-10.8-13.4-11.2-22.5 0-.6-.1-1.3-.2-2-2.1-2.1-4.7-3.9-7.1-4.5-4.5-1.1-8.6-1.2-12-2.2zM89.2 131.6c4.9 11.1 14 11.1 21.2 17.4 9.7 8.6 12.3 23.5 10.5 35.7.2-4.9-7.9-14.2-15-16-15.8-3.8-28.6 1.3-28.4-30.4l11.7-6.7z"/><path fill="#DBD3EB" d="M87.2 134.1c4.3 10.6 14 9.5 20.5 15.3 5.1 4.5 8.1 11.1 9.3 17.9-11.2-21.6-33.6-4.9-36.2-30.5 2.6-1 3.7-.6 6.4-2.7z"/><path fill="#FC008B" d="M92.5 170c1.3 6.7 4.8 12.6 10.9 16.9 8.5 5.9 13.9 3.7 19.6 14.3 1.1-10.7-10.8-13.4-11.2-22.5 0-.7-.1-1.3-.2-2-2.1-2.1-4.7-3.9-7.1-4.5-4.5-1.1-8.6-1.2-12-2.2z"/><path fill="#DBD3EB" d="M95.8 172.3c1 4.8 3.5 9.1 7.8 12.1 4 2.8 7 3.1 9.8 5.1-.3-.6-.7-1.1-1-1.5-3.9-5.5-11.2-7.1-12.5-14.9-1.5-.3-2.9-.5-4.1-.8z"/><path fill="#FC008B" d="M68.9 143.1c1.8 1.5 4.1 1.3 6.5 1.2.6 18.2 6.4 22.2 14.6 24 .4 1.6.9 3.2 1.6 4.7-5.7-1.1-11.6 1.3-16.7-1.7-7.2-4.1-12.4-15.7-13.4-23.9l7.4-4.3z"/><path fill="#DBD3EB" d="M66.5 144.4c1.7 2.4 4.2 2.3 6.7 2.1.6 16.1 7.1 21.8 15.9 22.7l.5 1.3c-16.8 0-23.5-15.6-25-25.1l1.9-1z"/><path fill="#FC008B" d="M97 127.1c.9 3.1-1.1 5.5-2.9 7.9 5.1 6.5 12.4 7.4 18.3 12.6 1.6 1.4 3.1 3.1 4.3 4.8.6-1.3 1-2.8 1.1-4.3.4-8.6-7.4-19.9-14-24.8l-6.8 3.8z"/><path fill="#DBD3EB" d="M107.8 143c2.5 1.6 6.3 3.2 8 5.6 1.6-8.2-6.2-19.2-12.4-23.8.2-.2-1.1-.4-3.1.5l-1.4.8c5.6 4.4 7.9 9.8 8.9 16.9z"/><path fill="#5D4C78" d="M109.3 110.2c-13.8-33.4-28.1-59.2-42.2-75.8-8.5-10-16.1-15.7-20-13.3-3.4 1.7-3.5 8.5-1.2 17.9-5-7.8-7.5-14.2-12-19.6-11.2-13.8-23.2-17.2-28.3-19.4-.7 5.5-3.9 17.5 2.2 34.3 2.4 6.6 6.6 12 10.7 20.3-6.9-6.8-12.8-10.2-16-8.2-4 2.1-3 11.5 1.2 24 7 20.6 21.9 46.1 43.4 75 9.6-5.5 20.1-12 30.7-18.3 10.8-5.8 21.8-11.5 31.5-16.9z"/><path fill="#35267B" d="M1.7 47c-3 2.9-1.9 11.9 2 23.4 7 20.6 21.9 46.1 43.4 75 8.8-5 18.4-11 28-16.7-.6-1.7-1.3-3.3-1.9-4.8-8.1-18.6-25-75.8-30.2-56.1-4.3 17.2-40.6 9.7-41.3-20.8z"/><path fill="#9184AD" d="M79.4 51.1c-1.7 7.6-14.6 13.9-21.9 11.7-2.6 11-14.9 15.1-24.5 13.8-5.5 9.2-15.7 15.2-21.2 12.9-2.5-5-4.6-9.9-6.4-14.5 2.7 7.1 6.3 14.7 10.7 22.8 6.8 1.9 17.1-3.9 22.3-11.7 2.8-4.2 18.7-15.5 23.7-15.2 10 .7 18.1-5 22.2-11.9m-79.2 15.2l.3.8c-.1-.3-.2-.6-.3-.8zM39.4 27.7c-1.7-3-3.3-5.7-5.4-8.3-11.3-13.8-23.3-17.2-28.4-19.4-.7 5.5-3.9 17.5 2.2 34.3 1.1 3.1 2.6 5.9 4.3 8.9 5.1-.3 10.4-1.9 15.3-4.7 5.1-2.8 9.1-6.6 12-10.8z"/><path fill="#5D4C78" d="M28.3 39.8c6.7-3.8 20.5 7.7 24.3 14.3l14.8 26.1 49.8 26.9 3 5.3-76.4 43.4-3-5.3 2.2-56.3-14.9-26.2c-3.8-6.8-6.6-24.3.2-28.2z"/><path fill="#DAD3EB" d="M45 154.2l-.4.2-2.8-4.9 2.1-52.2zM6.8 2c-.2 1.3-1.7 6.5-1 17 16.2-12.9 35.9 16.9 37.8 21.6-7.9-19.3-20.4-32.1-36.8-38.6zM104.2 104c-12.4-30-25.3-53.2-37.9-68.1-7.7-9-14.5-14.1-18-12-2.4 1.2-3 5.3-2 11.2.3-2.2 1.1-3.7 2.5-4.4 3.8-2.3 11.2 3.2 19.5 13 11.7 14 23.7 34.5 35.3 60.7l.6-.4z"/><path fill="#35267B" d="M28.4 39.8c6.3-3.6 19.5 7.3 23.1 13.6l2.2 3.9c-6.7 6.7-14.3 11.5-23.2 13.3l-2.2-3.9c-3.8-6.6-6.3-23.3.1-26.9z"/><path fill="#DAD3EB" d="M52.6 58l13.1 23.2 50.3 27.1.8 4.8-1.6.9-52.1-31.6-8.4-15c-1.2-2.1-2.4-3.8-5.1-6.2l3-3.2zM29.3 41.7c5.8-3.3 17.8 6.6 21.1 12.4l2.2 3.8-3.1 3.2c-5.4-4.8-13.7-9.7-17.9-7.4-2.6 1.5-3.7 5-3.9 9.2-2.4-6.9-3.4-18.3 1.6-21.2z"/><path fill="#35267B" d="M44.9 149.8l66.9-37.9 3.4 2-70.2 40.3z"/><path fill="#5D4C78" d="M87.9 140.5l-3.5 2-19.1-33.7 3.5-2 19.2 24z"/><path fill="#35267B" d="M87.9 140.5l-3.5 2-8.5-4.9-10.6-28.8v-.1l4.2 3.4 14.4 25.4z"/><path fill="#DAD3EB" d="M41.4 134.2c-3.7-4.9-41.7-54.6-39.1-83.4 3.4 35.8 34.3 71.8 39.1 83.4z"/><circle fill="#35267B" cx="65.9" cy="105.8" r="1.5"/><ellipse transform="matrix(-.494 -.869 .869 -.494 6.938 214.603)" fill="#5D4C78" cx="65.9" cy="105.3" rx=".8" ry=".8"/><path fill="#35267B" d="M62.1 99.2c.7-.4 1.7-.2 2.1.6.4.7.2 1.7-.6 2.1-.7.4-1.7.2-2.1-.6-.4-.8-.1-1.7.6-2.1z"/><ellipse transform="matrix(-.494 -.87 .87 -.494 6.978 203.957)" fill="#5D4C78" cx="62.9" cy="99.9" rx=".8" ry=".8"/><circle fill="#35267B" cx="59.8" cy="95.2" r="1.5"/><ellipse transform="matrix(-.494 -.869 .869 -.494 7.159 193.387)" fill="#5D4C78" cx="59.8" cy="94.6" rx=".8" ry=".8"/><circle fill="#35267B" cx="56.8" cy="89.8" r="1.5"/><ellipse transform="matrix(-.494 -.869 .869 -.494 7.268 182.78)" fill="#5D4C78" cx="56.8" cy="89.3" rx=".8" ry=".8"/><circle fill="#35267B" cx="53.8" cy="84.5" r="1.5"/><ellipse transform="matrix(-.494 -.869 .869 -.494 7.371 172.168)" fill="#5D4C78" cx="53.8" cy="83.9" rx=".8" ry=".8"/><circle fill="#35267B" cx="50.8" cy="79.2" r="1.5"/><ellipse transform="matrix(-.494 -.869 .869 -.494 7.499 161.569)" fill="#5D4C78" cx="50.7" cy="78.6" rx=".8" ry=".8"/><circle fill="#35267B" cx="47.7" cy="73.8" r="1.5"/><ellipse transform="matrix(-.495 -.869 .869 -.495 7.655 150.986)" fill="#5D4C78" cx="47.7" cy="73.3" rx=".8" ry=".8"/><circle fill="#35267B" cx="44.7" cy="68.5" r="1.5"/><ellipse transform="matrix(-.494 -.87 .87 -.494 7.66 140.323)" fill="#5D4C78" cx="44.7" cy="67.9" rx=".8" ry=".8"/><circle fill="#35267B" cx="19.8" cy="100.8" r="1.5"/><ellipse transform="matrix(-.493 -.87 .87 -.493 -57.604 166.895)" fill="#9184AD" cx="19.8" cy="100.2" rx=".8" ry=".8"/><circle fill="#5D4C78" cx="24" cy="100.1" r="1.5"/><ellipse transform="matrix(-.494 -.87 .87 -.494 -50.746 169.486)" fill="#35267B" cx="24" cy="99.5" rx=".8" ry=".8"/><circle fill="#5D4C78" cx="28.3" cy="98.3" r="1.5"/><ellipse transform="matrix(-.493 -.87 .87 -.493 -42.789 170.537)" fill="#35267B" cx="28.3" cy="97.7" rx=".8" ry=".8"/><circle fill="#5D4C78" cx="32.2" cy="96.4" r="1.5"/><ellipse transform="matrix(-.494 -.87 .87 -.494 -35.269 171.089)" fill="#35267B" cx="32.2" cy="95.8" rx=".8" ry=".8"/><circle fill="#5D4C78" cx="35.6" cy="93.3" r="1.5"/><ellipse transform="matrix(-.494 -.869 .869 -.494 -27.49 169.571)" fill="#35267B" cx="35.6" cy="92.8" rx=".8" ry=".8"/><circle fill="#5D4C78" cx="38.3" cy="90.1" r="1.5"/><ellipse transform="matrix(-.493 -.87 .87 -.493 -20.692 166.988)" fill="#35267B" cx="38.3" cy="89.5" rx=".8" ry=".8"/><circle fill="#35267B" cx="65.5" cy="73.4" r="1.5"/><ellipse transform="matrix(-.472 -.881 .881 -.472 32.322 165.004)" fill="#5D4C78" cx="65.5" cy="72.8" rx=".8" ry=".8"/><circle fill="#35267B" cx="69.7" cy="72.8" r="1.5"/><ellipse transform="matrix(-.472 -.882 .882 -.472 38.944 167.768)" fill="#5D4C78" cx="69.7" cy="72.2" rx=".8" ry=".8"/><circle fill="#35267B" cx="74.1" cy="71.1" r="1.5"/><ellipse transform="matrix(-.472 -.882 .882 -.472 46.832 169.138)" fill="#5D4C78" cx="74.1" cy="70.5" rx=".8" ry=".8"/><circle fill="#35267B" cx="78" cy="69.3" r="1.5"/><ellipse transform="matrix(-.472 -.881 .881 -.472 54.298 169.941)" fill="#5D4C78" cx="78" cy="68.7" rx=".8" ry=".8"/><circle fill="#35267B" cx="81.5" cy="66.3" r="1.5"/><ellipse transform="matrix(-.472 -.881 .881 -.472 62.033 168.679)" fill="#5D4C78" cx="81.5" cy="65.8" rx=".8" ry=".8"/><circle fill="#35267B" cx="84.3" cy="63.1" r="1.5"/><ellipse transform="matrix(-.472 -.881 .881 -.472 68.954 166.433)" fill="#5D4C78" cx="84.3" cy="62.6" rx=".8" ry=".8"/></g></svg>