<svg version="1.2" baseProfile="tiny" xmlns="http://www.w3.org/2000/svg" viewBox="0 0 238.4 298.4"><g fill-rule="evenodd"><path fill="#5D4C78" d="M98.1 174.3c23.6-17.2 56.7-12 73.9 11.6 17.2 23.6 12 56.7-11.6 73.9-23.6 17.2-56.7 12-73.9-11.6-17.2-23.6-12-56.7 11.6-73.9z"/><path fill="#9184AD" d="M99 179.1c22.3-16.3 53.6-11.3 69.9 11 5.7 7.9 8.8 16.9 9.5 26-27.4 31.2-78.6 15.4-96.1-15.6 3.4-8.3 9-15.7 16.7-21.4z"/><path fill="#5D4C78" d="M153.8 170.2c42.9-26.8 77.2-40.5 83.5-31.9 8.1 11.2-33.7 55.5-93.4 99-59.6 43.5-114.6 69.7-122.7 58.5-6.3-8.6 17.3-37.1 55.9-69.7.3 1.5.6 3.1 1 4.6-28.9 24.4-46.7 44.3-42.8 49.5 5.4 7.4 50.6-16.5 101.1-53.3 50.5-36.8 87.1-72.6 81.7-79.9-3.8-5.3-28.2 5.5-60.3 25.5-1.2-.8-2.6-1.6-4-2.3z"/><path fill="#FC008B" d="M160.5 174.4c20.4-12.1 35.2-18.2 37.8-14.7 4.1 5.6-25.1 33.7-65.1 62.8-40 29.1-75.7 48.2-79.8 42.7-2.5-3.5 7.8-15.7 25.6-31.4l.7 2.1c-11.4 10.2-17.9 17.5-16.4 19.5 2.7 3.7 32.3-13.3 66.1-38 33.8-24.6 59.1-47.6 56.4-51.3-1.4-1.9-10.4 1.9-23.6 9.7-.5-.6-1.1-1-1.7-1.4z"/><path fill="#9184AD" d="M231.5 147.3c1.1 11.8-37.7 49.8-90.5 88.3-56.1 40.9-106.9 66.8-113.4 57.8 18.7-2.9 63.5-27.7 112-63.1 44.8-32.6 80-65 91.9-83zM194.6 163.2c.1 7.1-26.6 32.2-62.4 58.2-38 27.7-71.8 45.9-75.5 40.8 12.1-2.7 42-20 74.9-43.9 30.3-22.1 54.5-43.5 63-55.1z"/></g><path fill="#FC008B" d="M52.3 49.9s.1.2.4.6c.3.4.6 1 1.2 1.8 1.1 1.6 2.7 4 5 6.9 2.3 2.9 5.2 6.3 8.7 10 3.6 3.6 7.8 7.5 12.8 11 5 3.4 10.8 6.6 17.2 8.2 3.2.8 6.6 1.3 10 1.2l2.5-.1.8-.1h.7l1.2-.2c1.8-.3 3.6-.7 5.5-1.3 7.4-2.1 15.1-5.6 23-9.3 7.8-3.7 15.8-7.8 24.3-11.4 4.2-1.8 8.6-3.4 13.1-4.6 4.5-1.2 9.3-2.1 14.2-1.8 2.5.1 4.9.5 7.3 1.3 2.4.8 4.7 1.9 6.7 3.4 4 2.9 6.9 6.8 8.9 10.8 1 2 1.9 4 2.6 6l.5 1.5.5 1.5.9 2.9c1.1 4 2 8 2.4 11.9.3 1.9.4 3.9.6 5.8 0 1 .1 1.9.1 2.8v2.8c0 3.7-.5 7.3-1.1 10.6-1.2 6.7-3.5 12.6-6 17.5s-5.4 8.8-8 11.7c-2.6 3-4.8 5.1-6.4 6.4-1.6 1.4-2.5 2-2.5 2s.9-.7 2.4-2.1c1.5-1.5 3.6-3.7 5.9-6.8 2.3-3.1 4.8-7.1 7-12s4-10.7 4.7-17.2c.4-3.2.6-6.6.4-10.1v-1.3l-.1-1.3c-.1-.9-.2-1.8-.2-2.7-.3-1.8-.5-3.6-.9-5.4-.7-3.7-1.8-7.3-3-11l-1-2.8-.5-1.4-.6-1.3c-.8-1.8-1.6-3.6-2.6-5.2-1.9-3.4-4.5-6.3-7.5-8.3-3.1-2-6.7-2.9-10.5-2.9-3.9 0-7.9.9-11.8 2.2-4 1.3-7.9 3-11.8 4.9-7.8 3.8-15.5 8.2-23.2 12.4-7.8 4.2-15.6 8.4-24.1 11.3-2.1.7-4.3 1.4-6.5 1.9-.6.1-1.2.2-1.8.4l-.4.1-.4.1-.8.1c-1.2.2-2.3.3-3.5.4-4.6.4-9.1 0-13.4-.8-8.6-1.7-15.9-5.3-22-9.1-6.1-3.9-11.2-8.1-15.4-12-4.2-3.9-7.6-7.6-10.3-10.7-2.7-3.1-4.7-5.7-6-7.5-.7-.9-1.2-1.6-1.5-2.1-.4-.5-.5-.8-.5-.8l12.8-8.8z"/><path fill="#DBD3EB" d="M42.7 59.1s25 27.6 33.6 26.4c-17.1-13.4-27.3-35.7-27.3-35.7l-6.3 9.3z"/><path fill="#5D4D78" d="M20.5 49.6c-11.3-13.4-21.3-36.6-14.5-42.4s28 8.1 39.3 21.5 10.3 23.5 3.4 29.3-17 5.1-28.2-8.4z"/><path fill="#9184AD" d="M22.8 52.2s5.6 1.5 16-7.1l8.8-13.6s3.6 5 4.3 7.2c0 0-1.5 4.8-9.1 11.2l-14.6 7.7-5.4-5.4z"/><path fill="#5D4D78" d="M27.2 58.1s-.2 6.5 5.4 9.7c5.6 3.2 9.4 4.4 14.4 4.9l1.7-2.9s-1.8-2.5-4.6-5-5.2-4.1-5.1-6.6c.3-5.9-12.1-6.7-11.8-.1z"/><path fill="#9184AD" d="M28 56.8s-.9 5.9 3.8 9.6c6.3 4.8 14.9 5.9 14.9 5.9s-9.9-2.4-14.2-6.6c-3.3-3.2-2.7-10.9-2.7-10.9s-1.7.8-1.8 2zM47 72.7l.9.1s1.5-.8 1.5-2.1l-.9-1.3s-.1 1.6-2.2 3.2l.7.1z"/><ellipse transform="matrix(.766 -.643 .643 .766 -33.797 36.774)" fill="#9184AD" cx="33.6" cy="64.8" rx=".5" ry=".8"/><path fill="#5D4D78" d="M53.1 36.4s6.4 1 8.6 7 2.7 10 2.4 15l-3.1 1.2s-2.2-2.2-4.2-5.4-3.1-5.8-5.6-6.1c-5.9-.8-4.5-13.2 1.9-11.7z"/><path fill="#9184AD" d="M51.7 36.9s6 .1 8.8 5.4c3.7 7 3.2 15.7 3.2 15.7s-.6-10.2-4-15.1c-2.7-3.9-10.4-4.6-10.4-4.6s1.2-1.5 2.4-1.4zM64 58.4v.9s-1.1 1.3-2.3 1.1l-1.2-1.1s1.6.1 3.5-1.6v.7z"/><ellipse transform="matrix(-.766 .643 -.643 -.766 131.574 39.693)" fill="#9184AD" cx="58.6" cy="43.8" rx=".5" ry=".8"/><path fill="#5D4D78" d="M49 49.8c4.7 5.6 9.5 14.6 7.4 16.4s-10.1-4.6-14.8-10.2-4.9-9.2-2.9-10.9c2.1-1.7 5.6-.9 10.3 4.7z"/><path fill="#9184AD" d="M53 65.7s2.4.1 3.5-3l.7 2.2s-.2 2-2.3 1.9l-1.9-1.1z"/><ellipse transform="matrix(.643 .766 -.766 .643 59.35 -16.748)" fill="#9184AD" cx="47.6" cy="55.3" rx="3.6" ry="1"/><path fill="#35267B" d="M10.9 17.9c-.2-.1-.3-.3-.4-.5-1-1.2-1.1-2.5-.8-2.8.1-.1.1-.1.2-.1.6-.1 1.6.4 2.4 1.4l.4.5c-.3.2-.6.4-.9.7-.3.2-.6.5-.9.8z"/><path fill="#9184AD" d="M10.6 15.7c.2.1.4.3.7.5l-.1.1-.2.1c-.2-.3-.3-.5-.4-.7m-.8-2.2c-.3 0-.5.1-.7.3-.9.8-.6 2.7.7 4.2.4.5.9.9 1.4 1.2.3-.5.8-1 1.3-1.5.5-.4 1.1-.8 1.6-1-.2-.5-.5-1.1-.9-1.5-1.1-1.2-2.4-1.8-3.4-1.7z"/><g fill="#9184AD"><circle cx="10.5" cy="25.1" r="1.2"/><circle cx="12.6" cy="29" r="1.3"/><circle cx="14.9" cy="32.8" r="1.4"/><circle cx="17.4" cy="36.7" r="1.5"/><circle cx="20.2" cy="40.6" r="1.6"/><circle cx="23.3" cy="44.6" r="1.7"/><circle cx="26.9" cy="48.8" r="1.9"/></g><path fill="#9184AD" d="M24.3 53s-16.7-17-19.6-37.5c0 0 3.7 18.3 21.9 37.6l-2.3-.1z"/><path fill="#5D4D78" d="M5.8 8l-5.1-7.3 6.4 6.3z"/><circle fill="#5D4D78" cx=".8" cy=".8" r=".8"/></svg>