<svg version="1.2" baseProfile="tiny" xmlns="http://www.w3.org/2000/svg" viewBox="0 0 811.5 680.5"><g fill="#5D4D78"><path d="M102.8 526.9c5.3-13.6 13.6-26.7 23.2-38.7 9.6-12 20.4-22.7 31.1-32.1 10.7-9.4 21.3-17.4 30.6-23.9s17.3-11.6 23-15c.4-.2.7-.4 1.1-.7l-.4-.8-1.9 1c-5.9 3.1-14.3 7.8-24 13.9-9.8 6.1-20.9 13.7-32.1 22.6-11.2 8.9-22.6 19.2-32.6 30.6-5 5.7-9.6 11.7-13.8 17.9-4.1 6.2-7.6 12.6-10.4 19-2.8 6.4-4.9 12.9-6.2 19.2-1.3 6.3-1.8 12.3-1.8 17.9 0 5.6.7 10.7 1.6 15.1.4 2.2 1 4.3 1.4 6.2.5 1.9 1.1 3.6 1.6 5.2 1.1 3.1 2 5.5 2.8 7.1.2.5.4 1 .6 1.4 1.9 1.1 3.9 2.2 5.8 3.2-.4-.9-.7-1.8-1.1-2.8-1.1-3.2-2.5-7.1-3.5-11.7-1.1-4.6-1.9-9.9-2.1-15.8-.2-5.8.2-12.2 1.3-18.8 1.2-6.4 3.1-13.2 5.8-20zM88.5 517.5c2.9-7 6.4-14 10.7-20.7 4.2-6.7 8.9-13.2 14-19.3 10.2-12.3 21.8-23.3 33.2-32.8 11.4-9.5 22.7-17.6 32.6-24.2 9.9-6.6 18.4-11.6 24.5-15 1.1-.6 2-1.1 2.9-1.6-1.1-2.8-2.1-5.8-3-8.9-.9.6-1.9 1.2-3 1.9-5.9 3.7-14.2 9-23.8 15.9-9.7 6.9-20.7 15.3-31.9 24.9-11.2 9.7-22.6 20.6-32.9 32.5-10.3 11.9-19.4 24.7-26 37.8-6.6 13-10.4 26.2-11.4 37.6-.5 5.7-.4 11 0 15.6.5 4.6 1.3 8.6 2.1 11.9.9 3.2 1.7 5.8 2.3 7.4 0 .1.1.2.1.2 2.5 2.1 5.1 4 7.7 5.8-.5-1.6-1.2-3.4-1.8-5.3-.5-2.1-1.3-4.3-1.7-6.7-1.1-4.8-1.9-10.4-2.1-16.5-.2-6.1.2-12.7 1.4-19.6 1.1-6.8 3.3-13.9 6.1-20.9zM125.6 539.2c2.4-6.2 5.5-12.3 9.1-18.2 3.6-5.9 7.7-11.6 12.1-17 8.9-10.8 18.9-20.5 28.8-28.9 9.9-8.4 19.8-15.5 28.4-21.2 8.6-5.8 16.1-10.2 21.4-13.1.5-.3 1-.5 1.4-.8l-.2-.3c-.8.4-1.7.9-2.6 1.4-5.3 3-12.9 7.3-21.6 13.1-8.8 5.7-18.8 12.8-28.9 21-10.1 8.2-20.4 17.7-29.5 28.2-9.1 10.4-16.9 21.9-22.1 33.6-2.6 5.8-4.6 11.7-5.9 17.3-1.3 5.7-1.8 11.1-1.9 16.2-.1 5.1.5 9.7 1.2 13.7.7 4.1 1.7 7.5 2.6 10.4 1 2.8 1.8 5 2.5 6.5.6 1.5 1 2.3 1 2.3l.1.2c.2.4.3.8.3 1.3 1.7.6 3.4 1.2 5 1.7-.7-1.5-1.5-3.6-2.5-6.2-.5-1.5-1-3.1-1.6-4.9-.5-1.8-1.1-3.7-1.5-5.9-1-4.2-1.7-9.1-1.9-14.5-.2-5.4.1-11.2 1.1-17.2 1-6.2 2.7-12.5 5.2-18.7zM78.4 504.4c6.7-13.9 16-27.5 26.4-39.9 10.4-12.5 22-23.9 33.3-34 11.3-10.1 22.4-18.9 32.2-26.1 9.7-7.2 18.1-12.8 24.1-16.7 2.4-1.5 4.4-2.8 5.9-3.7-2.9-12.9-4.5-27.8-3.6-44.7l-.3.2c-6.3 4.7-15.3 11.6-25.6 20.3-10.4 8.7-22.2 19.3-34.2 31.2-12 11.9-24.2 25.3-35.2 39.5-11 14.2-20.9 29.3-28.3 44.3-7.4 15-12.4 29.9-14.5 43.1-1.1 6.6-1.6 12.6-1.7 18 0 5.4.3 10.1.8 13.9.2 1.9.5 3.6.8 5.1.2 1.5.5 2.7.7 3.7.4 1.7.6 2.8.7 3 3 3.7 6.1 7.1 9.3 10.2-.7-2.9-1.3-6.2-1.8-10-.6-5-.8-10.8-.3-17 .7-12.3 4.6-26.6 11.3-40.4zM114.5 533.6c5.4-12.7 13.5-25 22.7-36.1 9.3-11.1 19.7-21.1 30-29.9 10.3-8.7 20.4-16.2 29.3-22.2 7.1-4.8 13.4-8.8 18.4-11.8-5.1 2.9-11.5 6.6-18.7 11.3-9.2 5.9-19.7 13.2-30.3 21.7-10.6 8.5-21.4 18.3-30.9 29.2-9.5 10.8-17.7 22.8-23.1 34.9-2.7 6.1-4.8 12.2-6.1 18.1-1.3 5.9-1.9 11.6-1.9 16.9-.1 5.3.5 10.1 1.3 14.4.7 4.3 1.8 7.9 2.7 10.9 1 2.9 1.9 5.3 2.6 6.8.7 1.5 1 2.4 1 2.4l.1.2.1.3c.5.2 1 .4 1.5.7-.5-1.3-1.1-2.8-1.8-4.6-1-3.1-2.2-6.8-3.1-11.2-.9-4.4-1.6-9.5-1.6-15.1-.1-5.6.4-11.6 1.7-17.8 1.3-6.3 3.4-12.7 6.1-19.1zM77.6 383.7c11.5-16.9 24.3-32.7 37-46.9 12.7-14.2 25.3-26.8 36.5-37.1 3.1-2.9 6.1-5.6 9-8.2l-2.7 2.4c-11.2 9.9-23.8 22-36.6 35.5-12.8 13.6-25.8 28.7-37.5 44.8-11.7 16-22.2 33-30.2 49.7-7.8 16.1-13.2 32.1-16.2 46.2.6-2.6 1.3-5.3 2.1-8 2.4-8.5 5.6-17.2 9.4-26 7.6-17.7 17.7-35.6 29.2-52.4zM54.9 453.2c7.4-17.2 17.3-34.6 28.6-50.9 11.2-16.4 23.6-31.9 35.9-45.8 12.3-13.9 24.4-26.3 35.1-36.5 10.7-10.3 20-18.5 26.6-24.1 3.3-2.8 5.9-5 7.8-6.5 1.9-1.5 2.9-2.3 2.9-2.3.7-.5 1.4-.9 2.1-1.3l-.8-2.4c-1.4 1.1-3.1 2.3-4.9 3.8-6.8 5.3-16.5 13.1-27.7 22.9-11.2 9.8-23.8 21.8-36.6 35.3-12.8 13.5-25.7 28.6-37.2 44.7-11.6 16-21.8 33-29.6 49.8-7.8 16.8-12.9 33.3-15.5 47.8-1.3 7.2-1.9 14-2.2 19.9-.1 1.5-.1 2.9-.2 4.3v4c0 2.6.2 4.9.2 7.1.1 2 .3 3.8.4 5.4l.3.8c-.2-1.9-.3-4-.4-6.1-.2-6.1.1-13.1 1-20.6 2-15 6.7-32.1 14.2-49.3zM64.4 470.7c7.3-16 17-32 28-47 10.9-15 23-29.2 34.9-41.8 11.9-12.6 23.7-23.8 34-33.1 10.4-9.3 19.3-16.6 25.7-21.7 3.2-2.5 5.7-4.5 7.5-5.8 1.8-1.3 2.8-2 2.8-2 .5-.4 1.1-.7 1.7-.9.8-4.9 1.7-9.9 2.9-15.1 0 0-.3-.4-.8-1.3-.4.3-.8.6-1.4 1-1.8 1.3-4.4 3.4-7.7 6-6.6 5.2-15.9 12.9-26.7 22.6-10.8 9.7-23.1 21.3-35.5 34.4-12.4 13.1-25 27.8-36.4 43.3-11.4 15.5-21.5 31.9-29.2 48.1-7.7 16.2-12.7 32.2-14.9 46.3-1.1 7-1.6 13.5-1.7 19.3 0 5.8.3 10.8.9 14.9.2 2.1.6 3.9.8 5.5.2 1.5.5 2.8.8 3.9-.4-3.3-.7-7-.8-11.2-.1-5.8.2-12.3 1.2-19.3 1.9-14.2 6.6-30.1 13.9-46.1zM373.7 255.4l9.3 5.6s13.9 6.5 17.6-6.5c3.7-13-1.3-68.9-1.3-68.9s-.5-10-8-10c-7.4 0-11.1 13.9-11.1 13.9s-12.1 37.1-13 45.5c-.9 8.3-2.8 14.8 6.5 20.4z"/><circle cx="294.9" cy="190.9" r="8.6"/><path d="M263.4 217.5c-6-7.2-9.7-16.4-9.7-26.5 0-22.7 18.4-41.1 41.1-41.1 22.7 0 41.1 18.4 41.1 41.1 0 9.7-3.3 18.6-8.9 25.6 36.7 4.1 32.6-41 32.6-41 1.2-17.8-11.3-21.3-34.5-30.6s-38.1-13.9-73.3 0-24 39.9-20.4 64.5c2.6 17.2 15 13.2 32 8zM125.5 199.5c19.2-54.8 47.6-95.3 47.6-95.3s-45-14.4-72 39.5c-26.9 53.6-1.6 92.7-1.6 92.7l26-36.9zm-18.8-53.7s6.2 9.4 39.6-9.6c0 0-17.8 30.3-25.1 63.4l-21.2 28.1s-17.3-37.3 6.7-81.9zM386 66.4c0 .1-.1.1-.1.1 0-.1.1-.1.1-.1zM600.2 415.7l-.4.8c.4.2.7.4 1.1.7 5.7 3.4 13.7 8.5 23 15s19.9 14.6 30.6 23.9c10.7 9.4 21.5 20.2 31.1 32.1 9.6 11.9 17.9 25.1 23.2 38.7 2.7 6.8 4.7 13.6 5.8 20.2 1.2 6.6 1.5 13 1.3 18.8-.2 5.9-1 11.2-2.1 15.8-1 4.6-2.4 8.5-3.5 11.7-.4 1-.8 1.9-1.1 2.8 1.9-1 3.9-2.1 5.8-3.2.2-.4.4-.8.6-1.4.7-1.6 1.6-4 2.8-7.1.5-1.6 1-3.3 1.6-5.2.5-1.9 1.1-4 1.4-6.2.9-4.5 1.5-9.6 1.6-15.1.1-5.6-.5-11.6-1.8-17.9-1.3-6.3-3.4-12.7-6.2-19.2-2.8-6.4-6.3-12.9-10.4-19-4.1-6.2-8.7-12.2-13.8-17.9-10-11.4-21.4-21.7-32.6-30.6-11.3-8.9-22.4-16.5-32.1-22.6-9.7-6.1-18.1-10.8-24-13.9-.6-.5-1.3-.8-1.9-1.2zM605.3 403.9c.9.5 1.9 1 2.9 1.6 6 3.4 14.6 8.4 24.5 15 9.9 6.5 21.1 14.6 32.6 24.2 11.4 9.5 23 20.5 33.2 32.8 5.1 6.1 9.8 12.6 14 19.3 4.2 6.7 7.8 13.7 10.7 20.7 2.8 7 5 14.1 6.2 21 1.2 6.9 1.6 13.5 1.4 19.6-.2 6.1-1 11.7-2.1 16.5-.5 2.4-1.2 4.6-1.7 6.7-.6 1.9-1.2 3.7-1.8 5.3 2.6-1.8 5.2-3.7 7.7-5.8l.1-.2c.7-1.7 1.5-4.2 2.3-7.4.8-3.2 1.7-7.2 2.1-11.9.4-4.6.6-9.9 0-15.6-1-11.4-4.8-24.6-11.4-37.6-6.6-13-15.7-25.9-26-37.8-10.3-11.9-21.7-22.8-32.9-32.5s-22.2-18.1-31.9-24.9c-9.7-6.9-18-12.3-23.8-15.9-1.1-.7-2.1-1.3-3-1.9-1 3-2 6-3.1 8.8zM585 439.7l-.2.3 1.4.8c5.3 3 12.7 7.4 21.4 13.1 8.6 5.7 18.5 12.9 28.4 21.2 9.9 8.4 20 18.1 28.8 28.9 4.4 5.4 8.5 11.1 12.1 17 3.6 5.9 6.7 12 9.1 18.2 2.5 6.2 4.2 12.4 5.2 18.5 1 6 1.4 11.9 1.1 17.2-.2 5.4-.9 10.2-1.9 14.5-.4 2.1-1 4.1-1.5 5.9-.6 1.8-1.1 3.4-1.6 4.9-1 2.6-1.8 4.7-2.5 6.2 1.6-.5 3.3-1.1 5-1.7 0-.4.1-.8.3-1.3l.1-.2s.3-.8 1-2.3c.7-1.5 1.5-3.7 2.5-6.5.9-2.8 1.9-6.3 2.6-10.4.7-4 1.3-8.7 1.2-13.7 0-5.1-.6-10.5-1.9-16.2-1.3-5.7-3.3-11.5-5.9-17.3-5.2-11.7-13.1-23.1-22.1-33.6-9.1-10.5-19.3-19.9-29.5-28.2-10.1-8.2-20.1-15.3-28.9-21-8.8-5.7-16.3-10.1-21.6-13.1-.9-.3-1.8-.8-2.6-1.2zM742.6 571.9c3.2-3.2 6.3-6.6 9.3-10.2.1-.3.3-1.3.7-3 .2-1 .5-2.3.7-3.7.2-1.5.6-3.2.8-5.1.5-3.8.8-8.5.8-13.9-.1-5.4-.6-11.5-1.7-18-2.2-13.1-7.1-28-14.5-43.1-7.5-15-17.3-30.1-28.3-44.3-11-14.2-23.2-27.6-35.2-39.5-12-12-23.8-22.5-34.2-31.2-10.4-8.7-19.3-15.6-25.6-20.3l-.3-.2c.8 16.9-.7 31.8-3.6 44.7 1.5 1 3.5 2.2 5.9 3.7 6 3.9 14.3 9.5 24.1 16.7 9.8 7.2 20.9 16 32.2 26.1 11.3 10.1 22.9 21.5 33.3 34 10.4 12.5 19.7 26 26.4 39.9 6.8 13.8 10.6 28.1 11.5 40.5.5 6.2.2 12-.3 17-.6 3.7-1.3 7-2 9.9zM615.1 445.4c8.9 6 19 13.5 29.3 22.2s20.7 18.7 30 29.9c9.3 11.1 17.4 23.4 22.7 36.1 2.7 6.3 4.7 12.7 6 19 1.3 6.2 1.8 12.3 1.7 17.8 0 5.6-.7 10.6-1.6 15.1-.9 4.4-2.1 8.2-3.1 11.2-.7 1.8-1.2 3.3-1.8 4.6.5-.2 1-.4 1.5-.7l.1-.3.1-.2s.3-.8 1-2.4c.7-1.5 1.5-3.8 2.6-6.8.9-3 2-6.6 2.7-10.9.8-4.2 1.3-9.1 1.3-14.4 0-5.3-.6-11-1.9-16.9-1.3-5.9-3.4-12-6.1-18.1-5.4-12.2-13.6-24.1-23.1-34.9-9.5-10.9-20.3-20.7-30.9-29.2-10.6-8.5-21.1-15.8-30.3-21.7-7.2-4.6-13.6-8.4-18.7-11.3 5.1 3.2 11.4 7.1 18.5 11.9zM697.1 336.8c12.7 14.2 25.5 30.1 37 46.9 11.5 16.8 21.6 34.7 29.1 52.3 3.8 8.8 6.9 17.6 9.4 26 .8 2.7 1.5 5.4 2.1 8-2.9-14.1-8.3-30.1-16.1-46.2-8-16.7-18.4-33.7-30.2-49.7-11.7-16.1-24.7-31.2-37.5-44.8-12.8-13.6-25.5-25.6-36.6-35.5l-2.7-2.4c2.9 2.6 5.8 5.3 9 8.2 11.2 10.5 23.8 23 36.5 37.2zM623.5 287.1c-1.9-1.4-3.5-2.7-4.9-3.8l-.8 2.4c.7.3 1.5.7 2.1 1.3 0 0 1 .8 2.9 2.3 1.8 1.5 4.5 3.7 7.8 6.5 6.6 5.6 15.9 13.8 26.6 24.1 10.7 10.3 22.9 22.6 35.1 36.5 12.3 13.9 24.7 29.4 35.9 45.8s21.1 33.7 28.6 50.9c7.4 17.2 12.1 34.3 14 49.3.9 7.5 1.2 14.4 1 20.6-.1 2.1-.2 4.2-.4 6.1l.3-.8c.2-1.6.3-3.4.4-5.4.1-2.1.3-4.5.2-7.1v-4c-.1-1.4-.1-2.8-.2-4.3-.3-6-1-12.7-2.2-19.9-2.6-14.5-7.7-31-15.5-47.8-7.7-16.8-17.9-33.8-29.6-49.8-11.6-16.1-24.5-31.2-37.2-44.7-12.8-13.5-25.4-25.5-36.6-35.3-11-9.8-20.6-17.6-27.5-22.9zM610.7 302c-.5.9-.8 1.3-.8 1.3 1.2 5.2 2.1 10.2 2.9 15.1.6.2 1.1.6 1.7.9 0 0 1 .7 2.8 2 1.8 1.3 4.3 3.3 7.5 5.8 6.4 5.1 15.3 12.4 25.7 21.7 10.3 9.3 22.1 20.4 34 33.1 11.9 12.6 24 26.8 34.9 41.8 10.9 15 20.7 31 28 47 7.3 16 12 31.9 13.9 45.9 1 7 1.3 13.5 1.2 19.3-.1 4.1-.4 7.9-.8 11.2.2-1.1.5-2.3.8-3.9.3-1.6.6-3.4.8-5.5.6-4.1.9-9.1.9-14.9-.1-5.8-.5-12.3-1.7-19.3-2.2-14.1-7.2-30.1-14.9-46.3-7.7-16.2-17.8-32.6-29.2-48.1-11.4-15.5-24-30.1-36.4-43.3-12.4-13.1-24.7-24.8-35.5-34.4-10.8-9.7-20.1-17.3-26.7-22.6-3.3-2.6-5.9-4.6-7.7-6-.6-.2-1-.6-1.4-.8zM428.7 260.9l9.3-5.6s7.4-12.1 6.5-20.4c-.9-8.4-13-45.5-13-45.5s-3.7-13.9-11.1-13.9l-8 10s-5 55.9-1.3 68.9c3.7 13 17.6 6.5 17.6 6.5z"/><circle cx="516.8" cy="190.9" r="8.6"/><path d="M451.9 175.6s-4 45.1 32.6 41c-5.6-7-8.9-15.9-8.9-25.6 0-22.7 18.4-41.1 41.1-41.1 22.7 0 41.1 18.4 41.1 41.1 0 10.1-3.7 19.4-9.7 26.5 17.1 5.3 29.4 9.2 31.9-8 3.6-24.6 14.9-50.6-20.4-64.5s-50.1-9.3-73.3 0-35.5 12.8-34.4 30.6zM712.1 236.4s25.3-39.1-1.6-92.7c-27.1-54-72-39.5-72-39.5s28.4 40.5 47.6 95.3l26 36.9zm-7.2-90.6c24 44.6 6.7 81.9 6.7 81.9l-21.2-28.2c-7.2-33.1-25.1-63.4-25.1-63.4 33.5 19.1 39.6 9.7 39.6 9.7zM441 502.1c-9.3-36.5-35.4-36.5-35.4-36.5s-25.9 0-35.2 36.5c-8.7 34.4-43.6 16-43.6 16s33.7 23.4 47.9-15.3c10-27.4 30.9-30.3 30.9-30.3s21 2.9 31 30.3c14.2 38.7 48 15.3 48 15.3s-34.9 18.4-43.6-16zM581.8 274.9s.2 31.6-50.8 21.3c-51-10.2-36.2 43.6-33.4 43.6 2.8 0 25.5 47.8 10.7 65.9 0 0-1.2 1.5-3.2 3.1-7.3 7.6-22.7 28.2-1.1 48.7 0 0 9.6 7.3 0 15.7-12.5 10.8-19.3-4.1-19.3-4.1s-27.2-47.2-.7-71.9c22.1-15.9-1.3-50.8-1.3-50.8 8.4 22.4 5.4 33.9 1.1 39.7-1.6 2.2-3.2 1.8-4.5.8-2.2-3.4-5-6.9-8.3-10-.8-1-1.8-3.1-.8-6 2.9-8.5 4.7-23.1-5.4-45.2 0 0-8-13.5-8.8-30.3 0 0-2.4 16.6 3.2 33.4 3.2 9.7 1 23.3-.6 33.1-.7 4-6 3.5-7.7 3.2-1.9-.5-3.9-.8-6-1-1.6-.4-3.8-2-3.2-7.1 1.1-9.3 1.4-21.8-2.5-32.6 0 0-6.2-19.5-5.1-35.4 0 0-7.7 18.8 0 42.4 3.4 10.3 2.4 19 1.8 25.7-.6 6.1-5.2 6.4-6 6.5-3.9-.1-7.3-.2-10.2-.3-12.3-1-14.2-55.9-14.2-55.9s-1.9 54.9-14.2 55.9h.4c-3 .1-6.5.2-10.4.3-.8 0-5.3-.4-5.9-6.5-.6-6.7-1.6-15.3 1.8-25.7 7.7-23.6 0-42.4 0-42.4 1.1 15.9-5.1 35.4-5.1 35.4-3.9 10.8-3.6 23.3-2.5 32.6.6 5.1-1.6 6.6-3.2 7.1-2 .2-4 .5-6 1-1.7.3-7 .8-7.7-3.2-1.6-9.8-3.8-23.4-.6-33.1 5.6-16.8 3.2-33.4 3.2-33.4-.8 16.7-8.8 30.3-8.8 30.3-10.1 22.1-8.4 36.7-5.4 45.2 1 2.9 0 5-.8 6-3.3 3.2-6 6.6-8.3 10-1.2 1-2.8 1.4-4.5-.8-4.3-5.8-7.3-17.3 1.1-39.7 0 0-23.4 34.8-1.3 50.8 26.5 24.7-.7 71.9-.7 71.9s-6.8 15-19.3 4.1c-9.6-8.3 0-15.7 0-15.7 21.6-20.5 6.2-41.1-1.1-48.7-2-1.5-3.2-3.1-3.2-3.1-14.9-18.1 7.9-65.9 10.7-65.9 2.8 0 17.6-53.8-33.4-43.6-51 10.2-50.8-21.3-50.8-21.3-13.7 12.1 0 28.8 0 28.8s32.3 25.1 32.3 58.5l23.1 51.1c-.7 23.3 12 56.8 29.9 87.8 0 0 0-.1.1-.1 0 0 36.6 42.8 52.7-7.7 13.1-41.1 37.7-35 37.7-35s24.8-6.1 37.9 35c16.1 50.4 52.9 7.7 52.9 7.7s0 .1.1.1c17.9-31 30.6-64.5 29.9-87.8 0 0 23.1-17.7 23.1-51.1l32.3-58.5s14-16.8.3-28.8zm-243.8 204.6c-13.8 3.5-9.1-9.1-9.1-9.1 9.5-13.1 11.2-33 11.2-33s11.7 38.6-2.1 42.1zm3.3-89.3c-.5 0-7.1 6.1-7.5.8-.4-5.3 7.3-11.5 7.3-11.5 1.2-1.1 5.3-2.1 5.4 2 .2 4-4.7 8.7-5.2 8.7zm29.2-18.5c-2.9 1.4-13.9 5-15.4-.8 0 0-.2-2.3 2.9-3.2 3-.9 9.6-1.6 11-.9 1.5.8 4.3 3.5 1.5 4.9zm25.5-2.2c-1.6 3.4-9.4 4.4-12.3 2.6l-3.5-2.6s-3.5-4.1 4.6-4.4c8-.4 12.8 1 11.2 4.4zm35.5 0s-.6.9-3.5 2.6-10.7.8-12.3-2.6c-1.6-3.4 3.2-4.8 11.2-4.4 8 .4 4.6 4.4 4.6 4.4zm25 1.4c-1.5 5.7-12.5 2.2-15.4.8-2.9-1.4 0-4.1 1.5-4.8 1.5-.7 8 0 11 .9 3.1.9 2.9 3.1 2.9 3.1zm14.1 8.5s7.7 6.2 7.3 11.5c-.4 5.3-7-.8-7.5-.8s-5.4-4.7-5.3-8.8c.2-4 4.2-3 5.5-1.9zm3.1 100.1c-13.8-3.5-2.2-42.1-2.2-42.1s1.7 19.9 11.2 33c0 0 4.8 12.5-9 9.1zM683.4 205.6c-89.4-250.6-277.7-201.8-277.7-201.8s-188.2-48.8-277.6 201.8c-93.2 120.2-207.3 314.9-50.5 397.7 179.5 94.8 230 8.7 230 8.7s-18.2-31.9-54.4-64.9c-36.7-33.5-23.2-90-20.6-99.2-.8.4-1.6.8-2.5 1.3-5.2 2.8-12.5 7-21 12.5s-18.1 12.2-27.9 20.2c-9.7 8-19.5 17.2-28.1 27.4-4.3 5.1-8.2 10.5-11.7 16s-6.4 11.2-8.8 16.9c-2.4 5.7-4 11.4-5 16.9-1 5.5-1.4 10.8-1.3 15.7.1 4.9.7 9.3 1.5 13.2.3 2 .9 3.7 1.3 5.4.5 1.7 1 3.2 1.4 4.5 1 2.7 1.8 4.8 2.4 6.2.6 1.4.9 2.2.9 2.2l.1.2c.3.7.3 1.5.1 2.2 16.5 4.5 28.2 5 28.2 5-10.8-.4-20.8-1.3-30.1-2.8-1.2.5-2.6.2-3.5-.6-169.1-29.6-92.3-237.5-92.3-237.5-7.3 31.9-10.3 59.6-10 83.6l.4-1.5c.8-3.2 1.6-6.7 2.6-10.2 1.1-3.5 2.3-7.2 3.5-10.9 1.4-3.7 2.8-7.5 4.3-11.5 1.7-3.8 3.4-7.8 5.2-11.8 2-3.9 3.9-8 6-12.1 2.2-4 4.4-8.1 6.8-12.2 2.5-4 4.8-8.2 7.5-12.1 2.6-4 5.2-8.1 8-12l4.2-6 4.3-5.9c5.8-7.8 11.9-15.3 18.1-22.7 6.2-7.3 12.5-14.3 18.7-20.9 1.6-1.7 3.1-3.3 4.6-4.9 1.6-1.6 3.1-3.2 4.6-4.7 3-3.2 6.1-6.1 9.1-9.1 6-5.8 11.7-11.2 17.1-16.1 5.4-4.9 10.4-9.3 14.9-13.2 4.5-3.9 8.5-7.1 11.8-9.8 3.3-2.7 5.9-4.8 7.7-6.2.3-.2.5-.4.7-.6-.6-18.1 1.3-40.3 8-66.5 0 0-3.4-34.1 21.3-71.4 0 0-39.9 40.2-85.4 98.6 26-61.8 96.9-187.1 243.8-186.1l-8.1 31c-45.2-.8-71.2 11.9-71.2 11.9v.1c-47.8 15-93 47.5-93 116.8-15.2 67-4.3 107.1 8 129.4-4.4 26.8-10.9 98.2 36 137.3l-.3.6c-10.2 22.6-12.9 69.6 19.6 100.2 32.5 30.6 49.6 60.3 49.6 60.3 45.3 111.4 90.9 67.8 90.9 67.8s45.8 43.6 91.1-67.8c0 0 17.3-29.7 49.7-60.3 32.5-30.6 29.8-77.6 19.6-100.2l-.3-.6c46.9-39.1 40.4-110.5 36-137.3 12.3-22.3 23.1-62.4 8-129.4 0-69.3-45.2-101.8-93-116.8v-.1s-26-12.7-71.2-11.9l-8.1-31c146.9-1 217.8 124.3 243.8 186.1-45.5-58.4-85.4-98.6-85.4-98.6 24.7 37.3 21.3 71.4 21.3 71.4 6.7 26.2 8.6 48.4 8 66.5l.7.6c1.8 1.4 4.4 3.5 7.7 6.2s7.3 6 11.8 9.8c4.5 3.8 9.5 8.3 14.9 13.2 5.4 4.9 11.1 10.3 17.1 16.1 3 2.9 6 5.9 9.1 9.1l4.6 4.7 4.6 4.9c6.3 6.6 12.5 13.7 18.7 20.9 6.1 7.3 12.3 14.9 18.1 22.7l4.3 5.9 4.2 6c2.8 3.9 5.4 8 8 12 2.7 4 5 8.1 7.5 12.1 2.4 4 4.6 8.2 6.8 12.2 2.1 4.1 4.1 8.1 6 12.1 1.8 4 3.5 8 5.2 11.8 1.5 3.9 2.9 7.8 4.3 11.5 1.2 3.8 2.4 7.4 3.5 10.9 1 3.5 1.8 7 2.6 10.2l.4 1.5c.3-24-2.8-51.7-10.2-83.7 0 0 76.8 207.9-92.3 237.5-.9.8-2.3 1.1-3.5.6-9.3 1.5-19.3 2.4-30.1 2.8 0 0 11.7-.5 28.2-5-.2-.7-.2-1.5.1-2.2l.1-.2s.3-.8.9-2.2c.7-1.4 1.4-3.5 2.4-6.2.4-1.4.9-2.9 1.4-4.5.4-1.7 1-3.5 1.3-5.4.8-3.9 1.4-8.4 1.5-13.2.1-4.9-.2-10.2-1.3-15.7-1-5.5-2.7-11.2-5-16.9-2.3-5.7-5.3-11.4-8.8-16.9-3.5-5.5-7.4-10.9-11.7-16-8.6-10.2-18.4-19.4-28.1-27.4-9.7-8-19.4-14.8-27.9-20.2-8.5-5.5-15.8-9.7-21-12.5-.9-.5-1.7-.9-2.5-1.3 2.5 9.3 16 65.8-20.6 99.2-36.2 33-54.4 64.9-54.4 64.9s50.5 86 230-8.7c157-82.7 42.9-277.4-50.3-397.6zm-302.4-188.1h3.2l-17 92.6-5 1.7 18.8-94.3zm18.7 114.3v-30.6c-20-3.8-20.5-17.8-20.5-17.8 5.7 15.1 20.5 14.8 20.5 14.8v-3.6c-10.5-.5-19.1-9.3-19.1-20s8.5-19.5 19.1-20v-37.1h3v39.8s-9.6-1.3-16.7 9.1c.6-.9 5.5-7.1 16.7-7v76.69999999999999s-45.8-4.3-67.2-24.3c25.6 16.6 54.9 19.5 64.2 20zm-39.9-74.9s-33.8 2.2-56.4 14.2l-2.4-6.4c.1 0 33.3-13.7 58.8-7.8zm239.8 119.6s20.6 91.1-17.9 153.1c0 0 5.6-3.5 12.3-12 8.1 74.3-23 100.9-32.9 107.3-4.6-38.9 14.3-92.5 14.3-92.5s-33.4 75.2-17.6 115.1l-76.6 156.9s-37.6 93.7-75.6 35.3c-38 58.5-75.5-35.3-75.5-35.3s-92.1-117-76.3-156.9l-17.6-115.1s18.8 53.6 14.2 92.5c-9.9-6.5-40.9-33.1-32.8-107.3 6.7 8.6 12.3 12 12.3 12-38.4-62-17.9-153.1-17.9-153.1s-.6-74 84-109.6c9.2 38.9 63.8 45 63.8 45s-8.3 2.6-31.9-4.3c25.1 28.7 77.8 32.2 77.8 32.2s52.8-3.5 78-32.2c-23.6 6.9-31.7 4.3-31.7 4.3s54.6-6.1 63.8-45c84.4 35.6 83.8 109.6 83.8 109.6zm-89-111.8l-2.4 6.4c-22.6-12-56.4-14.2-56.4-14.2 25.5-5.9 58.8 7.8 58.8 7.8zm-34.7 47.1c-21.4 20-67.2 24.3-67.2 24.3v-76.7c11-.2 16 6.1 16.7 7-7.1-10.4-16.7-9.1-16.7-9.1v-39.8h3v36.9c11 .5 19.1 9.3 19.1 20s-8.1 19.5-19.1 20v3.6s14.8.4 20.5-14.8c0 0-.5 14-20.5 17.8v30.6c10-.3 38.5-3.2 64.2-19.8zm-26.5 0l-5-1.7-17-92.6h3.2l18.8 94.3zM425.7 66.4l.1.1-.1-.1z"/></g></svg>