<svg version="1.2" baseProfile="tiny" xmlns="http://www.w3.org/2000/svg" viewBox="0 0 77.5 87.9"><path fill="#5D4D78" d="M51.9 39.1l2-4.4 1.1-.8s-1.7-9.8-5.2-10.4l-7.1 4.5s4.6 7 1.8 13.5c0 0-5.5 14.3-12.2 18.9 0 0 3-.1 3.1-.3.1-.2 12.1-18.6 12.1-18.6s-.4 11.4 6.8 12.9l3.7-1.1c0-.1-11.1-4.4-6.1-14.2zM42.2 29.8c-.9 1-4.1 6.3-10.2 9.7l-3.3 2.1 3.3-.8 1 .8 1.1-1.9s8.7-6.8 9.9-9.8h-1.8zM51.4 26.6s6.8 4.9 12.6 5.3l-.9-.8 3.1-.8s-5.8.9-14.8-4.4v.7zM48.8 11.1l-3.9-10.1 4.9 10z"/><circle fill="#5D4D78" cx="44.9" cy="1" r="1"/><path fill="#5D4D78" d="M77.5 48.5s-30-2.8-72.2 28.2h7.6l-1.8 2.1c-.6.2-1.3.5-2 .8-5.6 2.4-9.6 5.7-8.9 7.3.7 1.7 5.8 1.1 11.4-1.3 5.6-2.4 9.6-5.7 8.9-7.3-.4-.9-2.2-1.2-4.6-.8.3-.4.6-.7.8-1.1 1.7-.4 5.1-1.4 9.5-2.6-.1 2-.1 5.6 1.9 8.3-2.7 1.6-4.2 3.3-3.8 4.3.6 1.4 5 .9 9.8-1.1 4.8-2 8.2-4.9 7.6-6.3-.6-1.4-5-.9-9.8 1.1l-.4.2c-.7-2.2-1.3-5.4 0-8.2 16.8-5.1 41.5-14.1 46-23.6z"/><path fill="#9184AD" d="M.1 86.6c-.6-1.2 2.6-4 7.1-6.2s8.7-3.1 9.3-1.9c.5 1.2-11.5 3.6-16.4 8.1zM7.1 75.8h1.8s37.8-24.7 67.3-26.3l1.3-1.3s-29-2.6-70.6 27.2l.2.4zM32.7 80.4s.3 1.2 1.2 1.5c0 0 4.6-2.5 7.6-2.6-.1 0-3.7-1.8-8.8 1.1zM53.5 29l-1.1.8.7 2.9-1.8.3v.1l1.7.3-.2 1.4-2.2.9 1.1.1s-2.9 3.7-1.4 8.8c0 0-1-2.3 3.1-10l1.2-1-1.1-4.6z"/><ellipse transform="matrix(.96 -.281 .281 .96 -10.698 15.632)" fill="#9184AD" cx="49.1" cy="45.1" rx=".9" ry="1.4"/><ellipse transform="matrix(.955 .296 -.296 .955 15.526 -10.604)" fill="#9184AD" cx="42.8" cy="46" rx=".9" ry="1.4"/><path fill="#9184AD" d="M45.4 5.3c-6 0-11 4.4-12.3 10.3l-5.4-4.4c.2-.3.3-.7.1-1.1-.2-.5-.8-.7-1.3-.5-.5.2-.7.8-.5 1.3s.8.7 1.3.5l.3-.2 5.3 5.1c-.1.8-.2 1.5-.2 2.3 0 7.4 5.7 13.4 12.7 13.4 7 0 12.7-6 12.7-13.4-.1-7.3-5.7-13.3-12.7-13.3z"/><path fill="#5D4D78" d="M55.9 12.7s-4.2 5.5-12.1 5.6c0 0 11.8-1.6 10.1-8.6-.1 0 1.4 1.7 2 3zM55.9 14c-2.9 4.1-8.6 5.3-13.2 5.6-.7 3.8-.2 9.3 8.2 9.3.9-.4 1.4-.8 1.4-.8 7.4-5.6 3.6-14.1 3.6-14.1zM36 18c-.2 0-.3.1-.5.2.6.4 1 1.4 1 2.6s-.4 2.2-1 2.6c.1.1.3.2.5.2.8 0 1.4-1.2 1.4-2.7s-.6-2.9-1.4-2.9z"/></svg>