<svg version="1.2" baseProfile="tiny" xmlns="http://www.w3.org/2000/svg" viewBox="0 0 115.2 65.3"><g fill="#5D4D78"><path d="M72.9 21.4c9 3 10.3 11.2 3 18.9-13.2 14.1-39.3 17.5-50.1 6.5-11.1-11.2.9-30.6 24.5-40.5 35.3-14.8 62.2-.8 64.7 16.5 1.1 7.5-1.1 15.2-7 23.3-1.5 2.1-3.4 4-6.6 3.6-3.5-.4-2.2-2.6-.6-4.6 13.9-17.7 5.9-34.1-12.4-39.4-17.3-5-42.4 2.3-56 16.3-11 11.4-8.8 24.1 5 28.5 9.9 3.1 24.1 0 33.8-7.5 9.9-7.8 10.5-15.5 1.7-21.6zM39.1 42.2c-9.4-6.1-2.9-18.9 12.8-25.8 19.7-8.7 40.3-3.4 41.6 10.6 1.2 13.9-17.2 30.4-40.3 36.1-22.2 5.6-43.5 0-50.3-13.1-4.8-9.2-3.8-19.2 4.2-30.3 1.5-2.1 3.1-4.4 6.8-3.8 3.6.6 1.8 2.9.3 5-12 16.9-7.1 32.9 12 38.8 17 5.3 42.1-1.7 56-15.6 11.2-11.2 9.7-23.9-3.4-28.7-10.2-3.7-25.4-.5-35.3 7.5-8.6 7.1-9.4 13.5-4.4 19.3z"/></g></svg>