<svg version="1.2" baseProfile="tiny" xmlns="http://www.w3.org/2000/svg" viewBox="0 0 538.4 388.9"><path stroke="#DBD3EB" stroke-width="9" stroke-miterlimit="10" d="M375.3 218.9c-2.1-10.8-15.4-14.5-26.3-16.1-11.5-1.7-23.2-3.3-34.6-1.2-22.2 4.1-43.5 35-16.8 50.3 9.5 5.4 23.5 2.1 28.5-7.7 4.9-9.6.5-21.9-7.5-29.2-31.1-28.5-86.5-22.3-124.9-22-22.6.2-46.9-3-63.6-18.2-12.5-11.4-19.1-28.3-20.1-45.2-1.6-25.8 6.4-58.4 30.7-71.9 20.3-11.3 59 1.1 49.3 29.9-2.3 6.9-8.5 12.6-15.7 13.8-7.7 1.2-15.5-2.5-21.1-8-17.7-17.6-26.2-43.4-44.4-61.4-14.8-14.7-34-26-54.9-27.3-18.5-1.2-36.1 12-53.9 12" fill="none"/><path fill="#DAD3EB" d="M384.4 180.8l-57.7-7.7c-2.8-.4-4.7-2.9-4.3-5.7l1.2-8.9 62.7 8.4-1.9 13.9zM329.7 118.1l-7.4 49.1c-.4 2.8 1.5 5.3 4.2 5.8l8.9 1.3 8.2-54.1-13.9-2.1z"/><path fill="#9184AD" d="M322.467 163.245l15.012-4.243.245.866-15.012 4.243zM323.567 170.006l13.726-10.03.531.727-13.726 10.03zM329.055 173.426l8.869-12.712.738.515-8.869 12.712z"/><path fill="#DAD3EB" d="M324.3 100.1l-1.4.5c-.8.3-1.2 1.1-1 1.9l3.6 11.1c.3.8 1.1 1.2 1.9 1l1.4-.5c.8-.3 1.2-1.1 1-1.9l-3.6-11.1c-.2-.8-1.1-1.3-1.9-1zM348.1 107.8l-1.3-.7c-.8-.4-1.7-.1-2.1.7l-5.2 10.4 4.1 2.1 5.2-10.4c.4-.8.1-1.8-.7-2.1zM328.9 93.9l-1.4.5c-.8.3-1.2 1.1-1 1.9l4.9 15.4c.3.8 1.1 1.2 1.9 1l1.4-.5c.8-.3 1.2-1.1 1-1.9l-4.9-15.4c-.2-.8-1.1-1.3-1.9-1zM335.8 94.6l-1.4.5c-.8.3-1.2 1.1-1 1.9l4.1 12.7c.3.8 1.1 1.2 1.9 1l1.4-.5c.8-.3 1.2-1.1 1-1.9l-4.1-12.7c-.2-.8-1.1-1.2-1.9-1z"/><path fill="#FC008B" d="M343.6 120.2s-1-9.3-1.8-12l-1-3.2-4.3 1.4.8 2.6-1.7.5-.8-2.6-4.3 1.4.8 2.6-1.7.5-.8-2.6-4.3 1.4.9 2.7 3.9 10.8 14.3-3.5zM342.941 111.379l4.014 2.033-3.388 6.691-4.014-2.033z"/><path fill="#DAD3EB" d="M434.9 207.5l39.8 42.4c1.9 2 5.1 2.1 7.1.2l6.6-6.2-43.3-46.1-10.2 9.7zM517.8 215.4l-35.6 34.6c-2 1.9-5.2 1.9-7.1-.1l-6.3-6.4 39.3-38.2 9.7 10.1z"/><path fill="#9184AD" d="M484.376 247.921l-5.293-14.675.847-.305 5.293 14.675zM478.29 250.586l.161-17 .9.009-.161 17zM472.277 247.829l5.168-14.613.849.3-5.168 14.613z"/><path fill="#DAD3EB" d="M535.6 209.3l.5 1.4c.3.8-.2 1.7-1 1.9l-11.1 3.6c-.8.3-1.7-.2-1.9-1l-.5-1.4c-.3-.8.2-1.7 1-1.9l11.1-3.6c.8-.2 1.6.2 1.9 1zM537.9 201.9l.5 1.4c.3.8-.2 1.7-1 1.9l-15.4 4.9c-.8.3-1.7-.2-1.9-1l-.5-1.4c-.3-.8.2-1.7 1-1.9l15.4-4.9c.8-.2 1.7.2 1.9 1zM533.3 196.8l.5 1.4c.3.8-.2 1.7-1 1.9l-12.7 4.1c-.8.3-1.7-.2-1.9-1l-.5-1.4c-.3-.8.2-1.7 1-1.9l12.7-4.1c.8-.3 1.7.2 1.9 1z"/><path fill="#FC008B" d="M524.7 216l2.6-.8-1.4-4.3-2.6.8-.5-1.7 2.6-.8-1.4-4.3-2.6.8-.5-1.7 2.6-.8-1.4-4.3-3.2 1c-2.7.9-10.8 5.5-10.8 5.5l5.5 13.8 11.1-3.2z"/><path fill="#9184AD" d="M530.6 220.4l-13.1.7c-.6 0-1.1-.4-1.1-1l-1.8-31.6c0-.6.4-1.1 1-1.1l13.1-.7c.6 0 1.1.4 1.1 1l1.8 31.6c.1.6-.4 1-1 1.1z"/><path fill="#35267B" d="M516.597 189.351l11.682-.651 1.474 26.46-11.682.651z"/><circle fill="#35267B" cx="524" cy="218" r="1.3"/><path fill="#DAD3EB" d="M515.5 194.4l1.3.7c.7.4 1 1.3.7 2.1l-5.4 10.3-4-2.1 5.4-10.3c.3-.8 1.2-1.1 2-.7z"/><path fill="#FC008B" d="M512.059 207.46l-3.991-2.08 3.466-6.651 3.991 2.08z"/><ellipse transform="matrix(.889 .457 -.457 .889 115.231 -182.786)" fill="#9184AD" cx="435.5" cy="146.8" rx="44.5" ry="45.2"/><path fill-rule="evenodd" fill="#DAD3EB" d="M395.3 284.8l-48.2-24.7c-3.7-1.9-5.2-6.3-3.2-10l7.9-14.8 28.6-65.9c.7-1.6 2.7-2.5 4.2-1.7l62.6 32.2c1.5.8 1.9 3 1.1 4.4l-35 60.3-8.1 16.9c-1.6 3.7-6.2 5.2-9.9 3.3zM356.4 359.3l17.6 13 35.5-45.7-20-14.7z"/><path fill="#5D4D78" d="M395.6 344.6c-8.7-1.1-16.9-10.9-9.5-11.6 6.2-.6-7.7-5.1-10.9-.8l-.2.3-22.1 31.6 17.6 12.9.9-1.2 10.4 7.6c2.6-3.6 3.8-10.2-4-15.9l16.1-20.8c2-.9 2.9-1.9 1.7-2.1z"/><path fill-rule="evenodd" fill="#DAD3EB" d="M385.3 317.5l25.1 4.1-7.3-62.4-25.7 6.7z"/><path fill="#5D4D78" d="M382.6 321.7l26.2 5.5 1.6-7.3-25.7-5.4.6 3z"/><path fill="#9184AD" d="M408.3 322.7c-1.6 3.6-4.2 6-1.8 7 2.3 1 5.5-1.2 7.1-4.8 1.6-3.6 1.1-7.3-1.3-8.3-2.3-.9-2.4 2.5-4 6.1z"/><path fill="#DAD3EB" d="M371.3 359.8l1-2.1 2.5-.4-1.9-1.6.4-2.4-2.2 1.2-2.2-1 .5 2.3-1.8 1.7 2.5.3zM379.1 345.9l-3-1.4-.5-3.3-2.2 2.5-3.3-.5 1.6 3-1.4 3.1 3.2-.7 2.4 2.3.3-3.4zM387.1 348.4l-.7-2 1.3-1.8-2.2.2-1.2-1.7-.6 2.1-2.1.7 1.8 1.2v2.1l1.7-1.4z"/><path fill="#FC008B" d="M350.3 367.7l28.7 21.1c.2.2.5.1.7-.1l2.9-4c.2-.2.1-.5-.1-.7l-28.7-21.1c-.2-.2-.5-.1-.7.1l-2.9 4c-.2.2-.2.5.1.7z"/><path fill-rule="evenodd" fill="#DAD3EB" d="M280.6 305.3l7.6 20.5 54.7-18.6-8.6-23.3z"/><path fill="#5D4D78" d="M321.4 314.6c-6.6-5.7-8.1-18.4-1.5-14.9 5.5 2.9-3.6-8.5-8.6-6.7-.1 0-.2.1-.4.2l-35.9 14.2 7.6 20.5 1.4-.5 4.5 12.1c4.2-1.5 8.7-6.4 5.4-15.4l24.9-8.5c2.2.1 3.5-.2 2.6-1z"/><path fill-rule="evenodd" fill="#DAD3EB" d="M327.7 286.3l18.7 17.2 28.2-56.1-25.1-8.6z"/><path fill="#5D4D78" d="M323.2 288.3l18.8 19 5.3-5.2-18.4-18.6-1.2 2.8z"/><path fill="#9184AD" d="M344 303.2c-3.3 2.1-6.8 2.7-5.4 4.8 1.4 2.1 5.2 2.1 8.6-.1s4.9-5.5 3.5-7.6c-1.4-2-3.3.8-6.7 2.9z"/><path fill="#DAD3EB" d="M292.7 313.9l2.1-1.2 2.2 1-.6-2.4 1.6-1.7-2.5-.2-1.3-2.1-.9 2.2-2.3.5 1.9 1.5zM306.9 306.6l-1.7-2.8 1.4-3.1-3.3.9-2.4-2.2-.3 3.4-2.9 1.8 3.1 1.1.6 3.3 2.2-2.6zM312.2 313.1l.5-2.1 2.1-.8-1.9-1-.1-2.1-1.7 1.4-2.1-.5.9 1.9-1.2 1.8 2.2-.2z"/><path fill="#FC008B" d="M270.9 308.9l12.4 33.4c.1.3.4.4.6.3l4.6-1.7c.3-.1.4-.4.3-.6l-12.4-33.4c-.1-.3-.4-.4-.6-.3l-4.6 1.7c-.3 0-.4.3-.3.6zM460 157c-15.5 23.9-25.9 31-43.1 22.2-16.9-8.7-17.2-24-6.6-48.4 7-16.1 21.1-24.4 39.2-15.1 16.4 8.4 21.7 24.2 10.5 41.3z"/><path fill="#DAD3EB" d="M436.2 157.7s2.5 2 4.6 3.1c2.1 1.1 4.5 1.4 4.5 1.4s-1.6 1.3-2.5 2.7c-.9 1.4-1 3.5-1 3.5s9.4-4.3 13.4-7.1c4.1-2.8 9.8-11.2 9.8-11.2s-1.7-.6-3.5-.7c-1.8-.2-5.1-1.4-5.1-1.4s1.3-1.5 2.7-3l2.5-4.9s-10.1 2.2-13.6.8c-3.5-1.4-12.4 2.3-12.4 2.3s-2.2-9.3-5.4-11.4c-3.2-2.1-7.2-11.5-7.2-11.5s-2.1 2.9-2.5 4.9c-.4 2-.9 3.9-.9 3.9s-2.9-2-4.1-3.3l-2.6-2.4s-3.5 9.6-3.4 14.5c.1 4.9 2 15.1 2 15.1s1.5-1.3 2.2-2.9c.7-1.6.7-3.6.7-3.6s1.7 1.8 3.8 2.9c2.1 1.1 5.2 1.9 5.2 1.9 2.2.7 1.8 7 4.2 8.2s7.5-2.5 8.6-1.8zM420.3 157.4c-1.9-1-5.4-2.8-8.3-1.5-3 1.3-6.2 7.3-7.4 9.2-1.2 1.9-3.3 4.5-3.3 4.5s2 1.4 5.4.7c1.7-.3 8.5-.6 13.9 2.2 5.3 2.7 9.1 8.4 9.8 10 1.4 3.2 3.7 4 3.7 4s.9-3.2 1.8-5.3 3.9-8.2 3.2-11.4c-.7-3.2-4.2-4.9-6.1-5.9-1.6-.8-3.3-3.3-5.7-4.6-2.4-1.2-5.4-1.1-7-1.9z"/><path fill="#5D4D78" d="M431.2 169.8c-1.9 1.7-5.3 2.5-9.3.5-3.9-2-5.1-5.3-5-7.8.2-3.6 2.5 1.7 7.1 4.1 4.6 2.4 9.5 1.1 7.2 3.2z"/><path fill="#DAD3EB" d="M433.5 115.1c-1-.3-3.2.1-3.2.1s1.2 1.6 2.9 4.5c1.6 2.7 3.2 6.6 3.2 6.6s0-1.4-.2-4.2c-.2-2.8-1.4-5.1-1.2-5 .9.3 2.9.9 2.9.9s-.9-1.5-1.3-3c-.4-1.3-1-2.9-1-3.1-1.4 0-2.7 0-4 .2.7 1.3 1.9 3 1.9 3zM459.8 128.6s2 .1 3.4-.1c-.6-1.2-1.3-2.3-2.2-3.4-.5.1-1.9.6-3 .9-1.4.5-3.2.6-3.2.6s1.6 1.3 2.4 1.9c.2.1-2.4.5-4.8 2s-3.5 2.3-3.5 2.3 4.1-1 7.2-1.2c3.4-.3 5.3-.2 5.3-.2s-.8-2.2-1.6-2.8z"/><path fill="#5D4D78" d="M428.1 146.9s2.4-2.7-.8-6.9-11.1-6.6-11.1-6.6.5 5.5 3.4 9.1c3.6 4.5 8.5 4.4 8.5 4.4zM437.3 151.6s.8-3.5 6-3.3c5.3.2 11.9 5.2 11.9 5.2s-4.8 2.8-9.4 2.6c-5.7-.4-8.5-4.5-8.5-4.5z"/><path fill="#35267B" d="M410.375 197.443l22.415 11.516-11.516 22.415-22.415-11.516z"/><circle fill-rule="evenodd" fill="#9184AD" cx="389.4" cy="192.9" r="5.3"/><circle fill-rule="evenodd" fill="#9184AD" cx="382" cy="207.3" r="5.3"/><path fill-rule="evenodd" fill="#9184AD" d="M352.6 233.3l-8.6 16.3c-2 3.7 16.2 17.1 19.9 19l15.1 7.7c3.7 1.9 25.2 7.9 27 4.2l7.7-15.9s-15-4.9-29.6-12.4c-16.4-8.3-31.5-18.9-31.5-18.9z"/><path fill="#9184AD" d="M393.7 160.5l55.2 28.4c.6.3 1.1.6 1 1.1l-1 10.3c-.1.9-1.2 1.4-2.1.9l-62-31.9c-.9-.5-1-1.8-.4-2.4l7.6-6.5c.5-.3 1.1-.2 1.7.1z"/><path fill="#DAD3EB" d="M387.8 164.2l61.5 31.6.4-1.5-60.9-31.3zM385.2 166.2l63.9 32.8.4-1.5-63.2-32.4zM390.3 162.1l59.2 30.5.4-1.5-58.6-30.1zM456.4 110.3c-8.9-4.6-18.7-5.3-27.7-3 6.8-.5 13.9.8 20.4 4.2 19.2 9.9 26.7 33.7 16.7 53.2-5.4 10.5-14.8 17.6-25.3 20.4 13.3-.9 26-8.7 32.6-21.6 10-19.5 2.5-43.4-16.7-53.2z"/><path fill-rule="evenodd" fill="#FC008B" d="M438.5 202.1l-30.2 6 5.7 2.9-13.9 6.2 5.2 2.7-13.4 7.9 29.5-6.3-5.1-2.7 14.7-5.7-5.9-3.1z"/><path fill="#DBD3EB" d="M392.1 227.9c-.2 0-.4-.1-.5-.3-.1-.3 0-.5.3-.6l19.6-7.4-4.1-2.1 13.6-4.7-4.7-2.4 21.9-8.5c.3-.1.5 0 .6.3s0 .5-.3.6l-19.8 7.7 4.8 2.5-13.6 4.7 4.1 2.1-21.7 8.2c-.1-.1-.1-.1-.2-.1z"/><path fill-rule="evenodd" fill="#FC008B" d="M386.1 248.3c-16.3-8.4-31.6-19-31.6-19l-1.9 4.1s15.2 10.6 31.4 18.9c14.6 7.5 29.6 12.4 29.6 12.4l2.1-4c.1 0-15.1-5-29.6-12.4z"/></svg>