<svg version="1.2" baseProfile="tiny" xmlns="http://www.w3.org/2000/svg" viewBox="-151 103.4 538.4 388.9"><path stroke="#DBD3EB" stroke-width="9" stroke-miterlimit="10" d="M224.3 322.3c-2.1-10.8-15.4-14.5-26.3-16.1-11.5-1.7-23.2-3.3-34.6-1.2-22.2 4.1-43.5 35-16.8 50.3 9.5 5.4 23.5 2.1 28.5-7.7 4.9-9.6.5-21.9-7.5-29.2-31.1-28.5-86.5-22.3-124.9-22-22.6.2-46.9-3-63.6-18.2-12.5-11.4-19.1-28.3-20.1-45.2-1.6-25.8 6.4-58.4 30.7-71.9 20.3-11.3 59 1.1 49.3 29.9-2.3 6.9-8.5 12.6-15.7 13.8-7.7 1.2-15.5-2.5-21.1-8-17.7-17.6-26.2-43.4-44.4-61.4-14.8-14.7-34-26-54.9-27.3-18.5-1.2-36.1 12-53.9 12" fill="none"/><path fill="#DAD3EB" d="M235.3 270.3l-48.8-6.5 6.1-40.2-13.9-2.1-6.1 40.4-.1.7-1.2 8c-.2 1.1.1 2.2.5 3.1.7 1.5 2.1 2.6 3.9 2.8l5.6.7 3.1.5 49 6.5 1.9-13.9z"/><path fill="#9184AD" d="M171.5 266.6l15-4.2.2.9-15 4.2-.2-.9zm1.1 6.8l13.7-10 .5.7-13.7 10-.5-.7zm5.5 3.4l8.9-12.7.7.5-8.9 12.7-.7-.5z"/><path fill="#DAD3EB" d="M173.3 203.5l-1.4.5c-.8.3-1.2 1.1-1 1.9l3.6 11.1c.3.8 1.1 1.2 1.9 1l1.4-.5c.8-.3 1.2-1.1 1-1.9l-3.6-11.1c-.2-.8-1.1-1.3-1.9-1zm23.8 7.7l-1.3-.7c-.8-.4-1.7-.1-2.1.7l-5.2 10.4 4.1 2.1 5.2-10.4c.4-.8.1-1.8-.7-2.1zm-19.2-13.9l-1.4.5c-.8.3-1.2 1.1-1 1.9l4.9 15.4c.3.8 1.1 1.2 1.9 1l1.4-.5c.8-.3 1.2-1.1 1-1.9l-4.9-15.4c-.2-.8-1.1-1.3-1.9-1zm6.9.7l-1.4.5c-.8.3-1.2 1.1-1 1.9l4.1 12.7c.3.8 1.1 1.2 1.9 1l1.4-.5c.8-.3 1.2-1.1 1-1.9l-4.1-12.7c-.2-.8-1.1-1.2-1.9-1zM366.8 318.8l-9.7-10.1-29.3 28.4-33.7-35.9-10.2 9.7 39.8 42.4c1.2 1.3 3 1.8 4.7 1.4 1-.1 2-.6 2.8-1.3l35.6-34.6z"/><path fill="#9184AD" d="M333.4 351.3l-5.3-14.7.8-.3 5.3 14.7-.8.3zm-6.1 2.7l.2-17h.9l-.2 17h-.9zm-6-2.8l5.2-14.6.8.3-5.2 14.6-.8-.3z"/><path fill="#DAD3EB" d="M384.6 312.7l.5 1.4c.3.8-.2 1.7-1 1.9l-11.1 3.6c-.8.3-1.7-.2-1.9-1l-.5-1.4c-.3-.8.2-1.7 1-1.9l11.1-3.6c.8-.2 1.6.2 1.9 1zm2.3-7.4l.5 1.4c.3.8-.2 1.7-1 1.9l-15.4 4.9c-.8.3-1.7-.2-1.9-1l-.5-1.4c-.3-.8.2-1.7 1-1.9l15.4-4.9c.8-.2 1.7.2 1.9 1zm-4.6-5.1l.5 1.4c.3.8-.2 1.7-1 1.9l-12.7 4.1c-.8.3-1.7-.2-1.9-1l-.5-1.4c-.3-.8.2-1.7 1-1.9l12.7-4.1c.8-.3 1.7.2 1.9 1z"/><path fill="#FC008B" d="M373.7 319.4l2.6-.8-1.4-4.3-2.6.8-.5-1.7 2.6-.8-1.4-4.3-2.6.8-.5-1.7 2.6-.8-1.4-4.3-3.2 1c-2.7.9-10.8 5.5-10.8 5.5l5.5 13.8 11.1-3.2z"/><path fill="#9184AD" d="M379.6 323.8l-13.1.7c-.6 0-1.1-.4-1.1-1l-1.8-31.6c0-.6.4-1.1 1-1.1l13.1-.7c.6 0 1.1.4 1.1 1l1.8 31.6c.1.6-.4 1-1 1.1z"/><path fill="#35267B" d="M365.6 292.7l11.7-.7 1.5 26.5-11.7.7-1.5-26.5z"/><circle fill="#35267B" cx="373" cy="321.4" r="1.3"/><path fill="#DAD3EB" d="M364.5 297.8l1.3.7c.7.4 1 1.3.7 2.1l-5.4 10.3-4-2.1 5.4-10.3c.3-.8 1.2-1.1 2-.7z"/><path fill="#FC008B" d="M361.2 311.1l-4.1-2.3 3.5-6.7 4.1 2.1-3.5 6.9z"/><ellipse transform="matrix(.457 -.889 .889 .457 -68.129 388.619)" fill="#9184AD" cx="284.3" cy="250.1" rx="45.2" ry="44.5"/><path fill="#DAD3EB" d="M244.3 388.2l-48.2-24.7c-3.7-1.9-5.2-6.3-3.2-10l7.9-14.8 28.6-65.9c.7-1.6 2.7-2.5 4.2-1.7l62.6 32.2c1.5.8 1.9 3 1.1 4.4l-35 60.3-8.1 16.9c-1.6 3.7-6.2 5.2-9.9 3.3zm-38.9 74.5l17.6 13 35.5-45.7-20-14.7-33.1 47.4z"/><path fill="#5D4D78" d="M244.6 448c-8.7-1.1-16.9-10.9-9.5-11.6 6.2-.6-7.7-5.1-10.9-.8l-.2.3-22.1 31.6 17.6 12.9.9-1.2 10.4 7.6c2.6-3.6 3.8-10.2-4-15.9l16.1-20.8c2-.9 2.9-1.9 1.7-2.1z"/><path fill="#DAD3EB" d="M234.3 420.9l25.1 4.1-7.3-62.4-25.7 6.7 7.9 51.6z"/><path fill="#5D4D78" d="M231.6 425.1l26.2 5.5 1.6-7.3-25.7-5.4.6 3-2.7 4.2z"/><path fill="#9184AD" d="M257.3 426.1c-1.6 3.6-4.2 6-1.8 7 2.3 1 5.5-1.2 7.1-4.8 1.6-3.6 1.1-7.3-1.3-8.3-2.3-.9-2.4 2.5-4 6.1z"/><path fill="#DAD3EB" d="M220.3 463.2l1-2.1 2.5-.4-1.9-1.6.4-2.4-2.2 1.2-2.2-1 .5 2.3-1.8 1.7 2.5.3 1.2 2zm7.8-13.9l-3-1.4-.5-3.3-2.2 2.5-3.3-.5 1.6 3-1.4 3.1 3.2-.7 2.4 2.3.3-3.4 2.9-1.6zm8 2.5l-.7-2 1.3-1.8-2.2.2-1.2-1.7-.6 2.1-2.1.7 1.8 1.2v2.1l1.7-1.4 2 .6z"/><path fill="#FC008B" d="M199.3 471.1l28.7 21.1c.2.2.5.1.7-.1l2.9-4c.2-.2.1-.5-.1-.7l-28.7-21.1c-.2-.2-.5-.1-.7.1l-2.9 4c-.2.2-.2.5.1.7z"/><path fill="#DAD3EB" d="M129.6 408.7l7.6 20.5 54.7-18.6-8.6-23.3-53.7 21.4z"/><path fill="#5D4D78" d="M170.4 418c-6.6-5.7-8.1-18.4-1.5-14.9 5.5 2.9-3.6-8.5-8.6-6.7-.1 0-.2.1-.4.2l-35.9 14.2 7.6 20.5 1.4-.5 4.5 12.1c4.2-1.5 8.7-6.4 5.4-15.4l24.9-8.5c2.2.1 3.5-.2 2.6-1z"/><path fill="#DAD3EB" d="M176.7 389.7l18.7 17.2 28.2-56.1-25.1-8.6-21.8 47.5z"/><path fill="#5D4D78" d="M172.2 391.7l18.8 19 5.3-5.2-18.4-18.6-1.2 2.8-4.5 2z"/><path fill="#9184AD" d="M193 406.6c-3.3 2.1-6.8 2.7-5.4 4.8 1.4 2.1 5.2 2.1 8.6-.1s4.9-5.5 3.5-7.6c-1.4-2-3.3.8-6.7 2.9z"/><path fill="#DAD3EB" d="M141.7 417.3l2.1-1.2 2.2 1-.6-2.4 1.6-1.7-2.5-.2-1.3-2.1-.9 2.2-2.3.5 1.9 1.5-.2 2.4zm14.2-7.3l-1.7-2.8 1.4-3.1-3.3.9-2.4-2.2-.3 3.4-2.9 1.8 3.1 1.1.6 3.3 2.2-2.6 3.3.2zm5.3 6.5l.5-2.1 2.1-.8-1.9-1-.1-2.1-1.7 1.4-2.1-.5.9 1.9-1.2 1.8 2.2-.2 1.3 1.6z"/><path fill="#FC008B" d="M119.9 412.3l12.4 33.4c.1.3.4.4.6.3l4.6-1.7c.3-.1.4-.4.3-.6l-12.4-33.4c-.1-.3-.4-.4-.6-.3l-4.6 1.7c-.3 0-.4.3-.3.6zm189.1-151.9c-15.5 23.9-25.9 31-43.1 22.2-16.9-8.7-17.2-24-6.6-48.4 7-16.1 21.1-24.4 39.2-15.1 16.4 8.4 21.7 24.2 10.5 41.3z"/><path fill="#DAD3EB" d="M285.2 261.1s2.5 2 4.6 3.1l4.5 1.4s-1.6 1.3-2.5 2.7l-1 3.5s9.4-4.3 13.4-7.1c4.1-2.8 9.8-11.2 9.8-11.2s-1.7-.6-3.5-.7c-1.8-.2-5.1-1.4-5.1-1.4s1.3-1.5 2.7-3l2.5-4.9s-10.1 2.2-13.6.8l-12.4 2.3s-2.2-9.3-5.4-11.4c-3.2-2.1-7.2-11.5-7.2-11.5s-2.1 2.9-2.5 4.9l-.9 3.9s-2.9-2-4.1-3.3l-2.6-2.4s-3.5 9.6-3.4 14.5c.1 4.9 2 15.1 2 15.1s1.5-1.3 2.2-2.9c.7-1.6.7-3.6.7-3.6s1.7 1.8 3.8 2.9c2.1 1.1 5.2 1.9 5.2 1.9 2.2.7 1.8 7 4.2 8.2 2.4 1.2 7.5-2.5 8.6-1.8zm-15.9-.3c-1.9-1-5.4-2.8-8.3-1.5-3 1.3-6.2 7.3-7.4 9.2-1.2 1.9-3.3 4.5-3.3 4.5s2 1.4 5.4.7c1.7-.3 8.5-.6 13.9 2.2 5.3 2.7 9.1 8.4 9.8 10 1.4 3.2 3.7 4 3.7 4s.9-3.2 1.8-5.3 3.9-8.2 3.2-11.4c-.7-3.2-4.2-4.9-6.1-5.9-1.6-.8-3.3-3.3-5.7-4.6-2.4-1.2-5.4-1.1-7-1.9z"/><path fill="#5D4D78" d="M280.2 273.2c-1.9 1.7-5.3 2.5-9.3.5-3.9-2-5.1-5.3-5-7.8.2-3.6 2.5 1.7 7.1 4.1s9.5 1.1 7.2 3.2z"/><path fill="#DAD3EB" d="M282.5 218.5c-1-.3-3.2.1-3.2.1s1.2 1.6 2.9 4.5c1.6 2.7 3.2 6.6 3.2 6.6s0-1.4-.2-4.2c-.2-2.8-1.4-5.1-1.2-5 .9.3 2.9.9 2.9.9s-.9-1.5-1.3-3c-.4-1.3-1-2.9-1-3.1-1.4 0-2.7 0-4 .2.7 1.3 1.9 3 1.9 3zm26.3 13.5s2 .1 3.4-.1c-.6-1.2-1.3-2.3-2.2-3.4-.5.1-1.9.6-3 .9-1.4.5-3.2.6-3.2.6s1.6 1.3 2.4 1.9c.2.1-2.4.5-4.8 2l-3.5 2.3s4.1-1 7.2-1.2c3.4-.3 5.3-.2 5.3-.2s-.8-2.2-1.6-2.8z"/><path fill="#5D4D78" d="M277.1 250.3s2.4-2.7-.8-6.9l-11.1-6.6s.5 5.5 3.4 9.1c3.6 4.5 8.5 4.4 8.5 4.4zm9.2 4.7s.8-3.5 6-3.3c5.3.2 11.9 5.2 11.9 5.2s-4.8 2.8-9.4 2.6c-5.7-.4-8.5-4.5-8.5-4.5z"/><path fill="#35267B" d="M259.4 300.8l22.4 11.5-11.5 22.4-22.4-11.5 11.5-22.4z"/><circle fill="#9184AD" cx="238.4" cy="296.3" r="5.3"/><circle fill="#9184AD" cx="231" cy="310.7" r="5.3"/><path fill="#9184AD" d="M201.6 336.7l-8.6 16.3c-2 3.7 16.2 17.1 19.9 19l15.1 7.7c3.7 1.9 25.2 7.9 27 4.2l7.7-15.9s-15-4.9-29.6-12.4c-16.4-8.3-31.5-18.9-31.5-18.9zM242.7 263.9l55.2 28.4c.6.3 1.1.6 1 1.1l-1 10.3c-.1.9-1.2 1.4-2.1.9l-62-31.9c-.9-.5-1-1.8-.4-2.4l7.6-6.5c.5-.3 1.1-.2 1.7.1z"/><path fill="#DAD3EB" d="M236.8 267.6l61.5 31.6.4-1.5-60.9-31.3-1 1.2zm-2.6 2l63.9 32.8.4-1.5-63.2-32.4-1.1 1.1zm5.1-4.1l59.2 30.5.4-1.5-58.6-30.1-1 1.1zm66.1-51.8c-8.9-4.6-18.7-5.3-27.7-3 6.8-.5 13.9.8 20.4 4.2 19.2 9.9 26.7 33.7 16.7 53.2-5.4 10.5-14.8 17.6-25.3 20.4 13.3-.9 26-8.7 32.6-21.6 10-19.5 2.5-43.4-16.7-53.2z"/><path fill="#FC008B" d="M287.5 305.5l-30.2 6 5.7 2.9-13.9 6.2 5.2 2.7-13.4 7.9 29.5-6.3-5.1-2.7 14.7-5.7-5.9-3.1 13.4-7.9z"/><path fill="#DBD3EB" d="M241.1 331.3c-.2 0-.4-.1-.5-.3-.1-.3 0-.5.3-.6l19.6-7.4-4.1-2.1 13.6-4.7-4.7-2.4 21.9-8.5c.3-.1.5 0 .6.3.1.3 0 .5-.3.6l-19.8 7.7 4.8 2.5-13.6 4.7 4.1 2.1-21.7 8.2c-.1-.1-.1-.1-.2-.1z"/><path fill="#FC008B" d="M235.1 351.7c-16.3-8.4-31.6-19-31.6-19l-1.9 4.1s15.2 10.6 31.4 18.9c14.6 7.5 29.6 12.4 29.6 12.4l2.1-4c.1 0-15.1-5-29.6-12.4zM196 216.8l-4.1-2.1-.4.7c-.2-1.6-.5-3.1-.8-3.9l-1-3.2-4.3 1.4.8 2.6-1.7.5-.8-2.6-4.3 1.4.8 2.6-1.7.5-.8-2.6-4.3 1.4.9 2.7 3.9 10.8s14.2-3.5 14.3-3.5v.1l3.5-6.8z"/></svg>