<svg version="1.2" baseProfile="tiny" xmlns="http://www.w3.org/2000/svg" viewBox="0 0 604.8 280.9"><path fill="#FC008B" d="M510.8 49c2.1.2 4.7 1 6.6 1.9 5 2.4 10.3 4.3 15.5 5.9 2 .6 3.4.7 5 2 4.8 3.8 7.6 10.6 7.7 16.6.1 3.4.5 9-1.3 12-1.2 1.9-3.6.5-5.7.5-4.7 0-9.4-1.7-13.8-3-5-1.4-10.2-2.9-14.4-6.2-4.8-3.7-6.1-9-6.9-14.8-.3-2.5-.8-5.8-.2-8.4.8-3.1 4-6.8 7.5-6.5z"/><path fill="#FC008B" d="M99 163.4c-9 6.8-7.6 15.7-7.8 14.9.2.9 2.8 5.4 4.8 8 6.4 8.4 13.1 2.9 54.9-16.9 19.5-9.2 34.1-20.9 43.8-23.7 11.2-3.2 15.6 1.6 15.6 1.6s3.7-18.2-24.9-32.8c-55.5 14.2-75 40.3-86.4 48.9z"/><path fill="#FC008B" d="M520.7 64.2l-12.8-2.2.9-3.3-6-2.5-6.3-1 .3-1.5-6.4-1.8-9.5-1.5-.2-1.2-7.9-2.2-16.6-2.5v-.5l-59.6-8.9-8.5-1.2-.3.7-18-2.6-12.4-.4-.8 2-15.4-2.5-13.9-.5-.1 2.2-9.9-1.8-34.3 2 .3 9.7-20.2-5.2c-.5-.1-1-.2-1.6-.3-.5-.1-1.1-.2-1.7-.2l-1.8-.2c-.6 0-1.2-.1-1.9-.1h-2.4c-.8 0-1.7.1-2.6.1l-2.7.3c-.9.1-1.9.2-2.9.4l-19.7 2.7 2.4 18.2-22.3-9.5c-.9-.4-1.7-.7-2.6-.9-.9-.3-1.9-.5-2.8-.7-1-.2-2-.3-3-.4-1-.1-2.1-.1-3.1-.1-.9 0-1.9 0-2.8.1l-2.9.3c-1 .1-2 .3-3 .5l-3.1.6c-4.8 1.1-9.2 2.6-13 4.5-3.8 2-7 4.4-9.4 7.4-2.4 3-4 6.6-4.6 10.8-.1.9-.2 1.9-.2 2.9l-8.6-7.6c-1.2-.5-2.4-.9-3.6-1.3-1.2-.4-2.4-.7-3.7-1-1.3-.3-2.5-.4-3.9-.6-1.3-.1-2.7-.2-4.1-.1-1.2 0-2.4.1-3.6.2-1.2.1-2.5.3-3.9.6-1.3.3-2.7.6-4.2.9-1.5.4-3 .8-4.5 1.3-5.2 1.7-9.9 3.6-13.8 5.9-4 2.3-7.2 4.9-9.6 7.9-2.4 3-4 6.3-4.7 9.9-.7 3.6-.4 7.6.8 11.9l10.6 36.6-.1-.3c.8 3 2 6 3.6 9.2 2.2 4.3 4.6 8.1 7.3 11.2 2.7 3.1 5.6 5.7 9 7.5 3.3 1.9 6.9 3.1 10.9 3.7 4 .6 8.3.4 13.1-.4 1.6-.3 3.2-.6 4.9-1.1 1.7-.4 3.4-.9 5.2-1.5 1.8-.6 3.6-1.3 5.5-2s3.8-1.6 5.7-2.5c4.8-2.2 8.7-4.4 12-6.6 3.3-2.2 5.9-4.3 8.1-6.5 2.2-2.1 3.9-4.3 5.3-6.4 1.4-2.1 2.5-4.3 3.5-6.4l-27.8-30.6 2.2-4.3c9.1 9.5 18.1 18.9 27.2 28.3-.1-.1-.1-.1-.1-.2 1.5 1.6 3.1 2.9 4.9 4 3 1.8 6.2 3 9.7 3.5 3.5.5 7.2.5 11.1-.1l3.3-.6c1.1-.2 2.3-.5 3.4-.8 1.1-.3 2.3-.6 3.5-1l3.5-1.2c5.3-1.9 10-4.2 14-6.9s7.3-5.7 9.8-9.3c1.7-2.5 3.1-5.2 4-8.2l14.3 8.6 21.8-5.9c5.6-1.5 10.3-3.2 14.2-5.2 3.8-2 6.8-4.3 9.1-7.1.6-.8 1.2-1.6 1.7-2.4l12.1 5.1 37-7 .1-3.8 7.1 2.4 10.3-.9.3-3.4 8.4 2.6 7.9-.7 1.1-2.9 7.1 2.1 9.6-.9.1-1 3.2.9 8.9.2 1.6-3.6 14.7 3.9 8.4.2v-.4l4.4 1.8 57 15.1 4.4-40.2-5.4-2.3z"/><path fill="#FC008B" d="M516.8 100l-57.5-14.4-8.5-3.6 57.8 14.3z"/><path fill="#FC008B" d="M491.7 96.5l-57.9-14.9 9.4-34.9 59.6 9.6z"/><path fill="#FC008B" d="M447.5 43l-59.3-8.9 8.5 1.1 59.5 9z"/><path fill="#FC008B" d="M263 37.6l48.7 12.5-1.8-.4c-.6-.1-1.2-.2-1.9-.3-.7-.1-1.3-.1-2-.1h-2.1c-.9 0-1.8 0-2.8.1-1 .1-1.9.1-3 .2-1 .1-2.1.2-3.2.4s-2.2.3-3.4.5l-46.2-12.9c1-.1 2-.3 2.9-.4.9-.1 1.9-.2 2.7-.3.9-.1 1.7-.1 2.6-.1h2.4c.6 0 1.3 0 1.9.1.6 0 1.2.1 1.8.2l1.7.2c.6 0 1.1.2 1.7.3z"/><g fill="#FC008B"><path d="M49.2 280.9v-.2c-.1.1-.1.2 0 .2zM586.3 82.1c-11.1-2.2-11.4-4.2-11.4-4.2s6.2-1.9 13.9-5.2c5.4-2.3 12.3-6.7 12.3-6.7s-38.4-.6-60.9-7c-9.9-2.8-14.1-4.4-16.7-5.2-3.3-1.1-13.7-6.5-16.9-4.3l-.4.3c-20.3-8.5-49.4-17.7-85.7-22.9-66.5-9.4-155-9.2-213.9-.9-49.3 7-151.8 40.1-150.3 58.1 1.4 17.2 5.3 34.3 15 56.3-11.5 10.2-23.3 22.8-32.9 35-33 41.8-38.4 80.4-38.4 80.4s22-21.6 30-27.9c19.6-15.5 24.6-12.6 24.6-12.6s-3.4 14.1-5.6 32.8c-1.4 12.4 0 30.4.1 32.5.7-4.5 47.9-70.6 95.3-93.3 20.8-9.9 28.7-17 34.1-20 6.9-3.8 33.2-12.7 32.2-21.9-.3-2.3-1.3-6.7-2.8-12.1 18.9-7.5 38.9-14.6 58.3-20.8l9.3 5.6-.9-8.2c16.7-5.1 32.8-9.4 46.8-12.6l12.9 5.5v-8.1l3.4-.6c9.7-1.7 18.6-3.2 26.8-4.4l14 4.8.6-6.8 1.7-.2 16.7 5.3-1.3-6.7 17.5 5.2 1.3-4.3 11.6 3.3 2.5-5.5 22.7 6.1-.2-2.5 8.4 2.2 4.6 1.9 57 15.1-5.3-2.3.6-5.1-15-3.8 2.3-3.9c3.1.9 6.2 1.8 9.2 2.8 4.4 1.4 8.8 3 13.3 4.3 2.7.8 5.9 1.8 8.8 1 4.3-1.2 3.9-5.7 4.4-9.4.1-.8.2-1.7.3-2.6 7.4 1.3 16.2 2 24.2 2.2 24.7.5 40.7-6 40.7-6s-14.3-1.8-18.8-2.7z"/></g><g fill="#DBD3EB"><path d="M526.2 66.8l-5.2-3c-.2-.1-.5-.1-.7.2l-20.1 34.1c-.1.1-.1.3 0 .4 0 .1.1.2.3.3l5.5 2.4c.2.1.5 0 .6-.2l2.3-4.1 7.4 3.3-.6 4.8c0 .2.1.4.3.5l5.3 2.3h.2c.1 0 .2 0 .3-.1.1-.1.2-.2.2-.4l4.4-40.2s-.1-.2-.2-.3zm-12.4 21.5l4.7-8.1-1.1 9.9-3.6-1.8zM509 58.3l-6-2.5c-.1-.1-.3 0-.4 0l-.3.3-11 40.1c-.1.3.1.5.3.6l6.2 1.7h.1c.1 0 .2 0 .2-.1.1-.1.2-.2.2-.3l10.9-39.4c.1 0 0-.3-.2-.4zM497 53.4l-6.4-1.8c-.1 0-.3 0-.4.1-.1.1-.2.2-.2.3l-4.6 19.9-4.1-22.6c0-.2-.2-.3-.4-.4l-7.9-2.2c-.1 0-.3 0-.4.1-.1.1-.2.2-.2.3l-10.1 44.1c0 .1 0 .3.1.4.1.1.2.2.3.2l7.2 1.1c.3 0 .5-.1.6-.4l5.3-22.9 4.8 24.6c0 .2.2.4.4.4l6.3 1h.1c.2 0 .4-.2.5-.4l9.6-41.2c-.1-.3-.3-.6-.5-.6zM326.5 75c-.3-4.9-1-8.9-2-12.2-1-3.4-2.4-6.1-4.2-8.2-1.8-2.1-4.1-3.6-6.8-4.5-2.7-.9-5.8-1.4-9.6-1.3-.9 0-1.8 0-2.8.1-1 .1-1.9.1-3 .2-1 .1-2.1.2-3.2.4s-2.2.3-3.4.5l-22.9 3.8c-.3 0-.4.3-.4.5l6.8 63.8c0 .1.1.3.2.4.1.1.2.1.3.1h.1l21.8-5.9c5.9-1.6 10.6-3.3 14.2-5.2 4-2 7-4.4 9.3-7.2 2.4-2.9 4-6.3 4.9-10.4.8-4.1 1.1-9 .7-14.9zm-29.8 22l-5.8 1.4-2.9-30.4 5.3-1c.7-.1 1.5-.3 2.1-.4.7-.1 1.3-.2 1.9-.3l1.8-.2c.6 0 1.1-.1 1.6-.1 2.1-.1 3.7.1 4.9.6 1.2.4 2.1 1.1 2.7 2.1.6 1 1.1 2.2 1.5 3.9.3 1.4.5 3.2.7 5.8.3 3.2.3 5.3.1 7.1-.2 2.1-.7 3.7-1.6 5-.9 1.4-2.3 2.6-4.2 3.6-2 1.1-4.6 2.1-8.1 2.9zM192.6 136.2l-18.6-5.5c-.2-.1-.5 0-.6.2-.7 1.2-1.5 2.7-2.5 4.2-1 1.4-2 2.6-3 3.7-1.2 1.2-2.6 2.3-4.2 3.3-1.7 1.1-3.7 2.2-6 3.2-1 .5-2.1.9-3 1.2-1 .4-1.9.7-2.8 1-.9.3-1.8.5-2.6.7l-2.4.5c-2.3.3-4.5.3-6.4-.1-1.8-.4-3.5-1-5-2.1-1.4-1-2.7-2.2-4-3.9-1.1-1.5-2.2-3.3-3.2-5.5-1.4-3-2.3-5.8-2.5-8.3-.2-2.6.1-5 1.2-7.1 1.1-2.2 2.8-4.3 5.3-6.1 2.5-1.9 5.8-3.6 9.8-5.2.9-.4 1.8-.7 2.7-.9.8-.3 1.7-.5 2.5-.7.8-.2 1.6-.4 2.3-.5l2.2-.3c1-.1 2-.1 3-.1s1.9.1 2.8.3c.9.1 1.8.3 2.7.6.9.2 1.7.5 2.7.8.2.1.5 0 .6-.2l10-19.3c.1-.1.1-.3 0-.4l-.3-.3c-1.5-.6-3-1.1-4.5-1.6s-3.1-.8-4.6-1.1c-1.6-.3-3.2-.5-4.9-.6-1.7-.1-3.4-.1-5.2 0-1.5.1-3 .2-4.6.5-1.6.2-3.2.5-4.9.9-1.7.4-3.5.9-5.3 1.4-1.9.5-3.8 1.2-5.8 1.9-7.7 2.8-14.4 6-19.7 9.6-5.6 3.8-10 8.1-12.8 12.8-3 4.9-4.5 10.3-4.4 16 .1 5.8 1.8 12 5.1 18.5 2.3 4.5 4.7 8.2 7.4 11.3 2.8 3.2 5.8 5.8 9.1 7.6 3.4 1.9 7.1 3.2 11.1 3.7 1.6.2 3.4.3 5.1.3 2.6 0 5.3-.2 8.1-.7 1.6-.3 3.3-.6 5-1.1 1.7-.4 3.5-1 5.2-1.5 1.8-.6 3.6-1.3 5.5-2 1.8-.7 3.8-1.6 5.8-2.5 4.6-2.1 8.6-4.3 12.1-6.6 3.2-2.1 5.8-4.2 8.2-6.5 2.1-2 3.8-4.2 5.4-6.5 1.3-1.9 2.4-4 3.6-6.5.1-.1.1-.3 0-.4-.4 0-.6-.1-.7-.1zM428.8 40.6c-.1-.1-.2-.2-.4-.2l-13.1-.2c-.2 0-.4.1-.5.3l-10.8 29.2-5.4-29.4c0-.2-.2-.4-.5-.4l-15-.3c-.2 0-.5.2-.5.5l-4.7 54.2c0 .1 0 .3.1.4.1.1.2.1.4.1l10.3-.9c.2 0 .4-.2.5-.5l2.4-26.9 5.2 26.1c0 .2.3.4.5.4l7.9-.7c.2 0 .4-.1.4-.3l9.8-26.1-2.6 25.1c0 .1 0 .3.1.4s.2.2.4.1l9.6-.9c.2 0 .4-.2.5-.4l5.3-49.3c.2 0 .2-.2.1-.3zM456.3 43.7l-8.7-1.2c-.2 0-.4.1-.5.3l-21.1 47.2c-.1.2-.1.3 0 .5.1.1.2.2.4.2l8.9.2c.2 0 .4-.1.5-.3l2.5-5.7 12.4.5.4 5.5c0 .3.2.5.5.5l8.4.2c.1 0 .3-.1.4-.2.1-.1.1-.2.1-.4l-3.8-46.8c0-.3-.2-.5-.4-.5zm-6.5 30l-6.4-.4 5.3-12.2 1.1 12.6zM262 89.3c-1-4.7-2.4-8.8-4.2-12.2-1.8-3.3-4-6.1-6.7-8.3-2.6-2.1-5.5-3.6-8.9-4.6-3.2-.9-6.9-1.3-10.9-1.2-1.1 0-2.3.1-3.4.2s-2.3.3-3.5.5c-1.2.2-2.4.4-3.7.7-1.2.3-2.5.6-3.8.9-6.1 1.6-11.5 3.7-15.9 6.2-4.9 2.8-8.9 6.1-11.8 9.9-3.1 4.1-5.1 8.8-5.9 14-.8 5.5-.3 11.6 1.5 18.1 1.4 5.1 3.3 9.5 5.7 13 2.2 3.4 5 6 8.1 8 2.9 1.8 6.3 3 9.9 3.6 1.6.2 3.3.4 5.1.4 2 0 4-.2 6.1-.5 1.1-.2 2.2-.3 3.4-.6 1.1-.2 2.2-.5 3.4-.8 1.1-.3 2.3-.6 3.5-1l3.5-1.2c5.5-2 10.2-4.3 14.1-6.9 4.1-2.8 7.5-5.9 9.9-9.4 2.6-3.7 4.3-7.9 5.1-12.5.8-4.9.6-10.4-.6-16.3zm-18.5 13.3c-.1 2.3-.6 4.3-1.4 6-1 1.9-2.4 3.6-4.4 5.1-2.1 1.6-4.9 3-8.2 4.1l-1.8.6c-.6.2-1.2.3-1.7.5-.6.1-1.1.2-1.6.3-.5.1-1 .2-1.5.2-2.2.3-4.3.1-6-.3-1.7-.5-3.1-1.2-4.4-2.4-1.2-1.1-2.2-2.5-3.1-4.2-.8-1.6-1.5-3.5-2.1-5.7-.7-2.8-1-5.2-1-7.4 0-2.4.5-4.5 1.5-6.4 1-2 2.6-3.8 4.8-5.3 2.3-1.6 5.2-2.9 8.8-3.9.6-.2 1.3-.4 1.9-.5l1.8-.4 1.7-.3c.5-.1 1-.1 1.5-.1h1.2c1.7 0 3.3.2 4.7.7 1.6.6 2.9 1.4 4.1 2.6 1.1 1.1 2 2.5 2.8 4.2.7 1.6 1.3 3.4 1.8 5.5.5 2.7.7 5 .6 7.1zM372.2 40.4l-37.9 3.2c-.3 0-.5.2-.5.5v58.7c0 .1.1.3.2.4.1.1.2.1.3.1h.1l37-7c.2 0 .4-.2.4-.5l.3-12.9c0-.1-.1-.3-.2-.4-.1-.1-.3-.1-.4-.1l-23.1 3.8.1-6.9 22.6-3.4c.2 0 .4-.2.4-.5l.3-13.4c0-.1-.1-.3-.2-.4-.1-.1-.3-.1-.4-.1l-22.6 2.8v-6l23.4-2.6c.2 0 .4-.2.4-.5l.3-14.2c0-.1-.1-.3-.2-.4-.1-.1-.2-.2-.3-.2z"/></g><g fill="#DBD3EB"><path d="M53.1 65.6v-1.7000000000000002l-.5-.3-.5-.3c-.2-.1-.3-.3-.4-.4l-.3-.4.1-.1c.1 0 .2-.1.3-.2.1-.1.2-.1.4-.2l.4-.2c.1-.1.4-.1.4-.2.1-.1 0-.7 0-1v-1.9c0-.3 0-.7-.1-1.1-.1-.7-.1-1.3-.1-1.9v-1.7l.1-.2c0-.1.1-.1.1-.1l.1-.1.2-.2.4-.3c.2-.1.3-.2.5-.4s.3-.2.4-.2c.1 0 .1 0 .1-.1l.3-.1.3.1c.4.5 1.1 1 1.7 1.6.6.6 1.2 1.2 1.9 2 .4.4.7.8 1 1.1.3.3.6.7 1 1l.9 1 1 1 .3.4c.1.1.2.1.2.2l.2.1s.1 0 .1.1c0 0 0 .1-.1.2-.6.5-.9.7-1.4 1.3l-.3.3-.3.3c-.1.1-.2.2-.3.2-.1.1-.1.1-.2.1h-.2l-.1-.1c-.1-.1-.2-.3-.4-.4l-.3-.3-.3-.3c-.1-.1-.2-.3-.4-.5h-.30000000000000004c-.1 0-.1 0-.2.1l-.2.1c-.2.1-.4.2-.5.2l-.3.2-.3.1-.3.1c-.1.1-.3.1-.5.2s-.3.1-.4.2c-.2.1-.3.1-.4.2 0 .4 0 .8.1 1.2v1.2000000000000002l-.1.1h-.1c-.5 0-1.1.1-1.5.1-.5-.1-1.2-.1-1.2-.1zm2.1-9s.1.9.2 1.3c0 .4.1.8.1 1.1 0 .3 0 .6.1.8v.7c.7-.3 1.1-.5 1.9-.9l-.5-.6c-.2-.2-.4-.4-.5-.7-.2-.2-.4-.5-.6-.8-.2-.2-.7-.9-.7-.9z"/><path d="M65.6 54.5c-.2-.5-.4-1.1-.5-1.6s-.1-1.1 0-1.7c.1-.5.2-1.1.4-1.6s.5-1 .8-1.4c.3-.4.8-.9 1.2-1.2.5-.4 1-.7 1.6-.9.5-.2.9-.3 1.3-.4.4-.1.7-.1 1-.2h.8c.2 0 .6.1.6.1v.1c0 .1.1.2.2.4l.3.6c.1.2.2.5.4.7.1.2.2.5.3.6v.1l-.1.1s-.1 0-.2.1h-.5l-.7-.1h-.9c-.3 0-.6.1-1 .2-.4.2-.8.4-1.1.7-.3.3-.5.7-.6 1-.1.4-.2.8-.1 1.2 0 .4.1.9.3 1.4.2.4.4.8.6 1.1.3.3.5.6.8.8.3.2.6.3 1 .4.4 0 .7 0 1.1-.2.3-.1.6-.2.8-.4s.4-.2.6-.4l.5-.4.5-.5h.2s.1.1.1.2c.1.4.2.5.4.9l.2.5c.1.2.1.3.2.4l.1.3v.1c-.2.1-.4.5-.6.7l-.7.6-.8.5c-.3.1-.6.3-.8.4-.7.3-1.5.5-2.2.5-.7 0-1.5-.1-2.1-.4-.7-.3-1.3-.7-1.8-1.2-.8-.6-1.2-1.3-1.6-2.1z"/><path d="M82.8 53.6c-.8.3-1.5.5-2.3.4-.7 0-1.4-.2-2-.5-.6-.3-1.2-.7-1.7-1.2s-.9-1.1-1.2-1.8c-.3-.8-.5-1.5-.5-2.3 0-.8.1-1.5.3-2.1.2-.7.5-1.3 1-1.9.4-.6 1-1.2 1.6-1.6.1 0 .1-.1.1-.2v-.7c0-.1 0-.2.1-.2 1-.4 2.1-.5 3-.6.9-.1 1.8 0 2.5.2.8.2 1.4.6 2 1.2.6.6 1 1.3 1.4 2.3.2.6.4 1.3.4 1.9.1.6 0 1.2-.1 1.8-.1.6-.3 1.1-.6 1.7-.3.5-.6 1-1 1.5s-.9.9-1.4 1.2c-.4.4-1 .7-1.6.9zm-3.8-4.8c.1.4.3.7.6 1 .2.3.5.6.8.8.3.2.6.3 1 .4.4.1.8 0 1.3-.2.3-.1.6-.4.8-.6.2-.2.4-.5.5-.7.1-.3.2-.5.2-.8v-.9c0-.3-.1-.6-.2-.9-.1-.3-.2-.6-.3-.8-.1-.4-.3-.7-.6-1-.2-.3-.5-.5-.8-.7-.3-.2-.6-.3-1-.3s-.7 0-1.1.2c-.3.1-.6.3-.8.5-.2.2-.4.4-.5.7-.1.3-.2.5-.2.8l-.1.9c0 .3 0 .6.1.8.2.4.3.6.3.8z"/><path d="M93.3 37.6v-.4c0-.1.1-.2.2-.2l1.9-1.2.2-.1h.2s.1.1.1.2.1.3.1.6l.3.8.3.9c.1.3.2.6.3.8l.2.4c.1.3.2.6.4 1l.4 1.1s.3.8.4 1.1c.1.4.2.7.3 1 .2.5.3.8.4 1.3v.30000000000000004c0 .1.1.2.1.2 0 .1 0 .1.1.2v.2s0 .1-.1.2c0 .1-.1.1-.2.2l-.2.3c-.1.1-.2.2-.3.4-.1.1-.2.3-.4.4l-.3.4-.3.4-5.7-4 1.3 4.5v.1s0 .1-.1.1l-.2.2c-.1.1-.2.2-.4.3-.1.1-.3.2-.4.4l-.4.3-.4.3-.2.1h-.2c-.1 0-.1-.1-.2-.2-.2-.6-.4-1.3-.6-2.1-.2-.8-.4-1.5-.7-2.3s-.5-1.6-.7-2.4c-.2-.8-.5-1.5-.7-2.2l-.2-.2c-.1-.1-.2-.2-.4-.3l-.4-.3-.2-.2v-.1s.1-.1.1-.2l1.7-2h.30000000000000004s.1 0 .2.1c2.6 2 3.8 3 6.3 5.1-.6-2.1-1-3.3-1.9-5.5z"/><path d="M106.9 37.1v1.6c0 .2 0 .5-.1.7 0 .1 0 .2-.1.2 0 .1-.1.1-.3.2-.9.3-1.4.5-2.3.9l.9 3.5v.1c0 .1 0 .1-.1.1l-.2.2-.3.3c-.1.1-.3.3-.5.4l-.5.4-.5.3c-.1.1-.3.2-.3.2-.1 0-.2.1-.3 0-.1 0-.2-.1-.2-.2-.1-.2-.2-.5-.3-.8l-.3-.9c-.1-.3-.2-.6-.2-1-.1-.3-.2-.6-.2-.9l-.2-.7c-.4.2-.8.3-1 .3-.2 0-.3 0-.3-.1v-.3c.1-.2.1-.4.2-.7.1-.3.1-.5.2-.7.1-.2.1-.5.2-.6 0-.2.1-.3.1-.3-.2-.9-.4-1.3-.6-2.1l-.3.1-.2.1c-.1 0-.1 0-.2.1-.1 0-.1 0-.2.1-.3.1-.4.1-.6.2-.1 0-.2 0-.2-.1v-.3c0-.1.1-.3.1-.5l.1-.6c.1-.2.1-.4.1-.5.1-.4.1-.6.2-.9 1.5-.6 2.2-.9 3.6-1.4.5-.2.9-.4 1.4-.5.5-.2.9-.4 1.3-.5s.7-.3 1-.4c.3-.1.5-.2.6-.2h.2l.1.1v.3c0 .2 0 .5-.1.9 0 .4 0 .6-.1 1 0 .1 0 .2-.1.2 0 .1-.1.1-.3.2-.2.1-.4.1-.5.2-.2.1-.4.2-.6.2l-2.4 1c0 .2.1.4.1.5 0 .1 0 .2.1.2 0 .1 0 .1.1.2l.1.3c0 .1 0 .2.1.3v.4c0 .1.1.3.1.3.1 0 .7-.3 1-.4.3-.1.6-.2.9-.4.3-.1.5-.2.7-.3.2-.1.4-.1.4-.2h.2c.1 0 .1.1.1.1.4 0 .4 0 .4.1z"/><path d="M115.7 34.1v.3c0 .1 0 .3-.1.5 0 .2 0 .4-.1.6l-.1.6v.2l-.1.1-.2.1c-.1 0-.2.1-.4.2l-1.1.4c.2 1 .3 1.4.6 2.4l4.1-1.4.1.3s0 .1-.1.2l-.1.5c0 .2-.1.4-.2.6-.1.2-.1.4-.2.5l-.1.3-.2.2c-.1.1-.2.1-.3.1l-.3.1-1.5.5c-.5.2-1 .3-1.6.4l-1.5.4c-.5.1-1 .3-1.4.3h-.1l-.1-.1v-.1c0-.1.1-.2.1-.4l.1-.6.1-.6-.5-1.7c-.1-.3-.1-.5-.2-.7 0-.1-.1-.2-.1-.2l-.7.2c-.2 0-.3 0-.3-.1v-.3c0-.1.1-.3.2-.5l.2-.6c.1-.2.1-.4.2-.5-.3-1.1-.4-1.6-.7-2.6l-.3.1-.3.1c-.3.1-.4.1-.6.1-.1 0-.2 0-.2-.1v-.3c0-.1.1-.3.1-.5s.1-.4.2-.6c.1-.2.1-.4.1-.5.1-.4.1-.6.2-.9 1.4-.5 2-.7 3.4-1.1 1.6-.6 2.4-1 3.9-1.6h.2l.1.1v.8c0 .1 0 .3-.1.4 0 .4 0 .6-.1 1 0 .1 0 .2-.1.2 0 .1-.1.1-.3.2-.4.1-.9.3-1.4.5-.5.2-1.6.4-1.7.6v.2s0 .1.1.2c0 .1 0 .2.1.4l.1.5c0 .2.1.7.2.7s.5-.2.8-.3c.3-.1.5-.2.7-.3l.6-.2c.2-.1.3-.1.3-.1h.2c.1 0 .1.1.1.1.3.6.3.6.3.7z"/><path d="M124.1 37.7v.1s0 .1-.1.1c0 0-.1.1-.3.2l-.6.4c-.2.2-.4.3-.7.5-.2.2-.4.3-.5.4-.1 0-.1.1-.2.2s-.2.1-.3.1h-.2c-.1 0-.1-.1-.1-.2l-.2-.6-.1-.6c0-.2-.1-.4-.1-.7l-.2-.9c-.1-.5-.2-.9-.3-1.3l-.3-1.3-.3-1.3c-.1-.2-.1-.4-.2-.7l-.2-.7-.2-1h-.1s-.1 0-.2.1l-.3.2-.4.2c-.2.1-.3.2-.5.2h-.2v-.1c.2-1 .4-1.5.6-2.6l.9-.5c.3-.2.7-.3 1.1-.5.4-.2.8-.4 1.2-.5.4-.2.9-.3 1.4-.5.6-.2 1.1-.3 1.7-.4.6-.1 1.1-.1 1.6 0s.9.3 1.3.6.6.7.8 1.3c.1.3.1.6.1.9 0 .3-.1.6-.2.9l-.4.8-.5.6-.4.4c-.1.1-.3.2-.3.2l.1.1s.1.1.2.1l.3.3c.1.1.3.2.5.4l.6.6c.2.2.5.5.9.8.3.3.7.7 1.1.9.1.1.2.1.4 0 .1 0 .2 0 .3-.1s.2 0 .3-.1c.1 0 .1 0 .1.1 0 0 0 .1-.1.2l-.3.3-.3.3-.2.2-.3.3-.4.3c-.1.1-.3.3-.5.4l-.6.5c-.1.1-.1.1-.2.1l-.2.1h-.3c-.1 0-.2-.1-.2-.1-.1 0-.1-.1-.2-.2 0-.1-.1-.1-.1-.1l-3.9-4c.3 2 .5 2.8.9 4.6zm-1.2-5.4c.3-.1.5-.2.8-.5.3-.2.5-.5.6-.8.2-.3.3-.6.4-.9.1-.3.1-.6 0-.9-.2-.7-.8-1-1.8-.7-.2.1-.3.1-.4.2l-.3.2c.3 1.4.5 2.1.7 3.4z"/><path d="M137.2 27.5v.3c0 .1 0 .3-.1.5l-.1.6-.1.6v.2l-.1.1-.2.1c-.1 0-.2.1-.4.1-.4.1-.7.2-1.1.4.2 1 .3 1.5.5 2.4 1.7-.5 2.5-.7 4.1-1.2l.1.3s0 .1-.1.2c0 .1-.1.3-.2.5l-.2.6c-.1.2-.1.4-.2.5l-.1.3-.2.2-.3.1-.3.1-1.5.4-1.6.4c-.5.1-1 .2-1.6.3-.5.1-1 .2-1.4.3h-.1l-.1-.1v-.1c0-.1.1-.2.1-.4s.1-.4.2-.6l.2-.6-.4-1.8c-.1-.3-.1-.5-.1-.7v-.2c-.1 0-.6.1-.7.2-.2 0-.3 0-.3-.1v-.3c0-.1.1-.3.2-.5l.2-.6c.1-.2.1-.4.2-.5-.2-1.1-.3-1.6-.6-2.7l-.3.1-.3.1c-.3.1-.5.1-.6.1-.1 0-.2 0-.2-.1v-.3c0-.1.1-.3.1-.5l.2-.6c.1-.2.1-.4.2-.5.1-.4.2-.6.3-.9 1.4-.4 2.1-.6 3.4-1 1.6-.6 2.4-.9 4-1.4h.2l.1.1v.8c0 .1 0 .3-.1.4l-.1 1c0 .1 0 .2-.1.2 0 .1-.1.1-.3.2-.4.1-.9.3-1.4.4-.5.2-1.6.4-1.7.6v.2s0 .1.1.3c0 .1 0 .2.1.4l.1.5c0 .2.1.7.1.7.1 0 .5-.2.8-.3.3-.1.5-.2.7-.2l.6-.2c.2-.1.3-.1.3-.1h.2c.1 0 .1.1.1.2-.2.4-.2.4-.2.5z"/><path d="M145.5 20.9v-.4c0-.1.1-.2.2-.2l2-1 .2-.1h.2s.1.1.1.2 0 .3.1.6c0 .3.1.5.2.9l.2.9c.1.3.1.6.2.8 0 .2.1.3.1.4l.3 1 .3 1.2.3 1.2c.1.4.2.7.2 1.1l.3 1.3v.30000000000000004c0 .1 0 .2.1.2v.4s-.1.1-.1.2-.1.1-.2.2c0 .1-.1.1-.2.2s-.2.2-.4.3l-.4.4-.4.4-.4.4c-2.1-1.8-3.1-2.7-5.3-4.5l.9 4.6v.1c0 .1 0 .1-.1.1l-.2.2c-.1.1-.2.2-.4.3-.1.1-.3.2-.5.3l-.5.3c-.1.1-.3.2-.4.2-.1.1-.2.1-.2.1h-.2c-.1 0-.1-.1-.1-.2-.1-.6-.3-1.4-.4-2.2-.1-.8-.3-1.6-.5-2.4s-.3-1.6-.5-2.4-.3-1.6-.5-2.3l-.2-.2-.3-.3-.3-.3-.2-.2v-.1l.2-.2c.7-.7 1.1-1.1 1.9-1.8h.30000000000000004s.1 0 .1.1l5.8 5.7c-.4-2.3-.7-3.5-1.3-5.8z"/><path d="M151.1 24.9c-.1-.6-.2-1.1-.2-1.7 0-.6.1-1.1.2-1.6.2-.5.4-1 .7-1.5.3-.5.6-.9 1-1.3s.9-.7 1.4-1c.5-.3 1.1-.5 1.7-.7.5-.1.9-.2 1.3-.2h1l.8.1c.2.1.5.2.5.2v.1c0 .1.1.2.1.4.1.2.1.4.2.7.1.2.2.5.2.8.1.3.1.5.2.7v.1s-.1.1-.2.1h-.2c-.1 0-.3 0-.5-.1s-.4-.1-.7-.2c-.3-.1-.6-.1-.9-.1-.3 0-.6 0-1 .1-.5.1-.8.3-1.2.6-.3.3-.6.6-.8.9-.2.4-.3.8-.3 1.2 0 .4 0 .9.1 1.4.1.4.3.8.5 1.2.2.4.4.7.7.9.3.2.6.4.9.5.3.1.7.1 1.1 0 .3-.1.6-.2.8-.2.2-.1.5-.2.6-.3l.6-.3c.2-.1.4-.3.6-.5h.2s0 .1.1.2c.1.4.1.6.2.9l.1.5c0 .2.1.3.1.4 0 .1 0 .2.1.3v.1c-.2.1-.5.4-.7.6-.3.2-.5.3-.8.4l-.9.3c-.3.1-.6.2-.9.2-.8.2-1.5.2-2.2.1-.7-.1-1.4-.3-2-.7-.6-.4-1.2-.9-1.6-1.5s-.7-1.2-.9-2.1z"/><path d="M168.8 19.4c0 .1 0 .2-.1.3 0 .1-.1.3-.1.5l-.1.6-.1.6c0 .1 0 .1-.1.2l-.1.1-.2.1-.4.1c-.5.1-.7.2-1.1.3.1 1 .2 1.5.3 2.4l4.2-1c0 .1 0 .2.1.3 0 0 0 .1-.1.2s-.1.3-.2.5l-.2.6c-.1.2-.2.4-.2.5l-.1.3-.2.2-.3.1-.3.1-1.5.3-1.6.3-1.6.3c-.5.1-1 .2-1.4.2h-.1l-.1-.1v-.1c0-.1.1-.2.1-.4.1-.2.1-.3.2-.6l.2-.6-.3-1.8c0-.3-.1-.5-.1-.7v-.2c-.1-.1-.6.1-.7.1-.2 0-.3 0-.3-.1 0 0 0-.1.1-.3.1-.1.1-.3.2-.5l.3-.6c.1-.2.2-.4.2-.5-.2-1.1-.3-1.6-.4-2.7l-.3.1c-.1 0-.2 0-.3.1-.3.1-.5.1-.6.1-.1 0-.2 0-.2-.1v-.2s.1-.3.2-.5.1-.4.2-.5c.1-.2.1-.4.2-.5l.3-.9 3.5-.8 4-1.2h.2l.1.1v.4c0 .1 0 .3-.1.4l-.1.4-.2 1c0 .1 0 .2-.1.2 0 .1-.1.1-.3.1-.4.1-.9.2-1.4.4s-1.6.3-1.8.5v.9c0 .2.1.4.1.5 0 .2 0 .7.1.7s.5-.1.8-.2c.3-.1.5-.1.7-.2.2-.1.4-.1.6-.1.2 0 .3-.1.3-.1h.2c.1 0 .1.1.1.2-.1.1-.1.1-.1.2z"/><path d="M183.1 16.4c0 .1 0 .2-.1.4l-.1.5-.1.6c-.1.2-.1.4-.2.7 0 .1-.1.2-.1.2 0 .1-.1.1-.3.1l-2.4.5.4 3.5v.1s0 .1-.1.1c0 0-.1.1-.2.1-.1.1-.2.2-.4.3l-.5.3-.6.3c-.2.1-.4.2-.5.3-.2.1-.3.1-.4.1h-.3c-.1 0-.2-.1-.2-.2-.1-.3-.1-.5-.2-.9 0-.3-.1-.6-.1-1l-.1-1-.1-.9c0-.3 0-.4-.1-.7-.5.1-.8.2-1 .2-.2 0-.3 0-.3-.1s0-.2.1-.3l.3-.6.3-.7c.1-.2.2-.4.2-.6.1-.2.1-.3.1-.3l-.3-2.2c-.1 0-.2 0-.3.1-.1 0-.1 0-.2.1h-.4c-.3.1-.5.1-.6.1s-.2 0-.2-.1c0 0 0-.1.1-.2 0-.1.1-.3.2-.4l.2-.5c.1-.2.1-.4.2-.5l.3-.9c1.5-.4 2.3-.6 3.8-.9l1.5-.3c.5-.1.9-.2 1.3-.3.4-.1.8-.2 1.1-.3s.5-.1.6-.2h.1s.1 0 .1.1l.1.1s0 .1-.1.3c0 .2-.1.5-.2.9l-.2 1c0 .1-.1.2-.1.2 0 .1-.1.1-.3.1l-.6.1c-.2 0-.4.1-.6.2l-2.5.6v1c0 .1 0 .2.1.3v1c.1.1.7-.2 1.1-.3.3-.1.7-.2 1-.2l.8-.2c.2-.1.4-.1.5-.1h.2c.1 0 .1.1.1.2.2.1.2.2.2.2z"/><path d="M191.1 22c-.8.2-1.6.1-2.3 0s-1.3-.5-1.9-.9c-.5-.4-1-.9-1.4-1.5s-.6-1.3-.8-2c-.2-.8-.2-1.6-.1-2.3.1-.7.3-1.4.7-2 .3-.6.8-1.2 1.3-1.7s1.2-1 1.9-1.2c.1 0 .1-.1.1-.2v-.7c0-.1.1-.2.1-.2 1-.1 2.1-.1 3 0 .9.1 1.7.3 2.4.7.7.4 1.3.9 1.7 1.6.4.7.8 1.5.9 2.6.1.7.1 1.3.1 1.9-.1.6-.2 1.2-.4 1.8-.2.6-.5 1.1-.9 1.5-.4.5-.8.9-1.3 1.3s-1 .7-1.6.9c-.3.1-.9.3-1.5.4zm-2.7-5.5l.3 1.1s.4.7.6.9c.3.3.6.5.9.6.4.1.8.2 1.3.1.4-.1.7-.2.9-.4.3-.2.5-.4.6-.6.2-.2.3-.5.4-.8l.2-.9v-.9l-.1-.9c-.1-.4-.2-.7-.4-1.1-.2-.3-.4-.6-.6-.8-.3-.2-.6-.4-.9-.5-.3-.1-.7-.1-1.1 0l-.9.3-.6.6c-.2.2-.3.5-.4.8-.1.3-.2.6-.2.8 0 .3-.1.6-.1.8 0 .5 0 .7.1.9z"/><path d="M203.2 18.8v.1s0 .1-.1.1c0 0-.1.1-.3.2l-.6.3-.7.4c-.2.1-.4.2-.5.3l-.2.1-.3.1h-.2c-.1 0-.1-.1-.1-.2l-.1-.6c0-.2 0-.4-.1-.6v-.7c0-.3 0-.6-.1-.9l-.1-1.4c0-.4-.1-.9-.1-1.4 0-.5-.1-.8-.1-1.4 0-.2 0-.5-.1-.7 0-.2 0-.5-.1-.7 0-.4 0-.6-.1-1h-.1s-.1 0-.2.1c-.1 0-.2.1-.4.1-.1.1-.3.1-.5.2s-.4.1-.5.2h-.1s-.1 0-.1-.1v-.1l1-2.5c.3-.1.6-.2 1-.4s.7-.2 1.1-.4c.4-.1.8-.2 1.3-.3.5-.1.9-.2 1.5-.3.6-.1 1.2-.1 1.7-.1.6 0 1.1.1 1.5.3.5.2.9.4 1.2.8.3.4.5.8.6 1.4.1.3 0 .6 0 .9-.1.3-.2.6-.3.8-.2.3-.3.5-.5.7-.2.2-.4.4-.6.5-.2.2-.3.3-.5.4-.1.1-.3.2-.3.2l.1.1s.1.1.1.2l.3.3c.1.1.2.3.4.5s.3.4.6.7l.7.9.9 1c.1.1.2.1.3.1h.6c.1 0 .1 0 .1.1 0 0 0 .1-.1.2l-.3.2-.3.2-.3.2c-.1.1-.3.2-.4.2l-.4.3-.5.3-.6.4-.2.1h-.5l-.2-.1c-.1-.1-.1-.1-.1-.2s-.1-.1-.1-.1c-1.3-1.8-1.9-2.7-3.3-4.6.1 2 .1 2.8.3 4.6zm-.4-5.4c.3 0 .6-.2.9-.3.3-.2.5-.4.7-.7.2-.3.4-.5.5-.8.1-.3.2-.6.1-.9-.1-.8-.7-1.1-1.6-.9l-.5.1-.3.1c.1 1.3.1 2 .2 3.4z"/><path d="M215.1 18.1c-.1 0-.1 0-.1-.1 0 0-.1-.1-.1-.2v-.1l.8-2v-5.5l-.1-1.7c-.1.1-.3.1-.5.2l-.5.2c-.2 0-.3.1-.4.1l-.4.1c-.1 0-.1 0-.1-.1 0 0-.1-.1-.1-.2v-.2c.7-.9 1.1-1.3 1.9-2.2.2-.2.3-.3.5-.4l.6-.3c.2-.1.5-.2.9-.2.3-.1.8-.1 1.3-.2.9-.1 1.8-.1 2.5-.1.7.1 1.4.3 1.9.5.4.2.8.4 1.1.6.3.2.6.5.8.8.2.3.4.6.6 1 .1.4.2.8.3 1.3.1.9.1 1.7-.1 2.5-.2.7-.5 1.4-.9 2-.4.6-.9 1.1-1.5 1.6-.6.4-1.3.8-2 1.2-.7.3-1.4.6-2.2.8-.8.2-1.5.4-2.3.5-1-.1-1.3 0-1.9.1zm3.5-10.2v3.3c0 .4 0 .8.1 1.2v2.8000000000000003c.7-.1 1.2-.3 1.7-.5.4-.3.8-.6 1-1 .2-.4.4-.9.5-1.4.1-.5.1-1 0-1.6-.1-.4-.2-.8-.3-1.1-.2-.4-.4-.7-.6-1-.3-.3-.6-.5-.9-.7-.3-.1-.7-.2-1.1-.1-.1 0-.1 0-.2.1-.1-.1-.1-.1-.2 0z"/><path d="M234.2 8.6c0 .1 0 .2-.1.3 0 .1-.1.3-.2.5l-.2.6-.2.6c0 .1 0 .1-.1.2l-.1.1c-.1 0-.1 0-.3.1-.1 0-.3 0-.5.1l-1.2.2v2.5l4.3-.5v.3s-.1.1-.1.2c-.1.1-.2.3-.2.5l-.3.6c-.1.2-.2.4-.3.5 0 .1-.1.2-.2.2-.1.1-.1.1-.2.1l-.3.1h-.3c-.5.1-1 .1-1.6.1l-1.6.1-1.6.1h-1.4s-.1 0-.1-.1l-.1-.1v-.1c0-.1.1-.2.2-.4l.3-.5.3-.6c0-.7 0-1.1-.1-1.8v-.8999999999999999c-.1-.1-.6 0-.8 0-.2 0-.3-.1-.3-.1s0-.1.1-.3l.3-.4.3-.5.3-.5-.1-2.7c-.1 0-.2 0-.3.1h-.8999999999999999l-.2-.1s0-.1.1-.2l.2-.4.3-.5c.1-.2.2-.3.2-.5.2-.3.2-.5.4-.9l3.5-.4c1.7-.3 2.5-.4 4.1-.7h.1s.1 0 .1.1c0 0 0 .1.1.1 0 .2-.1.3-.1.4 0 .1-.1.2-.1.4l-.1.4-.3 1c0 .1-.1.2-.1.2 0 .1-.1.1-.3.1-.4.1-.9.1-1.4.2-.5.1-1.6.1-1.8.3v2.2c.1 0 .6-.1.8-.1.3 0 .5-.1.7-.1l.6-.1h.5c.1 0 .1.1.1.2.2-.3.2-.3.2-.2z"/><path d="M243.4 13.7c0 .1 0 .1-.1.2 0 .1 0 .1-.1.2l-.1.2-.2.1-1 .4c-.3.1-.7.2-1 .4-.1 0-.1 0-.2.1h-.30000000000000004s-.1-.1-.1-.2c-1.6-4.2-2.3-6.3-3.9-10.6-.1-.1-.1-.2-.1-.3 0-.1 0-.2.1-.3.1-.1.2-.2.4-.2.2-.1.4-.1.7-.2.3-.1.6-.2 1-.2.2 0 .4-.1.5-.1.1 0 .2 0 .3-.1h.3c.1 0 .1.1.2.2.9 2.6 1.3 3.9 2.2 6.4l1.7-6.3c0-.1.1-.2.1-.2l.1-.2.3-.1c.1-.1.3-.1.6-.2.4-.1.8-.2 1-.3.3-.1.5-.1.7-.1h.4c.1 0 .1.1.1.2v.1s0 .1-.1.2c-1.4 4.3-2.1 6.5-3.5 10.9z"/><path d="M255.1 6.8l-.1.3c-.1.1-.1.3-.2.5l-.2.6c-.1.2-.2.4-.2.6l-.1.2-.1.1h-.8l-1.2.1c0 1 0 1.5-.1 2.5l4.3-.3v.3s-.1.1-.1.2c-.1.1-.2.3-.3.5l-.3.6-.3.5c-.1.1-.1.2-.2.2-.1.1-.1.1-.2.1l-.3.1h-.3c-.5 0-1 .1-1.6.1h-4.6s-.1 0-.1-.1c0 0 0-.1-.1-.1v-.1c0-.1.1-.2.2-.4l.3-.5.3-.6v-2.7c-.1-.1-.6 0-.8 0-.2 0-.3-.1-.3-.2 0 0 0-.1.1-.2l.3-.4.3-.5s.2-.3.3-.5v-2.7h-1.2c-.1 0-.2-.1-.2-.2 0 0 0-.1.1-.2l.2-.4.3-.5.3-.5c.2-.3.3-.5.4-.9 1.4-.1 2.1-.2 3.6-.3l4.2-.6h.1s.1 0 .1.1v.1c0 .2-.1.3-.1.4 0 .1-.1.2-.1.4 0 .1-.1.3-.2.4-.1.4-.2.6-.3.9 0 .1-.1.2-.1.2s-.2.1-.3.1c-.4 0-.9.1-1.4.2-.5.1-1.6 0-1.8.2v1.5c0 .2-.1.7 0 .7s.6-.1.8-.1c.3 0 .5-.1.7-.1.2 0 .4 0 .6-.1h.5c.1 0 .1.1.1.2.1.2.1.2.1.3z"/><path d="M261.8 1.5v9.4c1.4-.2 2.1-.3 3.4-.5h.6000000000000001s0 .1.1.2v.1c0 .1 0 .1-.1.2 0 .1-.1.2-.1.4l-.2.5c-.1.2-.1.3-.1.5 0 .1-.1.3-.2.4l-.3.3s-.3.1-.4.1c-.1 0-.3 0-.5.1-.2 0-.4 0-.7.1-.3 0-.5 0-.8.1s-.6.1-.9.1l-.9.1c-.3 0-.6 0-.9.1-.3 0-.5 0-.8.1-.2 0-.4 0-.6.1h-.3c-.1 0-.1-.1-.1-.1v-.3c0-.1.1-.2.1-.4l.2-.4c.1-.2.1-.3.2-.4v-9.899999999999999s0-.1.1-.1c0 0 .1 0 .1-.1 1.2-.3 1.8-.5 2.9-.8h.30000000000000004c-.1-.1-.1-.1-.1.1z"/><path d="M271.5 13c-.8 0-1.6-.1-2.3-.4-.7-.3-1.2-.6-1.7-1.1-.5-.5-.9-1.1-1.1-1.7-.3-.7-.4-1.4-.5-2.1 0-.8 0-1.6.3-2.3.2-.7.5-1.4 1-1.9.4-.6.9-1.1 1.6-1.5.6-.4 1.4-.8 2-.9.1 0 .1-.1.2-.2l.1-.3.1-.3c0-.1.1-.2.2-.2 1.1 0 2.1.2 3 .4.9.2 1.6.6 2.3 1 .6.5 1.1 1.1 1.5 1.8s.5 1.6.6 2.7c0 .7-.1 1.3-.2 1.9-.2.6-.4 1.2-.7 1.7-.3.5-.7 1-1.1 1.4-.4.4-.9.8-1.4 1.1-.5.3-1.1.5-1.7.7-.9 0-1.6.1-2.2.2zm-1.9-5.8c0 .4.1.8.2 1.2.1.4.3.7.5 1 .2.3.5.5.8.7.3.2.8.3 1.2.2.4 0 .7-.1 1-.3s.5-.3.7-.5c.2-.2.4-.4.5-.7l.3-.8c.1-.3.1-.6.1-.9v-.9c0-.4-.1-.7-.2-1.1-.1-.4-.3-.7-.5-.9-.2-.3-.5-.5-.8-.6-.3-.2-.7-.2-1.1-.2-.3 0-.6.1-.9.2-.3.1-.5.3-.7.5-.2.2-.4.4-.5.7-.1.3-.3.5-.3.8l-.2.8c-.1.3-.1.5-.1.8z"/><path d="M290.2 3.8c0 .5 0 .9-.1 1.2-.1.4-.2.7-.4 1-.2.3-.4.6-.6.8-.2.2-.5.5-.8.7-.6.4-1.2.7-1.8.9-.7.2-1.3.3-2 .3h-.6c-.1 1.2-.1 1.8-.2 2.9-.1.1-.1.2-.1.3 0 0-.1.1-.3.1-.2.1-.4.1-.7.2l-.5.2c-.2.1-.3.1-.4.2-.1.1-.2.1-.4.1l-.3.1h-.3c-.1 0-.1 0-.2-.1 0 0-.1-.1-.1-.2 0-.5 0-.8.1-1.4v-1.7000000000000002l.1-1.9c0-.4 0-.8.1-1.2 0-.4 0-.8.1-1.1s0-.7.1-1c0-.3.1-.8 0-.8 0 0-.5.1-.7.2-.2 0-.3.1-.4.1-.1 0-.2-.1-.2-.1 0-.2.1-.5.2-.8.1-.2.1-.4.2-.7l.2-.6c0-.1.1-.2.1-.2 0-.1.1-.1.1-.1l.2-.1.3-.1c.1 0 .3-.1.5-.1s.4-.1.7-.1l.8-.1.9-.1s.6-.1.9-.1h.8c.6 0 1.3 0 1.8.1s1.1.3 1.5.6c.4.3.8.6 1.1 1.1s.3.8.3 1.5zm-6.2 2.5v.2s.1.1.2.1c.2 0 .3 0 .6-.1l.6-.3c.2-.1.4-.3.6-.5.2-.2.3-.4.4-.7 0-.1.1-.2.1-.4v-.6c0-.4-.1-.6-.4-.8-.3-.2-.6-.3-1.1-.2h-.3c-.1 0-.2 0-.3.1-.1 0-.2 0-.2.1-.1 0-.1.1-.1.1v2.7c-.1.1-.1.2-.1.3z"/><path d="M298.4 5.4l-.1.3s-.1.3-.2.5-.2.4-.3.5l-.3.6-.1.2-.1.1h-2c-.1 1-.1 1.5-.2 2.4h4.3v.3s-.1.1-.1.2c-.1.1-.2.3-.3.5-.1.2-.2.4-.4.5-.1.2-.2.3-.3.4-.1.1-.1.2-.2.2-.1.1-.2.1-.2.1h-2.2c-.5 0-1.1 0-1.6-.1s-1.1-.1-1.6-.1-1-.1-1.4-.1c0 0-.1 0-.1-.1v-.2c.1-.1.1-.2.2-.4.1-.1.2-.3.3-.5l.3-.6c.1-.7.1-1.1.1-1.8 0-.3 0-.5.1-.7v-.2c-.1-.1-.6 0-.8 0-.2 0-.2-.1-.2-.2 0 0 0-.1.1-.2l.3-.4c.1-.2.2-.3.4-.5l.3-.5.2-2.7h-1.2c-.1 0-.2-.1-.2-.2 0 0 0-.1.1-.2l.3-.4.3-.5.3-.5.5-.8h3.6l4.2-.3h.1s.1 0 .1.1v.1c-.1.2-.1.2-.1.4 0 .1-.1.2-.1.4l-.2.4c-.2.4-.2.6-.4.9 0 .1-.1.2-.1.2l-.3.1h-1.4c-.5 0-1.6-.1-1.8.1v.9c0 .2 0 .4-.1.6 0 .2-.1.7-.1.7 0 .1.6 0 .8 0h1.8999999999999997c.1 0 .1.1.1.2-.2.2-.2.3-.2.3z"/><path d="M305.1 11.5v.1l-.1.1s-.1 0-.3.1c-.2.1-.4.1-.7.2l-.8.3c-.3.1-.5.1-.6.2-.1 0-.2.1-.2.1h-.3c-.1 0-.1 0-.2-.1-.1 0-.1-.1-.1-.2v-.6c0-.2 0-.4.1-.6 0-.2.1-.4.1-.7l.1-.9.1-1.4c0-.4.1-.9.1-1.4.1-.5.1-.8.1-1.4 0-.2 0-.5.1-.7 0-.2 0-.5.1-.7l.1-1h-.30000000000000004c-.1 0-.2 0-.4.1-.1 0-.3.1-.5.1s-.4.1-.5.1h-.1s-.1 0-.1-.1l1.4-2.2 1-.2s.8-.1 1.2-.2l1.3-.1h1.5c.6 0 1.2.1 1.7.2.6.1 1 .3 1.5.5.4.2.8.6 1 1 .3.4.4.9.3 1.5 0 .3-.1.6-.2.9-.1.3-.3.5-.5.8l-.6.6c-.2.2-.5.3-.7.4l-.6.3-.3.1.1.1s.1.2.1.3l.2.3c.1.1.2.3.3.5.1.2.3.5.4.8.2.3.4.6.6 1l.7 1.2.3.2h.6c.1 0 .1 0 .1.1 0 0 0 .1-.1.1l-.3.2-.4.2-.3.1-.4.2c-.1.1-.3.1-.5.2l-.6.2c-.2.1-.4.2-.7.3l-.2.1h-.2c-.1 0-.2 0-.3-.1-.1 0-.1-.1-.2-.2s-.1-.1-.1-.2l-.1-.2c-.9-2-1.4-3.1-2.4-5.1 0 1.9-.1 2.8-.3 4.5zm.6-5.4c.3 0 .6-.1.9-.2.3-.1.6-.3.9-.5.3-.2.5-.5.6-.7.2-.3.3-.6.3-.8 0-.8-.5-1.2-1.5-1.2h-.8c-.1 1.4-.2 2.1-.4 3.4z"/><path d="M313.3 9.4c0-.1 0-.2.1-.2s.1 0 .2.1c.3.3.6.5 1 .7.4.2.8.3 1.2.3h.4c.2 0 .3-.1.4-.1.1-.1.3-.1.3-.2l.2-.3c0-.2 0-.3-.1-.4l-.3-.3-.2-.2-.3-.3-.4-.3-.4-.3-.3-.3-.2-.2c-.3-.2-.6-.5-.8-.7-.2-.2-.3-.5-.4-.8l-.2-.8v-.9c0-.5.1-.9.4-1.3s.6-.8 1-1.1c.4-.3 1-.5 1.6-.7.6-.2 1.3-.2 2-.2h.4l.6.1c.2.1.4.1.7.2l.6.3c.1 0 .1.1.1.1s.1.1.1.2v2.6c0 .1 0 .1-.1.2h-.2c-.1 0-.1 0-.1-.1l-.5-.5c-.2-.2-.3-.3-.5-.4l-.6-.3c-.2-.1-.5-.1-.7-.1h-.5c-.2 0-.3.1-.4.1-.1.1-.2.1-.3.3-.1.1-.1.2-.1.4s0 .3.1.5c0 .1.2.3.3.4l2 1.4c.4.3.7.5.9.8s.4.5.5.8c.1.3.2.5.2.7v.7c0 .4-.1.7-.2 1-.1.3-.3.6-.6.9-.2.3-.5.5-.8.7-.3.2-.6.4-1 .5-.3.1-.7.2-1.1.3s-.7.1-1.1.1h-.8c-.3 0-.5 0-.8-.1-.2 0-.5-.1-.7-.2l-.7-.3c.2-1.1.2-1.6.1-2.8z"/></g><path fill="#DBD3EB" d="M77.8 154.3c-1.9.4-4 .5-6.2.2-6.7-.9-12.6-5.3-18.5-8.1-6-2.8-13-3.8-19.2-1.8-6.4 2.1-11.5 6.7-14 13.5-2.5 6.7-1.8 15.8 3.1 21.2 8.6 9.4 25.4.5 19.5-13.1-2-4.5-6.1-6.3-9.8-4.2.6-2.1 1.4-4 2.4-4.8 8.4-6.5 19.7-.1 28.7 1.9 5.8 1.3 11.2 1.1 16.1-.7-.7-1.4-1.4-2.8-2.1-4.1zM61.8 114.5c-3.3-2.3-6.4-3.1-10.1-2.6-7.9 1-13.9 9-13.1 16.9.2 2 .9 4.4 2.1 6 1.6 2.3 4.1 3.6 6.9 2.5 3.1-1.2 6.7-5.3 4.4-9-2.6-4.2-8.9-.5-6.4 3.7-.6-.6-1.4-2-1.5-2.5-.6-3.4 1.5-6.1 3.1-7.6 2.1-2 5.2-2.8 7.8-2.7 3.1.1 6 2.5 8.7 4.7l1.4 1.2c-1.2-3.6-2.4-7.2-3.3-10.6zM75.8 178.8c3.5-2.5 7.5-3.7 11.6-4.9.3-.1.5-.2.8-.2-1.3-2.3-2.6-4.6-3.8-6.8-1.5.1-3 .3-4.5.5-5.9.9-11.8 3.7-15.7 8.5-4 4.9-6 11.2-4.9 17.9 1.1 6.7 5.8 13.6 12.1 15.3 11.1 3 20.2-13 9.3-20.6-3.7-2.6-7.4-1.2-9.4 2.6l2 5.4c-.2-.2-.5-1.1-.7-1.4-.6-1.2-1.2-2.5-1.7-3.8-.8-2.2-.5-5.6.5-7.7 1-2 2.6-3.6 4.4-4.8z"/><g fill="#DBD3EB"><path d="M378.3 142.2v-16.7l-2.9 1.2v-3.2c.7-.3 1.4-.7 2.2-1.1.8-.5 1.4-.8 1.7-1.2h3.4v21h-4.4zM393.9 142.2l4-21h5.3l4 21h-4.3l-.7-4.5h-3.2l-.7 4.5h-4.4zm5.5-7.3h2.2l-1.1-8.2-1.1 8.2zM409.2 142.2v-21h7c1.9 0 3.3.5 4.2 1.6.9 1 1.4 2.6 1.4 4.5 0 .8-.1 1.5-.2 2.1s-.3 1.2-.6 1.6c-.3.4-.6.8-.9 1.1-.4.3-.8.5-1.2.7-.5.2-1 .3-1.5.4-.5.1-1 .1-1.6.1h-1.8v9h-4.8zm4.7-12.2h1.5c.8 0 1.4-.2 1.7-.6.3-.4.4-1.2.4-2.2v-.9c0-.2-.1-.5-.2-.7-.1-.3-.2-.5-.3-.6-.1-.1-.4-.3-.6-.4-.3-.1-.6-.1-1-.1h-1.5v5.5zM424 142.2v-21h5.7c.9 0 1.7.1 2.4.2s1.3.3 1.9.5c.6.3 1.1.6 1.5 1 .4.4.7.9.9 1.6.2.7.3 1.4.3 2.3 0 1.4-.2 2.5-.6 3.3-.4.8-1 1.5-2 2l2.9 10.2h-4.8l-2.3-9.4h-1.3v9.4h-4.6zm4.6-12.1h1.2c.9 0 1.6-.2 2-.7.4-.5.6-1.2.6-2.2 0-1-.2-1.7-.5-2.2-.4-.5-1-.7-1.8-.7h-1.4v5.8zM439.6 142.2v-21h4.6v21h-4.6zM447.3 142.2v-21h4.6v17.8h4.8v3.1h-9.4zM465.4 142.2v-3.1l5-7.8c.1-.1.2-.4.5-.7.2-.4.4-.6.5-.8s.3-.5.5-.8c.2-.3.3-.6.4-.9.1-.2.2-.5.3-.8.1-.3.1-.6.1-.9 0-.7-.1-1.2-.4-1.5-.2-.3-.5-.4-.9-.4h-.3c-.5.1-.9.3-1.1.8-.2.5-.3 1.2-.3 2.1v1h-4.2v-1.1c0-1 .1-1.8.3-2.6.2-.8.6-1.5 1-2.1s1.1-1.1 1.8-1.4c.8-.3 1.7-.5 2.7-.5 1.9 0 3.3.5 4.3 1.5s1.5 2.4 1.5 4.1c0 .3 0 .5-.1.8 0 .3-.1.5-.1.7 0 .2-.1.5-.2.7-.1.3-.2.5-.2.7-.1.2-.2.4-.3.7-.2.3-.3.5-.3.6-.1.1-.2.3-.4.6s-.3.5-.4.6c-.1.1-.2.3-.4.6s-.4.5-.4.6l-3.8 5.8h6.1v3.4h-11.2zM484.7 142.6c-1.9 0-3.3-.5-4.3-1.6s-1.5-2.6-1.5-4.4v-9.6c0-1.9.5-3.4 1.4-4.5 1-1.1 2.4-1.7 4.3-1.7s3.3.6 4.3 1.7 1.4 2.6 1.4 4.5v9.5c0 1.8-.5 3.3-1.5 4.4-.9 1.1-2.3 1.7-4.1 1.7zm0-3.9c.9 0 1.3-.8 1.3-2.3v-10.3c0-.2-.1-.4-.1-.5l-.2-.4c-.1-.1-.2-.3-.4-.3-.2-.1-.3-.1-.5-.1s-.3 0-.4.1c-.1 0-.2.1-.3.2-.1.1-.2.2-.2.3-.1.1-.1.2-.2.4s-.1.3-.1.4v10.5c-.2 1.2.2 2 1.1 2zM497 142.2v-16.7l-2.9 1.2v-3.2c.7-.3 1.4-.7 2.2-1.1.8-.5 1.4-.8 1.7-1.2h3.4v21h-4.4zM512.5 142.5c-1 0-1.9-.2-2.6-.5-.8-.3-1.4-.8-1.8-1.5-.5-.6-.8-1.4-1-2.2-.2-.8-.3-1.7-.3-2.8v-7.5c0-.9.1-1.7.2-2.3.1-.7.3-1.3.5-2 .3-.6.6-1.1 1-1.5.4-.4 1-.7 1.7-1 .7-.2 1.5-.4 2.4-.4 1 0 1.8.1 2.5.3.7.2 1.2.6 1.7 1.1.4.5.7 1 .9 1.7s.3 1.4.3 2.3v.4h-4.1c0-.9-.1-1.6-.2-1.9-.1-.4-.5-.5-1-.5-.6 0-1 .3-1.1.9s-.3 1.7-.3 3.4v1.9c.2-.4.5-.6 1-.9.5-.2 1-.3 1.6-.3h.1c.8 0 1.4.1 2 .4.6.3 1.1.7 1.4 1.3.3.6.6 1.2.8 1.9.2.7.2 1.5.2 2.4 0 1.2-.1 2.2-.3 3-.2.9-.5 1.6-.9 2.3-.4.7-1 1.2-1.8 1.6s-1.8.4-2.9.4zm.1-3.2c.3 0 .5-.1.7-.2s.3-.4.4-.7c.1-.3.2-.7.2-1.1v-3c0-.3 0-.5-.1-.7 0-.2-.1-.3-.2-.5s-.2-.3-.2-.4c-.1-.1-.2-.2-.4-.2-.1-.1-.3-.1-.5-.1-.3 0-.6.1-.9.3-.3.2-.4.4-.6.6v3.4c.1 1.7.6 2.6 1.6 2.6zM338.7 162.2v-14.6h1.4v13.5h4.1v1h-5.5zM344.8 162.2l3.1-14.6h1.4l3.1 14.6h-1.4l-.7-3.9h-3.5l-.7 3.9h-1.3zm2.2-4.9h3.1l-1.6-7.9-1.5 7.9zM354.1 162.2v-14.6h1l4.6 11.3v-11.3h1.2v14.6h-1l-4.7-11.4v11.4h-1.1zM366.8 162.4c-.7 0-1.2-.1-1.7-.3s-.8-.5-1.1-1c-.3-.4-.5-.9-.6-1.4s-.2-1.2-.2-1.9v-5.8c0-.7.1-1.4.2-1.9s.3-1 .6-1.4.6-.7 1.1-.9 1.1-.3 1.8-.3c1.3 0 2.2.4 2.7 1.1s.8 1.7.8 3.1v.5h-1.3v-.5c0-1.1-.2-1.9-.5-2.4s-.9-.7-1.7-.7c-.4 0-.7.1-1 .2-.3.1-.5.3-.7.4-.2.2-.3.4-.4.7s-.2.6-.2.9v7.1c0 .6 0 1 .1 1.4s.2.7.4 1 .4.5.7.7.7.2 1.2.2c.9 0 1.4-.3 1.8-.8s.5-1.4.5-2.6v-1.7h-2.1v-1h3.4v7h-.9l-.2-1.7c-.5 1.3-1.4 2-2.7 2zM372.8 162.2v-14.6h1.4v6.5h4.6v-6.5h1.4v14.6h-1.4v-7.1h-4.6v7.1h-1.4zM382 162.2l3.1-14.6h1.4l3.1 14.6h-1.3l-.7-3.9h-3.6l-.7 3.9h-1.3zm2.2-4.9h3.1l-1.6-7.9-1.5 7.9zM391.2 162.2l.4-14.6h1.3l2.9 12.6 2.9-12.6h1.4l.4 14.6h-1.1l-.3-11.6-2.8 11.6h-.9l-2.8-11.6-.3 11.6h-1.1zM406.6 162.2v-14.6h1.4v6.5h4.6v-6.5h1.4v14.6h-1.4v-7.1h-4.6v7.1h-1.4zM419.9 162.4c-.7 0-1.3-.1-1.8-.3-.5-.2-.9-.5-1.2-.9-.3-.4-.5-.9-.6-1.4s-.2-1.1-.2-1.8v-6c0-.7.1-1.3.2-1.8s.3-1 .6-1.4c.3-.4.7-.7 1.2-.9s1.1-.3 1.8-.3 1.3.1 1.8.3.9.5 1.2.9.5.9.6 1.4.2 1.1.2 1.8v6.1c0 .5 0 1-.1 1.5s-.2.8-.4 1.2-.4.7-.7 1c-.3.3-.6.5-1.1.6-.5-.1-1 0-1.5 0zm-1.2-1.4c.3.1.7.2 1.2.2s.9-.1 1.2-.2c.3-.1.6-.4.7-.6s.3-.6.4-1 .1-.8.1-1.3v-6.6c0-.5 0-.9-.1-1.3-.1-.3-.2-.7-.4-.9s-.4-.5-.7-.6-.7-.2-1.2-.2-.9.1-1.2.2-.6.3-.7.6-.3.6-.4.9c-.1.3-.1.8-.1 1.3v6.6c0 .5 0 .9.1 1.3s.2.7.4 1 .4.5.7.6zM427.4 162.2v-13.5h-2.9v-1.1h7.2v1.1h-2.9v13.5h-1.4zM432.9 162.2v-14.6h5.3v1.1h-3.9v5.5h3.2v1h-3.2v6h3.9v1h-5.3zM440 162.2v-14.6h1.4v13.5h4.1v1h-5.5zM449.8 162.2l3.1-14.6h1.4l3.1 14.6h-1.3l-.7-3.9h-3.5l-.7 3.9h-1.4zm2.3-4.9h3.1l-1.6-7.9-1.5 7.9zM462.8 162.4c-.6 0-1.1-.1-1.5-.2s-.8-.3-1.1-.6c-.3-.2-.5-.5-.7-.9s-.3-.7-.4-1.1-.1-.9-.1-1.4v-10.6h1.3v10.6c0 .4 0 .7.1 1s.1.6.2.8c.1.3.2.5.4.7.2.2.4.3.7.4s.6.2 1 .2c.5 0 .8-.1 1.2-.2.3-.2.6-.4.7-.7s.3-.6.4-.9.1-.7.1-1.2v-10.6h1.3v10.6c0 .5 0 1-.1 1.4s-.2.8-.4 1.1-.4.7-.7.9c-.3.2-.6.4-1.1.6s-.8.1-1.3.1zM472.2 162.4c-.6 0-1.1-.1-1.5-.2s-.8-.4-1.1-.6-.5-.6-.7-1-.3-.8-.4-1.2-.1-.9-.1-1.5v-5.9c0-.6 0-1.1.1-1.5.1-.4.2-.9.4-1.2.2-.4.4-.7.7-1s.6-.5 1.1-.6.9-.2 1.5-.2 1.2.1 1.6.3c.5.2.8.5 1.1.8s.5.8.6 1.3.2 1.1.2 1.7v.9h-1.3v-.9c0-.5 0-.9-.1-1.3s-.2-.7-.3-1c-.1-.3-.4-.5-.7-.6s-.7-.2-1.1-.2c-.5 0-.9.1-1.2.2s-.5.4-.7.7-.3.6-.3 1c-.1.4-.1.8-.1 1.3v6.2c0 1.1.2 2 .5 2.5s.9.8 1.8.8c.4 0 .7-.1.9-.2s.5-.2.6-.4.3-.4.4-.7c.1-.3.2-.6.2-.9v-2h1.3v.9c0 .5 0 1-.1 1.4l-.3 1.2s-.4.7-.6.9-.6.4-1 .6-.8.4-1.4.4zM477.8 162.2v-14.6h1.4v7.7l3.9-7.7h1.3l-3 6.3 3.7 8.3h-1.4l-3.3-7.6-1.2 2.2v5.4h-1.4zM486.3 162.2v-14.6h1.4v13.5h4.1v1h-5.5zM492.4 162.2l3.1-14.6h1.4l3.1 14.6h-1.3l-.7-3.9h-3.5l-.7 3.9h-1.4zm2.3-4.9h3.1l-1.6-7.9-1.5 7.9zM501.8 162.2v-14.6h1l4.6 11.3v-11.3h1.2v14.6h-1l-4.7-11.4v11.4h-1.1zM511.2 162.2v-14.6h3.2c.6 0 1.1.1 1.6.2s.8.3 1.1.6.5.5.7.9.3.8.4 1.2.1.9.1 1.4v5.8c0 .7-.1 1.3-.2 1.9s-.3 1-.6 1.4-.7.7-1.2.9c-.5.2-1.1.3-1.8.3h-3.3zm1.3-1.1h1.8c.5 0 .8-.1 1.1-.2s.6-.3.7-.5c.2-.2.3-.5.4-.8s.2-.7.2-1v-6.6000000000000005c0-.5 0-.9-.1-1.2s-.1-.6-.2-.9c-.1-.3-.3-.5-.4-.7-.2-.2-.4-.3-.7-.4-.3-.1-.7-.1-1.1-.1h-1.8v12.4z"/></g></svg>