<svg version="1.2" baseProfile="tiny" xmlns="http://www.w3.org/2000/svg" viewBox="-1.2 -2255.6 890.6 1237.2"><g fill="#5D4D78"><path d="M475.4-2096s.6.2 1.6.2c-.5.9-1 1.8-1.3 3 0 0 1.2-.7 2.6-2l.6 1.5s.2-.6.2-1.6c.9.5 1.8 1 3 1.3 0 .1-.7-1.1-2-2.4.5-.1 1-.3 1.5-.6 0 0-.6-.2-1.6-.3.6-.9 1.1-1.8 1.4-3 0 0-1.2.6-2.6 1.9-.1-.5-.3-1-.6-1.5 0 0-.2.6-.3 1.6-.9-.6-1.8-1.1-3-1.4 0 0 .6 1.3 2 2.7l-1.5.6zM442.8-2120.5s.6.8 1.7 1.6c-.3.2-.6.4-1 .6h1.1c-.3.7-.5 1.4-.5 2.3 0 0 .8-.7 1.5-1.8.2.3.4.7.7 1 0 0 0-.5-.1-1.2.7.3 1.4.4 2.3.5-.1 0-.7-.7-1.8-1.5l1-.6s-.5-.1-1.1 0c.3-.7.5-1.4.6-2.2 0 0-.8.6-1.6 1.7l-.6-.9s-.1.5 0 1.1c-.7-.3-1.4-.5-2.2-.6zM463.9-2074.9c-.4.2-.9.4-1.3.8 0 0 .6.1 1.5 0-.4.8-.7 1.8-.9 2.9 0 0 1-.8 2.1-2.1.2.4.4.9.8 1.3 0 0 .1-.6 0-1.5.8.4 1.8.7 2.9.9.1-.1-.7-1.2-2-2.2.4-.2.9-.4 1.3-.7 0 0-.6-.1-1.5-.1.4-.8.8-1.8.9-2.8 0 0-1.1.7-2.2 2-.2-.4-.4-.9-.7-1.3 0 0-.1.6-.1 1.5-.8-.4-1.8-.8-2.9-.9 0 0 .7 1.1 2.1 2.2zM434.5-2121.8l-1 .6s.5.1 1.1 0c-.3.6-.5 1.4-.6 2.2 0 0 .8-.6 1.6-1.7l.6 1s.1-.5 0-1.1c.6.3 1.3.5 2 .6l-1.5-1.4c.3-.2.7-.3 1-.6 0 0-.5-.1-1.1 0 .3-.7.5-1.4.7-2.2 0 0-.8.5-1.6 1.6-.2-.3-.3-.7-.6-1 0 0-.1.4 0 1.1-.7-.3-1.4-.5-2.2-.7 0 0 .5.8 1.6 1.6zM438.4-2120.2h-.2c.1.1.1.1.2 0zM318.8-1974.4h-.1s0 .1.1 0zM318.6-1974.4c-.3-.2-1.1-1.3-2.5-2.6.6-.2 1.1-.5 1.7-.8 0 0-.7-.2-1.9-.2.6-1 1.1-2.2 1.4-3.5 0 0-1.4.8-2.9 2.4-.2-.6-.5-1.1-.8-1.7 0 0-.2.7-.2 1.8-1-.6-2.2-1.1-3.5-1.4 0 0 .8 1.4 2.5 2.9-.6.2-1.1.5-1.7.9 0 0 .8.2 1.9.1-.5 1-1 2.2-1.3 3.6 0 0 1.4-.9 2.8-2.6.2.6.5 1.1.9 1.7 0 0 .2-.8.1-1.9 1 .5 2.2 1 3.5 1.3zM454.1-2085.7c-.5.2-1 .4-1.5.8 0 0 .7.1 1.7.1-.5.9-.9 2-1.1 3.2 0 0 1.2-.8 2.5-2.3.2.5.5 1 .8 1.5 0 0 .1-.7.1-1.7.9.5 2 .9 3.2 1.1-.2 0-1-1.2-2.4-2.5.5-.2 1-.4 1.5-.7 0 0-.7-.2-1.7-.2.5-.9.9-2 1.2-3.1 0 0-1.2.7-2.5 2.2-.2-.5-.4-1-.7-1.5 0 0-.2.6-.2 1.7-.9-.5-2-1-3.1-1.2 0 0 .7 1.3 2.2 2.6zM235-1959.3c-.5.3-1.1.7-1.6 1.1 0 0 .8 0 1.9-.1-.4 1.1-.7 2.4-.8 3.8 0 0 1.2-1.1 2.5-3 .3.5.7 1.1 1.1 1.6 0 0 0-.8-.1-1.9 1.1.4 2.4.7 3.8.8-.1 0-1.2-1.2-3-2.4.5-.3 1.1-.6 1.6-1.1 0 0-.8-.1-1.9 0 .4-1.1.8-2.4.9-3.7 0 0-1.3 1-2.5 2.9-.3-.5-.6-1.1-1.1-1.6 0 0-.1.8 0 1.9-1.1-.4-2.4-.8-3.7-.9 0 0 1 1.3 2.9 2.6zM279.2-1943.1s.7.2 1.9.3c-.6 1-1.1 2.1-1.5 3.5 0 0 1.4-.8 3-2.4.2.6.4 1.2.8 1.8 0 0 .2-.7.3-1.9 1 .6 2.1 1.1 3.5 1.5-.4-.1-1.2-1.5-2.7-3 .6-.2 1.2-.4 1.7-.7 0 0-.7-.3-1.8-.3.6-1 1.2-2.1 1.6-3.4 0 0-1.4.7-3 2.2-.2-.6-.4-1.1-.7-1.7 0 0-.3.7-.3 1.8-1-.6-2.1-1.2-3.4-1.6 0 0 .7 1.5 2.3 3.1-.6.2-1.2.4-1.7.8zM135.9-2128.5zM130.2-2125.5c-.1.5-.2 1.1-.2 1.8 0 0 .5-.5 1.1-1.4.5 1 1.2 2 2.1 3 0 0 0-1.5-.5-3.6l1.8.3s-.5-.5-1.4-1.1c1-.5 2-1.2 2.9-2.1-.3.1-1.6.1-3.4.6.1-.6.2-1.1.3-1.8 0 0-.6.5-1.2 1.3-.5-1-1.1-2-2-3 0 0-.2 1.5.3 3.5-.5-.1-1.1-.2-1.7-.3 0 0 .5.6 1.3 1.2-1 .5-2 1.1-3 2 0 0 1.5.2 3.6-.4zM171.1-2138.3c-.3.5-.7 1.1-1 1.7 0 0 .7-.3 1.7-.9.1 1.2.4 2.5.9 3.8 0 0 .6-1.5.9-3.8.5.4 1.1.7 1.7 1 0 0-.3-.7-.9-1.7 1.2-.1 2.4-.4 3.8-.9-.1.1-1.6-.6-3.8-.9.4-.5.7-1 1-1.7 0 0-.7.2-1.7.9-.1-1.2-.3-2.5-.8-3.8 0 0-.7 1.4-1.1 3.7-.5-.4-1-.7-1.6-1 0 0 .2.7.9 1.7-1.2.1-2.5.3-3.8.8 0 0 1.5.8 3.8 1.1zM154.6-2031c-.6.3-1.2.6-1.8 1 0 0 .8.1 2 .1-.5 1.1-1 2.4-1.3 3.9 0 0 1.4-1 2.9-2.9.3.6.6 1.2 1 1.8 0 0 .1-.8.1-2 1.1.5 2.4 1 3.9 1.2 0 .1-1-1.3-2.8-2.8.6-.2 1.2-.6 1.8-1 0 0-.8-.2-2-.2.6-1.1 1.1-2.4 1.3-3.8 0 0-1.5.9-3 2.7-.2-.6-.5-1.2-.9-1.7 0 0-.2.8-.2 2-1.1-.6-2.4-1.1-3.8-1.3 0 0 .9 1.5 2.8 3zM135.7-1980.8c.2 1.2.6 2.5 1.3 3.9.2-.2.7-1.8.8-4.1l1.8.9s-.3-.8-1.1-1.7c1.3-.2 2.6-.6 3.8-1.2 0 0-1.6-.6-3.9-.8.3-.5.6-1.1.8-1.8 0 0-.7.3-1.7 1-.2-1.3-.6-2.6-1.2-3.8 0 0-.7 1.6-.8 4-.6-.3-1.2-.6-1.8-.8 0 0 .4.7 1.1 1.7-1.2.2-2.5.6-3.9 1.3 0 0 1.7.5 4 .6-.3.6-.6 1.2-.9 1.9 0 0 .7-.4 1.7-1.1zM67.2-1950.4s.4-.5.9-1.3c.5.8 1.2 1.7 2.1 2.5 0 0-.1-1.3-.6-3.1.5.1 1 .1 1.6.1 0 0-.4-.5-1.3-1 .9-.5 1.8-1.2 2.5-2 0 0-1.4 0-3.2.5.1-.5.1-1 .1-1.6 0 0-.5.4-1 1.3-.5-.9-1.2-1.8-2-2.5 0 0 0 1.4.6 3.2-.5-.1-1-.1-1.6-.1 0 0 .5.4 1.3.9-.8.5-1.7 1.2-2.5 2.1 0 0 1.4-.1 3.2-.7-.1.5-.1 1.1-.1 1.7zM77.4-2065.8c.1.7.2 1.4.4 2.1 0 0 .4-.8.7-2 1 .9 2.1 1.7 3.5 2.5.1 0-.5-1.7-1.8-3.7.7-.1 1.4-.2 2.1-.4 0 0-.7-.4-2-.8.9-1 1.8-2.1 2.5-3.4 0 0-1.7.4-3.8 1.8-.1-.7-.2-1.3-.4-2 0 0-.4.7-.8 1.9-1-.9-2.1-1.8-3.4-2.5 0 0 .4 1.8 1.8 3.9-.7.1-1.4.2-2.1.4 0 0 .8.4 2 .7-.9 1-1.7 2.1-2.5 3.5 0 0 1.7-.6 3.8-2zM84.6-1984.5s.6-.4 1.4-1.3c.4 1.1.9 2.3 1.7 3.4-.1.1.2-1.5 0-3.7l1.8.6s-.4-.7-1.2-1.5c1.1-.4 2.3-.9 3.4-1.6 0 0-1.5-.4-3.8-.2.2-.5.4-1.1.6-1.8 0 0-.7.4-1.4 1.2-.4-1.1-.9-2.3-1.6-3.4 0 0-.4 1.6-.2 3.8l-1.8-.6s.4.6 1.3 1.4c-1.1.4-2.3.9-3.4 1.7 0 0 1.6.3 3.8.1-.2.6-.4 1.2-.6 1.9zM205.1-1970.7c-.1 0 0 .1 0 0zM198.2-1972.9c-.5.3-1.1.7-1.6 1.1 0 0 .8 0 1.9-.1-.4 1.1-.7 2.4-.8 3.8 0 0 1.2-1.1 2.5-3 .3.5.7 1.1 1.2 1.6 0 0 0-.8-.1-2 1.1.4 2.4.7 3.7.8-.3-.2-1.3-1.2-2.9-2.2.6-.3 1.1-.7 1.6-1.1 0 0-.8-.1-1.9 0 .4-1.1.8-2.4.9-3.8 0 0-1.3 1-2.6 2.9-.3-.5-.6-1.1-1.1-1.6 0 0-.1.8 0 1.9-1.1-.4-2.4-.8-3.8-.9 0 0 1 1.3 3 2.6zM175-2011.2s1.2 1.1 3.3 2.1c-.5.4-.9.8-1.4 1.4 0 0 .8-.1 1.9-.4-.2 1.2-.3 2.5-.2 3.9 0 0 1-1.3 2-3.4.4.5.8 1 1.4 1.4 0 0-.1-.8-.4-1.9 1.2.2 2.5.3 3.9.2-.1-.2-1.4-1.2-3.4-2.1.5-.4 1-.8 1.4-1.3 0 0-.8 0-1.9.4.2-1.2.4-2.5.2-3.9 0 0-1.1 1.2-2 3.3-.4-.5-.8-.9-1.3-1.4 0 0 0 .8.4 1.9-1.2-.2-2.5-.4-3.9-.2zM326.1-1961.1c-.6.3-1.2.7-1.8 1.2 0 0 .8.1 2.1-.1-.5 1.2-.8 2.6-1 4.1 0 0 1.4-1.2 2.8-3.2.3.6.7 1.2 1.2 1.8 0 0 .1-.9-.1-2.1 1.2.5 2.6.8 4.1 1-.1-.1-1.3-1.4-3.2-2.8.6-.3 1.2-.7 1.8-1.1 0 0-.8-.1-2.1 0 .5-1.2.9-2.6 1.1-4 0 0-1.4 1-2.9 3-.3-.6-.7-1.2-1.1-1.7 0 0-.1.8 0 2.1-1.2-.5-2.6-.9-4-1.1 0 0 1 1.5 3.1 2.9zM459.3-2187.4s.4-.4.7-1.1c.4.7 1 1.4 1.7 2 0 .1-.1-1-.6-2.4.4.1.8.1 1.3.1 0 0-.4-.4-1-.8.7-.4 1.4-.9 2-1.6 0 0-1.1 0-2.5.5.1-.4.1-.8.1-1.3 0 0-.4.4-.8 1-.4-.7-.9-1.4-1.6-2 0 0 0 1.1.5 2.6-.4-.1-.8-.1-1.3-.1 0 0 .4.3 1.1.7-.7.4-1.4 1-2 1.7 0 0 1.1-.1 2.5-.6-.1.4-.1.9-.1 1.3zM517.1-2107.7c-.1.5-.1.9-.1 1.5 0 0 .4-.4.8-1.2.5.7 1.1 1.5 1.8 2.2 0 .1 0-1.1-.6-2.6.5.1.9.1 1.4.1 0 0-.4-.4-1.1-.9.8-.5 1.5-1 2.2-1.8 0 0-1.2 0-2.8.5.1-.4.1-.9.1-1.4 0 0-.4.4-.8 1.1-.5-.8-1-1.5-1.8-2.2 0 0 0 1.2.5 2.8-.4-.1-.9-.1-1.4-.1 0 0 .4.4 1.2.8-.7.5-1.5 1.1-2.2 1.8 0 0 1.2-.1 2.8-.6zM626.5-2218.6c-.1.5-.1 1.1-.1 1.6 0 0 .4-.5.9-1.3.5.8 1.2 1.7 2 2.5.2.3.2-1.1-.4-2.9.5.1 1 .2 1.6.1 0 0-.4-.5-1.3-1 .9-.5 1.8-1.1 2.5-2 0 0-1.3-.1-3.2.5.1-.5.2-1 .1-1.6 0 0-.5.4-1 1.2-.5-.9-1.1-1.8-2-2.5 0 0-.1 1.4.5 3.2-.5-.1-1-.1-1.6-.1 0 0 .5.4 1.3.9-.8.5-1.7 1.2-2.5 2-.1 0 1.4-.1 3.2-.6zM573.1-2124.5c.2-.4.3-.7.4-1.1 0 0-.4.2-1 .7-.2-.8-.5-1.6-.9-2.3 0 0-.3 1-.3 2.5-.4-.2-.7-.3-1.2-.4 0 0 .3.4.8 1-.7.2-1.5.5-2.3 1 0 0 1.1.2 2.5.2-.2.4-.3.8-.4 1.2 0 0 .4-.3 1-.8.2.7.5 1.5 1 2.3-.1 0 .1-1.1.1-2.5.4.2.7.3 1.2.4 0 0-.2-.5-.7-1 .8-.2 1.6-.5 2.3-.9 0 0-1-.3-2.5-.3zM657.5-2248.7s1.4-.3 3.1-1.2c0 .5 0 1.1.2 1.7 0 0 .4-.6.7-1.5.7.8 1.5 1.5 2.5 2.2.1-.1-.2-1.5-1.1-3.2.5 0 1.1 0 1.7-.1 0 0-.5-.4-1.5-.8.8-.7 1.6-1.5 2.2-2.5 0 0-1.4.2-3.1 1.1 0-.5 0-1.1-.1-1.6 0 0-.4.5-.8 1.5-.7-.8-1.5-1.6-2.5-2.2 0 0 .2 1.4 1.1 3.2-.5 0-1.1 0-1.7.2 0 0 .6.4 1.5.7-.8.7-1.5 1.5-2.2 2.5zM635.6-2152.8c-.2.3-.3.7-.4 1.2 0 0 .4-.3.9-.8.2.7.5 1.5 1 2.2.1.1.3-.9.3-2.3.3.2.7.3 1.1.4 0 0-.2-.4-.7-1 .7-.2 1.5-.5 2.2-.9 0 0-1-.3-2.4-.3.2-.3.3-.7.4-1.1 0 0-.4.2-1 .7-.2-.7-.5-1.5-.9-2.2 0 0-.3 1-.3 2.4-.3-.2-.7-.3-1.1-.4 0 0 .3.4.7.9-.7.2-1.5.5-2.2 1 0 0 1 .2 2.4.2zM684.3-2163.9c-.2.3-.4.6-.5.9 0 0 .4-.2.9-.5.1.6.2 1.3.5 2-.1-.1.3-.9.4-2 .3.2.5.4.9.5 0 0-.1-.4-.5-.9.6 0 1.3-.2 2-.4 0 0-.7-.4-1.9-.5.2-.3.4-.5.5-.9 0 0-.4.1-.9.4 0-.6-.2-1.3-.4-2 0 0-.4.8-.6 2-.3-.2-.6-.4-.9-.5 0 0 .2.4.5.9-.6.1-1.3.2-2 .5 0 0 .8.3 2 .5zM623.6-1967.1c-.5.2-1.1.5-1.6.8 0 0 .7.1 1.8.1-.5 1-1 2.1-1.3 3.4 0 0 1.3-.9 2.7-2.5.2.5.5 1.1.8 1.7 0 0 .2-.7.1-1.8 1 .5 2.1 1 3.4 1.3.2.1-.6-1.2-2.2-2.6.5-.2 1.1-.5 1.6-.8 0 0-.7-.2-1.8-.2.6-1 1-2.1 1.3-3.4 0 0-1.3.7-2.8 2.3-.2-.5-.4-1.1-.8-1.6 0 0-.2.7-.2 1.8-1-.6-2.1-1-3.4-1.3 0 0 .7 1.4 2.4 2.8zM467.3-2023.8c-.2-.5-.5-1.1-.9-1.6 0 0-.2.7-.1 1.9-1.1-.5-2.3-.9-3.6-1.1 0 0 .9 1.4 2.7 2.7-.5.3-1.1.6-1.6 1 0 0 .8.1 1.9 0-.5 1.1-.9 2.3-1.1 3.6 0 0 1.3-1 2.6-2.7.3.5.6 1.1 1 1.7 0 0 .1-.8 0-1.9 1.1.5 2.3.9 3.6 1.1.1-.1-.9-1.4-2.6-2.7.6-.2 1.1-.5 1.6-.9 0 0-.7-.2-1.9-.1.5-1.1.9-2.3 1.1-3.6 0 0-1.3.9-2.7 2.6zM459.2-1879.5s.7-.4 1.6-1.2c.3 1.2.7 2.5 1.4 3.8 0 .1.4-1.5.5-3.9.6.3 1.2.6 1.9.8 0 0-.3-.7-1.1-1.7 1.3-.3 2.6-.7 3.8-1.4 0 0-1.6-.6-4-.6.3-.6.6-1.2.8-1.8 0 0-.7.3-1.7 1.1-.3-1.3-.7-2.6-1.4-3.8 0 0-.6 1.6-.6 4.1-.6-.3-1.2-.6-1.9-.8 0 0 .4.7 1.2 1.6-1.2.3-2.5.7-3.8 1.4 0 0 1.7.5 4.1.5-.3.6-.6 1.2-.8 1.9zM270.2-1911.6s-1.7.3-3.8 1.5c0-.7-.1-1.3-.3-2 0 0-.5.7-.9 1.8-.9-1-1.9-1.9-3.2-2.6 0 0 .3 1.7 1.6 3.9-.7 0-1.3.1-2.1.3 0 0 .7.4 1.9.8-.9.9-1.8 1.9-2.6 3.3 0 0 1.7-.5 3.8-1.7 0 .7.1 1.4.3 2.1 0 0 .4-.7.8-1.9.9.9 1.9 1.8 3.3 2.6.1 0-.4-1.7-1.6-3.7.7 0 1.4-.1 2.1-.3 0 0-.7-.5-1.9-.9 1-.9 1.9-1.9 2.6-3.2zM158.3-1835.8c.3 1.6.8 3.2 1.6 4.9 0 0 .6-2.1.8-5 .7.4 1.5.8 2.3 1.1 0 0-.4-1-1.3-2.2 1.6-.2 3.3-.7 4.9-1.5 0 0-2-.8-5-1 .4-.7.8-1.4 1.1-2.3 0 0-1 .4-2.2 1.3-.2-1.6-.7-3.3-1.5-4.9 0 0-.9 2-1 5.1-.7-.4-1.5-.8-2.3-1.1 0 0 .5.9 1.4 2.1-1.6.3-3.2.8-4.9 1.6 0 0 2.1.7 5.1.9-.4.7-.8 1.5-1.1 2.4 0 0 .9-.5 2.1-1.4zM110.3-1791.9s1.7-.4 3.9-1.4c0 .7 0 1.4.2 2.1 0 0 .5-.7.9-1.8.8 1 1.8 1.9 3.1 2.8 0-.2-.4-1.9-1.4-4.1.7 0 1.4 0 2.1-.1 0 0-.7-.5-1.8-1 1-.8 2-1.8 2.8-3 0 0-1.7.2-3.9 1.3 0-.7 0-1.3-.1-2 0 0-.5.6-1 1.8-.8-1-1.8-2-3-2.8 0 0 .2 1.8 1.3 4-.7 0-1.3 0-2.1.2 0 0 .7.5 1.8.9-1 .8-1.9 1.8-2.8 3.1zM184.1-1748.7s-1.9.4-4.2 1.7c0-.7-.1-1.4-.3-2.2 0 0-.5.7-.9 2-1-1.1-2.1-2.1-3.5-2.9 0 0 .4 1.9 1.7 4.2-.7 0-1.5.1-2.3.3 0 0 .8.5 2.1.9-1 1-2 2.1-2.8 3.6 0 0 1.9-.5 4.2-1.9 0 .7.1 1.5.4 2.3 0 0 .5-.8.9-2.1 1 1 2 1.9 3.5 2.7-.3-.4-.8-1.9-1.9-3.8.7 0 1.5-.1 2.2-.3 0 0-.8-.5-2-1 1.1-1 2.1-2.1 2.9-3.5zM183-1740l-.1-.1c0 .1 0 .2.1.1zM89.3-1619.3c.5 0 1.1-.1 1.6-.2 0 0-.5-.4-1.4-.7.8-.7 1.5-1.5 2.1-2.5 0 0-1.3.2-3 1.1 0-.5-.1-1-.2-1.6 0 0-.4.5-.7 1.4-.7-.8-1.5-1.5-2.5-2.1 0 0 .2 1.4 1.2 3.1-.5 0-1 .1-1.6.2 0 0 .6.3 1.5.7-.7.7-1.5 1.5-2.1 2.5 0 0 1.4-.3 3-1.3 0 .5.1 1.1.2 1.6 0 0 .3-.6.7-1.5.7.7 1.5 1.4 2.4 2-.2-.2-.5-1.4-1.2-2.7zM90.6-1616.5c-.1 0-.1.1 0 0zM54.6-1661.3c-.1-.6-.2-1.2-.4-1.7 0 0-.4.6-.6 1.7-.8-.8-1.8-1.5-3-2 0 0 .4 1.5 1.7 3.3-.6.1-1.2.2-1.8.4 0 0 .7.3 1.7.5-.7.8-1.4 1.8-2 3.1 0 0 1.5-.6 3.2-1.8.1.6.2 1.2.4 1.8 0 0 .3-.7.5-1.7.8.7 1.8 1.4 3.1 2 0-.2-.5-1.6-1.7-3.3.6-.1 1.2-.2 1.8-.4 0 0-.6-.4-1.7-.6.8-.8 1.5-1.8 2-3 0 0-1.5.4-3.2 1.7zM120.9-1531.6s-1.2-.9-3.3-1.4c.4-.4.8-.9 1.1-1.4 0 0-.7.1-1.7.6.1-1.1 0-2.4-.3-3.6 0 0-.9 1.3-1.5 3.4-.4-.4-.9-.8-1.5-1.1 0 0 .2.7.7 1.7-1.1 0-2.3.1-3.6.4 0 0 1.4.8 3.4 1.3-.4.4-.8.9-1.1 1.5 0 0 .7-.2 1.7-.7 0 1.1.1 2.3.4 3.6 0 0 .8-1.4 1.3-3.4.4.4.9.8 1.4 1.1 0 0-.1-.7-.6-1.7 1.1.1 2.4 0 3.6-.3zM3.7-1448.9c.7-.8 1.3-1.7 1.7-2.7 0 0-1.3.4-2.8 1.5-.1-.5-.2-1-.4-1.5 0 0-.3.6-.5 1.5-.8-.7-1.7-1.3-2.7-1.7 0 0 .4 1.3 1.6 2.8-.5.1-1 .2-1.6.4 0 0 .6.3 1.5.4-.6.8-1.2 1.7-1.7 2.7 0 0 1.3-.5 2.8-1.6.1.5.2 1 .4 1.6 0 0 .3-.6.4-1.5.8.6 1.7 1.2 2.7 1.7.2 0-.3-1.3-1.4-2.7.5-.1 1-.2 1.5-.4 0 0-.6-.3-1.5-.5zM123.9-1476.9c.7-.3 1.3-.7 2-1.2 0 0-.9-.2-2.3-.1.6-1.3 1.1-2.8 1.3-4.5 0 0-1.7 1.1-3.3 3.4-.3-.7-.7-1.3-1.2-2 0 0-.1.9 0 2.3-1.3-.6-2.8-1-4.6-1.2 0 0 1.3 1.6 3.5 3.2-.7.3-1.4.7-2 1.3 0 0 1 .1 2.3 0-.6 1.3-1 2.8-1.2 4.5-.1 0 1.4-1.3 3-3.4.3.7.7 1.4 1.2 2 0 0 .2-.9.1-2.3 1.3.6 2.8 1.1 4.5 1.3 0 0-1.1-1.6-3.3-3.3zM162-1549.1c.5-.2.9-.4 1.4-.7 0 0-.6-.2-1.5-.2.5-.9.9-1.8 1.1-2.9 0 0-1.2.7-2.4 2.1-.2-.5-.4-.9-.7-1.4 0 0-.1.6-.1 1.5-.9-.4-1.8-.8-3-1 0 0 .8 1.1 2.2 2.3-.5.2-.9.4-1.4.7 0 0 .6.1 1.6.1-.4.9-.8 1.8-1 2.9.1-.2 1-.9 2.1-2.1.2.5.4.9.7 1.4 0 0 .2-.6.2-1.5.9.5 1.8.9 2.9 1.1 0 0-.7-1.1-2.1-2.3zM158.2-1545.6zM249.3-1820s-1.4.6-3.2 1.9c-.3-2.3-1-4.8-2.1-7.2 0 0-1.3 2.9-1.6 7.4-1-.6-2.1-1.2-3.4-1.6 0 0 .7 1.4 2 3.1-2.3.4-4.7 1.1-7.2 2.3 0 0 3.1 1 7.4 1.3-.6 1-1.2 2.2-1.7 3.5 0 0 1.4-.7 3.1-2.1.4 2.3 1.1 4.7 2.3 7.2.1 0 1.2-3 1.5-7.3 1 .6 2.1 1.2 3.3 1.7 0 0-.6-1.4-1.9-3.2 2.3-.3 4.8-1 7.2-2.1 0 0-2.9-1.2-7.3-1.6.6-1 1.2-2.1 1.6-3.3zM317.1-1948s.8 0 2.1-.1c-.4 1.2-.8 2.6-.9 4.1 0 0 1.3-1.2 2.7-3.2.3.6.7 1.2 1.2 1.8 0 0 0-.9-.1-2.1 1.2.4 2.6.8 4.1.9.2 0-1-1.3-3-2.7.6-.3 1.2-.7 1.7-1.2 0 0-.8-.1-2.1 0 .5-1.2.8-2.6.9-4.1 0 0-1.4 1.1-2.8 3.1-.3-.6-.7-1.2-1.2-1.7 0 0-.1.8 0 2.1-1.2-.5-2.6-.8-4.1-.9 0 0 1.1 1.4 3.2 2.8-.6.3-1.2.7-1.7 1.2zM348.5-1695.1s.7-.1 1.8-.5c-.1 1.1-.2 2.3 0 3.7.2.1 1.1-1.2 1.8-3.1.4.4.8.9 1.3 1.2 0 0-.1-.7-.4-1.8 1.1.2 2.4.2 3.6 0 0 0-1.2-1-3.2-1.8.4-.4.9-.8 1.2-1.3 0 0-.7.1-1.7.4.2-1.1.2-2.4 0-3.6 0 0-1 1.2-1.8 3.2-.4-.4-.8-.8-1.4-1.2 0 0 .1.7.5 1.7-1.1-.1-2.3-.2-3.7 0 0 0 1.3.9 3.3 1.7-.4.4-.9.8-1.3 1.4zM443-1718v-.1c-.1.1-.1.1 0 .1zM445.8-1719.4s.1-.7-.1-1.6c1 .3 2.1.5 3.3.6 0 0-.9-1.1-2.6-2 .4-.3.9-.6 1.3-1 0 0-.7-.1-1.6.1.3-1 .5-2.1.6-3.3 0 0-1.1.9-2.1 2.6-.3-.4-.6-.9-1-1.3 0 0 0 .7.2 1.6-1-.3-2.1-.5-3.3-.5 0 0 1 1 2.7 2-.4.3-.9.6-1.3 1.1 0 0 .7 0 1.6-.2-.3 1-.5 2-.5 3.2.1-.3 1-1.2 1.8-2.6.3.5.6.9 1 1.3zM296.2-1521.3c.4-.6.7-1.2.9-1.8 0 0-.8.3-1.8 1-.2-1.3-.5-2.7-1.2-4 0 0-.7 1.6-.9 4.1-.6-.3-1.2-.7-1.9-.9 0 0 .4.8 1.1 1.7-1.3.2-2.6.6-4 1.2 0 0 1.7.6 4.1.8-.3.6-.7 1.2-.9 1.9 0 0 .8-.4 1.7-1.1.2 1.3.6 2.6 1.2 4 .2.2.8-1.5.9-3.9.6.4 1.2.7 1.8.9 0 0-.3-.8-1-1.8 1.3-.2 2.6-.5 4-1.2 0 0-1.6-.7-4-.9zM390-1692.6s-.7.1-1.7.4c.2-1.1.2-2.3 0-3.5 0 0-1 1.1-1.7 3.1-.4-.4-.8-.8-1.3-1.2 0 0 .1.7.5 1.7-1.1-.1-2.2-.2-3.5 0 0 0 1.2.9 3.1 1.6-.4.4-.8.8-1.2 1.3 0 0 .7-.1 1.7-.5-.1 1.1-.2 2.2 0 3.5-.1.1.8-1.1 1.5-3 .4.4.8.8 1.3 1.2 0 0-.1-.7-.4-1.7 1.1.2 2.3.2 3.5 0 0 0-1.1-.9-3-1.7l1.2-1.2zM365.3-1638.4s-.8-.3-2-.4c.7-1.1 1.3-2.3 1.7-3.7 0 0-1.6.7-3.3 2.5-.2-.6-.4-1.2-.8-1.9 0 0-.2.8-.3 2-1.1-.7-2.3-1.3-3.7-1.7 0 0 .9 1.5 2.5 3.2-.6.2-1.3.4-1.9.8 0 0 .8.2 2 .3-.7 1.1-1.3 2.3-1.7 3.7-.1.2 1.4-.6 3.1-2.3.2.6.4 1.3.8 1.9 0 0 .3-.8.4-2 1.1.7 2.3 1.3 3.7 1.7 0 0-.7-1.6-2.4-3.3.6-.2 1.2-.4 1.9-.8zM485.1-1822.8s-1.5-.6-3.8-.8c.3-.5.6-1.1.8-1.7 0 0-.7.3-1.6 1-.2-1.2-.5-2.5-1.1-3.7 0 0-.6 1.5-.8 3.9-.5-.3-1.1-.6-1.8-.8 0 0 .4.7 1.1 1.6-1.2.2-2.4.6-3.7 1.2 0 0 1.6.5 3.9.6-.3.5-.6 1.1-.8 1.8 0 0 .7-.4 1.6-1.1.2 1.2.6 2.4 1.2 3.7 0 .1.5-1.4.6-3.7.5.3 1.1.6 1.7.8 0 0-.3-.7-1-1.7 1.2-.2 2.5-.5 3.7-1.1zM476.1-1567.7c.5-.4 1.1-.8 1.6-1.3 0 0-.8 0-2 .2.4-1.3.6-2.6.6-4.1 0 0-1.3 1.2-2.5 3.4-.4-.5-.8-1.1-1.3-1.6 0 0 0 .8.3 2-1.2-.3-2.6-.6-4.1-.5 0 0 1.3 1.2 3.4 2.4-.6.4-1.1.8-1.6 1.4 0 0 .9 0 2.1-.3-.3 1.2-.6 2.5-.5 4 .2-.4 1.1-1.5 2.1-3.2.4.6.8 1.1 1.3 1.6 0 0 0-.8-.2-2.1 1.3.4 2.6.6 4.1.6 0 0-1.2-1.3-3.3-2.5zM472.1-1562v-.1c-.1.1-.1.1 0 .1zM550.3-1577.4s-.8.2-1.9.9c-.1-1.3-.3-2.7-.8-4.1 0 0-.9 1.6-1.3 4-.5-.4-1.1-.8-1.8-1.1 0 0 .3.8 1 1.8-1.3.1-2.6.4-4.1.9 0 0 1.6.7 4 1.1-.4.5-.8 1.1-1.1 1.8 0 0 .8-.3 1.8-1 .1 1.3.4 2.6.9 4.1 0 0 .7-1.6 1.1-3.9.5.4 1.1.8 1.8 1.1 0 0-.2-.8-.9-1.9 1.3-.1 2.7-.3 4.1-.8 0 0-1.5-.8-3.9-1.2.4-.5.8-1.1 1.1-1.7zM603.9-1497.5c.2-.6.4-1.3.5-2 0 0-.7.5-1.5 1.4-.4-1.2-1.1-2.5-1.9-3.7 0 0-.4 1.7 0 4.2-.6-.2-1.3-.4-2-.5 0 0 .5.7 1.4 1.5-1.2.5-2.4 1.1-3.7 2 0 0 1.8.2 4.2-.1-.2.6-.4 1.3-.5 2.1 0 0 .7-.5 1.5-1.5.5 1.2 1.1 2.4 2 3.7-.1 0 .2-1.8-.2-4.1.6.2 1.3.4 2 .5 0 0-.5-.7-1.4-1.5 1.2-.4 2.5-1.1 3.7-1.9 0 0-1.8-.4-4.1-.1zM479.6-1625.1c.5-.2 1.1-.5 1.6-.9 0 0-.7-.2-1.8-.2.5-1 1-2.2 1.2-3.5 0 0-1.3.8-2.7 2.5-.2-.5-.5-1.1-.9-1.6 0 0-.1.7-.1 1.8-1-.5-2.2-.9-3.5-1.1 0 0 .9 1.3 2.6 2.6-.5.2-1.1.5-1.7.9 0 0 .7.1 1.8.1-.5 1-.9 2.2-1.1 3.5-.1.1 1.2-.8 2.5-2.4.2.5.5 1.1.9 1.6 0 0 .2-.7.2-1.8 1 .5 2.2 1 3.5 1.2 0 0-.8-1.3-2.5-2.7zM629.8-1620.2s-.8 0-2 .4c.3-1.3.4-2.7.2-4.1 0 0-1.2 1.3-2.2 3.6-.4-.5-.9-1-1.5-1.5 0 0 .1.8.5 2-1.2-.2-2.6-.3-4.1-.2 0 0 1.4 1.1 3.6 2.1-.5.4-1 .9-1.5 1.5 0 0 .8-.1 2-.5-.2 1.2-.3 2.6-.2 4.1.1.1 1.2-1.3 2.1-3.5.4.5.9 1 1.4 1.5 0 0 0-.8-.4-2 1.3.3 2.7.4 4.1.2 0 0-1.3-1.2-3.5-2.2l1.5-1.4zM671.5-1624.5c.3-.4.6-.8.8-1.3 0 0-.6.2-1.4.6 0-1-.2-2-.5-3 0 0-.7 1.1-1 3-.4-.3-.8-.6-1.3-.8 0 0 .2.6.7 1.4-.9 0-2 .2-3.1.6 0 0 1.2.6 3 .9-.3.4-.6.8-.9 1.3 0 0 .6-.2 1.4-.7 0 .9.2 2 .6 3.1 0-.1.5-1.2.9-3 .4.3.8.6 1.3.8 0 0-.2-.6-.6-1.4 1 0 2-.2 3-.5 0 0-1.1-.7-2.9-1zM586.8-1736.4s-.8.1-1.8.6c.1-1.2 0-2.5-.3-3.8 0 0-1 1.3-1.6 3.6-.4-.4-.9-.8-1.5-1.2 0 0 .2.8.7 1.8-1.2 0-2.5 0-3.9.4 0 0 1.4.8 3.6 1.5-.4.4-.8 1-1.2 1.6 0 0 .8-.2 1.8-.7 0 1.2 0 2.5.4 3.9-.1-.1.7-1.5 1.4-3.7.4.4.9.8 1.5 1.2 0 0-.1-.8-.6-1.8 1.2.1 2.5 0 3.8-.3 0 0-1.3-.9-3.5-1.6.4-.4.8-.9 1.2-1.5zM646.7-1664.6c.2.5.5 1.1.9 1.6 0 0 .2-.7.2-1.8 1 .5 2.2 1 3.4 1.2 0 0-.8-1.3-2.4-2.7.5-.2 1.1-.5 1.6-.8 0 0-.7-.2-1.8-.2.5-1 1-2.2 1.2-3.4 0 0-1.3.8-2.7 2.5-.2-.5-.5-1.1-.9-1.6 0 0-.1.7-.1 1.8-1-.5-2.2-.9-3.5-1.1 0 0 .9 1.3 2.6 2.6-.5.2-1.1.5-1.6.9 0 0 .7.1 1.8.1-.5 1-.9 2.1-1.1 3.4.2-.3 1.2-1.1 2.4-2.5zM644.3-1662v-.1c-.1.1-.1.1 0 .1zM592.4-1804.5s-1.3.2-3.1 1c0-.5 0-1-.1-1.6 0 0-.4.5-.8 1.4-.6-.8-1.4-1.6-2.4-2.2 0 0 .2 1.4 1 3.1-.5 0-1.1 0-1.6.1 0 0 .5.4 1.4.7-.8.6-1.5 1.4-2.2 2.4 0 0 1.4-.3 3.1-1.1 0 .5 0 1.1.1 1.7 0 0 .4-.6.7-1.5.6.8 1.4 1.5 2.4 2.2.2.1 0-1.2-.9-2.9.5 0 1.1 0 1.6-.1 0 0-.5-.4-1.4-.8.8-.6 1.6-1.4 2.2-2.4zM568.9-1718.8c.5-.3 1-.7 1.4-1.1 0 0-.7 0-1.8.2.3-1.1.6-2.3.5-3.6 0 0-1.2 1-2.2 3-.3-.5-.7-1-1.2-1.4 0 0 0 .7.3 1.8-1.1-.3-2.3-.5-3.6-.5 0 0 1.1 1.1 3 2.1-.5.3-1 .7-1.4 1.2 0 0 .7 0 1.8-.3-.3 1.1-.5 2.3-.5 3.6 0 0 1.1-1.1 2.1-2.9.3.5.7 1 1.1 1.4 0 0 0-.7-.2-1.8 1.1.3 2.3.6 3.6.5 0 0-1-1.1-2.9-2.2zM774.7-1835.8s-1.5.2-3.4 1.1c0-.6 0-1.2-.1-1.8 0 0-.4.6-.9 1.6-.7-.9-1.6-1.8-2.7-2.5 0 0 .2 1.5 1.2 3.5-.6 0-1.2 0-1.8.2 0 0 .6.4 1.6.8-.9.7-1.7 1.6-2.5 2.7 0 0 1.5-.3 3.4-1.3 0 .6 0 1.2.2 1.9 0 0 .4-.6.8-1.6.7.9 1.6 1.7 2.7 2.5 0 0-.3-1.5-1.2-3.4.6 0 1.2 0 1.8-.1 0 0-.6-.5-1.6-.9.9-.7 1.8-1.6 2.5-2.7zM612.7-1694.9c.2.6.5 1.3.9 1.9 0 0 .2-.8.3-2.1 1.2.7 2.5 1.2 4 1.5 0 0-.9-1.6-2.8-3.3.6-.2 1.3-.5 1.9-.9 0 0-.8-.2-2.1-.3.7-1.2 1.2-2.5 1.6-4 0 0-1.6.9-3.3 2.8-.2-.6-.6-1.3-1-1.9 0 0-.2.9-.2 2.1-1.2-.6-2.5-1.2-4.1-1.5 0 0 1 1.5 2.9 3.2-.6.2-1.3.6-2 1 0 0 .9.2 2.1.2-.6 1.2-1.1 2.5-1.5 4.1.1 0 1.6-1 3.3-2.8zM867.6-1893.5c-.1-.6-.3-1.3-.6-2 0 0-.4.7-.6 2-1-.8-2.2-1.6-3.5-2.2 0 0 .6 1.7 2.1 3.6-.6.1-1.3.3-2 .6 0 0 .8.3 2 .5-.8 1-1.5 2.2-2.1 3.6 0 0 1.6-.7 3.5-2.2.1.7.3 1.3.6 2 0 0 .3-.8.5-2 1 .8 2.2 1.5 3.6 2.1.1 0-.6-1.6-2-3.4.7-.1 1.3-.3 2-.6 0 0-.8-.4-2-.6.8-1 1.6-2.2 2.1-3.5 0 0-1.6.6-3.6 2.1zM755.2-1846s.3 1.4 1.5 3.1c-.5.1-1.1.2-1.7.4 0 0 .6.3 1.6.6-.7.8-1.4 1.7-2 2.8 0 0 1.4-.5 3.1-1.6.1.5.2 1.1.4 1.7 0 0 .3-.6.6-1.6.8.7 1.7 1.4 2.8 2-.1 0-.5-1.3-1.6-3 .5 0 1.1-.1 1.7-.3 0 0-.6-.4-1.6-.6.8-.8 1.5-1.7 2-2.8 0 0-1.4.3-3.1 1.4 0-.5-.1-1.1-.3-1.7 0 0-.4.6-.6 1.6-.8-.8-1.7-1.5-2.8-2zM712.2-2006.9c-.4.2-.7.5-1 .9 0 0 .5 0 1.3-.2-.2.8-.3 1.7-.3 2.7 0-.2.7-1 1.5-2.3.2.4.5.7.8 1 0 0 0-.5-.1-1.3.8.2 1.7.4 2.6.4 0 0-.7-.8-2.1-1.6.4-.2.7-.5 1-.8 0 0-.5 0-1.3.1.2-.8.4-1.7.4-2.6 0 0-.8.8-1.6 2.2-.2-.3-.5-.7-.9-1 0 0 0 .5.2 1.3-.8-.2-1.7-.3-2.7-.3 0 0 .8.8 2.2 1.5zM845-2085.3s.8-.2 2-.7c-.1 1.3-.1 2.7.2 4.2.1-.2 1-1.6 1.8-3.9.5.5 1 1 1.6 1.4 0 0-.1-.8-.6-2 1.3.1 2.7.1 4.1-.1 0 0-1.4-1.1-3.7-1.9.5-.4.9-1 1.3-1.5 0 0-.8.1-2 .6.1-1.3.1-2.7-.1-4.1 0 0-1.1 1.4-1.9 3.8-.5-.5-1-.9-1.6-1.3 0 0 .2.8.7 2-1.3-.1-2.7-.1-4.2.2 0 0 1.5 1 3.8 1.7-.5.5-.9 1-1.4 1.6zM646.7-2179c-.7.2-1.4.5-2.1 1 0 0 1 .2 2.3.1-.1.3-.3.7-.4 1.1 0 0 .4-.3.9-.8.2.7.5 1.4 1 2.1.1.2.2-.7.1-2.1.3.2.7.3 1.1.4 0 0-.2-.4-.7-.9.7-.2 1.4-.5 2.1-1 0 0-.9-.3-2.3-.2.2-.3.3-.7.4-1.1 0 0-.4.2-.9.7-.2-.7-.5-1.4-1-2.1 0 0-.3 1-.2 2.3-.3-.1-.7-.3-1.1-.4 0 0 .3.4.8.9zM570-2161.5c-.2.5-.4 1-.6 1.6 0 0 .6-.4 1.3-1.1.3 1 .7 2 1.4 3.1.2-.1.5-1.5.3-3.4.5.2 1 .4 1.6.6 0 0-.3-.6-1-1.3 1-.3 2.1-.7 3.1-1.3 0 0-1.4-.4-3.4-.3.2-.5.4-1 .5-1.6 0 0-.6.3-1.3 1-.3-1-.7-2.1-1.4-3.1 0 0-.4 1.4-.3 3.4-.5-.2-1-.4-1.6-.5 0 0 .4.6 1.1 1.3-1 .3-2 .7-3.1 1.4 0 0 1.4.3 3.4.2zM691.7-1953s.6.1 1.5.2c-.5.8-.9 1.7-1.2 2.8 0 0 1.1-.7 2.3-1.9.2.5.3.9.6 1.4 0 0 .1-.6.2-1.5.8.5 1.7.9 2.8 1.2 0-.2-.6-1.2-1.9-2.4.5-.1.9-.3 1.4-.6 0 0-.6-.2-1.5-.2.5-.8.9-1.7 1.2-2.7 0 0-1.1.6-2.3 1.8-.1-.4-.3-.9-.6-1.3 0 0-.2.6-.2 1.4-.8-.5-1.7-.9-2.7-1.2 0 0 .6 1.1 1.8 2.4-.4.1-.9.3-1.4.6zM465.8-2108.7c.1.5.2 1 .5 1.5 0 0 .2-.6.4-1.5.8.6 1.6 1.1 2.7 1.6 0-.1-.5-1.3-1.6-2.7.5-.1 1-.2 1.5-.4 0 0-.6-.3-1.5-.4.6-.8 1.2-1.6 1.6-2.7 0 0-1.2.4-2.7 1.6-.1-.5-.2-1-.4-1.5 0 0-.3.6-.4 1.5-.8-.6-1.6-1.2-2.7-1.6 0 0 .4 1.3 1.6 2.7-.5.1-1 .2-1.5.5 0 0 .6.2 1.5.4-.6.8-1.1 1.7-1.6 2.7 0 0 1.2-.5 2.6-1.7zM721.2-1869.5c-.4.2-.8.4-1.2.7 0 0 .6.1 1.4 0-.4.8-.6 1.7-.8 2.8 0 0 1-.8 2-2.1.2.4.4.8.8 1.3 0 0 .1-.6 0-1.4.8.4 1.7.6 2.8.8 0-.1-.8-1.1-2.1-2.1.4-.2.8-.4 1.2-.7 0 0-.6-.1-1.4-.1.4-.8.7-1.7.8-2.7 0 0-1 .7-2 2-.2-.4-.4-.8-.7-1.2 0 0-.1.6-.1 1.4-.8-.4-1.7-.7-2.7-.8 0 0 .8 1 2 2.1zM556.3-2039.7s-.8.2-1.9.8l-.1-1s-.2.3-.4.9c-.4-.5-1-.9-1.6-1.3 0 0 .2.9.8 1.9-.3 0-.7.1-1 .2 0 0 .4.2.9.4-.5.4-.9 1-1.3 1.6 0 0 .9-.2 1.9-.8 0 .3.1.7.2 1 0 0 .2-.4.4-.9.4.5 1 .9 1.6 1.3 0-.1-.3-1-.9-2 .3 0 .7 0 1-.1 0 0-.3-.2-.9-.4.5-.4.9-1 1.3-1.6zM665.4-2022v-.1c-.1 0-.1.1 0 .1zM664-2027.6s.2.5.5 1.2c-.8 0-1.7.1-2.6.4 0 0 1 .5 2.5.8-.3.3-.5.7-.7 1.1 0 0 .5-.2 1.2-.5 0 .8.1 1.6.4 2.5 0-.4.4-1.3.7-2.5.3.3.7.5 1.1.7 0 0-.1-.5-.5-1.2.8 0 1.7-.1 2.6-.3 0 0-.9-.6-2.4-.9.3-.3.5-.6.7-1 0 0-.5.1-1.2.5 0-.8-.1-1.7-.3-2.6 0 0-.6.9-.9 2.5-.3-.3-.7-.5-1.1-.7zM704.7-1911.7c.9.1 2 .1 3.1 0-.1-.1-1.1-.8-2.8-1.5.4-.3.7-.7 1.1-1.1 0 0-.6 0-1.5.4.1-1 .2-2 0-3.1 0 0-.8 1-1.5 2.7-.3-.4-.7-.7-1.1-1 0 0 0 .6.4 1.5-1-.1-2-.2-3.1 0 0 0 1 .9 2.7 1.5-.4.3-.7.7-1 1.1 0 0 .6-.1 1.5-.4-.1.9-.1 2 0 3.1 0 0 .8-1.1 1.4-2.8.3.4.7.7 1.2 1.1 0 0-.1-.6-.4-1.5zM609-2021.9c-.1.3-.1.7-.1 1.1 0 0 .3-.3.7-.8.3.6.7 1.2 1.3 1.8 0-.2 0-1.1-.3-2.3.3.1.7.1 1.1.1 0 0-.3-.3-.8-.7.6-.3 1.2-.7 1.8-1.2 0 0-.9-.1-2.1.2.1-.3.1-.7.1-1 0 0-.3.3-.7.8-.3-.6-.7-1.2-1.2-1.8 0 0-.1.9.2 2.2-.3-.1-.7-.1-1.1-.1 0 0 .3.3.8.7-.6.3-1.2.7-1.8 1.3.1 0 1 0 2.1-.3zM633.5-1873.2s.7.2 1.9.4c-.7 1-1.3 2.1-1.7 3.5 0 0 1.5-.8 3.1-2.3.2.6.4 1.2.7 1.8 0 0 .2-.8.4-1.9 1 .7 2.1 1.3 3.5 1.7-.2.1-.9-1.4-2.4-3 .6-.1 1.2-.3 1.8-.6 0 0-.7-.3-1.9-.4.7-1 1.3-2.1 1.8-3.4 0 0-1.5.6-3.2 2.1-.1-.6-.3-1.2-.6-1.8 0 0-.3.7-.4 1.8-1-.7-2.1-1.3-3.4-1.8 0 0 .6 1.5 2.2 3.2-.6.2-1.3.4-1.8.7zM486-1923.1c-.6-.1-1.3-.1-2-.1 0 0 .6.5 1.6 1.1-1 .6-2.1 1.4-3 2.5 0 0 1.7-.1 3.9-.8-.1.6-.2 1.3-.1 2 0 0 .5-.6 1.1-1.6.6 1 1.4 2.1 2.5 3-.1.1-.2-1.6-.9-3.7.6.1 1.3.2 1.9.1 0 0-.5-.6-1.5-1.2 1.1-.6 2.1-1.4 3.1-2.4 0 0-1.6 0-3.8.7.1-.6.2-1.2.1-1.9 0 0-.6.5-1.2 1.5-.6-1.1-1.4-2.1-2.4-3.1 0 0 0 1.7.7 3.9zM654.9-1846c0-.5-.1-1-.3-1.6 0 0-.4.5-.7 1.5-.7-.7-1.6-1.4-2.6-2 0 0 .3 1.4 1.3 3-.5 0-1 .1-1.6.3 0 0 .6.3 1.5.6-.7.7-1.4 1.6-2 2.6 0 0 1.3-.4 3-1.4 0 .5.1 1.1.3 1.6 0 0 .3-.6.6-1.5.7.7 1.6 1.4 2.6 2 .1.1-.3-1.2-1.2-2.8.5 0 1.1-.1 1.6-.3 0 0-.6-.4-1.5-.7.7-.7 1.4-1.6 2-2.6 0 0-1.3.3-3 1.3zM599.9-1781.1s.5-.6 1-1.5c.6.8 1.3 1.7 2.2 2.5-.2-.5-.4-1.7-1-3.2.6.1 1.1.1 1.8.1 0 0-.5-.5-1.4-1 .9-.6 1.9-1.3 2.7-2.3 0 0-1.5 0-3.4.7.1-.6.1-1.1.1-1.7 0 0-.5.5-1 1.4-.6-.9-1.3-1.9-2.3-2.7 0 0 0 1.5.8 3.5-.6-.1-1.1-.1-1.8 0 0 0 .6.5 1.5.9-.9.6-1.8 1.4-2.7 2.4 0 0 1.5-.1 3.5-.9-.1.6-.1 1.2 0 1.8zM603.3-1779.9c-.1-.1-.2-.1-.2-.2l.2.2zM472.8-1693.7c.4-.2.8-.4 1.2-.7 0 0-.6-.1-1.4 0 .4-.8.7-1.8.8-2.8 0 0-1 .7-2.1 2.1-.2-.4-.5-.8-.8-1.2 0 0-.1.6 0 1.4-.8-.3-1.8-.6-2.8-.8 0 0 .8 1 2.1 2-.4.2-.8.5-1.3.8 0 0 .6.1 1.5 0-.3.8-.6 1.8-.8 2.8.1-.1 1.1-.9 2.1-2.2.2.4.4.8.7 1.2 0 0 .1-.6 0-1.4.8.4 1.8.7 2.8.8 0 0-.7-1-2-2zM325.9-1801.4c.2-.4.3-.8.4-1.3 0 0-.5.3-1 .9-.3-.8-.7-1.7-1.3-2.5 0 0-.3 1.2-.1 2.8-.4-.2-.9-.3-1.4-.4 0 0 .3.5 1 1-.8.3-1.7.7-2.5 1.3 0 0 1.2.2 2.8 0-.2.4-.3.9-.4 1.4 0 0 .5-.3 1-1 .3.8.7 1.7 1.3 2.5.1.2.3-1 .1-2.6.4.2.9.3 1.3.4 0 0-.3-.5-.9-1.1.8-.3 1.7-.7 2.5-1.3 0 0-1.1-.3-2.8-.1zM381.4-1738.3c.1.9.4 1.8.9 2.8-.1 0 .3-1.2.4-2.8.4.3.8.5 1.3.7 0 0-.2-.6-.7-1.3.9-.1 1.9-.4 2.8-.8 0 0-1.1-.5-2.8-.6.3-.4.5-.8.6-1.3 0 0-.5.2-1.2.7-.1-.9-.4-1.9-.8-2.8 0 0-.5 1.1-.6 2.9-.4-.2-.8-.5-1.3-.6 0 0 .3.5.8 1.2-.9.1-1.8.4-2.8.9 0 0 1.2.4 2.9.5-.2.4-.5.8-.7 1.3 0 0 .5-.3 1.2-.8zM361.9-1680c.5-.3 1-.7 1.5-1.2 0 0-.8-.1-1.9.2.4-1.2.6-2.5.6-3.9 0 0-1.3 1.1-2.4 3.1-.3-.5-.7-1-1.2-1.5 0 0 0 .8.3 1.9-1.2-.3-2.5-.5-3.9-.6 0 0 1.2 1.2 3.2 2.3-.5.3-1.1.8-1.6 1.3 0 0 .8 0 1.9-.3-.3 1.2-.5 2.5-.5 3.9-.1.1 1.1-1 2.2-3 .3.5.7 1.1 1.2 1.5 0 0 .1-.8-.2-1.9 1.2.4 2.5.6 3.9.6 0 0-1.1-1.2-3.1-2.4zM327.6-1698.3s-1.3-1.1-3.5-1.9c.5-.4.9-.9 1.3-1.5 0 0-.8.1-1.9.5.2-1.3.2-2.6 0-4 0 0-1.1 1.3-1.9 3.6-.4-.5-.9-.9-1.5-1.3 0 0 .1.8.6 1.9-1.2-.1-2.6-.1-4 .1 0 0 1.4 1 3.6 1.8-.5.4-.9.9-1.4 1.5 0 0 .8-.1 1.9-.6-.1 1.2-.1 2.6.1 4-.1.1.9-1.3 1.7-3.5.4.5.9.9 1.5 1.3 0 0-.1-.8-.5-1.9 1.3.2 2.6.2 4 0zM294.7-1654.9c-.1-.7-.2-1.5-.4-2.3 0 0-.5.8-.9 2.1-1-1-2.3-2-3.8-2.8 0 0 .5 2 2 4.3-.7.1-1.5.2-2.3.5 0 0 .9.4 2.2.8-1 1-2 2.3-2.8 3.8 0 0 1.9-.6 4.2-2.1.1.8.2 1.5.5 2.4 0 0 .4-.9.8-2.2 1 1 2.3 1.9 3.8 2.8.1 0-.6-1.9-2-4.2.8-.1 1.5-.2 2.3-.4 0 0-.8-.5-2.2-.9 1-1 2-2.3 2.8-3.8 0 0-1.9.5-4.2 2zM212.3-1630c.2.6.5 1.3.9 1.9 0 0 .2-.8.2-2.1 1.1.6 2.4 1.1 3.9 1.5.2 0-.8-1.4-2.6-3 .6-.2 1.3-.5 1.9-.9 0 0-.8-.2-2-.3.6-1.1 1.2-2.4 1.5-3.9 0 0-1.5.8-3.2 2.7-.2-.6-.5-1.2-.9-1.8 0 0-.2.8-.3 2-1.1-.6-2.4-1.2-3.9-1.5 0 0 .8 1.6 2.7 3.2-.6.2-1.2.5-1.9.9 0 0 .8.2 2.1.2-.6 1.1-1.1 2.4-1.5 3.9 0 0 1.5-1 3.1-2.8zM288.4-1609.2c.2.7.4 1.4.8 2.2 0 0 .3-.9.5-2.2 1.1.8 2.4 1.5 3.9 2.1-.3-.3-1.1-1.8-2.5-3.5.7-.2 1.4-.4 2.1-.7 0 0-.8-.4-2.2-.6.9-1.1 1.6-2.4 2.2-3.9 0 0-1.7.7-3.8 2.4-.2-.7-.4-1.4-.7-2.1 0 0-.4.8-.6 2.1-1.1-.9-2.4-1.6-3.9-2.2 0 0 .7 1.8 2.5 3.8-.7.2-1.4.4-2.1.7 0 0 .9.3 2.2.5-.8 1.1-1.5 2.4-2.1 4 0 0 1.7-.9 3.7-2.6zM293.7-1607.1c-.1 0-.1.1 0 0zM46.9-1581c.6-.1 1.3-.2 1.9-.5 0 0-.7-.4-1.8-.6.8-.9 1.6-2 2.1-3.3 0 0-1.6.5-3.4 1.9-.1-.6-.2-1.2-.5-1.9 0 0-.4.7-.6 1.8-.9-.8-2-1.6-3.3-2.1 0 0 .5 1.6 1.9 3.5-.6.1-1.2.3-1.9.5 0 0 .7.3 1.9.5-.8.9-1.5 2-2.1 3.3 0 0 1.6-.6 3.4-2 .1.6.3 1.3.5 1.9 0 0 .3-.7.5-1.9.9.8 2 1.5 3.3 2.1 0 .1-.6-1.4-1.9-3.2zM291.5-1729.8c.3-.4.6-.9.9-1.5 0 0-.7.2-1.6.8-.1-1.1-.3-2.3-.7-3.4 0 0-.7 1.3-1 3.4l-1.5-.9s.3.7.8 1.5c-1.1.1-2.2.3-3.5.8 0 0 1.4.6 3.4.9-.3.5-.6 1-.9 1.6 0 0 .7-.3 1.5-.8.1 1.1.3 2.2.8 3.5.2-.1.8-1.5 1.1-3.5l1.5.9s-.2-.7-.8-1.6c1.1-.1 2.3-.3 3.4-.7 0 0-1.3-.7-3.4-1zM63-1553.6c.6-.1 1.3-.2 2-.4 0 0-.7-.4-1.9-.7.9-.9 1.7-2 2.4-3.3 0 0-1.6.4-3.6 1.7-.1-.6-.2-1.3-.4-1.9 0 0-.4.7-.7 1.8-.9-.9-2-1.7-3.3-2.4 0 0 .4 1.7 1.8 3.7-.6.1-1.3.2-2 .4 0 0 .7.4 1.9.7-.8.9-1.6 2-2.3 3.3 0 0 1.6-.6 3.6-1.9.1.6.2 1.3.4 2 0 0 .4-.7.7-1.9.9.8 2 1.6 3.3 2.3 0 .1-.6-1.5-1.9-3.4zM266.5-1689.9s.7-.6 1.5-1.6c.5 1.2 1.3 2.5 2.3 3.8.2 0 .4-1.8-.1-4.3.7.2 1.4.4 2.1.5 0 0-.5-.7-1.5-1.6 1.3-.5 2.6-1.2 3.8-2.2 0 0-1.8-.3-4.4.1.2-.7.4-1.4.5-2.1 0 0-.7.5-1.6 1.5-.5-1.3-1.2-2.6-2.2-3.8 0 0-.3 1.9.1 4.5-.7-.2-1.4-.4-2.2-.5 0 0 .6.7 1.6 1.5-1.2.5-2.5 1.3-3.8 2.3 0 0 1.9.2 4.4-.3-.2.7-.4 1.4-.5 2.2zM92.9-1508.6c-.3.7-.6 1.4-.8 2.3 0 0 .8-.5 1.8-1.5.4 1.4 1 2.9 1.9 4.4 0-.1.4-2 .4-4.7.7.3 1.4.6 2.2.8 0 0-.4-.8-1.4-1.9 1.4-.4 2.9-.9 4.4-1.8 0 0-1.9-.6-4.7-.5.3-.7.6-1.4.8-2.2 0 0-.8.4-1.9 1.4-.4-1.4-.9-2.9-1.8-4.4 0 0-.6 1.9-.5 4.8-.7-.3-1.4-.6-2.2-.8 0 0 .5.8 1.5 1.8-1.4.4-2.9 1-4.4 1.9 0 0 2 .5 4.7.4zM144.1-1601.1c.9-.3 1.8-.7 2.7-1.3 0 0-1.2-.3-3-.1.2-.4.3-.9.4-1.4 0 0-.5.3-1.1 1-.3-.9-.7-1.8-1.3-2.7 0 0-.3 1.2-.1 3-.4-.2-.9-.3-1.4-.4 0 0 .4.5 1 1.1-.9.3-1.8.7-2.7 1.4 0 0 1.3.2 3 0-.2.4-.3.9-.4 1.5 0 0 .5-.4 1.1-1 .3.9.7 1.8 1.4 2.6 0-.1.2-1.3 0-3 .4.2.9.3 1.4.4 0 0-.3-.5-1-1.1zM198.3-1560.7s-.9-1.1-2.5-2.1l1.3-.9s-.6-.1-1.6.1c.3-1 .6-2 .6-3.2 0 0-1.1.9-2.1 2.6-.3-.4-.6-.9-1-1.3 0 0 0 .7.2 1.6-1-.3-2-.5-3.2-.6 0 0 1 1 2.6 2-.4.3-.9.6-1.3 1 0 0 .7 0 1.6-.2-.3 1-.5 2-.6 3.2-.1 0 .9-.9 1.9-2.5.3.5.6.9 1 1.3 0 0 .1-.7-.1-1.6 1 .3 2 .6 3.2.6zM110.9-1559.1c-.2.5-.4.9-.5 1.5 0 0 .5-.3 1.2-1 .3.9.7 1.9 1.3 2.9-.1 0 .2-1.3.1-3.1.4.2.9.4 1.5.5 0 0-.3-.6-.9-1.2 1-.2 1.9-.6 2.9-1.2 0 0-1.2-.4-3.1-.3.2-.4.4-.9.5-1.4 0 0-.6.3-1.2.9-.2-1-.6-1.9-1.2-2.9 0 0-.4 1.3-.3 3.1-.4-.2-.9-.4-1.5-.5 0 0 .3.5 1 1.2-.9.3-1.9.7-2.9 1.3 0 0 1.3.3 3.1.2zM219.6-1593.7s-1.6-.1-3.9.6c.1-.6.2-1.2.2-1.9 0 0-.6.5-1.2 1.5-.6-1.1-1.4-2.2-2.4-3.1 0 0-.1 1.7.6 3.9-.6-.1-1.3-.2-2-.2 0 0 .6.5 1.6 1.1-1 .6-2.1 1.4-3.1 2.4 0 0 1.7-.1 3.9-.7-.1.6-.2 1.3-.2 2 0 0 .5-.6 1.2-1.6.6 1 1.4 2.1 2.4 3.1.1.1.1-1.5-.6-3.7.6.1 1.3.2 1.9.2 0 0-.5-.6-1.5-1.2 1.1-.6 2.2-1.4 3.1-2.4zM523.1-1854.3s-1.4.2-3 1.2c0-.5-.1-1.1-.2-1.6 0 0-.4.5-.7 1.5-.7-.8-1.5-1.5-2.5-2.1 0 0 .2 1.4 1.2 3.1-.5 0-1.1.1-1.6.2 0 0 .6.3 1.5.7-.7.7-1.5 1.5-2.1 2.6 0 0 1.4-.4 3-1.3 0 .5.1 1.1.2 1.7 0 0 .3-.6.7-1.5.7.7 1.5 1.5 2.6 2.1 0-.2-.4-1.5-1.3-3.2.5 0 1.1-.1 1.6-.2 0 0-.5-.4-1.5-.7.8-.7 1.5-1.5 2.1-2.5zM505.5-1623.3c.6-.2 1.1-.5 1.7-.9 0 0-.8-.2-1.9-.2.6-1.1 1-2.3 1.3-3.7 0 0-1.4.9-2.9 2.7-.2-.6-.6-1.1-1-1.7 0 0-.1.8-.1 1.9-1.1-.5-2.3-.9-3.7-1.2 0 0 1 1.4 2.7 2.8-.6.2-1.2.6-1.7 1 0 0 .8.1 1.9.1-.5 1.1-.9 2.3-1.2 3.7 0 0 1.3-1 2.7-2.7.2.6.5 1.2.9 1.7 0 0 .2-.8.2-1.9 1.1.6 2.3 1 3.7 1.2 0 0-.8-1.4-2.6-2.8zM566.3-1677.5c-.1-.6-.2-1.2-.4-1.8 0 0-.3.7-.6 1.8-.9-.7-1.9-1.5-3.1-2 0 0 .6 1.5 1.8 3.3-.6.1-1.2.2-1.8.5 0 0 .7.3 1.8.6-.7.9-1.4 1.8-1.9 2.9.3-.3 1.6-.9 2.9-1.8.1.6.2 1.2.4 1.8 0 0 .4-.7.6-1.7.9.8 1.9 1.5 3.1 2.1 0 0-.4-1.5-1.7-3.3.6-.1 1.2-.2 1.8-.4 0 0-.6-.4-1.7-.6.8-.9 1.5-1.9 2.1-3.1 0 0-1.5.4-3.3 1.7zM562-1672l.1-.2c-.1.1-.2.2-.1.2zM619.5-1540.3c0 .1-.1-1.7-.9-3.9.7.1 1.4.1 2.1.1 0 0-.6-.6-1.7-1.2 1.1-.7 2.2-1.6 3.2-2.7 0 0-1.7 0-4.1.8.1-.6.1-1.3.1-2 0 0-.6.6-1.2 1.7-.7-1.1-1.6-2.2-2.7-3.2 0 0 0 1.8.9 4.1-.7-.1-1.4-.1-2.1-.1 0 0 .6.5 1.7 1.1-1.1.7-2.1 1.6-3.2 2.8 0 0 1.8-.2 4.1-1-.1.7-.1 1.4-.1 2.1 0 0 .6-.7 1.1-1.8.8 1.1 1.6 2.1 2.8 3.2zM672.8-1564.4s-2 .2-4.5 1.4c0-.8 0-1.5-.1-2.3 0 0-.6.7-1.2 2.1-.9-1.2-2.1-2.3-3.5-3.3 0 0 .2 2 1.5 4.6-.8 0-1.6 0-2.4.2 0 0 .8.5 2.1 1.1-1.1.9-2.3 2.1-3.3 3.5 0 0 2-.4 4.5-1.6 0 .8 0 1.6.2 2.5 0 0 .6-.8 1.1-2.1.9 1.1 2.1 2.3 3.5 3.3 0-.1-.3-2.1-1.5-4.6.8 0 1.6 0 2.4-.1 0 0-.8-.6-2.1-1.2 1.2-.9 2.3-2.1 3.3-3.5zM798.1-1474s-1-.4-2.5-.6c1-1.4 1.8-2.9 2.4-4.7 0 0-2.1.9-4.4 3-.2-.8-.5-1.6-.9-2.5 0 0-.3 1-.5 2.6-1.3-.9-2.9-1.7-4.8-2.4 0 0 1 2 3.1 4.3-.8.2-1.7.5-2.5.9 0 0 1 .3 2.6.5-.9 1.3-1.7 2.9-2.4 4.8 0 .1 2-.9 4.2-2.9.2.8.5 1.7.9 2.5 0 0 .4-1 .6-2.6 1.4 1 2.9 1.8 4.7 2.4 0 0-.9-2-2.9-4.4.8-.2 1.5-.5 2.4-.9zM672.8-1441.7c.1-.7.2-1.4.2-2.1 0 0-.6.6-1.3 1.7-.7-1.2-1.5-2.4-2.6-3.4 0 0-.1 1.8.7 4.3-.7-.1-1.4-.2-2.2-.2 0 0 .6.6 1.7 1.2-1.1.7-2.3 1.5-3.4 2.7 0 0 1.8-.1 4.2-.8-.1.7-.2 1.4-.2 2.2 0 0 .6-.6 1.3-1.7.7 1.1 1.5 2.3 2.7 3.4.1-.1 0-1.9-.7-4.3.7.1 1.4.2 2.1.2 0 0-.6-.6-1.7-1.3 1.2-.7 2.4-1.5 3.4-2.6 0 0-1.8-.1-4.2.7zM767.7-1540.9s-.1-.9-.7-2.2c1.5.1 3 .1 4.6-.3 0 0-1.6-1.1-4.2-1.9.5-.5 1-1.1 1.4-1.8 0 0-.9.1-2.2.7.1-1.5.1-3-.3-4.6 0 0-1.2 1.6-2 4.3-.5-.5-1.1-1-1.8-1.4 0 0 .2.9.8 2.2-1.4-.1-3 0-4.7.4 0 0 1.7 1 4.3 1.8-.5.5-1 1.1-1.5 1.9 0 0 .9-.2 2.2-.8-.1 1.4 0 3 .4 4.7.1-.3 1.1-1.9 1.9-4.5.5.5 1.1 1 1.8 1.5zM720.5-1457s-1.6-.6-4.1-.7c.3-.6.6-1.2.8-1.9 0 0-.8.3-1.7 1.1-.2-1.3-.6-2.6-1.3-3.9 0 0-.7 1.6-.7 4.1-.6-.3-1.2-.6-1.9-.8 0 0 .4.7 1.2 1.7-1.2.3-2.6.7-3.9 1.4 0 0 1.7.5 4.1.6-.3.6-.6 1.2-.9 1.9 0 0 .8-.4 1.7-1.2.3 1.2.7 2.6 1.4 3.9 0 0 .5-1.7.6-4.1.6.3 1.2.6 1.9.9 0 0-.3-.8-1.1-1.7 1.3-.2 2.6-.6 3.9-1.3zM643-1645.5s-.9-1.3-2.7-2.7c.5-.3 1.1-.6 1.6-1 0 0-.8-.1-1.9 0 .5-1.1.9-2.3 1-3.7 0 0-1.4.9-2.7 2.8-.3-.5-.6-1.1-1-1.6 0 0-.1.8 0 1.9-1.1-.4-2.3-.8-3.7-1 0 0 1 1.3 2.9 2.6-.5.3-1.1.6-1.7 1.1 0 0 .8.1 1.9 0-.4 1.1-.8 2.3-1 3.7.1 0 1.3-1.1 2.6-2.8.3.6.6 1.1 1 1.6 0 0 .1-.8 0-1.9 1.1.5 2.3.9 3.7 1zM626.3-1809.7s-1.5.2-3.3 1.1c0-.5 0-1.1-.1-1.7 0 0-.4.6-.8 1.5-.7-.9-1.5-1.7-2.6-2.4 0 0 .2 1.5 1.1 3.4-.6 0-1.1 0-1.8.2 0 0 .6.4 1.6.8-.8.7-1.6 1.5-2.3 2.6 0 0 1.5-.3 3.3-1.2 0 .6 0 1.2.2 1.8 0 0 .4-.6.8-1.6.7.8 1.5 1.6 2.6 2.3-.1-.1-.4-1.6-1.3-3.3.6 0 1.1 0 1.7-.1 0 0-.6-.4-1.5-.8.9-.7 1.7-1.5 2.4-2.6zM662.2-1634.7s1.1.8 2.8 1.4c-.4.3-.7.7-1.1 1.2 0 0 .6-.1 1.5-.4-.1.9-.2 2 0 3.1-.1 0 .7-1 1.4-2.7.3.4.7.7 1.1 1.1 0 0 0-.6-.4-1.5 1 .2 2 .2 3.1.1 0 0-1-.8-2.7-1.5.4-.3.7-.7 1-1.1 0 0-.6 0-1.5.3.2-1 .2-2 .1-3.1 0 0-.9 1-1.5 2.7-.3-.4-.7-.7-1.1-1.1 0 0 .1.6.4 1.5-.9-.1-2-.2-3.1 0zM540.8-1707.9c.5-.2 1-.4 1.5-.7 0 0-.6-.2-1.6-.2.5-.9 1-1.9 1.3-3.1 0 0-1.3.7-2.6 2.1-.2-.5-.4-1-.7-1.5 0 0-.2.7-.2 1.7-.9-.5-1.9-.9-3.1-1.2 0 0 .8 1.2 2.2 2.5-.5.2-1 .4-1.6.7 0 0 .7.2 1.7.2-.5.9-.9 1.9-1.2 3.1-.1.1 1.1-.7 2.4-2.1.2.5.4 1 .7 1.5 0 0 .2-.6.2-1.7.9.5 1.9 1 3.1 1.3 0 0-.7-1.2-2.1-2.6zM259.7-2034c-.3.1-.7.3-1 .5 0 0 .5.1 1.1.1-.3.6-.6 1.3-.7 2.1 0 .1.8-.5 1.6-1.5.1.3.3.7.5 1 0 0 .1-.4.1-1.1.6.3 1.3.6 2.1.7 0 0-.5-.8-1.5-1.6.3-.1.7-.3 1-.5 0 0-.4-.1-1.1-.1.3-.6.6-1.3.7-2.1 0 0-.8.5-1.7 1.5-.1-.3-.3-.7-.5-1 0 0-.1.4-.1 1.1-.6-.3-1.3-.6-2.1-.7 0 0 .6.8 1.6 1.6zM661.7-1826.2c.5 0 1 0 1.5-.1 0 0-.5-.4-1.4-.7.8-.6 1.5-1.4 2.1-2.3 0 0-1.3.2-2.9 1 0-.5 0-1-.1-1.5 0 0-.4.5-.7 1.3-.6-.8-1.4-1.5-2.3-2.1 0 0 .2 1.3 1 3-.5 0-1 0-1.6.1 0 0 .5.3 1.4.7-.7.6-1.4 1.4-2.1 2.3 0 0 1.3-.3 2.9-1.1 0 .5 0 1 .1 1.6 0 0 .3-.5.7-1.4.6.7 1.4 1.4 2.3 2.1.2 0-.1-1.3-.9-2.9zM744.7-1909.7c-.3.4-.6.8-.9 1.3 0 0 .6-.2 1.4-.6 0 1 .1 2 .5 3.2 0 0 .6-1.2 1-3 .4.3.8.6 1.3.9 0 0-.2-.6-.7-1.5 1 0 2-.1 3.2-.5.2 0-1-.7-2.8-1.1.3-.4.7-.8.9-1.3 0 0-.6.1-1.5.6 0-1-.1-2.1-.4-3.2 0 0-.7 1.1-1.1 3-.4-.3-.8-.6-1.3-.9 0 0 .1.6.6 1.5-1 0-2.1.1-3.2.4 0 0 1.1.7 3 1.2zM709-1865.8c-.4.2-.8.4-1.3.7 0 0 .6.1 1.4.1-.4.8-.8 1.7-1 2.7 0 0 1-.7 2.1-1.9.2.4.4.9.7 1.3 0 0 .1-.6.1-1.4.8.4 1.7.8 2.7 1 .1 0-.6-1-1.8-2.1l1.3-.6s-.6-.2-1.4-.2c.4-.8.8-1.7 1-2.7 0 0-1 .6-2.2 1.8-.2-.4-.4-.8-.6-1.3 0 0-.2.5-.2 1.4-.8-.4-1.7-.8-2.7-1-.1 0 .5 1.1 1.9 2.2zM642.1-2002.4c.4.8 1 1.6 1.8 2.4-.2-.1-.2-1.3-.6-3 .5.1.9.2 1.5.2 0 0-.4-.4-1.1-.9.8-.4 1.6-1 2.4-1.7 0 0-1.2-.1-2.9.4.1-.5.2-.9.2-1.4 0 0-.4.4-.9 1.1-.4-.8-1-1.6-1.7-2.4 0 0-.1 1.3.4 3-.5-.1-.9-.2-1.5-.2 0 0 .4.4 1.2.9-.8.4-1.6 1-2.4 1.8 0 0 1.3 0 2.9-.5-.1.5-.2 1-.2 1.5 0 0 .4-.4.9-1.2zM737.2-2020c.4-.1.8-.3 1.2-.6 0 0-.5-.2-1.3-.2.4-.7.8-1.6 1-2.5 0 0-1 .5-2.1 1.8-.2-.4-.3-.8-.6-1.2 0 0-.1.5-.1 1.3-.7-.4-1.6-.8-2.6-1 0 0 .6 1 1.8 2-.4.2-.8.3-1.3.6 0 0 .5.1 1.4.1-.4.7-.7 1.6-1 2.6 0 .1.9-.5 2-1.7.1.4.3.8.6 1.2 0 0 .2-.5.2-1.3.7.4 1.6.8 2.5 1 .1 0-.4-1-1.7-2.1zM679-2052.6s.5 0 1.2-.3c-.1.7-.2 1.6-.1 2.5-.1-.3.6-1.1 1.2-2.3.2.3.5.6.8.9 0 0 0-.5-.2-1.2.8.2 1.6.2 2.4.2 0 0-.7-.7-2-1.3.3-.2.6-.5.9-.8 0 0-.5 0-1.2.2.2-.8.2-1.6.2-2.4 0 0-.7.7-1.3 2.1-.2-.3-.5-.6-.9-.9 0 0 0 .5.3 1.2-.7-.1-1.6-.2-2.5-.1 0 0 .8.7 2.1 1.3l-.9.9zM788.7-2179.8s.6-.1 1.5-.5c-.1 1-.1 2 .1 3.1 0 .1.7-1 1.3-2.7.3.4.7.7 1.2 1 0 0-.1-.6-.4-1.5 1 .1 2 .1 3.1-.1 0 0-1-.8-2.8-1.4.4-.3.7-.7 1-1.1 0 0-.6.1-1.5.4.1-1 .1-2-.1-3.1 0 0-.8 1-1.4 2.8-.3-.4-.7-.7-1.2-1 0 0 .1.6.5 1.5-1-.1-2-.1-3.1.1 0 0 1.1.8 2.8 1.3-.5.3-.7.7-1 1.2zM728.1-2001.5s-.5 0-1.3.2c.2-.8.3-1.7.3-2.7 0 0-.8.8-1.5 2.2-.3-.3-.5-.7-.9-1 0 0 0 .5.2 1.3-.8-.2-1.7-.3-2.7-.2 0 0 .9.8 2.3 1.4l-1 .9s.5 0 1.3-.3c-.2.8-.3 1.7-.2 2.7-.1.1.7-.7 1.4-2.1.2.3.5.7.9 1 0 0 0-.5-.2-1.3.8.2 1.7.3 2.6.3 0 0-.8-.8-2.2-1.5.3-.2.7-.5 1-.9zM640.6-2190.8c-.1.4-.2.8-.3 1.3 0 0 .4-.3.9-.9.3.7.7 1.5 1.3 2.2.2-.1.3-1.2 0-2.7l1.2.3s-.3-.4-.9-.9c.8-.3 1.5-.7 2.2-1.2 0 0-1.1-.2-2.6 0l.3-1.2s-.4.3-.9.9c-.3-.8-.7-1.5-1.2-2.2 0 0-.2 1.1 0 2.6-.4-.1-.8-.2-1.3-.3 0 0 .3.4.9.9-.7.3-1.5.7-2.2 1.3 0 0 1.1.1 2.6-.1zM657.2-2009.3s0-.1-.1-.1l.1.1zM655.6-2012.3c-.2.4-.4.8-.5 1.3 0 0 .5-.3 1.1-.9.2.8.5 1.6 1 2.5 0-.3.2-1.3.2-2.6.4.2.8.4 1.3.5 0 0-.3-.5-.8-1.1.9-.2 1.7-.5 2.6-1 0 0-1.1-.4-2.7-.3.2-.4.4-.8.5-1.3 0 0-.5.2-1.1.8-.2-.9-.5-1.7-1-2.6 0 0-.4 1.1-.3 2.8-.4-.2-.8-.4-1.3-.5 0 0 .3.5.8 1.1-.8.2-1.7.5-2.6 1.1 0 0 1.2.3 2.8.2zM470.1-2138.7c-.5-.9-1.2-1.7-2-2.4 0 0 0 1.4.6 3.2-.5-.1-1-.1-1.6-.1 0 0 .5.4 1.3.9-.8.5-1.6 1.2-2.4 2.1 0 0 1.4-.1 3.1-.7-.1.5-.1 1-.1 1.6 0 0 .4-.5.9-1.3.5.8 1.2 1.6 2.1 2.4.1-.1 0-1.4-.7-3.2.5.1 1 .1 1.6.1 0 0-.5-.5-1.3-.9.9-.5 1.7-1.2 2.4-2 0 0-1.3 0-3.1.6.1-.5.1-1 .1-1.6 0 0-.4.4-.9 1.3zM526.9-2006c.5-.1 1.1-.4 1.6-.6 0 0-.6-.2-1.7-.3.6-.9 1.1-1.9 1.4-3.1 0 0-1.3.6-2.7 2-.1-.5-.3-1-.6-1.5 0 0-.2.6-.3 1.6-.9-.6-1.9-1.1-3.1-1.4 0 0 .6 1.3 2 2.8-.5.2-1 .4-1.6.7 0 0 .7.2 1.7.2-.6.9-1 1.9-1.4 3.1 0 0 1.3-.7 2.7-2.1.2.5.4 1.1.7 1.6 0 0 .2-.7.2-1.7.9.6 1.9 1 3.1 1.4.1 0-.6-1.3-2-2.7zM331.1-1998.2c-.6.3-1.1.6-1.7 1.1 0 0 .8.1 2 0-.5 1.1-.8 2.4-1 3.8 0 0 1.3-1.1 2.7-2.9.3.6.6 1.1 1.1 1.7 0 0 .1-.8 0-2 1.1.5 2.4.8 3.8 1-.1 0-1.2-1.2-3-2.6.6-.3 1.1-.6 1.7-1 0 0-.8-.1-2-.1.5-1.1.9-2.4 1.1-3.8 0 0-1.4.9-2.7 2.8-.3-.6-.6-1.1-1-1.6 0 0-.1.8-.1 1.9-1.1-.5-2.4-.9-3.8-1.1 0 0 .9 1.4 2.9 2.8zM462.9-2052.1h-.1c0 .1.1.1.1 0zM456-2051.4s.6-.1 1.5-.5c-.1 1-.1 2.1.1 3.2 0 0 .8-1.1 1.4-2.9.3.4.7.7 1.2 1.1 0 0-.1-.6-.5-1.5 1 .1 2 .1 3.1-.1-.3-.1-1.3-.7-2.7-1.2.4-.3.8-.7 1.1-1.2 0 0-.6.1-1.5.4.1-1 .2-2.1 0-3.2 0 0-.9 1-1.5 2.8-.3-.4-.7-.7-1.2-1.1 0 0 .1.6.4 1.5-1-.1-2.1-.2-3.2 0 0 0 1.1.9 2.9 1.5-.4.3-.7.7-1.1 1.2zM264.6-1931.7c-.1-.6-.3-1.3-.6-1.9 0 0-.3.7-.5 1.9-1-.8-2.2-1.5-3.6-2 0 0 .6 1.6 2.2 3.5-.6.1-1.3.3-2 .6 0 0 .8.3 2 .5-.8 1-1.5 2.2-2 3.6 0 0 1.6-.7 3.4-2.3.1.6.3 1.3.7 2 0 0 .3-.8.5-2 1 .8 2.2 1.4 3.6 2 0 .1-.7-1.5-2.2-3.3.6-.1 1.3-.3 2-.6 0 0-.8-.3-2-.6.8-1 1.5-2.2 2-3.5 0 0-1.6.6-3.5 2.1zM429.6-2128.6zM293.6-1921.3s.8.3 2 .4c-.7 1-1.4 2.3-1.9 3.7 0 0 1.6-.8 3.4-2.4.2.6.4 1.3.7 2 0 0 .3-.8.4-2 1 .7 2.3 1.4 3.7 1.9.1 0-.7-1.6-2.2-3.4.6-.1 1.3-.4 2-.7 0 0-.8-.3-2-.5.8-1.1 1.5-2.3 2-3.6 0 0-1.6.6-3.5 2.3-.1-.6-.4-1.3-.7-1.9 0 0-.3.8-.5 2-1.1-.8-2.3-1.5-3.7-2 0 0 .7 1.6 2.3 3.5-.6.2-1.3.4-2 .7zM415.6-2000s.8-.1 2-.6c-.2 1.3-.2 2.7 0 4.2 0 0 1-1.5 1.9-3.7.4.5 1 1 1.6 1.4 0 0-.1-.8-.6-2 1.3.2 2.7.2 4.2 0 0 0-1.4-1.1-3.7-1.9.5-.4 1-.9 1.4-1.5 0 0-.8.1-2 .5.2-1.3.2-2.7 0-4.1 0 0-1.1 1.3-2 3.6-.4-.5-.9-1-1.5-1.4 0 0 .1.8.5 2-1.3-.2-2.7-.2-4.1 0 0 0 1.4 1.1 3.7 2-.5.4-1 .9-1.4 1.5zM432.2-1846.6c.4-.4.8-.9 1.2-1.5 0 0-.8.1-1.8.6.1-1.2 0-2.5-.3-3.9 0 0-1 1.3-1.7 3.6-.4-.4-1-.8-1.5-1.2 0 0 .2.8.7 1.8-1.2-.1-2.5 0-3.9.3 0 0 1.4.9 3.6 1.5-.4.5-.9 1-1.2 1.6 0 0 .8-.2 1.8-.7-.1 1.2 0 2.5.3 3.9 0 .1.9-1.3 1.5-3.5.4.4.9.9 1.5 1.2 0 0-.1-.8-.6-1.8 1.2.1 2.5 0 3.9-.3 0 0-1.3-1-3.5-1.6zM363.6-1909s-.6.3-1.3 1c-.2-1-.6-2.1-1.2-3.1 0 0-.4 1.4-.4 3.4-.5-.2-1-.4-1.6-.6 0 0 .4.6 1 1.3-1 .3-2 .7-3.1 1.3 0 0 1.4.3 3.4.3-.2.5-.4 1-.6 1.6 0 0 .6-.4 1.3-1 .3 1 .7 2 1.3 3.1 0-.1.3-1.5.2-3.4.5.2 1 .5 1.6.6 0 0-.3-.6-1-1.4 1-.2 2.1-.6 3.1-1.2 0 0-1.3-.4-3.3-.4l.6-1.5zM466.3-1859.1c.3-.5.6-1.1.8-1.8 0 0-.7.3-1.7 1.1-.2-1.2-.6-2.5-1.3-3.8 0 0-.6 1.6-.7 4-.6-.3-1.2-.6-1.8-.8 0 0 .4.7 1.1 1.6-1.2.2-2.5.7-3.8 1.3 0 0 1.7.5 4 .6-.3.6-.6 1.2-.8 1.9 0 0 .7-.4 1.6-1.2.2 1.2.7 2.5 1.3 3.8.1.1.6-1.5.7-3.8.6.3 1.2.6 1.8.8 0 0-.3-.7-1.1-1.7 1.2-.2 2.5-.6 3.8-1.3 0 0-1.6-.6-3.9-.7zM287.9-1825.7c-.4.7-.7 1.4-.9 2.3 0 0 .9-.5 1.9-1.5.4 1.4.9 3 1.8 4.5.2.2.7-1.8.7-4.5.7.4 1.4.7 2.2.9 0 0-.4-.9-1.4-2 1.5-.3 3-.8 4.5-1.7 0 0-1.9-.7-4.7-.7.4-.7.7-1.4.9-2.2 0 0-.9.4-2 1.3-.3-1.5-.8-3-1.7-4.5 0 0-.7 1.9-.7 4.8-.7-.3-1.4-.7-2.3-.9 0 0 .5.8 1.4 1.9-1.4.4-3 .9-4.5 1.8 0 0 2 .5 4.8.5zM414.7-1731.4s-.8 1.1-1.4 3c-.4-.4-.8-.7-1.3-1 0 0 .2.6.6 1.5-1-.1-2.1 0-3.3.3 0 0 1.2.7 3 1.3-.4.4-.7.8-1 1.3 0 0 .7-.2 1.5-.6-.1 1 0 2.1.3 3.3 0-.2.7-1.3 1.2-3.1.4.4.8.7 1.3 1 0 0-.1-.6-.5-1.5 1 .1 2.1 0 3.2-.2 0 0-1.1-.8-2.9-1.4.4-.4.7-.8 1-1.2 0 0-.6.1-1.5.5.1-1 0-2.1-.2-3.2zM509.6-1754.4s-.7 0-1.7.2c.3-1 .5-2.2.4-3.4 0 0-1.1 1-2 2.8-.3-.4-.7-.9-1.1-1.3 0 0 0 .7.3 1.7-1-.3-2.2-.4-3.4-.4 0 0 1.1 1 2.9 1.9-.4.3-.9.7-1.3 1.1 0 0 .7 0 1.7-.3-.3 1-.4 2.2-.4 3.4-.1.2.8-.9 1.8-2.6.3.5.7.9 1.1 1.3 0 0 0-.7-.2-1.7 1 .3 2.2.5 3.4.4 0 0-1-1-2.8-2 .4-.3.9-.7 1.3-1.1zM335.1-1719.6c0 .9.1 2 .4 3.1 0-.2.6-1.3 1.1-3l1.2.9s-.1-.6-.5-1.4c1 0 2-.1 3-.3 0 0-1.1-.7-2.8-1.2l.9-1.2s-.6.1-1.4.5c0-1-.1-2-.3-3 0 0-.7 1.1-1.2 2.9-.4-.3-.8-.6-1.3-.9 0 0 .2.6.6 1.4-.9 0-2 .1-3.1.4 0 0 1.2.6 2.9 1.1-.3.4-.6.8-.9 1.3 0 0 .6-.2 1.4-.6zM503.6-1863.8s-1.5.1-3.5.9c.1-.6.1-1.2 0-1.8 0 0-.5.5-1 1.5-.6-.9-1.4-1.9-2.4-2.7 0 0 .1 1.5.9 3.6-.6-.1-1.2-.1-1.8 0 0 0 .6.5 1.5.9-.9.6-1.8 1.5-2.7 2.5 0 0 1.5-.2 3.5-1-.1.6-.1 1.2 0 1.9 0 0 .5-.6.9-1.6.6.9 1.5 1.8 2.5 2.6.1 0-.1-1.5-.9-3.4.6.1 1.2.1 1.8 0 0 0-.5-.5-1.5-1 .9-.6 1.9-1.4 2.7-2.4zM276.2-1786.3c.2-.7.4-1.5.5-2.4 0 0-.8.6-1.7 1.7-.6-1.4-1.4-2.9-2.6-4.2 0 0-.3 2.1.2 5-.8-.2-1.6-.4-2.5-.5 0 0 .7.8 1.8 1.7-1.4.6-2.8 1.5-4.2 2.7 0 0 2.1.1 5-.4-.2.8-.4 1.6-.5 2.5 0 0 .8-.7 1.7-1.8.6 1.4 1.5 2.8 2.7 4.2.1 0 .3-2.1-.3-4.9.8.2 1.6.4 2.4.5 0 0-.6-.8-1.8-1.7 1.4-.6 2.9-1.4 4.2-2.6 0 0-2.1-.3-4.9.2zM344.9-1846.6v-.1c-.1.1-.1.1 0 .1zM344-1850.2l-.9 1.2s.6-.2 1.4-.6c0 .9.1 1.8.4 2.9.1-.3.5-1.3.9-2.7.3.3.7.6 1.2.9 0 0-.1-.6-.5-1.4.9 0 1.9 0 3-.3 0 0-1-.7-2.7-1.1.3-.3.6-.7.9-1.2 0 0-.6.1-1.4.5 0-.9 0-1.9-.3-3 0 0-.7 1.1-1.2 2.8l-1.2-.9s.2.6.6 1.4c-.9 0-1.9.1-3 .4 0 0 1.1.6 2.8 1.1zM408.4-1785.9c-.2 1.1-.4 2.3-.3 3.6 0-.1 1-1.2 1.9-3.1.3.5.7.9 1.2 1.4 0 0 0-.7-.2-1.8 1.1.3 2.3.5 3.6.4 0 0-1-1.1-2.9-2 .5-.3.9-.7 1.3-1.2 0 0-.7 0-1.8.2.3-1.1.5-2.3.4-3.6 0 0-1.1 1.1-2.1 3-.3-.5-.7-.9-1.2-1.3 0 0 0 .7.3 1.8-1.1-.2-2.3-.4-3.6-.3 0 0 1.2 1 3 2-.5.3-.9.7-1.4 1.2 0 0 .7 0 1.8-.3zM501.5-1691c-.1-.4-.3-.9-.6-1.4 0 0-.2.6-.2 1.5-.8-.5-1.7-.9-2.7-1.2 0 0 .6 1.1 1.9 2.3-.5.1-.9.3-1.4.6 0 0 .6.2 1.5.2-.5.8-.9 1.7-1.2 2.7-.1.3 1-.4 2.2-1.6.1.5.3.9.6 1.4 0 0 .2-.6.3-1.5.8.5 1.7.9 2.7 1.2 0 0-.5-1.1-1.8-2.4.4-.1.9-.3 1.3-.6 0 0-.6-.2-1.4-.3.5-.8.9-1.7 1.2-2.7 0 0-1.1.5-2.4 1.8zM337-1800.3s.3.4.8 1c-.7.2-1.5.6-2.3 1.1 0 0 1.1.2 2.6.1-.2.4-.3.8-.4 1.2 0 0 .4-.3 1-.8.2.7.6 1.5 1.1 2.3 0 0 .2-1 .1-2.5.4.2.8.3 1.2.4 0 0-.3-.4-.8-1 .8-.2 1.6-.6 2.3-1.1 0 0-1-.3-2.5-.2.2-.4.3-.8.4-1.2 0 0-.4.3-1 .8-.2-.8-.6-1.6-1.1-2.3 0 0-.3 1.1-.2 2.6-.4-.2-.8-.3-1.2-.4zM489.7-1778.5s1.2 1 3.2 1.8c-.5.4-.9.8-1.3 1.3 0 0 .7-.1 1.8-.4-.2 1.1-.3 2.3-.1 3.7 0-.1 1-1.3 1.8-3.2.4.5.8.9 1.3 1.3 0 0 0-.7-.4-1.8 1.1.2 2.3.3 3.6.2 0 0-1.1-1-3.1-1.9l1.3-1.2s-.7 0-1.8.3c.2-1.1.3-2.3.2-3.6 0 0-1.1 1.1-1.9 3.1-.4-.4-.8-.9-1.3-1.3 0 0 .1.7.4 1.8-1.1-.2-2.3-.3-3.7-.1zM365.8-1788.5c.2-.4.4-.7.5-1.2 0 0-.5.2-1.1.7-.1-.8-.4-1.7-.8-2.5 0 0-.4 1-.5 2.6-.4-.2-.8-.4-1.2-.5 0 0 .2.5.7 1.1-.8.2-1.6.4-2.5.8 0 0 1.1.3 2.6.4l-.6 1.2s.5-.2 1.1-.7c.2.8.4 1.6.8 2.5.2 0 .5-1.1.6-2.6l1.2.6s-.2-.5-.7-1.1c.8-.1 1.7-.4 2.5-.8 0 0-1-.4-2.6-.5zM327.2-1815.6c.3-.4.5-.8.7-1.3 0 0-.6.2-1.3.8-.1-.9-.4-1.9-.9-2.9 0 0-.5 1.2-.6 3-.4-.2-.9-.5-1.4-.7 0 0 .3.6.8 1.3-.9.2-1.9.4-2.9.9 0 0 1.2.4 3 .5-.3.4-.5.9-.7 1.4 0 0 .6-.3 1.3-.8.2.9.4 1.9.9 2.9.1 0 .5-1.2.6-3 .4.3.9.5 1.4.7 0 0-.2-.6-.8-1.3.9-.1 1.9-.4 2.9-.9 0 0-1.2-.5-3-.6zM431.2-1785.3s-.9-1.3-2.7-2.7c.5-.3 1.1-.6 1.6-1 0 0-.8-.2-1.9-.1.5-1.1.9-2.3 1.1-3.7 0 0-1.4.9-2.7 2.8-.3-.5-.6-1.1-1-1.6 0 0-.1.8 0 1.9-1.1-.5-2.3-.8-3.7-1 0 0 1 1.3 2.8 2.6-.6.3-1.1.6-1.7 1 0 0 .8.1 1.9 0-.5 1.1-.8 2.3-1 3.7-.1.1 1.1-1 2.5-2.7.3.6.6 1.1 1 1.6 0 0 .2-.8.1-1.9 1.1.5 2.3.9 3.7 1.1zM203.7-1847s2.9.9 6.9 1.1c-.6 1-1.1 2-1.5 3.3 0 0 1.3-.7 2.9-2 .4 2.1 1.1 4.3 2.2 6.6.3-.1 1.2-2.9 1.3-6.9 1 .6 2 1.1 3.1 1.5 0 0-.5-1.3-1.8-2.9 2.2-.4 4.4-1 6.6-2.1 0 0-2.7-1.1-6.8-1.3.6-.9 1.1-2 1.4-3.1 0 0-1.3.5-2.9 1.8-.4-2.2-1-4.4-2.1-6.6 0 0-1.1 2.8-1.3 6.9-1-.5-2-1-3.2-1.4 0 0 .7 1.3 1.9 2.9-2.1.4-4.3 1.1-6.7 2.2zM225.3-1929.9c.9-.8 1.8-1.8 2.6-3 0 0-1.6.3-3.7 1.4 0-.6-.1-1.3-.2-1.9 0 0-.5.6-.9 1.7-.8-.9-1.8-1.8-3-2.6 0 0 .3 1.7 1.4 3.8-.6 0-1.3.1-2 .2 0 0 .7.4 1.8.8-.9.8-1.8 1.8-2.6 3.1 0 0 1.7-.4 3.7-1.5 0 .6.1 1.3.2 2 0 0 .4-.7.8-1.8.8.9 1.8 1.8 3.1 2.6.1-.1-.3-1.7-1.4-3.7.6 0 1.3-.1 2-.2 0 0-.6-.5-1.8-.9zM88.8-2026.4c-.2.7-.3 1.4-.4 2.2 0 0 .7-.6 1.4-1.7.6 1.2 1.4 2.4 2.5 3.6.1 0 .1-1.8-.4-4.2.7.2 1.4.3 2.1.4 0 0-.5-.7-1.6-1.5 1.2-.6 2.5-1.3 3.7-2.4 0 0-1.8-.2-4.3.3.2-.7.3-1.4.4-2.1 0 0-.7.5-1.5 1.6-.6-1.3-1.3-2.5-2.4-3.7 0 0-.2 1.9.3 4.4-.7-.2-1.4-.3-2.2-.3 0 0 .6.7 1.6 1.4-1.2.6-2.4 1.4-3.6 2.5 0 0 1.9.1 4.4-.5zM59.3-2202.6l.3 1.1s.2-.4.3-1.1c.6.4 1.2.9 2 1.2 0-.1-.4-1-1.2-2l1.1-.3s-.4-.2-1.1-.3c.5-.6.9-1.2 1.2-2 0 0-.9.3-2 1.2l-.3-1.1s-.2.4-.3 1.1c-.6-.5-1.2-.9-2-1.2 0 0 .3.9 1.2 2l-1.1.3s.4.2 1.1.3c-.4.6-.9 1.2-1.2 2 0 0 .9-.4 2-1.2zM88.3-2157.8c-.4.2-.7.5-1.1.8 0 0 .6 0 1.3-.1-.3.8-.4 1.7-.5 2.7 0 0 .9-.8 1.7-2.2.2.4.5.8.8 1.1 0 0 0-.6-.1-1.4.8.3 1.7.4 2.7.5.1.1-.7-.8-2-1.6.4-.2.8-.5 1.1-.8 0 0-.5-.1-1.4.1.3-.8.5-1.7.5-2.7 0 0-.9.7-1.7 2.1-.2-.4-.5-.7-.8-1.1 0 0-.1.5.1 1.3-.8-.3-1.7-.5-2.7-.5 0 0 .7.9 2.1 1.8zM54.1-2169.2c.1.4.2.8.4 1.1 0 0 .2-.5.3-1.1.6.4 1.3.8 2.1 1.2l-1.4-2.1 1.1-.3s-.4-.2-1.1-.3c.5-.6.9-1.3 1.2-2 0 0-.9.3-2 1.2l-.3-1.1s-.2.4-.3 1.1c-.6-.5-1.3-.9-2-1.2 0 0 .3.9 1.2 2-.4.1-.7.2-1.1.4 0 0 .4.2 1.1.3-.4.6-.8 1.3-1.2 2.1 0 0 .9-.4 2-1.3zM49.4-2210.7s-.1 0-.1-.1c0 .2 0 .2.1.1zM46.6-2211.9c.1.4.2.8.4 1.2 0 0 .2-.5.3-1.2.6.5 1.2.8 2 1.1-.2-.3-.6-1-1.2-1.8l1.2-.3s-.4-.2-1.2-.4c.5-.6.9-1.3 1.3-2.1 0 0-1 .3-2.1 1.2-.1-.4-.2-.8-.3-1.1 0 0-.2.4-.4 1.1-.6-.5-1.3-.9-2.1-1.3 0 0 .3 1 1.2 2.1-.4.1-.8.2-1.2.4 0 0 .5.2 1.2.3-.5.6-.9 1.3-1.2 2.1 0 0 1-.4 2.1-1.3zM148-2153.5c-.3.5-.6 1.1-.9 1.7 0 0 .7-.3 1.6-1 .2 1.2.5 2.4 1 3.7 0 0 .6-1.5.8-3.8.5.3 1.1.6 1.7.9 0 0-.3-.7-1-1.6 1.2-.2 2.4-.5 3.7-1 .1 0-1.5-.5-3.6-.8.3-.5.7-1.1.9-1.7 0 0-.7.3-1.7.9-.1-1.2-.4-2.4-1-3.7 0 0-.7 1.4-.9 3.7-.5-.3-1-.6-1.6-.9 0 0 .3.7.9 1.7-1.2.1-2.5.4-3.7 1 0 0 1.5.7 3.8.9zM246.8-2216.8zM240.6-2219.5s.6.2 1.5.3c-.6.8-1.1 1.7-1.5 2.8 0 0 1.2-.6 2.6-1.8.1.5.3 1 .5 1.5 0 0 .2-.6.3-1.6.8.6 1.7 1.1 2.8 1.5-.1-.1-.7-1.2-1.7-2.4.5-.1 1-.3 1.5-.5 0 0-.6-.3-1.5-.4.6-.8 1.1-1.7 1.5-2.8 0 0-1.2.5-2.6 1.7-.1-.5-.3-1-.5-1.5 0 0-.3.6-.4 1.5-.8-.6-1.7-1.1-2.8-1.5 0 0 .5 1.3 1.8 2.7-.5.1-1 .3-1.5.5zM419.1-2223.5s.9-.2 2.1-.8c0 .4 0 .7.1 1.1 0 0 .3-.4.5-1 .4.5 1 1 1.6 1.5 0-.1-.2-1-.7-2.1.4 0 .7 0 1.1-.1 0 0-.4-.3-1-.5.5-.4 1.1-1 1.5-1.6 0 0-.9.1-2.1.7 0-.3 0-.7-.1-1.1 0 0-.3.3-.5 1-.4-.5-1-1.1-1.6-1.5 0 0 .1.9.7 2.1-.3 0-.7 0-1.1.1l1 .5c-.5.4-1 1-1.5 1.7zM441-2229.9c0 .4.1.7.2 1.1 0 0 .2-.4.4-1 .5.5 1.1 1 1.8 1.4-.1 0-.3-1-.9-2.1.4 0 .7 0 1.1-.1 0 0-.4-.3-1-.5.5-.5 1-1 1.4-1.7 0 0-.9.2-2.1.8 0-.4 0-.7-.1-1.1 0 0-.3.4-.5 1-.5-.5-1-1-1.7-1.4 0 0 .2.9.8 2.1-.4 0-.7.1-1.1.2 0 0 .4.2 1 .4-.5.5-1 1.1-1.4 1.8 0 0 .9-.3 2.1-.9zM575.8-2248s1.6-.4 3.6-1.4c0 .6.1 1.3.2 2 0 0 .4-.7.8-1.7.8.9 1.7 1.8 2.9 2.5.1 0-.3-1.6-1.3-3.5.6 0 1.3 0 1.9-.2 0 0-.6-.5-1.7-.9.9-.8 1.8-1.7 2.6-2.9 0 0-1.6.2-3.6 1.3 0-.6 0-1.2-.2-1.9 0 0-.5.6-.9 1.7-.8-.9-1.7-1.8-2.9-2.6 0 0 .2 1.6 1.3 3.7-.6 0-1.2.1-1.9.2 0 0 .7.4 1.7.8-1 .8-1.8 1.7-2.5 2.9zM668.9-2214.4c-.1.4-.2.9-.2 1.4 0 0 .4-.4.9-1 .4.8.8 1.5 1.5 2.3.1-.1.2-1.2-.1-2.8.4.1.9.2 1.3.2 0 0-.3-.4-1-.9.8-.4 1.6-.8 2.3-1.5 0 0-1.1-.2-2.7.2.1-.4.2-.8.2-1.3 0 0-.4.3-.9 1-.4-.8-.8-1.6-1.5-2.3 0 0-.2 1.2.2 2.8-.4-.1-.9-.2-1.4-.2 0 0 .4.4 1 .9-.8.4-1.5.8-2.3 1.5 0 0 1.2.1 2.7-.3zM379.2-2206.5s.4-.5.7-1.3c.6.7 1.2 1.5 2.1 2.2.2.1 0-1.1-.7-2.7h1.5s-.5-.4-1.3-.8c.8-.6 1.5-1.2 2.2-2.1 0 0-1.3.1-2.9.8v-1.5s-.4.5-.8 1.3c-.6-.8-1.2-1.5-2.1-2.2 0 0 .1 1.3.8 2.9h-1.5s.5.4 1.3.7c-.7.6-1.5 1.2-2.2 2.1 0 0 1.3-.2 2.9-.9v1.5zM809.9-2179.7s-.6.1-1.5.5c.1-1 .1-2.1-.1-3.2 0 0-.8 1.1-1.4 2.9-.4-.4-.8-.7-1.2-1 0 0 .1.6.5 1.5-1-.1-2.1 0-3.2.2 0 0 1.2.7 3 1.3-.4.4-.7.8-1 1.3 0 0 .6-.1 1.5-.5-.1 1 0 2.1.2 3.2-.1-.1.7-1.2 1.2-3 .4.4.8.7 1.2 1 0 0-.1-.6-.5-1.5 1 .1 2.1.1 3.2-.1 0 0-1.1-.8-2.9-1.4.4-.4.7-.7 1-1.2zM830.3-2232c0 .6.1 1.2.3 1.8 0 0 .3-.7.6-1.7.8.8 1.7 1.5 2.8 2.2-.2-.2-.7-1.6-1.5-3.1.6 0 1.2-.1 1.8-.3 0 0-.6-.4-1.6-.7.8-.8 1.6-1.7 2.2-2.8 0 0-1.5.3-3.3 1.4 0-.6-.1-1.1-.3-1.7 0 0-.4.6-.7 1.6-.8-.8-1.7-1.6-2.8-2.2 0 0 .3 1.5 1.5 3.3-.6 0-1.2.1-1.8.3 0 0 .6.3 1.7.6-.8.8-1.5 1.7-2.2 2.9 0 0 1.5-.5 3.3-1.6zM834.1-2229.7zM833.2-1920.1c-.3-.6-.6-1.2-1-1.8 0 0-.2.8-.2 2.1-1.2-.6-2.5-1.1-4-1.3 0 0 .9 1.5 2.9 3.1-.6.3-1.2.6-1.8 1 0 0 .8.1 2.1.1-.5 1.2-1 2.5-1.3 4 0 0 1.5-1.1 3-3 .3.6.6 1.2 1.1 1.9 0 0 .1-.8.1-2.1 1.2.5 2.5 1 4 1.3.1 0-1-1.4-2.9-2.9.6-.3 1.2-.6 1.8-1 0 0-.8-.2-2.1-.2.6-1.2 1.1-2.5 1.3-4 0 0-1.5.9-3 2.8zM859.6-1842.5c-.1-.7-.2-1.3-.4-2 0 0-.4.7-.7 1.9-1-.9-2.1-1.7-3.4-2.4 0 0 .5 1.7 1.9 3.8-.6.1-1.3.2-2 .5 0 0 .8.4 2 .7-.8 1-1.7 2.1-2.3 3.5 0 0 1.7-.6 3.7-2 .1.7.2 1.4.5 2.1 0 0 .4-.8.7-2 1 .8 2.1 1.7 3.5 2.3-.4-.1-1-1.8-2.3-3.7.7-.1 1.3-.2 2-.4 0 0-.7-.4-1.9-.7.9-1 1.7-2.1 2.4-3.4 0 0-1.7.5-3.7 1.8zM889.2-1718.6s-.8-.4-2-.6c.8-1 1.6-2.2 2.2-3.5 0 0-1.6.6-3.6 2.1-.1-.6-.3-1.3-.6-2 0 0-.4.7-.6 2-1-.8-2.2-1.6-3.5-2.2 0 0 .6 1.7 2.1 3.6-.6.1-1.3.3-2 .6 0 0 .8.3 2 .5-.8 1-1.5 2.2-2.1 3.6 0 0 1.6-.7 3.5-2.2.1.7.3 1.3.6 2 0 0 .3-.8.5-2 1 .8 2.2 1.5 3.6 2.1.1.1-.6-1.5-2.1-3.4.7-.1 1.3-.3 2-.6zM803.3-1668.9zM803.4-1673.5c-.5.3-1 .7-1.4 1.2 0 0 .8 0 1.8-.3-.3 1.1-.4 2.4-.4 3.7.1-.2 1-1.3 1.9-3 .3.5.7 1 1.2 1.4 0 0 0-.8-.2-1.8 1.1.3 2.4.5 3.7.5 0 0-1.1-1.1-3-2.2.5-.3 1-.7 1.4-1.2 0 0-.7 0-1.8.2.3-1.1.5-2.4.5-3.7 0 0-1.2 1.1-2.2 3.1-.3-.5-.7-1-1.2-1.4 0 0 0 .8.3 1.8-1.1-.3-2.4-.4-3.7-.4 0 0 1.2 1.1 3.1 2.1zM841.1-1668.8s-.4-.7-1.3-1.6c1.3-.4 2.5-1 3.8-1.8 0 0-1.7-.4-4.2-.2.3-.6.5-1.3.6-2 0 0-.7.4-1.6 1.3-.4-1.3-1-2.5-1.8-3.8 0 0-.4 1.7-.2 4.2-.6-.2-1.3-.4-2-.6 0 0 .5.7 1.4 1.5-1.2.4-2.5 1-3.8 1.9 0 0 1.8.3 4.2 0-.2.6-.5 1.3-.6 2.1 0 0 .7-.5 1.5-1.4.4 1.2 1 2.5 1.9 3.7.1.2.3-1.5.1-3.9.6.3 1.3.5 2 .6zM803.8-1635.4s0-.7-.1-1.7c1 .3 2.1.5 3.3.5 0 0-.9-1.1-2.6-2 .4-.3.9-.6 1.3-1 0 0-.7 0-1.6.1.3-1 .5-2.1.5-3.3 0 0-1.1.9-2.1 2.7-.3-.4-.6-.9-1.1-1.3 0 0 0 .7.2 1.6-1-.3-2.1-.5-3.3-.5 0 0 1 1 2.7 2-.4.3-.9.6-1.3 1.1 0 0 .7 0 1.7-.2-.3 1-.5 2.1-.5 3.3 0 .1 1-.9 1.9-2.6.3.5.6.9 1 1.3zM738.4-1763.5s1.5.3 3.5.3c-.2.5-.4 1.1-.6 1.7 0 0 .6-.4 1.3-1.1.3 1 .7 2.1 1.4 3.2-.1 0 .2-1.4.2-3.4.5.2 1 .5 1.6.6 0 0-.3-.6-1-1.4 1.1-.3 2.1-.7 3.2-1.3 0 0-1.4-.4-3.4-.4.2-.5.5-1 .6-1.6 0 0-.6.3-1.4 1-.3-1.1-.7-2.2-1.3-3.2 0 0-.4 1.4-.4 3.5-.5-.2-1-.4-1.6-.6 0 0 .4.6 1.1 1.3-1 .3-2.1.7-3.2 1.4zM754.5-1726.4s-1.1-1-3-1.8l1.2-1.2s-.7 0-1.7.4c.2-1.1.3-2.3.1-3.5 0 0-1 1.1-1.8 3.1-.4-.4-.8-.8-1.3-1.2 0 0 .1.7.4 1.7-1.1-.2-2.3-.2-3.6 0 0 0 1.2.9 3.1 1.7-.4.4-.9.8-1.3 1.3 0 0 .7-.1 1.7-.5-.2 1.1-.2 2.3 0 3.5.2 0 1-1.2 1.8-3.1.4.4.8.9 1.3 1.2 0 0 0-.7-.4-1.7 1.1.2 2.3.3 3.5.1zM768.8-1662.6l-.6-1.2s-.1.6-.1 1.4c-.7-.4-1.6-.8-2.6-1 0 0 .7 1 1.9 2.1-.4.2-.8.4-1.3.6 0 0 .6.1 1.4.1-.4.7-.8 1.6-1 2.6.1.2 1-.5 2.1-1.7.1.4.3.8.6 1.2 0 0 .2-.5.2-1.4.8.4 1.6.8 2.6 1 0 0-.6-1-1.8-2.1.4-.1.8-.3 1.2-.6 0 0-.5-.2-1.4-.2.4-.8.8-1.6 1-2.6 0 0-1 .6-2.2 1.8zM833.2-1549.9s-.9 0-2.2.4c.3-1.4.5-2.9.4-4.5 0 0-1.4 1.4-2.5 3.8-.4-.6-.9-1.1-1.6-1.7 0 0 .1.9.5 2.2-1.4-.3-2.9-.4-4.6-.3 0 0 1.5 1.3 3.9 2.4-.6.4-1.2 1-1.7 1.6 0 0 .9-.1 2.2-.5-.3 1.4-.4 2.9-.3 4.6.1 0 1.4-1.5 2.5-3.9.4.6.9 1.2 1.5 1.7 0 0 0-.9-.4-2.2 1.4.3 2.9.5 4.5.4 0 0-1.4-1.3-3.8-2.5.6-.4 1.2-.9 1.6-1.5zM818.8-1514.8c-.8.3-1.5.8-2.3 1.3 0 0 1.1.2 2.6.1-.7 1.4-1.2 3.1-1.6 5 .1 0 1.9-1.3 3.8-3.6.3.8.7 1.5 1.2 2.3 0 0 .2-1 .2-2.6 1.5.7 3.1 1.3 4.9 1.6 0 0-1.1-1.9-3.5-3.8.8-.3 1.5-.7 2.2-1.2 0 0-1-.2-2.6-.2.7-1.5 1.3-3.1 1.6-4.9 0 0-1.9 1.2-3.8 3.6-.3-.7-.7-1.5-1.3-2.3 0 0-.2 1-.1 2.6-1.4-.7-3.1-1.2-5-1.6 0 0 1.3 1.8 3.7 3.7zM844.9-1507.4c-.7 1.6-1.2 3.3-1.5 5.3-.1-.1 1.7-1.5 3.6-4 .4.8.8 1.6 1.4 2.4 0 0 .2-1.1.1-2.7 1.6.7 3.3 1.3 5.3 1.6 0 0-1.3-1.9-3.9-3.9.8-.4 1.6-.8 2.3-1.4 0 0-1.1-.2-2.7-.1.7-1.6 1.3-3.3 1.6-5.3 0 0-2 1.3-3.9 4-.4-.8-.8-1.6-1.5-2.4 0 0-.1 1.1 0 2.7-1.6-.7-3.3-1.2-5.3-1.5 0 0 1.5 1.9 4.1 3.8-.8.4-1.6.9-2.4 1.5 0 0 1.1.1 2.8 0zM853.6-1460.8s-1-.4-2.7-.6c1-1.4 1.9-3.1 2.5-5 0 0-2.2 1-4.6 3.2-.2-.8-.6-1.7-1-2.6 0 0-.3 1.1-.5 2.7-1.4-.9-3.1-1.8-5.1-2.4 0 0 1.1 2.1 3.4 4.5-.9.2-1.8.6-2.7 1 0 0 1.1.3 2.8.5-.9 1.4-1.8 3.1-2.4 5.1-.2.1 1.9-1 4.3-3.2.2.9.5 1.7 1 2.6 0 0 .4-1 .6-2.7 1.4 1 3.1 1.9 5 2.5 0 0-.9-2.1-3.2-4.6.8-.2 1.8-.5 2.6-1zM829.1-1410.9c.7-.3 1.4-.7 2-1.1 0 0-.9-.2-2.3-.1.7-1.3 1.2-2.9 1.4-4.5 0 0-1.7 1.1-3.5 3.3-.3-.7-.7-1.4-1.2-2.1 0 0-.1 1 0 2.4-1.3-.6-2.8-1.1-4.6-1.4 0 0 1.2 1.6 3.4 3.3-.7.3-1.4.7-2.1 1.2 0 0 1 .1 2.4 0-.6 1.3-1.1 2.8-1.4 4.6.2 0 1.8-1.2 3.4-3.3.3.7.7 1.4 1.2 2.1 0 0 .2-.9.1-2.4 1.3.6 2.9 1.2 4.5 1.4 0 0-1.1-1.7-3.3-3.4zM566.4-1440.2s-.6.6-1.2 1.6c-.7-1.1-1.5-2.2-2.6-3.2 0 0 0 1.8.7 4.1-.6-.1-1.3-.2-2.1-.1 0 0 .6.6 1.7 1.2-1.1.7-2.2 1.5-3.2 2.7 0 0 1.8-.1 4.1-.9-.1.7-.2 1.4-.1 2.1 0 0 .6-.6 1.2-1.7.7 1.1 1.5 2.2 2.7 3.2-.1-.1-.2-1.8-1-4.1.7.1 1.3.2 2.1.2 0 0-.6-.6-1.6-1.2 1.1-.7 2.2-1.5 3.2-2.6 0 0-1.7 0-4 .7.1-.6.2-1.3.1-2zM401.2-1447.1c.1.7.2 1.4.4 2.1 0 0 .4-.8.8-1.9.9.9 2 1.8 3.3 2.5 0-.1-.5-1.8-1.7-3.8.7 0 1.3-.1 2-.3 0 0-.7-.5-1.9-.8.9-.9 1.8-2 2.5-3.3 0 0-1.7.4-3.8 1.7 0-.7-.1-1.3-.3-2 0 0-.4.7-.8 1.9-.9-.9-2-1.8-3.3-2.5 0 0 .4 1.7 1.7 3.8-.7.1-1.3.2-2.1.4 0 0 .7.4 1.9.7-.9.9-1.8 2-2.5 3.3 0 0 1.7-.5 3.8-1.8zM259.5-1408.2c.6-.3 1.1-.7 1.7-1.2 0 0-.8-.1-2 .1.5-1.2.8-2.6.9-4.1 0 0-1.4 1.1-2.7 3.2-.3-.6-.7-1.1-1.2-1.7 0 0 0 .8.2 2.1-1.2-.4-2.6-.7-4.1-.8 0 0 1.2 1.3 3.3 2.6-.6.3-1.2.7-1.7 1.2 0 0 .9 0 2.1-.2-.4 1.1-.7 2.5-.8 3.9.3-.4 1.2-1.4 2.2-2.9.3.6.7 1.2 1.2 1.7 0 0 .1-.8-.1-2.1 1.2.5 2.6.8 4.1.9 0 0-1.1-1.4-3.1-2.7zM255.2-1402.9v-.2c-.1.2-.2.3 0 .2zM118.2-1418.8s-1.3-.8-3.4-1.3c.4-.4.7-.9 1.1-1.5 0 0-.7.2-1.7.7 0-1.2-.1-2.4-.5-3.7 0 0-.9 1.3-1.4 3.5-.4-.4-.9-.7-1.5-1.1 0 0 .2.7.7 1.7-1.1 0-2.4.2-3.7.5 0 0 1.4.7 3.5 1.2-.4.5-.8 1-1.1 1.6 0 0 .7-.2 1.7-.8 0 1.1.2 2.4.5 3.7.1 0 .9-1.3 1.3-3.4.4.4.9.8 1.5 1.1 0 0-.2-.7-.7-1.7 1.2 0 2.4-.1 3.7-.5zM35.6-1440.1s1.2-.3 2.7-1.1c0 .5.1 1 .2 1.5 0 0 .3-.5.6-1.3.6.7 1.3 1.3 2.3 1.9 0-.1-.3-1.3-1.1-2.8.5 0 1 0 1.5-.2 0 0-.5-.3-1.3-.7.7-.6 1.4-1.3 1.9-2.2 0 0-1.2.2-2.7 1 0-.5 0-.9-.2-1.4 0 0-.3.5-.7 1.3-.6-.7-1.3-1.4-2.2-1.9 0 0 .2 1.2 1.1 2.8-.5 0-1 .1-1.5.2 0 0 .5.3 1.3.6-.7.6-1.3 1.3-1.9 2.3zM55.6-1450.3s-.4.5-.9 1.3c-.5-.8-1.2-1.7-2.1-2.4 0 0 0 1.4.7 3.1-.5-.1-1-.1-1.6 0 0 0 .5.4 1.3.8-.8.6-1.6 1.2-2.4 2.1 0 0 1.4-.1 3.1-.8-.1.5-.1 1 0 1.6 0 0 .4-.5.8-1.3.6.8 1.2 1.6 2.1 2.4.2.1 0-1.2-.6-2.9.5.1 1 .1 1.6 0 0 0-.5-.4-1.3-.9.8-.5 1.7-1.2 2.4-2.1 0 0-1.3 0-3.1.7.1-.5.1-1 0-1.6zM96.1-1683.8c-.1-.5-.2-1.1-.4-1.6 0 0-.3.6-.6 1.6-.8-.7-1.7-1.4-2.8-1.9 0 0 .4 1.4 1.6 3-.5.1-1.1.2-1.6.4 0 0 .6.3 1.6.5-.7.8-1.3 1.7-1.8 2.8 0 0 1.4-.5 2.9-1.7.1.5.2 1.1.4 1.7 0 0 .3-.6.5-1.6.8.7 1.7 1.3 2.8 1.8.1.2-.4-1.1-1.5-2.7.5-.1 1.1-.2 1.6-.4 0 0-.6-.3-1.6-.6.7-.8 1.4-1.7 1.9-2.8 0 0-1.4.4-3 1.5zM47.4-1872.6c.1.5.2.9.4 1.4 0 0 .2-.6.4-1.4.7.6 1.5 1.1 2.4 1.5-.2-.2-.7-1.2-1.5-2.4.5-.1.9-.2 1.4-.4 0 0-.5-.3-1.4-.4.6-.7 1.1-1.5 1.6-2.5 0 0-1.2.4-2.5 1.4-.1-.5-.2-.9-.4-1.4 0 0-.3.5-.4 1.4-.7-.6-1.5-1.1-2.5-1.6 0 0 .4 1.2 1.5 2.6-.5.1-.9.2-1.4.4 0 0 .6.2 1.4.4-.6.7-1.1 1.5-1.5 2.5 0 0 1.2-.5 2.5-1.5zM50.7-1871.1zM141.5-1803.7s.6.7 1.6 1.6c-1.3.5-2.7 1.3-4.1 2.3 0 0 2 .2 4.7-.2-.2.7-.4 1.5-.6 2.3 0 0 .7-.6 1.6-1.6.5 1.3 1.3 2.7 2.3 4 .1.1.4-1.9 0-4.5.7.3 1.4.5 2.2.6 0 0-.5-.8-1.6-1.7 1.4-.5 2.8-1.2 4.1-2.2 0 0-1.9-.4-4.6 0 .3-.7.5-1.4.6-2.2 0 0-.8.5-1.7 1.5-.5-1.4-1.2-2.8-2.2-4.1 0 0-.4 1.9 0 4.7-.7-.2-1.4-.4-2.3-.5zM47.4-1960.4s.2 1.4 1.1 3.2c-.5 0-1.1.1-1.7.2 0 0 .6.4 1.5.7-.8.7-1.5 1.5-2.2 2.6 0 0 1.4-.3 3.2-1.2 0 .5.1 1.1.2 1.7 0 0 .4-.6.7-1.5.7.8 1.5 1.5 2.6 2.2.1 0-.2-1.4-1.1-3.1.5 0 1.1 0 1.7-.2 0 0-.5-.4-1.5-.8.8-.7 1.6-1.5 2.2-2.5 0 0-1.4.2-3.2 1.1 0-.5 0-1.1-.2-1.6 0 0-.4.5-.8 1.5-.7-.8-1.5-1.6-2.5-2.3zM246-1889.2c-.7-.2-1.6-.3-2.4-.3 0 0 .7.7 1.9 1.5-1.3.7-2.7 1.6-4 2.8 0 0 2.1 0 4.9-.6-.2.8-.3 1.6-.3 2.5 0 0 .7-.7 1.5-1.9.7 1.3 1.6 2.7 2.8 4-.2-.1-.2-2.2-.8-4.9.8.2 1.6.3 2.4.4 0 0-.6-.8-1.8-1.6 1.4-.7 2.8-1.6 4-2.7 0 0-2-.2-4.8.5.2-.7.3-1.5.4-2.4 0 0-.8.6-1.6 1.8-.7-1.4-1.6-2.8-2.7-4 0 0-.2 2.1.5 4.9zM286.6-1903.9s.6.6 1.5 1.2c-1 .6-2.1 1.3-3.1 2.4 0 0 1.7 0 3.9-.6-.1.6-.2 1.3-.2 2 0 0 .6-.6 1.2-1.6.6 1 1.3 2.1 2.4 3.1 0 0-.1-1.6-.7-3.8.6.1 1.3.2 1.9.2 0 0-.5-.6-1.5-1.2 1.1-.6 2.2-1.3 3.2-2.3 0 0-1.6-.1-3.8.5.1-.6.2-1.2.2-1.9 0 0-.6.5-1.2 1.5-.6-1.1-1.3-2.2-2.3-3.2 0 0-.1 1.7.5 3.9-.6-.1-1.3-.2-2-.2zM478.7-1987s.6 1.5 2.1 3.3c-.6.1-1.2.3-1.8.6 0 0 .7.3 1.9.4-.7 1-1.3 2.1-1.8 3.4 0 0 1.5-.7 3.2-2.2.1.6.3 1.2.6 1.9 0 0 .3-.7.4-1.9 1 .7 2.1 1.3 3.4 1.8 0 .1-.7-1.3-2.1-3 .6-.1 1.2-.3 1.8-.6 0 0-.7-.3-1.8-.5.7-1 1.4-2.1 1.8-3.4 0 0-1.5.6-3.2 2.1-.1-.6-.3-1.2-.6-1.8 0 0-.3.7-.5 1.8-1-.7-2.1-1.4-3.4-1.9zM375.2-1922.3c-.2.5-.3 1.1-.3 1.8 0 0 .5-.5 1.2-1.3.4 1 1 2 1.9 3-.1-.2 0-1.7-.4-3.7.5.2 1.1.3 1.7.4 0 0-.4-.6-1.2-1.2 1-.4 2.1-1 3-1.8 0 0-1.5-.2-3.5.2.2-.5.3-1.1.3-1.7 0 0-.6.4-1.2 1.2-.4-1-1-2.1-1.8-3 0 0-.2 1.5.2 3.6-.5-.2-1.1-.3-1.7-.3 0 0 .5.5 1.3 1.2-1 .4-2 1.1-3 1.9 0 0 1.5.1 3.5-.3zM612.5-2013.2c-.5-.7-1.1-1.4-1.8-1.9 0 0 .1 1.1.7 2.6h-1.3s.4.3 1.1.7c-.7.5-1.3 1.1-1.9 1.9 0 0 1.1-.2 2.6-.8v1.4s.3-.4.7-1.2c.5.7 1.1 1.3 1.9 1.9-.1-.1-.3-1.2-.9-2.6h1.3s-.4-.4-1.1-.7c.7-.5 1.3-1.1 1.9-1.8 0 0-1.1.1-2.5.7v-1.3s-.4.4-.7 1.1zM395.4-2190.3s.9-.2 2.1-.7c0 .3 0 .7.1 1.1 0 0 .3-.4.5-1 .4.5.8.9 1.5 1.4-.1-.3-.3-1-.8-1.9h1.1s-.3-.3-.9-.6c.5-.4 1.1-.9 1.5-1.5 0 0-.9.1-2.1.6v-1.1s-.3.3-.5.9c-.4-.5-.9-1.1-1.5-1.5 0 0 .1.9.6 2.1-.3 0-.7 0-1.1.1 0 0 .4.3 1 .5-.5.4-1 .9-1.5 1.6zM399.7-2189.4c-.1 0-.1-.1-.1-.1 0 .1 0 .2.1.1zM430.9-1808.4c.5-.3 1-.7 1.5-1.2 0 0-.8 0-1.9.2.4-1.2.6-2.5.6-3.9 0 0-1.3 1.1-2.4 3.2-.3-.5-.8-1-1.3-1.5 0 0 0 .8.3 1.9-1.2-.3-2.5-.5-3.9-.5 0 0 1.2 1.2 3.3 2.3-.5.4-1.1.8-1.6 1.3 0 0 .8 0 2-.3-.3 1.2-.5 2.5-.5 3.9.1-.2 1.2-1.3 2.1-3.1.3.5.7 1.1 1.2 1.5 0 0 0-.8-.2-2 1.2.4 2.5.6 3.9.6 0 0-1.1-1.2-3.1-2.4zM427-1803zM352.2-2021.3c-.2-.5-.5-1-.8-1.5 0 0-.2.7-.2 1.7-1-.5-2.1-.9-3.4-1.2 0 0 .8 1.3 2.4 2.7-.5.2-1 .5-1.6.9 0 0 .7.1 1.8.1-.5 1-.9 2.1-1.1 3.4 0 0 1.2-.9 2.6-2.5.2.5.5 1.1.9 1.6 0 0 .1-.7.1-1.8 1 .5 2.1.9 3.4 1.1 0 0-.9-1.3-2.5-2.6.5-.2 1.1-.5 1.6-.8 0 0-.7-.2-1.8-.2.5-1 .9-2.1 1.2-3.3 0 0-1.3.8-2.6 2.4zM353.2-1971.3s1.2 1.3 3.4 2.5c-.5.4-1.1.8-1.6 1.4 0 0 .8 0 2-.3-.3 1.2-.5 2.6-.5 4.2 0 0 1.2-1.3 2.3-3.5.4.5.8 1.1 1.4 1.6 0 0 0-.9-.3-2.1 1.2.3 2.6.5 4.2.5.1 0-1.2-1.2-3.3-2.3.6-.4 1.1-.8 1.6-1.3 0 0-.8 0-2.1.2.4-1.3.6-2.7.5-4.1 0 0-1.3 1.2-2.4 3.3-.4-.5-.8-1.1-1.3-1.6 0 0 0 .8.2 2-1.3-.4-2.7-.6-4.1-.5zM429.2-2050.9c-.5.2-1 .5-1.5.8 0 0 .7.1 1.7 0-.4.9-.8 2-1 3.2 0 0 1.1-.9 2.3-2.4.2.5.5 1 .9 1.5 0 0 .1-.7 0-1.7.9.4 2 .8 3.2 1 .1.1-.7-1-2.2-2.2.5-.2 1-.5 1.5-.8 0 0-.7-.1-1.7-.1.5-.9.8-2 1-3.2 0 0-1.2.7-2.4 2.3-.2-.5-.5-1-.8-1.4 0 0-.1.7-.1 1.6-.9-.5-2-.8-3.2-1 0 0 .8 1.2 2.3 2.4zM383.3-2157c-.9-.5-1.9-1-3-1.3 0 0 .6 1.2 2.1 2.6-.5.2-1 .4-1.5.7 0 0 .6.1 1.6.2-.5.9-.9 1.9-1.2 3.1 0 0 1.2-.8 2.5-2.2.2.5.4 1 .7 1.5 0 0 .1-.7.2-1.6.9.5 1.9.9 3.1 1.2-.1.1-.8-1.1-2.2-2.4.5-.2 1-.4 1.5-.7 0 0-.6-.2-1.6-.2.5-.9 1-1.9 1.2-3 0 0-1.2.6-2.5 2-.2-.5-.4-1-.7-1.5 0 0-.2.6-.2 1.6zM420.4-2141.4c-.3.1-.6.3-.9.6h1c-.2.6-.4 1.2-.5 2 0 0 .7-.6 1.4-1.5.1.3.3.6.6.9v-1c.6.2 1.2.4 2 .5-.2 0-.8-.7-1.7-1.4.3-.1.6-.3.9-.5 0 0-.4-.1-1 0 .3-.6.5-1.3.6-2 0 0-.7.5-1.4 1.5-.1-.3-.3-.6-.5-.9 0 0-.1.4 0 1-.6-.3-1.3-.5-2-.6 0 0 .5.7 1.5 1.4zM615.3-1913.6s1 1.4 3 2.8c-.6.3-1.1.7-1.7 1.1 0 0 .8.1 2-.1-.5 1.2-.8 2.5-1 3.9 0 0 1.3-1.1 2.7-3 .3.6.7 1.2 1.1 1.7 0 0 .1-.8-.1-2 1.2.5 2.5.8 3.9 1 .2.1-.9-1.2-2.8-2.6.6-.3 1.2-.6 1.7-1.1 0 0-.8-.1-2 0 .5-1.2.9-2.5 1-3.9 0 0-1.4 1-2.8 2.9-.3-.6-.6-1.1-1.1-1.7 0 0-.1.8 0 2-1.2-.5-2.5-.9-3.9-1zM682.2-1878.5c.2.5.5 1 .8 1.5 0 0 .1-.7.1-1.6.9.4 1.9.8 3.1 1 .1 0-.7-1.1-2.2-2.3.5-.2 1-.4 1.4-.8 0 0-.6-.2-1.6-.1.5-.9.9-1.9 1.1-3.1 0 0-1.2.7-2.4 2.2-.2-.5-.4-1-.8-1.4 0 0-.2.6-.1 1.6-.9-.5-1.9-.9-3.1-1.1 0 0 .7 1.2 2.2 2.4-.5.2-1 .5-1.4.8 0 0 .7.1 1.6.1-.4.9-.8 1.9-1 3.1 0 0 1.1-.8 2.3-2.3zM562.6-1809.1s.4-.5.7-1.4c.6.7 1.4 1.5 2.4 2.1-.1-.3-.3-1.6-1.2-3.2.5 0 1 0 1.6-.1 0 0-.5-.4-1.4-.7.8-.6 1.5-1.4 2.1-2.3 0 0-1.3.2-3 1 0-.5 0-1-.1-1.5 0 0-.4.5-.7 1.4-.6-.8-1.4-1.5-2.3-2.1 0 0 .2 1.3 1 3-.5 0-1 0-1.6.2 0 0 .5.3 1.4.7-.7.6-1.5 1.4-2.1 2.4 0 0 1.3-.3 3-1.1 0 .5 0 1 .2 1.6zM429.2-1856.5c-.1 0-.1.1 0 0zM427.9-1861.1c-.4.5-.8 1-1.1 1.6 0 0 .8-.2 1.8-.8 0 1.2.2 2.5.6 3.8.1-.3.7-1.5 1.1-3.4.5.4 1 .8 1.6 1.1 0 0-.2-.8-.7-1.8 1.2 0 2.5-.1 3.8-.5 0 0-1.4-.9-3.6-1.4.4-.5.8-1 1.1-1.5 0 0-.7.2-1.8.7 0-1.2-.1-2.5-.5-3.8 0 0-.9 1.4-1.4 3.6-.5-.4-1-.8-1.6-1.1 0 0 .2.7.8 1.7-1.2 0-2.5.2-3.8.6 0 0 1.5.8 3.7 1.2zM204.5-1728.6c-.1-.7-.3-1.4-.6-2.1 0 0-.4.8-.6 2.1-1.1-.9-2.4-1.7-3.9-2.3 0 0 .6 1.8 2.3 3.9-.7.1-1.4.4-2.1.7 0 0 .9.3 2.2.5-.8 1.1-1.6 2.4-2.2 3.9 0 0 1.8-.8 3.8-2.5.1.7.4 1.4.7 2.2 0 0 .3-.9.5-2.2 1.1.8 2.4 1.6 3.9 2.2-.1.1-.9-1.6-2.5-3.6.7-.1 1.4-.3 2.1-.6 0 0-.8-.4-2.1-.6.9-1.1 1.7-2.4 2.3-3.9 0 0-1.8.6-3.8 2.3zM129.3-1640.9c0-.5-.1-1-.3-1.6 0 0-.4.5-.7 1.5-.7-.7-1.6-1.5-2.6-2 0 0 .3 1.4 1.3 3-.5 0-1.1.1-1.6.3 0 0 .6.3 1.5.6-.7.7-1.4 1.6-2 2.6 0 0 1.4-.4 3-1.4 0 .5.1 1.1.3 1.7 0 0 .3-.6.6-1.5.7.7 1.6 1.4 2.6 2 .2 0-.2-1.3-1.2-2.9.5 0 1.1-.1 1.6-.3 0 0-.6-.4-1.5-.7.7-.7 1.5-1.6 2-2.6 0 0-1.3.3-3 1.3zM213.4-1782c.5-.9 1-1.8 1.4-2.9 0 0-1.2.5-2.8 1.7-.3-2-.9-4.2-2-6.3 0 0-1.1 2.6-1.3 6.5-.9-.5-1.9-1-3-1.4 0 0 .6 1.2 1.8 2.7-2 .4-4.1 1-6.3 2.1 0 0 2.7.9 6.5 1.1-.5.9-1 1.9-1.4 3.1 0 0 1.2-.6 2.7-1.8.4 2 1 4.1 2.1 6.3 0-.1.9-2.7 1.1-6.5.9.6 1.9 1 3 1.4 0 0-.5-1.2-1.7-2.8 2-.3 4.2-.9 6.3-1.9 0 0-2.5-1.1-6.4-1.3zM205.2-1674.3c.6-.3 1.2-.7 1.7-1.2 0 0-.8-.1-2.1 0 .5-1.2.8-2.6.9-4 0 0-1.4 1-2.7 3.1-.3-.6-.7-1.1-1.1-1.7 0 0-.1.8 0 2-1.2-.5-2.6-.8-4-.9 0 0 1.1 1.4 3.2 2.8-.6.3-1.1.7-1.7 1.2 0 0 .8 0 2.1-.1-.4 1.2-.8 2.6-.9 4.1 0 0 1.3-1.2 2.7-3.2.3.6.7 1.2 1.2 1.7 0 0 0-.9-.1-2.1 1.2.4 2.6.8 4.1.9-.1 0-1.3-1.3-3.3-2.6zM75.4-1647.7c0-.5-.1-1.1-.3-1.7 0 0-.4.6-.7 1.6-.8-.8-1.7-1.5-2.8-2.1 0 0 .3 1.5 1.5 3.2-.5.1-1.1.2-1.7.3 0 0 .6.3 1.6.6-.7.8-1.5 1.7-2.1 2.8 0 0 1.4-.5 3.2-1.6.1.6.2 1.1.3 1.8 0 0 .3-.6.6-1.6.8.7 1.7 1.5 2.8 2.1.2.1-.3-1.3-1.4-3 .6 0 1.1-.1 1.7-.3 0 0-.6-.4-1.6-.7.8-.8 1.5-1.7 2.1-2.8 0 0-1.4.3-3.2 1.4zM399-1794.1s.7-.1 1.6-.4c-.2 1-.2 2.2-.1 3.4 0 .2.9-.9 1.6-2.7.3.4.7.8 1.2 1.2 0 0 0-.7-.3-1.6 1.1.2 2.2.3 3.4.1 0 0-1-1-2.9-1.7.4-.3.8-.7 1.2-1.2 0 0-.7 0-1.6.3.2-1.1.3-2.2.1-3.4 0 0-1 1.1-1.8 2.9-.3-.4-.7-.8-1.2-1.2 0 0 .1.7.4 1.6-1-.2-2.2-.2-3.4-.1 0 0 1.2.9 3 1.6-.4.3-.8.8-1.2 1.2zM670.7-1736.4s.1.8.4 2c-1.2-.3-2.6-.4-4.1-.3 0 0 1.3 1.1 3.5 2.1-.5.4-1 .9-1.5 1.4 0 0 .8-.1 2-.4-.3 1.2-.4 2.6-.3 4.1.1 0 1.2-1.3 2.2-3.4.4.5.8 1 1.4 1.5 0 0 0-.8-.3-2 1.2.3 2.6.4 4 .3 0 0-1.2-1.2-3.4-2.2.5-.4 1-.8 1.5-1.3 0 0-.8 0-2 .3.3-1.2.4-2.6.3-4 0 0-1.2 1.2-2.3 3.4-.4-.5-.8-1-1.4-1.5zM533.4-1740.2s-.7 0-1.6.3c.2-1 .3-2.2.2-3.3 0 0-1 1-1.7 2.9-.3-.4-.7-.8-1.2-1.2 0 0 .1.7.4 1.6-1-.2-2.1-.2-3.4-.1 0 0 1.1.9 2.9 1.6-.4.3-.8.7-1.2 1.2 0 0 .7-.1 1.6-.4-.2 1-.2 2.1-.1 3.4-.1-.1.8-1.3 1.5-3 .3.4.7.8 1.2 1.2 0 0 0-.7-.3-1.6 1 .2 2.2.3 3.3.2 0 0-1-.9-2.8-1.7.4-.3.8-.7 1.2-1.1zM740.5-1674.3c.7.4 1.4.7 2.3.9 0 0-.5-.9-1.5-1.9.4-.1.7-.3 1.1-.5 0 0-.5-.1-1.2-.2.4-.7.7-1.4.9-2.3 0 0-.9.5-1.9 1.6-.1-.4-.3-.7-.5-1.1 0 0-.1.5-.1 1.2-.7-.4-1.4-.7-2.3-.9 0 0 .6.9 1.6 1.9-.4.1-.8.3-1.1.5 0 0 .5.1 1.2.1-.4.7-.7 1.4-.9 2.3-.1.1.8-.4 1.7-1.5.1.4.3.7.5 1.1 0 0 .1-.5.2-1.2zM808.1-1582.6c.4-.4.7-.9 1-1.5 0 0-.7.2-1.7.7 0-1.2-.1-2.4-.5-3.6 0 0-.8 1.3-1.3 3.5-.4-.4-.9-.7-1.5-1.1 0 0 .2.7.7 1.7-1.1 0-2.3.1-3.6.5 0 0 1.4.7 3.5 1.2-.4.4-.7 1-1.1 1.5 0 0 .7-.2 1.7-.7 0 1.1.1 2.3.5 3.6 0 0 .8-1.4 1.3-3.4.4.4.9.8 1.5 1.1 0 0-.2-.7-.7-1.7 1.2 0 2.4-.1 3.6-.5 0 0-1.3-.8-3.4-1.3zM691-1526.7c-1.5.6-3 1.4-4.5 2.6 0 0 2.2.2 5.2-.3-.3.8-.5 1.6-.6 2.6 0 0 .8-.7 1.8-1.9.6 1.5 1.4 3 2.6 4.4-.1.1.2-2.1-.3-5 .8.3 1.6.5 2.5.6 0 0-.6-.9-1.8-1.8 1.5-.6 3-1.4 4.5-2.5 0 0-2.1-.4-5.1.1.3-.8.5-1.6.6-2.4 0 0-.8.6-1.8 1.7-.6-1.5-1.4-3-2.5-4.5 0 0-.4 2.2.1 5.2-.8-.3-1.6-.5-2.5-.6 0 0 .7.8 1.8 1.8zM750.7-1704.7s-.7-1.1-2.2-2.2c.4-.2.9-.5 1.3-.8 0 0-.6-.1-1.5 0 .4-.9.7-1.9.8-3 0 0-1.1.8-2.2 2.3-.2-.4-.5-.9-.8-1.3 0 0-.1.6 0 1.5-.9-.4-1.9-.7-3-.8 0 0 .8 1 2.3 2.1-.4.2-.9.5-1.3.9 0 0 .6.1 1.6 0-.4.9-.7 1.9-.8 3-.1 0 .9-.8 2-2.3.2.4.5.9.8 1.3 0 0 .1-.6 0-1.5.9.4 1.9.7 3 .8zM634.7-1696.4c1.2.6 2.5 1.1 4 1.4 0 0-.9-1.5-2.9-3.1.6-.3 1.2-.6 1.8-1 0 0-.8-.2-2.1-.2.6-1.2 1.1-2.5 1.4-4 0 0-1.6 1-3.2 2.9-.3-.6-.6-1.2-1.1-1.9 0 0-.1.9-.1 2.1-1.2-.6-2.5-1-4.1-1.3 0 0 1.1 1.5 3 3-.6.3-1.3.6-1.9 1.1 0 0 .9.1 2.1.1-.6 1.2-1 2.5-1.3 4.1.2 0 1.6-1.1 3.2-3 .3.6.6 1.3 1 1.9 0 0 .2-.8.2-2.1zM794.1-1871.5c-.2-.6-.5-1.3-.8-1.9 0 0-.3.8-.3 2-1.1-.7-2.4-1.3-3.8-1.7 0 0 .8 1.6 2.6 3.4-.6.2-1.3.5-1.9.9 0 0 .8.2 2.1.3-.7 1.1-1.2 2.4-1.6 3.9 0 0 1.6-.9 3.3-2.7.2.6.5 1.3.9 2 0 0 .2-.8.3-2.1 1.1.7 2.4 1.2 3.9 1.6-.3-.2-1.2-1.7-2.9-3.4.6-.2 1.3-.5 1.9-.8 0 0-.8-.3-2.1-.3.7-1.1 1.3-2.4 1.7-3.8 0 0-1.6.8-3.3 2.6zM656.1-1892.3c.6-.2 1.2-.5 1.7-.9 0 0-.8-.2-1.9-.2.6-1.1 1.1-2.3 1.3-3.7 0 0-1.4.8-2.9 2.6-.2-.6-.5-1.1-.9-1.7 0 0-.2.8-.2 1.9-1.1-.6-2.3-1.1-3.7-1.3 0 0 .9 1.4 2.7 3-.6.2-1.2.5-1.7.9 0 0 .8.1 1.9.1-.5 1.1-1 2.3-1.2 3.8 0 0 1.4-1 2.8-2.7.2.6.6 1.2 1 1.8 0 0 .1-.8.1-2 1.1.5 2.3 1 3.7 1.2 0 0-1-1.3-2.7-2.8zM750.5-2077s.8 0 1.8-.3c-.3 1.1-.5 2.3-.4 3.7.1-.2 1-1.3 1.9-2.9.3.5.7 1 1.2 1.4 0 0 0-.7-.2-1.8 1.1.3 2.4.5 3.7.5 0 0-1-1.1-3-2.2.5-.3 1-.7 1.4-1.2 0 0-.7 0-1.8.2.3-1.1.5-2.4.5-3.7 0 0-1.2 1.1-2.2 3-.3-.5-.7-1-1.2-1.4 0 0 0 .8.3 1.8-1.1-.3-2.3-.5-3.7-.4 0 0 1.2 1.1 3.1 2.1-.4.3-.9.7-1.4 1.2zM751.9-2073.6zM693.1-2092.9s.5-.1 1.1-.4c-.1.7-.1 1.5.1 2.4.1.1.7-.7 1.1-2 .3.3.5.5.9.8 0 0 0-.5-.3-1.1.7.1 1.5.1 2.3 0 0 0-.8-.6-2.1-1.1.3-.2.5-.5.8-.9 0 0-.5 0-1.1.3.1-.7.1-1.5 0-2.4 0 0-.6.8-1.1 2.1-.3-.3-.5-.5-.9-.8 0 0 .1.5.3 1.1-.7-.1-1.5-.1-2.4.1 0 0 .8.6 2.1 1l-.8.9zM571.2-2073.9c.1-.2.1-.5.1-.8 0 0-.3.2-.5.6-.2-.5-.5-.9-.8-1.3 0 0-.1.7.1 1.6-.2-.1-.5-.1-.8-.1 0 0 .2.2.6.5-.4.2-.9.5-1.3.9 0 0 .7 0 1.6-.1-.1.2-.1.5-.1.8 0 0 .2-.2.5-.6.2.4.5.9.9 1.3-.1-.2 0-.9-.2-1.8.2.1.5.1.8.2 0 0-.2-.3-.6-.5.5-.2.9-.5 1.3-.8.1 0-.6-.1-1.6.1zM494.5-2092.4s1.3-.3 3-1.1c0 .5 0 1 .1 1.6 0 0 .4-.5.7-1.4.6.7 1.4 1.5 2.4 2.1 0-.2-.3-1.5-1.1-3.1.5 0 1 0 1.6-.1 0 0-.5-.4-1.4-.7.8-.6 1.5-1.4 2.1-2.3 0 0-1.3.2-3 1 0-.5 0-1-.1-1.5 0 0-.4.5-.7 1.4-.6-.8-1.4-1.5-2.3-2.1 0 0 .2 1.3 1 3-.5 0-1 0-1.6.1 0 0 .5.3 1.4.7-.7.6-1.5 1.4-2.1 2.4zM465.1-2155.9c-.9.5-1.7 1.1-2.6 2 0 0 1.4 0 3.2-.5-.1.5-.2 1-.2 1.6 0 0 .5-.5 1-1.3.5.9 1.1 1.7 2 2.6-.1-.2-.1-1.5-.6-3.1.5.1 1 .2 1.6.2 0 0-.4-.5-1.2-1 .9-.5 1.8-1.1 2.6-1.9 0 0-1.3-.1-3.2.4.1-.5.2-1 .2-1.6 0 0-.5.4-1 1.2-.5-.9-1.1-1.8-1.9-2.6 0 0-.1 1.4.4 3.2-.5-.1-1-.2-1.6-.2 0 0 .5.5 1.3 1zM468.5-2151.5zM559.8-2177.2c.6.2 1.2.4 1.9.5 0 0-.4-.7-1.3-1.5 1.2-.4 2.4-1 3.5-1.8 0 0-1.6-.4-3.9-.1.2-.6.4-1.2.5-1.9 0 0-.7.4-1.5 1.3-.4-1.2-1-2.4-1.8-3.5 0 0-.4 1.6-.1 4-.6-.2-1.2-.4-1.9-.5 0 0 .5.6 1.4 1.4-1.1.4-2.3 1-3.5 1.9 0 0 1.7.2 4 0-.2.6-.4 1.2-.5 1.9 0 0 .6-.5 1.4-1.4.4 1.1 1 2.3 1.9 3.5-.1.1.2-1.5-.1-3.8zM587.7-2174c-1.1.3-2.2.8-3.3 1.6 0 0 1.5.3 3.7.1-.2.5-.4 1.1-.6 1.8 0 0 .6-.4 1.4-1.2.3 1.1.8 2.2 1.6 3.3 0 0 .3-1.5.1-3.6.5.2 1.1.4 1.7.6 0 0-.4-.6-1.1-1.4 1.1-.3 2.2-.8 3.3-1.5 0 0-1.5-.4-3.6-.3.2-.5.4-1.1.6-1.7 0 0-.6.4-1.4 1.1-.3-1.1-.8-2.2-1.5-3.3 0 0-.4 1.5-.3 3.7-.5-.2-1.1-.4-1.8-.6 0 0 .4.6 1.2 1.4zM400.5-1994.2s1.2 1.2 3.5 2.2c-.5.4-1 .9-1.5 1.4 0 0 .8-.1 2-.4-.2 1.2-.4 2.6-.2 4.1 0 0 1.1-1.4 2.1-3.5.4.5.9 1 1.4 1.5 0 0-.1-.8-.4-2 1.2.2 2.5.4 4 .2-.3-.1-1.5-1-3.3-1.9.5-.4 1-.8 1.5-1.4 0 0-.8 0-2 .3.3-1.3.4-2.6.3-4.1 0 0-1.2 1.2-2.2 3.4-.4-.5-.8-1-1.4-1.5 0 0 0 .8.3 2-1.3-.3-2.6-.4-4.1-.3zM411.5-1990.7c-.1.1 0 .1 0 0zM348.8-2073.4c.1.7.3 1.3.6 2 0 0 .3-.8.5-2 1 .8 2.2 1.5 3.6 2.1 0 .1-.7-1.6-2.1-3.4.7-.1 1.3-.3 2-.6 0 0-.8-.4-2-.6.8-1 1.6-2.2 2.2-3.5 0 0-1.6.6-3.6 2.1-.1-.6-.3-1.3-.6-2 0 0-.4.7-.6 2-1-.8-2.2-1.6-3.5-2.2 0 0 .6 1.7 2.1 3.6-.6.1-1.3.3-2 .6 0 0 .8.3 2 .5-.8 1-1.5 2.2-2.1 3.6 0 0 1.6-.7 3.5-2.2zM261.9-2103.2c.1.7.3 1.3.6 2 0 0 .3-.8.5-2 1 .8 2.2 1.5 3.6 2.1 0 .1-.7-1.6-2.1-3.4.7-.1 1.3-.3 2-.6 0 0-.8-.4-2-.6.8-1 1.6-2.2 2.2-3.5 0 0-1.6.6-3.6 2.1-.1-.6-.3-1.3-.6-2 0 0-.4.7-.6 2-1-.8-2.2-1.6-3.5-2.2 0 0 .6 1.7 2.1 3.6-.6.1-1.3.3-2 .6 0 0 .8.3 2 .5-.8 1-1.5 2.2-2.1 3.6 0 0 1.6-.7 3.5-2.2zM387.4-1301.6c-.1-.6-.3-1.3-.6-1.9 0 0-.4.7-.6 1.9-1-.8-2.2-1.6-3.5-2.1 0 0 .6 1.7 2.1 3.6-.6.1-1.3.3-2 .6 0 0 .8.3 2 .5-.8 1-1.5 2.2-2.1 3.6 0 0 1.6-.7 3.5-2.2.1.6.3 1.3.6 2 0 0 .3-.8.5-2 1 .8 2.2 1.5 3.6 2.1 0 .1-.7-1.5-2.1-3.4.6-.1 1.3-.3 2-.6 0 0-.7-.4-2-.6.8-1 1.6-2.2 2.1-3.5 0 0-1.6.6-3.5 2zM725.9-1333.4c-.1-.5-.2-1-.4-1.5 0 0-.3.6-.5 1.5-.8-.7-1.7-1.3-2.8-1.7 0 0 .4 1.3 1.7 2.8-.5.1-1 .2-1.6.5 0 0 .6.2 1.6.4-.6.8-1.2 1.7-1.7 2.8 0 0 1.3-.6 2.8-1.7.1.5.2 1 .5 1.6 0 0 .2-.6.4-1.6.8.6 1.7 1.2 2.7 1.6-.2-.2-.8-1.3-1.7-2.6.5-.1 1-.2 1.6-.4 0 0-.6-.3-1.5-.5.7-.8 1.2-1.7 1.7-2.8 0 0-1.3.4-2.8 1.6zM728.7-1328.7zM699-1408.5c-.1-.7-.3-1.4-.6-2.2 0 0-.4.8-.7 2.2-1.1-.9-2.4-1.8-3.9-2.4 0 0 .6 1.9 2.3 4-.7.1-1.5.3-2.2.7 0 0 .9.3 2.2.6-.9 1.1-1.7 2.4-2.3 4 0 0 1.8-.8 3.9-2.5.1.7.4 1.5.7 2.3 0 0 .3-.9.6-2.2 1.1.9 2.4 1.7 4 2.3 0 0-.8-1.8-2.4-3.9.7-.1 1.5-.3 2.2-.6 0 0-.8-.4-2.2-.7.9-1.1 1.8-2.4 2.4-3.9 0 0-1.8.6-4 2.3zM768.9-1077.6c-.1-.6-.3-1.2-.5-1.7 0 0-.3.7-.5 1.8-.9-.7-2-1.4-3.2-1.9 0 0 .5 1.5 1.9 3.3-.6.1-1.2.3-1.8.5 0 0 .7.3 1.8.5-.7.9-1.4 2-1.9 3.2 0 0 1.5-.6 3.2-2 .1.6.3 1.2.5 1.8 0 0 .3-.7.5-1.8.9.7 2 1.4 3.2 1.9 0-.1-.6-1.6-1.9-3.3.6-.1 1.2-.3 1.8-.5 0 0-.7-.3-1.8-.5.7-.9 1.4-2 1.9-3.2 0 0-1.5.5-3.2 1.9zM787.6-1265c-.1-.6-.3-1.3-.6-1.9 0 0-.4.7-.6 1.9-1-.8-2.2-1.6-3.5-2.1 0 0 .6 1.7 2.1 3.6-.6.1-1.3.3-2 .6 0 0 .8.3 2 .5-.8 1-1.5 2.2-2.1 3.6 0 0 1.6-.7 3.5-2.2.1.6.3 1.3.6 2 0 0 .3-.8.5-2 1 .8 2.2 1.5 3.6 2.1.1 0-.6-1.6-2-3.5.7-.1 1.3-.3 2-.6 0 0-.7-.4-2-.6.8-1 1.6-2.2 2.1-3.5 0 0-1.6.6-3.6 2.1zM867.4-1095c-.1-.6-.2-1.1-.5-1.7 0 0-.3.6-.5 1.7-.9-.7-1.9-1.4-3-1.9 0 0 .5 1.4 1.8 3.1-.6.1-1.1.3-1.7.5 0 0 .7.3 1.7.5-.7.9-1.3 1.9-1.8 3.1 0 0 1.4-.6 3-1.9.1.6.3 1.1.5 1.8 0 0 .3-.7.5-1.7.9.7 1.9 1.3 3.1 1.8 0-.1-.7-1.5-1.9-3.1.6-.1 1.1-.2 1.7-.5 0 0-.6-.3-1.7-.5.7-.9 1.4-1.9 1.9-3 0 0-1.4.5-3.1 1.8zM877.2-1360.3c-.1-.6-.3-1.3-.6-2 0 0-.4.7-.6 2-1-.8-2.2-1.6-3.5-2.2 0 0 .6 1.7 2.1 3.6-.6.1-1.3.3-2 .6 0 0 .8.3 2 .5-.8 1-1.5 2.2-2.1 3.6 0 0 1.6-.7 3.5-2.2.1.7.3 1.3.6 2 0 0 .3-.8.5-2 1 .8 2.2 1.5 3.6 2.1 0 .1-.7-1.6-2.1-3.4.7-.1 1.3-.3 2-.6 0 0-.8-.4-2-.6.8-1 1.6-2.2 2.2-3.5 0 0-1.6.6-3.6 2.1zM825.2-1287.3c-.1-.6-.3-1.3-.6-2 0 0-.4.7-.6 2-1-.8-2.2-1.6-3.5-2.2 0 0 .6 1.7 2.1 3.6-.6.1-1.3.3-2 .6 0 0 .8.3 2 .5-.8 1-1.5 2.2-2.1 3.6 0 0 1.6-.7 3.5-2.2.1.7.3 1.3.6 2 0 0 .3-.8.5-2 1 .8 2.2 1.5 3.6 2.1 0 .1-.7-1.6-2.1-3.4.7-.1 1.3-.3 2-.6 0 0-.8-.4-2-.6.8-1 1.6-2.2 2.2-3.5 0 0-1.6.6-3.6 2.1zM211.8-1042.8c.8-.1 1.6-.3 2.4-.7 0 0-.9-.4-2.4-.7 1-1.2 1.9-2.6 2.6-4.3 0 0-2 .7-4.3 2.5-.1-.8-.3-1.6-.7-2.4 0 0-.4.9-.7 2.4-1.2-1-2.6-1.9-4.3-2.6 0 0 .7 2 2.6 4.4-.8.2-1.6.4-2.4.7 0 0 .9.4 2.4.6-1 1.2-1.8 2.6-2.6 4.4 0 0 2-.9 4.3-2.7.2.8.4 1.6.7 2.5 0 0 .4-1 .6-2.4 1.2 1 2.6 1.8 4.4 2.5 0 0-.8-2-2.6-4.2zM299.2-1354.3c-.1-.6-.3-1.3-.6-2 0 0-.4.7-.6 2-1-.8-2.2-1.6-3.5-2.2 0 0 .6 1.7 2.1 3.6-.6.1-1.3.3-2 .6 0 0 .8.3 2 .5-.8 1-1.5 2.2-2.1 3.6 0 0 1.6-.7 3.5-2.2.1.7.3 1.3.6 2 0 0 .3-.8.5-2 1 .8 2.2 1.5 3.6 2.1 0 .1-.7-1.6-2.1-3.4.7-.1 1.3-.3 2-.6 0 0-.8-.4-2-.6.8-1 1.6-2.2 2.2-3.5 0 0-1.6.6-3.6 2.1zM121.6-1028.6c-.1-.7-.3-1.3-.6-2 0 0-.4.8-.6 2-1-.9-2.2-1.6-3.6-2.2 0 0 .6 1.7 2.2 3.7-.7.1-1.3.3-2.1.6 0 0 .8.3 2.1.5-.8 1-1.6 2.3-2.2 3.7 0 0 1.7-.7 3.6-2.3.1.7.3 1.4.6 2.1 0 0 .3-.8.5-2.1 1 .8 2.3 1.6 3.7 2.2.2 0-.5-1.6-2.1-3.5.7-.1 1.4-.3 2-.6 0 0-.8-.4-2-.6.9-1 1.6-2.2 2.2-3.6 0 0-1.7.6-3.7 2.1zM232-1242.4c.1.7.3 1.3.6 2 0 0 .3-.8.5-2 1 .8 2.2 1.5 3.6 2.1 0 .1-.7-1.6-2.1-3.4.7-.1 1.3-.3 2-.6 0 0-.8-.4-2-.6.8-1 1.6-2.2 2.2-3.5 0 0-1.6.6-3.6 2.1-.1-.6-.3-1.3-.6-2 0 0-.4.7-.6 2-1-.8-2.2-1.6-3.5-2.2 0 0 .6 1.7 2.1 3.6-.6.1-1.3.3-2 .6 0 0 .8.3 2 .5-.8 1-1.5 2.2-2.1 3.6 0 0 1.6-.7 3.5-2.2zM456.8-1083.2c-.1-.7-.3-1.5-.6-2.2 0 0-.4.8-.7 2.2-1.1-.9-2.5-1.8-4-2.4 0 0 .6 1.9 2.4 4.1-.7.1-1.5.4-2.3.7 0 0 .9.4 2.2.6-.9 1.1-1.7 2.5-2.4 4.1 0 0 1.8-.8 4-2.5.1.7.4 1.5.7 2.3 0 0 .4-.9.6-2.3 1.1.9 2.5 1.7 4.1 2.4.1-.1-.7-1.9-2.4-4 .7-.1 1.5-.3 2.2-.6 0 0-.8-.4-2.2-.7.9-1.1 1.8-2.5 2.4-4 0 0-1.9.6-4 2.3zM354.8-1057.3c-.2-.9-.4-1.9-.8-2.9 0 0-.5 1.1-.9 2.9-1.5-1.2-3.2-2.4-5.2-3.2 0 0 .8 2.5 3.1 5.4-.9.2-1.9.5-3 .9 0 0 1.2.5 2.9.8-1.2 1.5-2.2 3.2-3.1 5.3 0 0 2.4-1.1 5.2-3.3.2 1 .5 2 .9 3 0 0 .5-1.2.8-3 1.5 1.2 3.2 2.2 5.3 3.1.2-.1-.9-2.5-3.1-5.2 1-.2 2-.4 2.9-.8 0 0-1.1-.5-2.9-.9 1.2-1.5 2.4-3.2 3.2-5.2 0 0-2.4.8-5.3 3.1zM258.2-1331.3c-.1-.6-.3-1.3-.6-2 0 0-.4.7-.6 2-1-.8-2.2-1.6-3.5-2.2 0 0 .6 1.7 2.1 3.6-.6.1-1.3.3-2 .6 0 0 .8.3 2 .5-.8 1-1.5 2.2-2.1 3.6 0 0 1.6-.7 3.5-2.2.1.7.3 1.3.6 2 0 0 .3-.8.5-2 1 .8 2.2 1.5 3.6 2.1 0 .1-.7-1.6-2.1-3.4.7-.1 1.3-.3 2-.6 0 0-.8-.4-2-.6.8-1 1.6-2.2 2.2-3.5 0 0-1.6.6-3.6 2.1zM203.6-1225.7c.7-.1 1.3-.3 2-.6 0 0-.8-.4-2-.6.8-1 1.6-2.2 2.2-3.5 0 0-1.6.6-3.6 2.1-.1-.6-.3-1.3-.6-2 0 0-.4.7-.6 2-1-.8-2.2-1.6-3.5-2.2 0 0 .6 1.7 2.1 3.6-.6.1-1.3.3-2 .6 0 0 .8.3 2 .5-.8 1-1.5 2.2-2.1 3.6 0 0 1.6-.7 3.5-2.2.1.7.3 1.3.6 2 0 0 .3-.8.5-2 1 .8 2.2 1.5 3.6 2.1 0 .1-.7-1.6-2.1-3.4zM551.6-1358.5s-.7-.4-1.9-.6c.8-1 1.5-2.1 2.1-3.4 0 0-1.6.5-3.4 2-.1-.6-.3-1.3-.5-1.9 0 0-.4.7-.6 1.9-1-.8-2.1-1.5-3.4-2.1 0 0 .5 1.6 2 3.5-.6.1-1.3.3-1.9.6 0 0 .8.3 1.9.5-.8 1-1.5 2.1-2 3.5 0 0 1.6-.7 3.4-2.1.1.6.3 1.3.6 2 0 0 .3-.8.5-1.9 1 .8 2.1 1.5 3.5 2-.1-.1-.7-1.6-2.2-3.5.6-.1 1.3-.3 1.9-.5zM676.7-1240s-.7-.4-1.9-.6c.8-1 1.5-2.1 2-3.3 0 0-1.6.5-3.4 2-.1-.6-.3-1.2-.5-1.8 0 0-.3.7-.6 1.8-1-.8-2.1-1.5-3.3-2 0 0 .5 1.6 2 3.4-.6.1-1.2.3-1.9.6 0 0 .7.3 1.9.5-.7.9-1.4 2.1-2 3.4 0 0 1.6-.7 3.3-2.1.1.6.3 1.3.6 1.9 0 0 .3-.7.5-1.9.9.7 2.1 1.4 3.4 2 .1-.1-.6-1.6-2-3.4.6-.1 1.3-.3 1.9-.5zM782.7-1400.6c.6-.1 1.1-.3 1.7-.5 0 0-.7-.3-1.7-.5.7-.9 1.4-1.9 1.9-3.1 0 0-1.4.5-3.1 1.8-.1-.6-.2-1.1-.5-1.7 0 0-.3.6-.5 1.7-.9-.7-1.9-1.4-3.1-1.9 0 0 .5 1.5 1.8 3.2-.6.1-1.1.3-1.7.5 0 0 .7.3 1.7.5-.7.9-1.3 1.9-1.8 3.1 0 0 1.4-.6 3.1-1.9.1.6.3 1.2.5 1.8 0 0 .3-.7.5-1.7.9.7 1.9 1.3 3.1 1.8 0-.1-.6-1.5-1.9-3.1zM298.2-1283.3c-.1-.6-.3-1.3-.6-2 0 0-.4.7-.6 2-1-.8-2.2-1.6-3.5-2.2 0 0 .6 1.7 2.1 3.6-.6.1-1.3.3-2 .6 0 0 .8.3 2 .5-.8 1-1.5 2.2-2.1 3.6 0 0 1.6-.7 3.5-2.2.1.7.3 1.3.6 2 0 0 .3-.8.5-2 1 .8 2.2 1.5 3.6 2.1 0 .1-.7-1.6-2.1-3.4.7-.1 1.3-.3 2-.6 0 0-.8-.4-2-.6.8-1 1.6-2.2 2.2-3.5 0 0-1.6.6-3.6 2.1zM747.6-1297s-.7-.3-1.8-.5c.7-.9 1.4-1.9 1.9-3.2 0 0-1.5.5-3.2 1.8-.1-.6-.3-1.2-.5-1.7 0 0-.3.7-.5 1.7-.9-.7-1.9-1.4-3.2-1.9 0 0 .5 1.5 1.9 3.2-.6.1-1.2.3-1.8.5 0 0 .7.3 1.8.5-.7.9-1.4 2-1.9 3.2 0 0 1.5-.6 3.2-2 .1.6.3 1.2.5 1.8 0 0 .3-.7.5-1.8.9.7 2 1.4 3.2 1.9.1.1-.6-1.3-1.9-3 .6-.1 1.2-.3 1.8-.5zM369.3-1372.6c.1.6.3 1.1.5 1.7 0 0 .3-.7.4-1.7.9.7 1.9 1.3 3.1 1.8 0 0-.6-1.4-1.8-3 .6-.1 1.1-.2 1.7-.5 0 0-.6-.3-1.7-.5.7-.9 1.4-1.9 1.8-3 0 0-1.4.5-3 1.8-.1-.5-.2-1.1-.5-1.7 0 0-.3.6-.5 1.7-.9-.7-1.9-1.4-3-1.8 0 0 .5 1.4 1.8 3.1-.5.1-1.1.3-1.7.5 0 0 .7.3 1.7.4-.7.9-1.3 1.9-1.8 3.1 0 0 1.4-.6 3-1.9zM321.2-1287.3c-.1-.6-.3-1.3-.6-2 0 0-.4.7-.6 2-1-.8-2.2-1.6-3.5-2.2 0 0 .6 1.7 2.1 3.6-.6.1-1.3.3-2 .6 0 0 .8.3 2 .5-.8 1-1.5 2.2-2.1 3.6 0 0 1.6-.7 3.5-2.2.1.7.3 1.3.6 2 0 0 .3-.8.5-2 1 .8 2.2 1.5 3.6 2.1 0 .1-.7-1.6-2.1-3.4.7-.1 1.3-.3 2-.6 0 0-.8-.4-2-.6.8-1 1.6-2.2 2.2-3.5 0 0-1.6.6-3.6 2.1zM464.9-1120.2c-.1-.6-.2-1.1-.5-1.7 0 0-.3.6-.5 1.7-.9-.7-1.9-1.4-3.1-1.9 0 0 .5 1.4 1.8 3.1-.6.1-1.1.3-1.7.5 0 0 .7.3 1.7.5-.7.9-1.3 1.9-1.8 3.1 0 0 1.4-.6 3.1-1.9.1.6.3 1.2.5 1.8 0 0 .3-.7.5-1.7.9.7 1.9 1.3 3.1 1.8 0 0-.6-1.4-1.9-3 .6-.1 1.1-.2 1.7-.5 0 0-.6-.3-1.7-.5.7-.9 1.4-1.9 1.9-3.1 0 0-1.4.5-3.1 1.8zM471-1377.1s-.7-.3-1.8-.5c.8-.9 1.4-2 1.9-3.2 0 0-1.5.5-3.2 1.9-.1-.6-.3-1.2-.5-1.8 0 0-.3.7-.5 1.8-.9-.8-2-1.4-3.2-2 0 0 .5 1.5 1.9 3.3-.6.1-1.2.3-1.8.5 0 0 .7.3 1.8.5-.7.9-1.4 2-1.9 3.3 0 0 1.5-.6 3.2-2 .1.6.3 1.2.5 1.8 0 0 .3-.7.5-1.8.9.7 2 1.4 3.3 1.9 0-.1-.6-1.5-2-3.2.6-.1 1.2-.3 1.8-.5zM386.2-1409.1c-.1-.5-.2-1.1-.5-1.6 0 0-.3.6-.5 1.6-.8-.7-1.8-1.3-3-1.8 0 0 .5 1.4 1.8 3-.5.1-1.1.3-1.7.5 0 0 .7.3 1.7.4-.7.8-1.3 1.8-1.8 3 0 0 1.4-.6 3-1.9.1.5.3 1.1.5 1.7 0 0 .3-.7.4-1.7.8.7 1.8 1.3 3 1.8-.2-.2-.7-1.3-1.8-2.7.5-.1 1.1-.2 1.7-.5 0 0-.6-.3-1.6-.5.7-.8 1.3-1.8 1.8-3 0 0-1.4.5-3 1.7zM389.1-1404.1zM666.6-1282.6c.6-.1 1.2-.3 1.9-.5 0 0-.7-.3-1.8-.6.8-.9 1.5-2 2-3.3 0 0-1.5.5-3.3 1.9-.1-.6-.3-1.2-.5-1.8 0 0-.3.7-.6 1.8-.9-.8-2-1.5-3.3-2 0 0 .5 1.6 2 3.4-.6.1-1.2.3-1.9.6 0 0 .7.3 1.9.5-.7.9-1.4 2-2 3.4 0 0 1.5-.7 3.3-2.1.1.6.3 1.2.6 1.9 0 0 .3-.7.5-1.9.9.7 2 1.4 3.4 2-.2-.1-.8-1.6-2.2-3.3zM689.8-1327.3c-.1-.5-.2-1.1-.5-1.6 0 0-.3.6-.5 1.6-.8-.7-1.8-1.3-2.9-1.8 0 0 .5 1.4 1.7 3-.5.1-1.1.3-1.6.5 0 0 .6.3 1.6.4-.6.8-1.2 1.8-1.7 2.9 0 0 1.3-.6 2.9-1.8.1.5.3 1.1.5 1.7 0 0 .3-.6.4-1.6.8.6 1.8 1.2 2.9 1.7 0 0-.5-1.3-1.7-2.8.5-.1 1.1-.2 1.6-.5 0 0-.6-.3-1.6-.5.7-.8 1.3-1.8 1.8-2.9 0 0-1.3.5-2.9 1.7zM401.3-1267.1c.1.6.3 1.3.6 2 0 0 .3-.8.5-2 1 .8 2.1 1.5 3.5 2.1.1 0-.6-1.6-2.1-3.4.6-.1 1.3-.3 1.9-.5 0 0-.7-.4-1.9-.6.8-1 1.6-2.1 2.1-3.4 0 0-1.6.5-3.5 2-.1-.6-.3-1.3-.5-1.9 0 0-.4.7-.6 1.9-1-.8-2.1-1.6-3.4-2.1 0 0 .6 1.6 2.1 3.5-.6.1-1.3.3-1.9.6 0 0 .8.3 1.9.5-.8 1-1.5 2.1-2.1 3.5 0 0 1.6-.7 3.4-2.2zM725.2-1397h-.1.1zM273-1090.4c.1.7.3 1.3.6 2 0 0 .3-.8.5-2 1 .8 2.2 1.5 3.6 2.1 0 .1-.7-1.6-2.1-3.4.7-.1 1.3-.3 2-.6 0 0-.8-.4-2-.6.8-1 1.6-2.2 2.2-3.5 0 0-1.6.6-3.6 2.1-.1-.6-.3-1.3-.6-2 0 0-.4.7-.6 2-1-.8-2.2-1.6-3.5-2.2 0 0 .6 1.7 2.1 3.6-.6.1-1.3.3-2 .6 0 0 .8.3 2 .5-.8 1-1.5 2.2-2.1 3.6 0 0 1.6-.7 3.5-2.2zM709.3-1382.4c.5-.1 1-.2 1.4-.4 0 0-.5-.3-1.4-.4.6-.7 1.1-1.6 1.5-2.5 0 0-1.2.4-2.6 1.5-.1-.5-.2-.9-.4-1.4 0 0-.3.5-.4 1.4-.7-.6-1.6-1.1-2.5-1.5 0 0 .4 1.2 1.5 2.6-.5.1-.9.2-1.4.4 0 0 .6.2 1.4.4-.6.7-1.1 1.6-1.5 2.6 0 0 1.2-.5 2.5-1.6.1.5.2 1 .4 1.5 0 0 .2-.6.4-1.4.7.6 1.6 1.1 2.6 1.5.1-.2-.4-1.4-1.5-2.7zM650.9-1214.3c-.1-.6-.3-1.3-.5-1.9 0 0-.4.7-.6 1.9-1-.8-2.1-1.6-3.4-2.1 0 0 .6 1.6 2.1 3.5-.6.1-1.3.3-1.9.6 0 0 .8.3 1.9.5-.8 1-1.5 2.1-2.1 3.5 0 0 1.6-.7 3.4-2.2.1.6.3 1.3.6 2 0 0 .3-.8.5-2 1 .8 2.1 1.5 3.5 2.1 0 0-.6-1.6-2.1-3.4.6-.1 1.3-.3 1.9-.5 0 0-.7-.4-1.9-.6.8-1 1.6-2.1 2.1-3.4 0 0-1.6.5-3.5 2zM597.5-1130.4c-.1-.6-.3-1.3-.6-1.9 0 0-.4.7-.6 1.9-1-.8-2.2-1.6-3.5-2.1 0 0 .6 1.7 2.1 3.6-.6.1-1.3.3-2 .6 0 0 .8.3 2 .5-.8 1-1.5 2.2-2.1 3.6 0 0 1.6-.7 3.5-2.2.1.6.3 1.3.6 2 0 0 .3-.8.5-2 1 .8 2.2 1.5 3.6 2.1 0-.1-.6-1.7-2.1-3.5.6-.1 1.3-.3 2-.6 0 0-.7-.4-2-.6.8-1 1.6-2.2 2.1-3.5 0 0-1.6.6-3.5 2.1zM581.2-1168.3c-.1-.6-.3-1.3-.6-2 0 0-.4.7-.6 2-1-.8-2.2-1.6-3.5-2.2 0 0 .6 1.7 2.1 3.6-.6.1-1.3.3-2 .6 0 0 .8.3 2 .5-.8 1-1.5 2.2-2.1 3.6 0 0 1.6-.7 3.5-2.2.1.7.3 1.3.6 2 0 0 .3-.8.5-2 1 .8 2.2 1.5 3.6 2.1 0 .1-.7-1.6-2.1-3.4.7-.1 1.3-.3 2-.6 0 0-.8-.4-2-.6.8-1 1.6-2.2 2.2-3.5 0 0-1.6.6-3.6 2.1zM713.9-1128.4c-.1-.6-.2-1.1-.5-1.7 0 0-.3.6-.5 1.7-.9-.7-1.9-1.4-3-1.9 0 0 .5 1.4 1.8 3.1-.6.1-1.1.3-1.7.5 0 0 .7.3 1.7.5-.7.9-1.3 1.9-1.8 3.1 0 0 1.4-.6 3-1.9.1.6.3 1.1.5 1.8 0 0 .3-.7.5-1.7.9.7 1.9 1.3 3.1 1.8 0-.1-.6-1.5-1.9-3.1.6-.1 1.1-.2 1.7-.5 0 0-.6-.3-1.7-.5.7-.9 1.4-1.9 1.9-3 0 0-1.4.5-3.1 1.8zM675.2-1062.3h-.1.1zM674.8-1065.9s-.7-.3-1.8-.6c.8-.9 1.4-2 2-3.2 0 0-1.5.5-3.2 1.9-.1-.6-.3-1.2-.5-1.8 0 0-.3.7-.5 1.8-.9-.8-2-1.4-3.2-2 0 0 .5 1.5 1.9 3.3-.6.1-1.2.3-1.8.5 0 0 .7.3 1.8.5-.7.9-1.4 2-1.9 3.3 0 0 1.5-.6 3.2-2 .1.6.3 1.2.6 1.8 0 0 .3-.7.5-1.8.9.7 1.9 1.4 3.2 1.9-.3-.3-1-1.6-2.1-3.1.6-.1 1.2-.3 1.8-.5zM291.2-1041.3c-.1-.6-.3-1.3-.6-2 0 0-.4.7-.6 2-1-.8-2.2-1.6-3.5-2.2 0 0 .6 1.7 2.1 3.6-.6.1-1.3.3-2 .6 0 0 .8.3 2 .5-.8 1-1.5 2.2-2.1 3.6 0 0 1.6-.7 3.5-2.2.1.7.3 1.3.6 2 0 0 .3-.8.5-2 1 .8 2.2 1.5 3.6 2.1 0 .1-.7-1.6-2.1-3.4.7-.1 1.3-.3 2-.6 0 0-.8-.4-2-.6.8-1 1.6-2.2 2.2-3.5 0 0-1.6.6-3.6 2.1zM95.2-1130.3c-.1-.6-.3-1.3-.6-2 0 0-.4.7-.6 2-1-.8-2.2-1.6-3.5-2.2 0 0 .6 1.7 2.1 3.6-.6.1-1.3.3-2 .6 0 0 .8.3 2 .5-.8 1-1.5 2.2-2.1 3.6 0 0 1.6-.7 3.5-2.2.1.7.3 1.3.6 2 0 0 .3-.8.5-2 1 .8 2.2 1.5 3.6 2.1 0 .1-.7-1.6-2.1-3.4.7-.1 1.3-.3 2-.6 0 0-.8-.4-2-.6.8-1 1.6-2.2 2.2-3.5 0 0-1.6.6-3.6 2.1zM374.7-1115.5c-.1-.8-.4-1.7-.7-2.5 0 0-.5 1-.8 2.5-1.3-1.1-2.8-2-4.5-2.8 0 0 .7 2.1 2.7 4.6-.8.2-1.7.4-2.6.8 0 0 1 .4 2.6.7-1 1.3-1.9 2.8-2.7 4.6 0 0 2.1-.9 4.5-2.8.2.8.4 1.7.8 2.6 0 0 .4-1 .7-2.6 1.3 1 2.8 1.9 4.6 2.7 0 .1-.9-2-2.8-4.4.8-.1 1.7-.4 2.5-.7 0 0-1-.5-2.5-.8 1.1-1.3 2-2.8 2.8-4.5 0 0-2.1.7-4.6 2.6zM68.2-1027.3c-.1-.6-.3-1.3-.6-2 0 0-.4.7-.6 2-1-.8-2.2-1.6-3.5-2.2 0 0 .6 1.7 2.1 3.6-.6.1-1.3.3-2 .6 0 0 .8.3 2 .5-.8 1-1.5 2.2-2.1 3.6 0 0 1.6-.7 3.5-2.2.1.7.3 1.3.6 2 0 0 .3-.8.5-2 1 .8 2.2 1.5 3.6 2.1 0 .1-.7-1.6-2.1-3.4.7-.1 1.3-.3 2-.6 0 0-.8-.4-2-.6.8-1 1.6-2.2 2.2-3.5 0 0-1.6.6-3.6 2.1zM372.8-1136c.2.8.4 1.6.7 2.5 0 0 .4-1 .6-2.4 1.2.9 2.6 1.8 4.4 2.5 0 0-.9-1.9-2.7-4.2.8-.1 1.6-.3 2.4-.7 0 0-.9-.4-2.4-.7 1-1.2 1.9-2.6 2.6-4.3 0 0-2 .7-4.3 2.5-.1-.8-.3-1.6-.7-2.4 0 0-.4.9-.7 2.4-1.2-1-2.6-1.9-4.3-2.6 0 0 .7 2 2.6 4.4-.8.2-1.6.4-2.4.7 0 0 .9.4 2.4.6-1 1.2-1.8 2.6-2.5 4.4 0 0 2-.9 4.3-2.7zM490.5-1229.2c-.2-.9-.4-1.8-.8-2.8 0 0-.5 1-.9 2.8-1.4-1.2-3.1-2.2-5-3 0 0 .8 2.4 3 5.1-.9.2-1.8.4-2.8.8 0 0 1.1.4 2.8.7-1.1 1.4-2.1 3.1-3 5.1 0 0 2.3-1 5-3.1.2.9.4 1.9.9 2.9 0 0 .4-1.1.7-2.8 1.4 1.1 3.1 2.1 5.1 3 0 0-1-2.2-3-4.9.9-.2 1.9-.4 2.8-.8 0 0-1.1-.5-2.8-.9 1.2-1.4 2.2-3.1 3-5 0 0-2.3.8-5 2.9zM182.1-1193.4c1 .8 2.2 1.5 3.6 2.1 0 .1-.7-1.6-2.1-3.4.7-.1 1.3-.3 2-.6 0 0-.8-.4-2-.6.8-1 1.6-2.2 2.2-3.5 0 0-1.6.6-3.6 2.1-.1-.6-.3-1.3-.6-2 0 0-.4.7-.6 2-1-.8-2.2-1.6-3.5-2.2 0 0 .6 1.7 2.1 3.6-.6.1-1.3.3-2 .6 0 0 .8.3 2 .5-.8 1-1.5 2.2-2.1 3.6 0 0 1.6-.7 3.5-2.2.1.7.3 1.3.6 2 0 0 .3-.8.5-2zM415-1139.1c.1.6.3 1.2.6 1.9 0 0 .3-.7.5-1.9.9.7 2 1.4 3.4 2-.2-.1-.8-1.6-2.2-3.3.6-.1 1.2-.3 1.9-.5 0 0-.7-.3-1.8-.6.8-.9 1.5-2 2-3.3 0 0-1.5.5-3.3 1.9-.1-.6-.3-1.2-.5-1.8 0 0-.3.7-.6 1.8-.9-.8-2-1.5-3.3-2 0 0 .5 1.6 2 3.4-.6.1-1.2.3-1.9.6 0 0 .7.3 1.9.5-.7.9-1.4 2-2 3.4 0 0 1.5-.7 3.3-2.1zM252.7-1025.2c-.1-.7-.3-1.4-.6-2.2 0 0-.4.8-.7 2.2-1.1-.9-2.4-1.8-3.9-2.4 0 0 .6 1.9 2.3 4-.7.1-1.5.3-2.2.7 0 0 .9.3 2.2.6-.9 1.1-1.7 2.4-2.3 4 0 0 1.8-.8 3.9-2.5.1.7.4 1.5.7 2.3 0 0 .3-.9.6-2.2 1.1.9 2.4 1.7 4 2.3 0 0-.8-1.8-2.4-3.9.7-.1 1.5-.3 2.2-.6 0 0-.8-.4-2.2-.7.9-1.1 1.8-2.4 2.4-3.9 0 0-1.8.6-4 2.3zM233.6-1169.7c.7-.1 1.3-.3 2-.6 0 0-.8-.4-2-.6.8-1 1.6-2.2 2.2-3.5 0 0-1.6.6-3.6 2.1-.1-.6-.3-1.3-.6-2 0 0-.4.7-.6 2-1-.8-2.2-1.6-3.5-2.2 0 0 .6 1.7 2.1 3.6-.6.1-1.3.3-2 .6 0 0 .8.3 2 .5-.8 1-1.5 2.2-2.1 3.6 0 0 1.6-.7 3.5-2.2.1.7.3 1.3.6 2 0 0 .3-.8.5-2 1 .8 2.2 1.5 3.6 2.1 0 .1-.7-1.6-2.1-3.4zM279.5-1027.1zM206-1113.4c.1.7.3 1.3.6 2 0 0 .3-.8.5-2 1 .8 2.2 1.5 3.6 2.1 0 .1-.7-1.6-2.1-3.4.7-.1 1.3-.3 2-.6 0 0-.8-.4-2-.6.8-1 1.6-2.2 2.2-3.5 0 0-1.6.6-3.6 2.1-.1-.6-.3-1.3-.6-2 0 0-.4.7-.6 2-1-.8-2.2-1.6-3.5-2.2 0 0 .6 1.7 2.1 3.6-.6.1-1.3.3-2 .6 0 0 .8.3 2 .5-.8 1-1.5 2.2-2.1 3.6 0 0 1.6-.7 3.5-2.2zM820.7-1767.3c.1.6.3 1.2.6 1.9 0 0 .3-.7.5-1.9.9.7 2 1.4 3.3 2 .1.1-.5-1.4-1.9-3.2.6-.1 1.2-.3 1.8-.5 0 0-.7-.3-1.8-.6.8-.9 1.5-2 2-3.3 0 0-1.5.5-3.3 1.9-.1-.6-.3-1.2-.5-1.8 0 0-.3.7-.6 1.8-.9-.8-2-1.5-3.3-2 0 0 .5 1.6 2 3.4-.6.1-1.2.3-1.9.6 0 0 .7.3 1.8.5-.7.9-1.4 2-2 3.3 0 0 1.5-.7 3.3-2.1zM110.2-1073.3c-.1-.6-.3-1.3-.6-2 0 0-.4.7-.6 2-1-.8-2.2-1.6-3.5-2.2 0 0 .6 1.7 2.1 3.6-.6.1-1.3.3-2 .6 0 0 .8.3 2 .5-.8 1-1.5 2.2-2.1 3.6 0 0 1.6-.7 3.5-2.2.1.7.3 1.3.6 2 0 0 .3-.8.5-2 1 .8 2.2 1.5 3.6 2.1 0 .1-.7-1.6-2.1-3.4.7-.1 1.3-.3 2-.6 0 0-.8-.4-2-.6.8-1 1.6-2.2 2.2-3.5 0 0-1.6.6-3.6 2.1zM433.4-1113.7c-.1-.7-.3-1.3-.6-2 0 0-.4.8-.6 2-1-.9-2.2-1.6-3.6-2.2 0 0 .6 1.7 2.2 3.7-.7.1-1.3.3-2 .6 0 0 .8.3 2 .5-.8 1-1.6 2.2-2.2 3.7 0 0 1.7-.7 3.6-2.3.1.7.3 1.4.6 2.1 0 0 .3-.8.5-2.1 1 .8 2.2 1.6 3.7 2.2.1 0-.6-1.6-2.1-3.5.7-.1 1.4-.3 2-.6 0 0-.8-.4-2-.6.9-1 1.6-2.2 2.2-3.6 0 0-1.7.6-3.7 2.1zM277.2-1345.3c-.1-.6-.3-1.3-.6-2 0 0-.4.7-.6 2-1-.8-2.2-1.6-3.5-2.2 0 0 .6 1.7 2.1 3.6-.6.1-1.3.3-2 .6 0 0 .8.3 2 .5-.8 1-1.5 2.2-2.1 3.6 0 0 1.6-.7 3.5-2.2.1.7.3 1.3.6 2 0 0 .3-.8.5-2 1 .8 2.2 1.5 3.6 2.1 0 .1-.7-1.6-2.1-3.4.7-.1 1.3-.3 2-.6 0 0-.8-.4-2-.6.8-1 1.6-2.2 2.2-3.5 0 0-1.6.6-3.6 2.1zM379.2-1274.3c-.1-.6-.3-1.3-.6-2 0 0-.4.7-.6 2-1-.8-2.2-1.6-3.5-2.2 0 0 .6 1.7 2.1 3.6-.6.1-1.3.3-2 .6 0 0 .8.3 2 .5-.8 1-1.5 2.2-2.1 3.6 0 0 1.6-.7 3.5-2.2.1.7.3 1.3.6 2 0 0 .3-.8.5-2 1 .8 2.2 1.5 3.6 2.1 0 .1-.7-1.6-2.1-3.4.7-.1 1.3-.3 2-.6 0 0-.8-.4-2-.6.8-1 1.6-2.2 2.2-3.5 0 0-1.6.6-3.6 2.1zM178.1-1340.4c1 .8 2.2 1.5 3.6 2.1 0 .1-.7-1.6-2.1-3.4.7-.1 1.3-.3 2-.6 0 0-.8-.4-2-.6.8-1 1.6-2.2 2.2-3.5 0 0-1.6.6-3.6 2.1-.1-.6-.3-1.3-.6-2 0 0-.4.7-.6 2-1-.8-2.2-1.6-3.5-2.2 0 0 .6 1.7 2.1 3.6-.6.1-1.3.3-2 .6 0 0 .8.3 2 .5-.8 1-1.5 2.2-2.1 3.6 0 0 1.6-.7 3.5-2.2.1.7.3 1.3.6 2 0 0 .3-.8.5-2zM240.2-1143.3c-.1-.6-.3-1.3-.6-2 0 0-.4.7-.6 2-1-.8-2.2-1.6-3.5-2.2 0 0 .6 1.7 2.1 3.6-.6.1-1.3.3-2 .6 0 0 .8.3 2 .5-.8 1-1.5 2.2-2.1 3.6 0 0 1.6-.7 3.5-2.2.1.7.3 1.3.6 2 0 0 .3-.8.5-2 1 .8 2.2 1.5 3.6 2.1 0 .1-.7-1.6-2.1-3.4.7-.1 1.3-.3 2-.6 0 0-.8-.4-2-.6.8-1 1.6-2.2 2.2-3.5 0 0-1.6.6-3.6 2.1zM139.2-1089.3c-.1-.6-.3-1.3-.6-2 0 0-.4.7-.6 2-1-.8-2.2-1.6-3.5-2.2 0 0 .6 1.7 2.1 3.6-.6.1-1.3.3-2 .6 0 0 .8.3 2 .5-.8 1-1.5 2.2-2.1 3.6 0 0 1.6-.7 3.5-2.2.1.7.3 1.3.6 2 0 0 .3-.8.5-2 1 .8 2.2 1.5 3.6 2.1 0 .1-.7-1.6-2.1-3.4.7-.1 1.3-.3 2-.6 0 0-.8-.4-2-.6.8-1 1.6-2.2 2.2-3.5 0 0-1.6.6-3.6 2.1zM342.2-1148.9c-.1-.8-.3-1.6-.7-2.4 0 0-.4.9-.7 2.4-1.2-1-2.6-1.9-4.3-2.6 0 0 .7 2 2.5 4.4-.8.2-1.6.4-2.4.7 0 0 .9.4 2.4.6-.9 1.2-1.8 2.6-2.5 4.3 0 0 2-.9 4.3-2.7.2.8.4 1.6.7 2.5 0 0 .4-1 .6-2.4 1.2.9 2.6 1.8 4.3 2.5.1.1-.7-1.8-2.5-4.1.8-.1 1.6-.3 2.4-.7 0 0-.9-.4-2.4-.7 1-1.2 1.9-2.6 2.6-4.3 0 0-2 .7-4.3 2.5zM94.5-1248.4c.2 1.1.5 2.2 1 3.4 0 0 .5-1.3.9-3.4 1.7 1.3 3.7 2.6 6 3.5.1-.2-1.1-2.9-3.6-6 1.1-.2 2.2-.5 3.3-.9 0 0-1.3-.6-3.3-1 1.4-1.7 2.7-3.7 3.6-5.9 0 0-2.8.9-6 3.5-.2-1.1-.5-2.2-.9-3.3 0 0-.6 1.2-1 3.3-1.7-1.4-3.7-2.7-5.9-3.6 0 0 1 2.8 3.6 6.1-1.1.2-2.2.5-3.4 1 0 0 1.3.5 3.3.9-1.3 1.7-2.6 3.7-3.5 6.1 0 0 2.8-1.2 5.9-3.7zM169.2-1084.3c-.1-.6-.3-1.3-.6-2 0 0-.4.7-.6 2-1-.8-2.2-1.6-3.5-2.2 0 0 .6 1.7 2.1 3.6-.6.1-1.3.3-2 .6 0 0 .8.3 2 .5-.8 1-1.5 2.2-2.1 3.6 0 0 1.6-.7 3.5-2.2.1.7.3 1.3.6 2 0 0 .3-.8.5-2 1 .8 2.2 1.5 3.6 2.1 0 .1-.7-1.6-2.1-3.4.7-.1 1.3-.3 2-.6 0 0-.8-.4-2-.6.8-1 1.6-2.2 2.2-3.5 0 0-1.6.6-3.6 2.1zM507.8-1070s-.7-.4-1.9-.6c.8-1 1.5-2.1 2.1-3.4 0 0-1.6.5-3.4 2-.1-.6-.3-1.2-.5-1.9 0 0-.4.7-.6 1.9-1-.8-2.1-1.5-3.4-2.1 0 0 .5 1.6 2 3.5-.6.1-1.3.3-1.9.6 0 0 .8.3 1.9.5-.8 1-1.5 2.1-2 3.5 0 0 1.6-.7 3.4-2.1.1.6.3 1.3.6 2 0 0 .3-.8.5-1.9 1 .8 2.1 1.5 3.5 2-.1-.1-.8-1.7-2.2-3.5.6-.1 1.3-.3 1.9-.5zM413.6-1031.3s-1.3-.6-3.5-1.1c1.5-1.8 2.8-3.8 3.8-6.2 0 0-2.9 1-6.3 3.6-.2-1.1-.5-2.3-1-3.4 0 0-.6 1.3-1.1 3.4-1.8-1.5-3.8-2.8-6.2-3.8 0 0 1 2.9 3.7 6.4-1.1.2-2.3.6-3.5 1.1 0 0 1.4.5 3.5.9-1.4 1.8-2.7 3.8-3.7 6.3 0 0 2.9-1.3 6.2-3.9.2 1.1.6 2.3 1.1 3.6 0 0 .6-1.4.9-3.5 1.8 1.4 3.8 2.7 6.3 3.7.1 0-1.1-2.8-3.7-6.1 1.1-.2 2.3-.5 3.5-1zM340.3-1083.1c-.1-.8-.4-1.7-.7-2.6 0 0-.5 1-.8 2.6-1.3-1.1-2.9-2.1-4.6-2.8 0 0 .7 2.2 2.8 4.7-.8.2-1.7.4-2.6.8 0 0 1 .4 2.6.7-1 1.3-2 2.9-2.8 4.7 0 0 2.1-.9 4.6-2.9.2.9.4 1.7.8 2.7 0 0 .4-1 .7-2.6 1.3 1 2.9 2 4.7 2.8 0-.2-.9-2.3-2.8-4.7.9-.1 1.7-.4 2.6-.7 0 0-1-.5-2.6-.8 1.1-1.3 2.1-2.8 2.8-4.6 0 0-2.1.7-4.7 2.7z"/></g></svg>